<svg viewBox="0 0 169 159" xmlns="http://www.w3.org/2000/svg" fill-rule="evenodd" clip-rule="evenodd" stroke-linejoin="round" stroke-miterlimit="2" class="art-map"><path d="M9.507 41.787V32.24l-3.975-2.832a.7816.7816 0 01-.321-.744.7816.7816 0 01.509-.63L83.158.047a.7784.7784 0 01.53-.001l78.233 27.987c.269.096.464.33.51.612a.7829.7829 0 01-.29.741l-3.325 2.61v9.791h2.08c.433 0 .784.351.784.783 0 .432-.351.783-.784.783h-2.08v6.706h.007v5.563l-.359.002-3.478 5.067a.784.784 0 01-.411.304v81.656H168.7V158.5H.002v-15.783H13.77V60.893a.7898.7898 0 01-.189-.185l-3.7-5.093-.369-.001v-5.427a.7337.7337 0 01-.005-.081v-6.753H7.43c-.433 0-.784-.351-.784-.783 0-.432.351-.783.784-.783h2.077zm-7.905 102.53V156.9H25.04v-12.583H1.602zm165.498-.067h-23.438v12.65H167.1v-12.65zm-140.46 6.506v6.144h115.422v-6.144H26.64zm0-6.506v4.906h115.422v-4.906H26.64zm-1.641-1.599v-30.129h-9.662v30.129h9.662zm27.362-87.733v-4.029H30.749v4.801l-.339-.001-3.433 5.002a.784.784 0 01-.411.304v81.656h29.979V60.893a.776.776 0 01-.19-.185l-3.644-5.017h-.35v-.701a.8644.8644 0 010-.072zm5.75 57.604v30.129h9.663v-30.129h-9.663zm11.229 26.744v3.385h30.058v-3.385H69.34zm31.625-26.744v30.129h9.662v-30.129h-9.662zm36.595-61.633h-21.183v4.802h-.341l-3.431 5a.784.784 0 01-.411.304v81.656h29.585V60.893a.7898.7898 0 01-.189-.185l-3.617-4.98-.413.003v-4.842zm5.786 61.633v30.129h9.662v-30.129h-9.662zm-43.948-10.89H84.585v36.034h14.813v-36.034zm-16.413 36.034v-36.034H69.34v36.034h13.645zm70.023-76.432h-2.041v49.721h2.041V61.234zm-9.662 0v49.721h2.223V61.234h-2.223zm-32.719 0h-2.04v49.721h2.04V61.234zm-9.662 0v49.721h2.223V61.234h-2.223zm-33.191 0h-2.042v49.721h2.042V61.234zm-9.663 0v49.721h2.223V61.234h-2.223zm-33.112 0h-2.041v49.721h2.041V61.234zm-9.662 0v49.721h2.223V61.234h-2.223zm131.798 0v49.721h2.265V61.234h-2.265zm-42.38 0v49.721h2.265V61.234h-2.265zm-42.854 0v49.721h2.265V61.234h-2.265zm-42.775 0v49.721h2.266V61.234h-2.266zM69.34 88.995v11.037h30.058V88.995H69.34zm25.874-34.077v-4.029H73.523v4.802h-.34l-3.431 5a.7864.7864 0 01-.412.304v26.4h30.058V60.893a.7898.7898 0 01-.189-.185l-3.645-5.017h-.35v-.701a.8644.8644 0 010-.072zm2.32.819l2.708 3.728h11.305l2.558-3.728H97.534zm-42.854 0l2.708 3.728h11.305l2.559-3.728H54.68zm-42.774 0l2.708 3.728h11.305l2.558-3.728H11.906zm128.009 0l2.708 3.728h11.305l2.558-3.728h-16.571zm-25.105-4.848H96.781v3.236h18.029v-3.236zm-42.853 0h-18.03v3.236h18.03v-3.236zm-42.775 0H11.078v3.164l18.104.066v-3.23zm128.003 0h-17.987v3.196l17.987-.091v-3.105zm-127.169-.741v-.565.565zm127.233-5.757v-1.038H11.074v1.038h6.002v1.566h-6.002v3.365h146.175v-3.365h-6.177v-1.566h6.177zM56.232 45.957h7.942v-1.566h-7.942v1.566zm16.032 0h7.941v-1.566h-7.941v1.566zm15.818 0h7.942v-1.566h-7.942v1.566zm31.495 0h7.941v-1.566h-7.941v1.566zm15.818 0h7.942v-1.566h-7.942v1.566zm-31.565 0h7.941v-1.566h-7.941v1.566zm-79.092 0h7.942v-1.566h-7.942v1.566zm15.747 0h7.942v-1.566h-7.942v1.566zm115.816-4.17h.948v-9.486H11.074v9.486h.966v-8.19h1.567v8.19h.965v-8.19h1.567v8.19h9.197v-8.19h1.567v8.19h.965v-8.19h1.567v8.19h.965v-8.19h1.567v8.19h9.198v-8.19h1.567v8.19h.965v-8.19h1.567v8.19h.965v-8.19h1.567v8.19h9.197v-8.19h1.567v8.19h.966v-8.19h1.567v8.19h.965v-8.19h1.567v8.19h9.197v-8.19h1.567v8.19h.966v-8.19h1.566v8.19h.966v-8.19h1.566v8.19h9.198v-8.19h1.567v8.19h.966v-8.19h1.566v8.19h.966v-8.19h1.566v8.19h9.198v-8.19h1.566v8.19h.966v-8.19h1.566v8.19h.966v-8.19h1.567v8.19h9.198v-8.19h1.566v8.19h.965v-8.19h1.567v8.19h.966v-8.19h1.567v8.19h9.197v-8.19h1.567v8.19h.965v-8.19h1.567v8.19h.966v-8.19h1.567v8.19h9.433v-8.19h1.566v8.19h.967v-8.19h1.566v8.19zm1.716-11.155l2.041-1.602L83.426 1.615 7.658 28.999l2.447 1.743L82.96 4.727a.7961.7961 0 01.532-.002l74.525 25.907zm-143.041.069h138.371L83.232 6.328 14.976 30.701zm118.237-3.023c.384 0 .712-.278.773-.657a.7839.7839 0 00-.525-.869L83.719 9.566a.7806.7806 0 00-.503.002l-48.22 16.587a.7826.7826 0 00.254 1.523h97.963zm-93.278-1.566h88.454L83.475 11.135l-43.54 14.977z"/></svg>