<svg viewBox="0 0 368 166" xmlns="http://www.w3.org/2000/svg" fill-rule="evenodd" clip-rule="evenodd" stroke-linejoin="round" stroke-miterlimit="2" class="art-map-4"><path d="M138.474 61.548c5.093-2.952 10.95-4.714 17.225-4.886 8.034-.22 15.513 2.108 21.688 6.234v-5.739h9.984v-13.5h15.6V24.282h15.854V9.016h17.025V.207h65.013v12.625h29.359v17.321h17.029v38.75h19.963v96.127l-.794.006s-39.438.331-47.155.227c-.903-.012-1.434-.055-1.512-.079-.146-.043-.253-.109-.331-.181l-14.383-9.74v-86.95c0-19.083-15.346-34.581-34.375-34.822l-.451-.003c-19.233 0-34.821 15.592-34.821 34.827l-.33 87.407-14.918 9.409-.072-.114-.001.094H192.35v-.053l-.05.072-10.487-7.243V94.689c0-13.834-11.217-25.046-25.05-25.046-3.503 0-6.838.719-9.866 2.017l-.288.144-.007-.015c-8.77 3.897-14.885 12.684-14.885 22.901l-.24 63.939-10.362 6.819-.019-.028H94.008v-.042l-10.397-7.502V94.688c0-13.829-11.217-25.046-25.046-25.046-13.837 0-25.046 11.217-25.046 25.047l-.244 62.799-10.973 7.06-.031-.047c-.428.185-1.007.028-1.189-.55L-.186 87.103h7.15v-5.886h16.637c5.18-13.911 18.178-24.127 33.751-24.555 9.193-.252 17.66 2.832 24.28 8.129h24.121v-5.283h10.389l.042 1.763h3.66v-5.288h18.63v5.565zm-18.937 96.735H95.608v5.537h23.929v-5.537zm199.239-6.755v12.125c.155.004.328.008.51.01 4.674.063 20.99-.033 33.118-.12v-12.014h-21.555v-.001h-12.073zm35.228 6.315v5.689c5.47-.039 9.877-.075 11.61-.089v-5.6h-11.61zm-232.867 5.675l8.744-5.753.018-4.986h-8.762v10.739zm95.367-5.235H193.95v5.228h22.529l.025-5.228zm-122.496-5.504h-8.797v4.279l8.797 6.347v-10.626zM218.08 163.28l13.385-8.442.027-7.123h-13.338l-.074 15.565zm-25.73-10.501h-8.937v4.269l8.937 6.172v-10.441zm124.826-5.064h-12.537v6.699l12.537 8.49v-15.189zM22.79 162.331l8.889-5.718.064-16.514H22.79v22.232zm-1.144-73.628H1.917l19.273 69.643v-63.73c0-2.005.156-3.98.456-5.913zm172.304 57.251v10.729h22.561l.052-10.729H193.95zm-98.342 2.347v8.382h23.929v-8.382H95.608zm270.006 7.942v-14.695h-7.543v.001H331.65v8.38h22.354v6.314h11.61zm-173.264-5.064v-11.08h-8.937v11.08h8.937zm-71.213 0h8.768l.042-11.08h-8.81v11.08zm-27.129 0v-11.08h-8.797v11.08h8.797zm224.768-1.251h11.274v-9.979h26.421v-6.621h-7.046v-4.06h-9.453v5.529h-21.196v15.131zM95.608 134.21v12.491h23.929V134.21H95.608zm221.568 11.905v-7.171h-12.537v7.171h12.537zm-99.014 0h13.336l.027-7.171h-13.329l-.034 7.171zm-24.212-11.611v9.85h22.62l.047-9.85H193.95zm171.664 5.444v-6.626h-7.543v6.626h7.543zm-173.264-1.449V127.42h-8.937v11.079h8.937zm-71.213 0h8.816l.041-11.079h-8.857v11.079zm-27.129 0V127.42h-8.797v11.079h8.797zm-71.218 0h8.959l.043-11.079H22.79v11.079zm294.386-1.155v-7.171h-12.537v7.171h12.537zm-98.972 0h13.327l.027-7.171h-13.32l-.034 7.171zm100.572-4.147h19.596v-5.529h11.053v-3.148h-21.138v-10.409h7.634v-9.554h-9.396v-7.361h-7.749v36.001zM193.95 122.466v10.438h22.675l.05-10.438H193.95zm-98.342.295v9.849h23.929v-9.849H95.608zm270.006-7.048h-14.588v8.007h-.001v8.008h4.819v-.006h9.77v-16.009zm-48.438 12.86v-7.172h-12.537v7.172h12.537zm-98.896-7.172l-.034 7.172h13.318l.027-7.172H218.28zm-25.93 4.419v-11.081h-8.937v11.081h8.937zm-71.213 0H130l.042-11.081h-8.905v11.081zm-27.129 0v-11.081h-8.797v11.081h8.797zm-71.218 0h9.008l.043-11.081H22.79v11.081zm313.931-10.109h-6.834v7.209h19.539v-7.207h-12.705v-.002zm-241.113-7.042v12.492h23.929v-12.492H95.608zm98.342 1.174v11.023h22.732l.053-11.023H193.95zm123.226 9.958v-7.17h-12.537v7.17h12.537zm-98.889 0h13.31l.028-7.17h-13.304l-.034 7.17zm147.327-5.688v-9.557h-28.093v9.557h28.093zm-173.264-.974v-10.905h-8.937v10.905h8.937zm-71.213 0h8.911l.041-11.08h-8.952v11.08zm-27.129 0v-10.905h-8.797v10.905h8.797zm-71.218 0h9.057l.043-11.08h-9.1v11.08zm294.386-2.108v-7.171h-12.537v7.171h12.537zm-98.847 0h13.302l.027-7.171h-13.295l-.034 7.171zM193.95 96.339v11.904h22.792l.057-11.904H193.95zM95.608 94.87v12.199h23.929V94.87H95.608zm270.006-5.579h-37.489v13.666h8.596v-.001h28.893V89.291zm-48.438 12.969v-7.171h-12.537v7.171h12.537zm-98.771-7.171l-.034 7.171h13.293l.027-7.171h-13.286zm-26.211-4.584l-3.697.671v.014c.021.43.032.86.033 1.29v8.154h3.82v-6.777c0-1.13-.053-2.247-.156-3.352zm-98.333.103l-3.733.679c.017.395.026.793.026 1.193v8.154h3.854v-6.777c0-1.096-.05-2.18-.147-3.249zm93.047.857l-3.617.657c.081.845.122 1.701.122 2.567v5.945h3.516V92.48c0-.34-.007-.679-.021-1.015zm-98.37.11l-3.442.626c.076.819.115 1.648.115 2.487v5.946h3.343V92.48c0-.303-.005-.605-.016-.905zm32.818-.975a36.7984 36.7984 0 00-.219 4.016v5.843h3.452l.24-7.993c.001-.398.01-.796.028-1.194l.002-.035-3.503-.637zm-98.335-.104c-.153 1.355-.231 2.73-.231 4.12v5.843h4.036l.24-7.993c.001-.398.01-.796.028-1.194l.002-.035-4.075-.741zm107.209 1.717l-3.782-.687c-.013.32-.019.642-.019.966l-.239 7.967h3.905l.022-5.77c0-.835.038-1.66.113-2.476zm-98.19-.078l-3.355-.61c-.012.321-.019.643-.019.967l-.239 7.967h3.469l.023-5.771c0-.861.041-1.712.121-2.553zm286.736 3.461h7.749v-7.905h5.179V73.788h-12.928v21.808zM190.195 77.547c2.405 4.925 3.755 10.46 3.755 16.31v.882h22.857l.082-17.192h-26.694zm126.981 15.942v-7.17h-12.537v7.17h12.537zm-98.763 0h13.284l.027-7.17h-13.277l-.034 7.17zm-97.211-10.068H94.124c.913 3.131 1.426 6.434 1.479 9.849h23.958c.118-3.402.684-6.707 1.641-9.849zm7.609-1.565c-.209.449-.405.905-.588 1.366-.341.855-.636 1.729-.883 2.617-.236.85-.428 1.714-.574 2.585-.08.483-.146.969-.198 1.456l-.005.04 3.862.702.005-.033c.06-.384.127-.767.203-1.149.148-.742.328-1.478.54-2.204.216-.745.466-1.481.747-2.205.143-.365.293-.728.451-1.087l.012-.026-3.559-2.09-.013.028zm-42.536.068l-3.345 1.964c.937 2.11 1.609 4.366 1.971 6.722l3.529-.641-.001-.009c-.047-.473-.107-.944-.181-1.413a25.594 25.594 0 00-.554-2.63c-.237-.887-.52-1.761-.848-2.619-.177-.46-.366-.916-.568-1.367l-.003-.007zm-55.214-.096c-1.179 2.532-1.963 5.25-2.26 8.092l3.438.625c.374-2.398 1.068-4.69 2.036-6.83l-3.214-1.887zm153.388-.146l-3.408 2.001a26.4441 26.4441 0 012.049 6.849l3.699-.672-.004-.034c-.054-.487-.121-.972-.203-1.455-.153-.899-.357-1.79-.608-2.667-.257-.9-.565-1.785-.919-2.651-.188-.459-.389-.913-.602-1.362l-.004-.009zm-93.578-2.457l-3.215 1.888.008.019c.216.474.419.954.609 1.439.358.917.668 1.852.927 2.802.249.912.451 1.837.603 2.771.083.509.151 1.021.205 1.535l.001.003 3.671-.667a35.3304 35.3304 0 00-2.809-9.79zm33.611.054a36.6666 36.6666 0 00-2.917 9.733l3.42.622c.332-3.027 1.185-5.922 2.461-8.615l-2.964-1.74zm-98.222-.27a36.7257 36.7257 0 00-3.026 9.9l3.988.724c.332-3.026 1.185-5.921 2.461-8.614l-3.423-2.01zm162.832-.054l-3.269 1.92c1.315 2.716 2.197 5.64 2.543 8.699l3.643-.662a35.3854 35.3854 0 00-2.917-9.957zm144.212 1.384v7.352h19.538v-7.354h-15.933v.002h-3.605zm32.31-.002h-11.172v7.354h11.172v-7.354zm-357.05 2.48v4.286h13.26v.554c.303-1.651.713-3.267 1.221-4.84H8.564zm308.612 1.902v-7.172h-12.537v7.172h12.537zm-98.721 0h13.275l.027-7.172h-13.268l-.034 7.172zm-83.52-11.403c-2.151 2.088-3.984 4.472-5.392 7.079l3.534 2.075.01-.02c.192-.369.391-.734.6-1.095.422-.729.879-1.438 1.369-2.124.488-.684 1.008-1.345 1.558-1.98.279-.323.566-.638.86-.947l.003-.003-2.542-2.985zm-55-.328l-2.512 2.878a26.7056 26.7056 0 014.811 6.575l3.341-1.962c-1.447-2.777-3.367-5.304-5.64-7.491zm-42.778.343c-.349.339-.69.686-1.022 1.041-.673.719-1.31 1.47-1.909 2.251-.604.789-1.169 1.61-1.689 2.458-.259.423-.506.853-.743 1.289l-.013.025 3.2 1.879.001-.002c.2-.379.41-.754.628-1.124.429-.725.892-1.43 1.387-2.111.51-.701 1.053-1.378 1.629-2.026.282-.319.573-.631.871-.936l.013-.014-2.338-2.745-.015.015zm140.619-.568l-2.403 2.853a26.7502 26.7502 0 014.96 6.627l3.384-1.987c-1.536-2.785-3.562-5.314-5.941-7.493zm-53.142 2.732h-16.946v6.326h14.04c.78-2.205 1.755-4.321 2.906-6.326zm-33.866 0a36.9203 36.9203 0 012.849 6.326h12.471v-6.326h-15.32zm-7.127-6.753l-2.662 3.05c2.402 2.299 4.433 4.958 5.97 7.88l3.229-1.896c-1.699-3.35-3.912-6.396-6.537-9.034zm47.736.396c-2.464 2.566-4.556 5.498-6.195 8.697l2.99 1.755c1.5-2.756 3.449-5.277 5.735-7.481l-2.53-2.971zm-98.035-.32c-2.53 2.571-4.682 5.522-6.37 8.753l3.438 2.019.016-.03c.251-.459.514-.912.789-1.358a30.49 30.49 0 011.817-2.625 31.62 31.62 0 012.022-2.366c.352-.373.713-.738 1.082-1.095l.008-.007-2.802-3.291zm148.194-.52l-2.742 3.255c2.517 2.296 4.66 4.962 6.291 7.9l3.302-1.939a35.731 35.731 0 00-6.851-9.216zm164.115-4.693h-13.945v-5.3H318.68v6.776h-.002c.065 1.058.098 2.122.098 3.193v3.914h14.528v6.551h2.804v-9.835h9.543v-5.299zm.799 6.898v.001h-8.742v8.233h27.906v-8.234H346.45zm-29.274 5.444V69.77h-5.89v6.177h5.89zm-134.397-8.672c2.596 2.543 4.821 5.463 6.586 8.672h9.747v-8.672h-16.333zm126.907 2.495h-5.047v6.177h5.047V69.77zm-87.749-24.518h-11.829v10.571h-9.396v20.124h16.184l.042-8.665c0-7.892 1.795-15.365 4.999-22.03zm9.826 30.695l.024-6.177h-5.582l-.021 6.177h5.579zm-13.267 0h6.088l.021-6.177h-6.079l-.03 6.177zm-74.263-8.897c-2.96 1.313-5.71 3.071-8.121 5.181l2.507 2.943c2.127-1.979 4.579-3.615 7.267-4.818l-1.653-3.306zm-97.938.078c-2.894 1.305-5.583 3.035-7.945 5.103l2.315 2.718.011-.011c.356-.322.72-.634 1.092-.937a26.68 26.68 0 012.298-1.673c.776-.504 1.578-.968 2.402-1.389.42-.214.846-.417 1.277-.609l.008-.004-1.458-3.198zm24.081-.409l-1.662 3.325c2.783 1.148 5.329 2.753 7.545 4.723l2.494-2.858-.01-.008c-.41-.354-.829-.698-1.256-1.031a31.2333 31.2333 0 00-2.862-1.978 31.2023 31.2023 0 00-4.211-2.157l-.038-.016zm97.78-.036l-1.607 3.214c2.815 1.112 5.395 2.689 7.645 4.636l2.375-2.82c-2.513-2.078-5.363-3.786-8.413-5.03zm-31.282-4.154v-4.946h-15.43v5.288h-5.25v11.024h9.411c2.913-4.547 6.757-8.437 11.269-11.366zM83.5 66.391a37.4024 37.4024 0 016.305 7.504h6.596v-7.504H83.5zm31.111-3.974l-.031-1.309h-7.227v5.283h-9.352v7.504h16.593V62.417h.017zm26.956-.702c-3.341 1.617-6.389 3.75-9.053 6.291l2.572 3.02.018-.016c.412-.359.832-.709 1.261-1.048a33.8891 33.8891 0 015.744-3.664c.464-.234.934-.457 1.408-.67l.005-.002-1.955-3.911zm-97.848-.238c-3.4 1.581-6.507 3.691-9.228 6.223l2.832 3.326.018-.016c.412-.359.832-.709 1.261-1.048.909-.718 1.856-1.39 2.835-2.011a33.8423 33.8423 0 014.188-2.265l.011-.004-1.917-4.205zm29.322-.087l-1.951 3.902a32.8546 32.8546 0 018.706 5.422l2.69-3.082c-2.778-2.552-5.962-4.669-9.445-6.242zm97.868-.212l-2.04 4.079.04.017c.481.2.959.411 1.431.632.986.464 1.949.974 2.886 1.53 1.043.617 2.052 1.29 3.023 2.015.453.338.897.688 1.332 1.047l.006.005 2.775-3.295c-2.794-2.478-5.98-4.523-9.453-6.03zm-15.408 3.219c-3.366.129-6.675.842-9.786 2.039l1.654 3.309c2.547-.959 5.281-1.54 8.132-1.673v-3.675zm-97.787.001c-.574.023-1.147.062-1.718.118-1.109.109-2.212.28-3.301.512-1.131.239-2.247.543-3.344.907-.526.174-1.047.363-1.563.565l-.018.007 1.465 3.214c2.659-.994 5.52-1.576 8.504-1.667v-3.657l-.025.001zm1.625-.018v3.673c2.748.078 5.391.573 7.87 1.423l1.669-3.338c-3.03-1.086-6.251-1.702-9.539-1.758zm97.762 0v3.665h.006c.456.006.912.023 1.367.052.855.054 1.707.149 2.553.285.887.143 1.767.33 2.634.562.45.12.896.253 1.338.396l.034.011 1.619-3.238c-3.056-1.07-6.283-1.678-9.551-1.733zm159.626-2.825l-5.498.999c.038.677.057 1.36.057 2.047v3.569h5.89a50.614 50.614 0 00-.449-6.615zm-97.862.017a49.845 49.845 0 00-.327 5.712l-.005.886h6.078l.012-3.569c0-.656.018-1.312.054-1.967v-.005l-5.812-1.057zm7.398 1.357c-.026.557-.04 1.115-.04 1.673l-.012 3.568h5.582v-.034c.004-.682.025-1.365.066-2.046.042-.693.104-1.384.184-2.074l.006-.047-5.785-1.052-.001.012zm83.379-.086l-5.28.96c.177 1.432.271 2.889.276 4.367h5.048v-3.569c0-.589-.015-1.175-.044-1.758zm-82.086-26.687h-22.985v9.101h-15.6v13.5h-9.984v5.27c.704.525 1.389 1.075 2.052 1.648h18.073V54.223h9.396V43.652h14.233a51.0585 51.0585 0 014.815-7.496zM57.739 58.254c-.114.001-.228.004-.343.007-4.318.119-8.428 1.025-12.21 2.576l1.923 4.22c3.368-1.335 6.966-2.127 10.63-2.261v-4.542zm97.762.015c-4.425.152-8.629 1.13-12.478 2.781L145 65.006c3.332-1.304 6.884-2.078 10.501-2.21v-4.527zm-96.162-.009v4.52h.039c.573.011 1.146.036 1.718.079 1.121.083 2.236.227 3.341.431a31.64 31.64 0 013.434.836c.569.172 1.133.361 1.692.564l.033.012 1.97-3.939c-3.799-1.513-7.917-2.391-12.227-2.503zm97.762-.011v4.531h.039c.575.011 1.149.037 1.722.079 1.142.084 2.28.232 3.406.44 1.154.213 2.297.49 3.421.827.561.168 1.118.352 1.67.549l.01.004 2.053-4.107c-3.831-1.461-7.983-2.28-12.321-2.323zm70.17-2.081a34.757 34.757 0 00-.891 5.144l5.892 1.071.002-.012c.118-.71.255-1.417.413-2.119.157-.696.336-1.387.533-2.073l.008-.025-5.957-1.986zm81.365-.136l-5.516 1.84c.423 1.414.762 2.865 1.011 4.346l5.395-.98-.002-.027c-.084-.864-.198-1.725-.344-2.581-.148-.868-.329-1.731-.541-2.586l-.003-.012zm37.015-10.778h-16.229v-.002l-10.742.074v11.379h14.626v5.3h12.345V45.254zm-125.268 8.617c-.561 1.99-1 4.03-1.309 6.113l5.727 1.041.002-.013c.089-.887.212-1.772.367-2.651.159-.903.353-1.8.58-2.689l.003-.01-5.37-1.791zm94.695.013l-4.923 1.642.006.022c.226.898.419 1.805.578 2.718.155.889.276 1.783.366 2.681v.004l5.383-.979a50.2523 50.2523 0 00-1.41-6.088zm-85.381-4.433a37.267 37.267 0 00-1.109 2.576c-.326.845-.621 1.703-.883 2.571l-.007.025 6.009 2.004a36.223 36.223 0 011.586-3.916l-5.586-3.281-.01.021zm76.497-.255l-5.261 3.09.018.037a36.1203 36.1203 0 011.665 3.991l.013.035 5.586-1.863-.001-.005a36.903 36.903 0 00-.898-2.652c-.339-.889-.713-1.764-1.118-2.624l-.004-.009zm1.731-12.747c4.205 5.474 7.36 11.805 9.155 18.656V43.737l11.542-.08v-7.208h-20.697zm-84.458 9.315a48.9988 48.9988 0 00-2.624 6.574l5.341 1.781.004-.011c.28-.922.595-1.833.944-2.73.361-.926.758-1.837 1.189-2.732l.011-.024-4.865-2.858zm88.443.075l-4.339 2.548.001.001c.434.911.835 1.839 1.198 2.781.353.916.67 1.846.952 2.786l.008.026 4.867-1.623a50.8144 50.8144 0 00-2.687-6.519zm-79.058-1.817c-.371.536-.73 1.081-1.075 1.634-.473.759-.92 1.535-1.34 2.325l-.009.017 5.584 3.28a36.547 36.547 0 012.032-3.378l-5.184-3.89-.008.012zm70.179-.306l-4.962 3.723c.77 1.099 1.48 2.242 2.127 3.425l5.282-3.103-.024-.047a39.078 39.078 0 00-1.134-2.005c-.408-.675-.836-1.337-1.284-1.986l-.005-.007zm-76.015-4.09a49.276 49.276 0 00-2.825 4.708l4.867 2.859.009-.017c.374-.699.768-1.388 1.182-2.064.426-.695.873-1.377 1.339-2.046l.004-.007-4.576-3.433zm81.32.11l-4.034 3.026.011.016c.389.562.764 1.133 1.125 1.713.499.804.97 1.624 1.412 2.46l.001.003 4.324-2.539a51.1392 51.1392 0 00-2.839-4.679zm-70.016-2.093c-.268.256-.532.515-.793.778-.55.553-1.084 1.121-1.603 1.703-.49.551-.965 1.114-1.425 1.689l-.7.901 5.172 3.881.024-.032c.523-.701 1.07-1.384 1.642-2.046.583-.675 1.192-1.329 1.822-1.96l.027-.027-4.165-4.888-.001.001zm59.184-.383l-4.067 4.773a36.639 36.639 0 013.686 4.116l4.973-3.732c-1.379-1.839-2.919-3.564-4.592-5.157zm32.718 6.394h15.429V31.753h-15.429v11.901zm-96.761-11.716a49.6505 49.6505 0 00-5.525 6.378l4.596 3.448.713-.917c.492-.615 1-1.217 1.524-1.804.54-.605 1.096-1.195 1.668-1.77.272-.272.547-.541.825-.807l.032-.03-3.833-4.498zm68.462.136l-3.389 3.977.881.86c.567.568 1.118 1.152 1.653 1.751.534.597 1.051 1.21 1.55 1.836.249.313.494.629.735.949l.013.018 4.047-3.036a51.0196 51.0196 0 00-5.49-6.355zm-50.672-3.028c-.325.142-.647.288-.969.438-.622.29-1.238.595-1.847.913-.626.328-1.245.671-1.855 1.028l-.926.557 3.413 5.289-1.345.868-3.414-5.292-.05.033c-.842.565-1.666 1.158-2.469 1.779-.783.606-1.546 1.239-2.288 1.896l-.002.002 4.146 4.866.038-.036c.526-.478 1.064-.941 1.616-1.389a36.4353 36.4353 0 013.422-2.46c1.13-.718 2.3-1.373 3.503-1.961.629-.309 1.268-.598 1.914-.869l.009-.004-2.841-5.682-.055.024zm40.196 3.409l-3.414 5.291c1.486.966 2.898 2.037 4.225 3.204l4.066-4.772-.034-.029c-.75-.66-1.523-1.296-2.318-1.903a44.194 44.194 0 00-2.502-1.776l-.023-.015zm-7.084-3.77l-2.853 5.706a36.156 36.156 0 015.162 2.513l3.421-5.303a43.5638 43.5638 0 00-5.73-2.916zm-44.18-2.231a49.5484 49.5484 0 00-5.556 4.385l3.846 4.514a45.9786 45.9786 0 014.976-3.837l-3.266-5.062zm55.065.109l-2.94 4.558a45.0328 45.0328 0 015.045 3.85l3.409-4.001a50.5828 50.5828 0 00-5.514-4.407zm33.374-1.86h-33.276c4.237 2.806 8.045 6.233 11.3 10.146h21.976V24.703zm-108.197 1.179h-4.699v8.674h13.12a51.2184 51.2184 0 019.364-8.676h-17.785v.002zm-15.854 0v8.674h9.555v-8.674h-9.555zm54.698.536c-2.212.494-4.38 1.162-6.482 1.99l2.855 5.708.048-.018c.823-.3 1.656-.572 2.498-.813a36.993 36.993 0 012.518-.622l.032-.007-1.469-6.238zm17.012-.21l-1.478 6.275.027.004c.873.161 1.739.352 2.597.576.85.222 1.692.475 2.524.757l.047.016 2.872-5.743a42.314 42.314 0 00-6.589-1.885zm-9.224-.776c-2.094.064-4.174.29-6.22.667l1.475 6.265c1.55-.253 3.134-.408 4.745-.458v-6.474zm1.6-.017v6.476h.027c.759.01 1.518.043 2.275.099.747.056 1.493.135 2.236.236l.024.003 1.485-6.304a40.5506 40.5506 0 00-6.047-.51zm-20.774-3.238c-2.211.98-4.337 2.118-6.362 3.4l3.273 5.073a46.6232 46.6232 0 015.8-3.052l-2.711-5.421zm39.706.055l-2.513 5.025c2.035.86 4.001 1.867 5.879 3.008l2.961-4.589a49.114 49.114 0 00-6.327-3.444zm-30.056-3.185a48.9997 48.9997 0 00-8.174 2.504l2.714 5.428c2.212-.881 4.497-1.592 6.83-2.115l-1.37-5.817zm20.434.002l-1.32 5.603.016.003a43.9017 43.9017 0 015.915 1.635l1.008.37 2.532-5.064a47.9497 47.9497 0 00-8.151-2.547zm-10.91-1.078l-.162.003a49.609 49.609 0 00-7.791.765l1.367 5.803.024-.004c1.093-.203 2.195-.365 3.301-.484 1.077-.115 2.159-.189 3.242-.222l.019-.001v-5.86zm1.6.001v5.843h.028c1.061.011 2.122.061 3.179.151 1.072.092 2.14.225 3.202.398l.005.001 1.325-5.629a47.9134 47.9134 0 00-7.739-.764zm-31.207-7.356h-7.632V24.28h10.76a50.668 50.668 0 0110.833-5.201v-8.464H237.45v.001zM220.425 24.28h7.793V10.616h-7.793V24.28zm55.778-13.665v6.463c5.969 1.025 11.591 3.123 16.668 6.085v-.06h13.731v-8.671h-7.339v-3.817h-23.06zm31.999 12.488h20.42v-8.671h-20.42v8.671zm-33.599-6.273v-6.215h-21.592v7.948c4.395-1.338 9.043-2.097 13.853-2.189 2.629-.05 5.214.107 7.739.456zm24.66-15.023h-12.784v7.208h12.784V1.807zm-61.813 0v7.208h6.621V1.807h-6.621zm27.759 0h-19.538v7.208h19.538V1.807zm19.67 0h-18.07v7.208h18.07V1.807z"/></svg>