<svg viewBox="0 0 244 191" xmlns="http://www.w3.org/2000/svg" fill-rule="evenodd" clip-rule="evenodd" stroke-linejoin="round" stroke-miterlimit="2" class="art-map-9"><path d="M168.973 77.401l6.853-12.923 15.369-4.612a.785.785 0 01.291-.031l.001-6.602h1.553V34.202l23.578 5.099-21.995 5.121v8.811h1.274l.053 6.525 15.192 4.808h.228l.283.318c.564.651 6.107 7.215 8.362 16.423.01.009.02.017.03.026l19.422 17.481 1.652-.949 2.181 3.273-19.295 11.463 6.328-.856v9.981h-9.369v2.543l-.72.066s-2.317.229-7.168 2.338c-1.864.811-3.122 1.639-4.013 2.709-1.366 1.64-1.876 3.815-2.498 7.171-.388 2.096-.33 6.051-.622 10.911a.737.737 0 01-.011.182c-.116 1.893-.287 3.92-.558 6.026-.997 7.76-3.34 16.567-9.214 23.771-11.525 14.138-24.771 13.625-25.478 13.587h-66.354a.7432.7432 0 01-.177.015l-.487-.015H25.01l-11.448-33.219 2.833-3.27-4.81-13.913c-.282-.043-.42-.066-.42-.066a.82.82 0 01-.098-.023l-2.962-.411L0 117.407l22.082 2.183c1.355-3.92 6.879-20.989 8.149-42.077 1.274-21.225 2.187-27.312 2.187-27.312l.252-1.685 18.915 21.515v-3.416a.758.758 0 01-.07-.069L33.122 46.075c-.292-.325-.265-.826.06-1.118a.7909.7909 0 011.117.06l17.286 19.238v-5.574h1.8V39.903l23.577 5.098-21.994 5.122v8.558h.816v10.951c.026.024.05.049.072.076l7.455 9.048L85.75 43.817h-2.648c-.437 0-.791-.355-.791-.792 0-.437.354-.791.791-.791h4.265l25.156-7.687h-3.629v-8.995h5.016v-6.753h1.911V0l23.578 5.098-21.995 5.122v8.579h2.009v6.753h5.667v8.995h-4.202l32.406 7.377a.784.784 0 01.226.089h3.682c.437 0 .792.355.792.792 0 .437-.355.792-.792.792h-37.779v1.572h35.384c.255 0 .494.122.642.329 0 0 8.85 12.282 13.534 31.903l1.86 9.857c.027.198.054.396.08.594.058.443.111.886.16 1.33.16 1.438.275 2.88.351 4.324l.001.028 3.915 4.539 6.851-5.957-11.558-14.467-1.124 2.12.006.026c.286 1.334.551 2.699.792 4.094l.028.161.028.163.021.125.036.218.007.039.054.332.045.279.007.04.005.032.011.073.023.146.014.088.009.059.009.058.014.086.022.149.011.073.005.03c.017.112.034.223.05.335l.043.294.006.042.005.031.019.137.012.085.008.056.018.128.016.112v-.002l-.016-.11-.023-.163-.015-.106-.024-.168-.049-.336-.05-.335-.016-.103-.036-.235-.018-.117-.037-.234-.016-.105-.045-.276-.007-.043-.054-.332-.007-.039-.05-.297-.007-.046-.053-.308-.003-.016c-.237-1.37-.501-2.734-.792-4.094-.174-.809-.354-1.606-.542-2.394zm-144.56 77.516l4.316 14.285.498.449c.192.166.386.329.583.488.498.404 1.01.792 1.531 1.167.669.484 1.354.947 2.048 1.394.781.502 1.575.984 2.379 1.448a69.423 69.423 0 003.128 1.697c1.139.582 2.292 1.135 3.456 1.662 2.642 1.196 5.342 2.261 8.078 3.221 3.538 1.241 7.138 2.306 10.772 3.229 4.119 1.045 8.284 1.908 12.473 2.622 4.46.76 8.95 1.351 13.452 1.802 5.481.549 10.981.89 16.486 1.064l.076.002h67.041l.026.002s12.925.797 24.177-13.007c5.189-6.363 7.5-14.031 8.595-21.028-4.892 2.229-24.857 9.653-76.632 11.366-52.334 1.737-95.72-9.936-102.483-11.863zm5.149 17.041l5.285 17.489h47.536l-.038-.005c-3.81-.467-7.607-1.039-11.382-1.737-2.683-.496-5.356-1.056-8.011-1.688-2.724-.648-5.431-1.373-8.111-2.185-2.464-.747-4.906-1.568-7.316-2.476-1.913-.721-3.806-1.497-5.67-2.336-1.673-.754-3.324-1.559-4.942-2.425-1.336-.715-2.65-1.471-3.933-2.279-1.159-.73-2.294-1.503-3.385-2.333l-.033-.025zm-16.212-31.07l4.84 13.999-2.834 3.271 10.783 31.289h7.054l-12.142-40.182a.7892.7892 0 01-.104-.344l-2.214-7.327c-2.356-.289-4.141-.53-5.383-.706zm190.93 7.798c-5.63 2.046-31.502 10.488-77.397 11.376-47.319.916-95.446-8.401-103.98-10.141l.965 3.193c.029.006.058.013.086.021 0 0 46.163 13.946 102.889 12.063 56.741-1.878 74.91-10.594 76.954-11.673.003-.019.005-.037.007-.055.213-1.652.364-3.256.476-4.784zm.349-7.592c-3.467.986-6.983 1.793-10.522 2.472-1.788.343-3.582.653-5.38.934-1.887.295-3.778.559-5.673.795-1.888.234-3.78.441-5.674.622-1.784.17-3.569.317-5.356.441-1.516.106-3.033.195-4.551.267-1.263.059-2.526.106-3.79.135l-.055.001-.01.025-73.824.34-.687 2.693c.556.282.975.793 1.135 1.408l2.875.288c.435.043.753.431.709.866-.043.435-.431.753-.866.709l-2.896-.29c-.367.702-1.102 1.182-1.951 1.182-1 0-1.844-.672-2.109-1.588l-3.221-.322c-.375.675-1.095 1.133-1.924 1.133-.98 0-1.811-.646-2.093-1.535l-4.386-.439c-.305.846-1.116 1.452-2.07 1.452-1.104 0-2.018-.815-2.173-1.877l-.495-.049c-.434-.044-.752-.432-.709-.867a.7929.7929 0 01.867-.709l.693.07c.395-.582 1.062-.964 1.817-.964a2.1 2.1 0 01.211.01l.764-2.111-.251-.015c-5.78-.34-11.558-.714-17.333-1.132-3.976-.287-7.951-.595-11.923-.928-4.079-.341-8.156-.709-12.229-1.111-3.671-.363-7.339-.754-11.002-1.187l-.098-.011 1.933 6.396c5.387 1.123 55.365 11.232 104.471 10.281 47.919-.928 73.854-10.123 77.541-11.524.126-2.17.186-4.153.249-5.865l-.014.004zm-122.035 5.609l-.723 2.348c.563.292.983.82 1.13 1.451l3.14.315c.271-.555.768-.979 1.371-1.151l.683-2.678-.263-.013c-1.686-.084-3.372-.169-5.058-.257l-.28-.015zm-7.66-.421l-.989 2.732c.164.182.298.392.394.622l4.525.452c.266-.58.778-1.026 1.402-1.202l.698-2.269-.244-.013c-1.888-.102-3.777-.207-5.665-.315l-.121-.007zm31.136-62.988L90.208 145.5l.4.019.141.019 23.159-.106v-12.301c-10.541 1.216-18.428 2.334-18.428 2.334a.792.792 0 01-.837-.469.791.791 0 01.229-.931s11.629-9.504 11.629-44.951c0-1.952-.153-3.898-.431-5.82zm11.76 62.12V34.547h-2.339v110.877l2.339-.01zm65.253-35.94l-7.904-9.164-3.876 3.371c-1.314 18.131-7.945 32.192-7.945 32.192a.7923.7923 0 01-1.085.363s-8.17-4.267-25.998-4.267c-3.962 0-12.284.281-16.862.613v12.824l43.121-.198 9.997-25.65 18.94-2.56.001-5.578-9.358.928a.7911.7911 0 01-.843-.585c-.1-.375.088-.768.443-.926 0 0 .576-.289 1.369-1.363zm-98.164 29.668l-1.846 6.001c1.59.083 3.209.165 4.857.246l-1.015-6.083-1.996-.164zm85.74-10.341l-.009-.058-6.399 16.419h.026c1.394-.039 2.787-.098 4.18-.17 1.547-.081 3.094-.18 4.639-.296 1.802-.136 3.602-.295 5.4-.478 1.844-.187 3.686-.4 5.524-.64 1.783-.233 3.562-.492 5.337-.779 1.749-.283 3.493-.595 5.231-.938 3.403-.673 6.784-1.469 10.116-2.436l.009-.003c.063-1.286.147-2.356.295-3.157.688-3.709 1.329-6.084 2.839-7.896 1.026-1.232 2.453-2.215 4.598-3.148 3.572-1.553 5.861-2.136 6.935-2.347v-1.141l-48.721 7.068zm-89.215 16.256l1.859-6.047-5.573-.458-2.234 6.176.253.015c1.893.107 3.786.212 5.679.313l.016.001zm-55.471-23.491l-23.642-2.337 6.943 19.462 3.483.484.011.03c1.244.182 3.365.477 6.428.851a.7896.7896 0 01.452.055l.022.003c3.818.46 7.641.873 11.466 1.254 4.138.412 8.279.787 12.423 1.136 4.177.351 8.356.675 12.537.976 5.873.423 11.748.802 17.626 1.146l.125.007 2.248-6.215-15.427-1.267-2.835-12.435-13.703-1.355-.954 4.8c.423.267.748.676.91 1.159l1.38.169c.433.053.742.448.689.882-.053.433-.448.742-.882.689 0 0-.48-.059-1.26-.157-.341.774-1.114 1.313-2.014 1.313-1.091 0-1.997-.796-2.167-1.842-1.029-.133-2.103-.272-3.121-.407-.361.718-1.105 1.213-1.966 1.213-1.073 0-1.967-.774-2.158-1.792-.497-.078-.832-.139-.94-.175-.414-.137-.639-.585-.502-1 .138-.415.586-.64 1.001-.502.09.029.342.077.716.137.385-.639 1.084-1.068 1.883-1.068.079 0 .157.004.234.012l1.246-4.212-10.147-1.003-.103.01-.002-.021zm63.193 21.614l2.306-9.044-4.927-.28-1.15 3.737 2.879.236.892 5.351zm-10.877-6.171l5.491.451 1.137-3.696-5.344-.304-1.284 3.549zm31.544-91.84l.489-1.352H87.631L64.368 80.039l21.767 26.415c.278.337.23.837-.107 1.115s-.837.229-1.115-.108l-29.129-35.35v2.572l28.248 36.089-1.717.472L59.38 124.38l2.574 11.288 14.7 1.207 24.843-68.667C95.876 55.677 87.53 46.492 87.53 46.492a.7896.7896 0 01-.138-.852.7912.7912 0 01.724-.471h21.717zm9.58 1.583v84.242c4.635-.33 12.906-.609 16.862-.609 15.164 0 23.529 3.042 25.972 4.096 1.766-4.055 10.114-24.747 7.018-47.003-3.171-22.789-13.237-38.312-14.882-40.726h-34.97zM107.002 79.64c.683 3.1 1.082 6.278 1.082 9.474 0 28.181-7.295 40.386-10.612 44.478 3.088-.418 9.138-1.215 16.436-2.055V52.553l-6.906 27.087zm-19.978 52.657l4.847.275 2.254-8.84-4.353-.37-2.748 8.935zm-6.889-.391l5.261.299 2.762-8.981-4.736-.403-3.287 9.085zm-38.512-4.054l.924-4.647-4.718-.467-1.42 4.803c.213.247.373.542.46.867 1.064.139 2.198.284 3.282.422.326-.507.855-.871 1.472-.978zm178.893-13.182a.7797.7797 0 01-.491.066l-46.357 6.266-2.381 6.108 48.233-6.997.005.03h9.225v-6.586l-8.234 1.113zm-164.732 3.864v4.389l2.52.249 17.888-10.245-20.408 5.607zm-1.583 4.232V60.264h-1.033v62.4l1.033.102zm-9.353-3.013l-.407 2.048 7.144.706v-3.408l-6.737.654zm45.401 2.06l4.272.364 2.303-9.029-3.856-.178-2.719 8.843zm-6.269-.534l4.655.397 2.7-8.782-4.25-.197-3.105 8.582zm-45.449-.912l-.244.826 4.571.452.344-1.732-4.671.454zm-4.335.421l2.487.246.148-.502-2.635.256zm3.12-1.894l13.878-46.91L33.77 52.166c-.339 3.019-1.057 10.419-1.958 25.442-1.246 20.687-6.548 37.547-8.112 42.142l2.38.236 11.236-1.092zm1.7-.165l4.509-.438 8.06-40.53v-1.518l-12.569 42.486zm6.155-.598l6.414-.623V85.877l-6.414 32.254zm10.613-40.879v39.64l25.535-7.016-25.535-32.624zm139.048 39.292l-.505-61.727h-1.257l-.016 61.967 1.778-.24zm25.717-32.628c.238 1.459.385 2.973.411 4.528.225 13.336-3.801 20.664-3.801 20.664l-.205.377-20.583 1.581.043 5.264 16.424-2.22 25.184-14.466-17.473-15.728zm-3.554 29.632l2.997-.405 21.066-12.515-.435-.652-23.628 13.572zm-123.546-2.141l3.774.175 2.436-9.552-3.299-.089-2.911 9.466zm-5.8-.269l4.167.193 2.902-9.434-3.69-.1-3.379 9.341zm103.835-44.99h-11.645c2.952 3.093 9.444 11.11 9.309 21.668-.138 10.704-1.765 16.738-3.336 20.099-.534 1.141-1.07 1.995-1.554 2.629l7.215-.715.011-43.681zm4.519.001l.355 43.33 19.598-1.505c.765-1.616 3.608-8.396 3.421-19.503-.192-11.558-7.353-20.677-8.726-22.322h-14.648zm-9.148 31.806l-3.675-4.601-6.806 5.917 7.589 8.799c.137-.253.275-.527.414-.825.929-1.985 1.862-4.936 2.478-9.29zm-15.341-1.894c.034 1.829.004 3.634-.079 5.407l2.71-2.357-2.631-3.05zm-74.67 4.309l3.216.087 2.451-9.615-2.691-.149-2.976 9.677zm-5.248-.141l3.605.097 2.99-9.724-3.051-.169-3.544 9.796zm95.931-10.654l-3.151 2.74 2.749 3.441c.194-1.838.334-3.891.402-6.181zm.039-2.133c-.023-12.744-10.187-21.486-10.187-21.486a.7801.7801 0 01-.187-.235l-.277.083-5.474 10.321 11.946 14.951 4.179-3.634zm-87.267 1.691l2.611.145 2.37-9.295-2.145-.069-2.836 9.219zm-4.597-.254l2.969.164 2.824-9.182-2.501-.08-3.292 9.098zm91.864-1.437v.012l-.001.342c.001-.114.002-.227.001-.342v-.012zm-83.949-9.096l1.475.047c-.216-.855-.453-1.703-.708-2.541l-.767 2.494zm-1.206-8.009l-2.851 7.878 2.417.078 1.55-5.04c-.351-.987-.724-1.96-1.116-2.916zm3.776 6.089l4.02-15.764-1.186.112-3.838 12.48c.362 1.044.698 2.102 1.004 3.172zm-1.908-5.618l3.036-9.872-1.557.148-2.568 7.1c.377.86.741 1.735 1.089 2.624zm4.981-24.056H89.836c2.377 2.86 8.026 10.119 12.415 19.374l7.009-19.374zm86.73 17.814h9.904l-9.93-3.143.026 3.143zm-14.945-.002h10.439l.001-3.132-10.44 3.132zm-69.367-17.812h-.734l-4.59 12.685 1.465-.139 3.859-12.546zm2.076 0h-.42l-3.809 12.384 1.097-.104 3.132-12.28zm-58.786 1.745l14.767-3.439-14.767-3.193v6.632zm57.197-3.328l.415-1.352h-.574l-.489 1.352h.648zm1.656 0h.087v-.284l-.087.284zm80.802-2.372l14.768-3.439-14.768-3.193v6.632zm-101.838-.563h18.11l2.251-6.221-20.361 6.221zm21.123-2.645v-1.031l-1.33 3.676h.489l.757-2.459c.02-.067.049-.129.084-.186zm5.505 2.424h27.13l-27.13-6.175v6.175zm2.616-14.878v5.829h1.467v-5.829h-1.467zm-4.141 0v5.829h2.558v-5.829h-2.558zm-4.794 0v5.829h3.211v-5.829h-3.211zm-1.583 0h-1.034v5.829h1.034v-5.829zm6.319-1.583v-5.17h-2.337v5.17h2.337zm-.426-16.958l14.768-3.438-14.768-3.194v6.632z"/></svg>