<svg class="footerLogo" xmlns="http://www.w3.org/2000/svg" viewBox="0 0 41.97 53.86"><title>a2-white</title><path d="M5.43,24.09a9.91,9.91,0,0,0-.14,1.54l-.21.31a9.74,9.74,0,0,1,.35-1.85M27.57,13.47a21,21,0,0,1,3.66,1.24,1.74,1.74,0,0,0,.11-.18,19.71,19.71,0,0,0-3.75-1.28c0,.07,0,.14,0,.22m6.83,3.1c3.13,2.33,5.08,5.58,5.08,9.16a10,10,0,0,1-.39,2.74,10.51,10.51,0,0,0,.14-1.69,11.84,11.84,0,0,0-4.86-9.2c0-.18,0-.36,0-.54s0-.31,0-.47M6.1,22.37a10,10,0,0,0-.58,2.93,29.65,29.65,0,0,1,6.81-6.59c.29-.22.59-.42.88-.62l.89-2.52a14.72,14.72,0,0,0-8,6.8m6.62-3.12a27.81,27.81,0,0,0-7.18,7.24,10.74,10.74,0,0,0,2.56,6l4.73-13.36-.11.08m6.75,3.38L19,21.09c-.38-1.19-1-1.19-1.39,0L16.63,24l.47-.25a25.24,25.24,0,0,1,2.37-1.07m9.72-2.83-.27.24a3.12,3.12,0,0,0-.68.81H32.5a9.58,9.58,0,0,0,1.15-3c-.3-.22-.61-.44-.93-.65-.33.28-.7.56-1.12.87-.65.45-1.73,1.23-2.41,1.72m-4.64,1.41.43-.06a6.32,6.32,0,0,1,.27-.65,8.2,8.2,0,0,1,2.94-3.15c.85-.61,1.5-1.11,2-1.5a20.75,20.75,0,0,0-7.63-1.68l-.47.16a2.6,2.6,0,0,1,.25.5ZM3.92,31a3.3,3.3,0,0,0,1.24,2.81,5.08,5.08,0,0,0,2.17.93l.13-.36a11.7,11.7,0,0,1-2.95-5.9A6.9,6.9,0,0,0,3.92,31M5.06,27.3a10.46,10.46,0,0,0,2.66,6.31L8,32.77a11.06,11.06,0,0,1-2.66-6c-.1.17-.2.34-.29.51m.37-3.21a9.74,9.74,0,0,0-.35,1.85l.21-.31a9.91,9.91,0,0,1,.14-1.54m4.78-7.23a18.69,18.69,0,0,1,4.19-2.11,3.49,3.49,0,0,1,.19-.39,17.66,17.66,0,0,0-4.38,2.5M21.8,13.49h.64c.66-.21,1.31-.39,1.94-.54-.62-.05-1.25-.08-1.89-.08s-1.35,0-2,.09a3.27,3.27,0,0,1,.85.53h.47m5.8-.35a.41.41,0,0,0,0,.11,19.71,19.71,0,0,1,3.75,1.28,2.88,2.88,0,0,0,.31-.83,7.8,7.8,0,0,0-3.21-.59c-.27,0-.56,0-.84,0m6.14,4V17a4,4,0,0,0-.06-.79c-.13.16-.29.33-.46.51.17.12.35.23.52.36m-6.18-3.35H27a2,2,0,0,1-1.23-.4c-.44.08-.89.17-1.35.28a21,21,0,0,1,6.29,1.72.38.38,0,0,0,.09-.09,3.72,3.72,0,0,0,.44-.56,21,21,0,0,0-3.66-1.24,2.71,2.71,0,0,0,0,.29m7.19,8.37a.31.31,0,0,1,0,.1,8.11,8.11,0,0,1,2.46,1.83,6.06,6.06,0,0,1,1.35,2.4,11.11,11.11,0,0,0-4.31-8.13,10,10,0,0,1-1,2.59c.88.18,1.52.65,1.52,1.21m-3.17,1.29A29.58,29.58,0,0,1,27,28l3.22,9.15a17.9,17.9,0,0,0,3.3-1.67,11.28,11.28,0,0,0,4.32-6.34,5.16,5.16,0,0,0-1.25-4.53A7.4,7.4,0,0,0,34.23,23a3.14,3.14,0,0,1-1.74.47Zm-6.94,15a2.52,2.52,0,0,1-.33-.68l-.41-1.27A3.34,3.34,0,0,0,21,34.35l-5,0h-.23l-1.19.37A3.29,3.29,0,0,0,13,36.36a20.84,20.84,0,0,0,9.51,2.22c.73,0,1.45,0,2.15-.11m-18.88.67c.2-.59.45-1.29.68-1.94l.67-1.87a5.61,5.61,0,0,1-2.37-1,4,4,0,0,1-1.49-3.35,8.62,8.62,0,0,1,1.13-3.8c0-.12,0-.23,0-.35A11.41,11.41,0,0,1,8.1,18.59,16.62,16.62,0,0,1,14.81,14a3.48,3.48,0,0,1,2.58-1.34h1.9a2.55,2.55,0,0,1,.72.1,22.48,22.48,0,0,1,2.48-.14,22,22,0,0,1,2.59.15l.16,0A2.07,2.07,0,0,1,25,11.51s0,0,.41-.81a3.91,3.91,0,0,1,2.44-1.95H28a25,25,0,0,0-14.91,2.67C2.33,16.89-2.82,28.29,1.56,36.86A14.24,14.24,0,0,0,5,41.19c0-.09.76-2,.76-2ZM31.69,13a2.33,2.33,0,0,0-.51-1.44,2.11,2.11,0,0,0-3.3.37,2.2,2.2,0,0,0-.17.53l.73,0a8.49,8.49,0,0,1,3.25.56m8.72,4a14.71,14.71,0,0,0-6.35-6.31,4.79,4.79,0,0,1,.66,2.55,4.7,4.7,0,0,1-.55,2.24,4.24,4.24,0,0,1,.19.8c3.29,2.38,5.34,5.73,5.34,9.45a10.28,10.28,0,0,1-1.1,4.59,13.48,13.48,0,0,1-5.3,6.44,21.84,21.84,0,0,1-2.78,1.74,1.47,1.47,0,0,1-1.63,1.44H27.3a24,24,0,0,1-8.2,1.51,13.91,13.91,0,0,1-7.21-1.72l-1.45,4.53c5.43,1.87,12.21,1.4,18.48-1.81C39.64,37,44.79,25.57,40.41,17M19.1,40.58a22,22,0,0,0,5.17-.64,22.16,22.16,0,0,1-2.47.14A21.35,21.35,0,0,1,12.45,38l-.29.87a12.75,12.75,0,0,0,6.94,1.72m12.82-3.92c-.54.26-1.09.51-1.67.73l.08.21c.55-.3,1.08-.61,1.59-.94m-7.12,2a22.05,22.05,0,0,1-2.31.12,21,21,0,0,1-9.58-2.23l-.25.78a20.69,20.69,0,0,0,9.14,2.06,22.71,22.71,0,0,0,3.44-.27Zm-7.78-9h2.43A1.55,1.55,0,0,0,21,27.51l-1.29-4c-.76.3-1.5.64-2.23,1-.44.23-.86.47-1.28.72l-.76,2.31A1.54,1.54,0,0,0,17,29.66m13.69-6.24H25.33l1.39,3.93a29.19,29.19,0,0,0,4-3.93" fill="#fff"></path></svg>