<svg class="plwgLogo" xmlns="http://www.w3.org/2000/svg" viewBox="0 0 927 387">
  <title>plwg-logo</title>
  <path d="M401.48,219.33c-17.3,0-31.59-5.77-42.11-16.05v77.46H315V87h43.87v14.54h.5a56.93,56.93,0,0,1,42.11-18.3c37.6,0,63.91,30.33,63.91,67.93S439.08,219.33,401.48,219.33Zm-13.29-98.26c-17.29,0-29.83,12.53-29.83,30.08,0,17.79,13.29,30.33,29.83,30.33,16.8,0,30.08-12.54,30.08-30.33C418.27,133.6,406.24,121.07,388.19,121.07ZM477,0h44.37V215.57H477ZM599.93,215.57,531,87h51.13l31.34,69.43L644.3,87h30.58l30.83,69.43L737,87h51.14L719.24,215.57H689.17l-29.58-66.43L630,215.57Zm216.53,13.78c4.76,7.77,15.54,16.55,34.84,16.55,12.28,0,31.33-7.27,31.33-30.08v-9.53c-9.52,10.53-24.56,13-42.11,13-37.6,0-63.92-30.33-63.92-67.93s26.32-68.18,63.92-68.18c17.05,0,30.83,5.51,41.36,15.29h.75V87H927v132.1c0,43.11-31.83,65.42-75.7,65.42-26.82,0-57.65-6-71.19-37.35Zm37.35-47.87c17.29,0,29.83-12.54,29.83-30.08,0-17.8-13.29-30.33-29.83-30.33-16.8,0-30.08,12.53-30.08,30.33C823.73,168.94,835.76,181.48,853.81,181.48Z"></path>
  <path d="M135,67H81a59.07,59.07,0,0,0-59,59v54a41,41,0,0,0,41,41H94v62H54v-7a15,15,0,0,0-15-15H15A15,15,0,0,0,0,276v24a15,15,0,0,0,15,15H39a15,15,0,0,0,15-15v-7H94V311a44.11,44.11,0,0,1-40,43.86V348a15,15,0,0,0-15-15H15A15,15,0,0,0,0,348v24a15,15,0,0,0,15,15H39a15,15,0,0,0,15-15v-7.17A54.11,54.11,0,0,0,104,311V293h31a113,113,0,0,0,0-226Zm0,216H104V221h31a41,41,0,1,0-41-41v31H63a31,31,0,0,1-31-31V126A49.05,49.05,0,0,1,81,77h54a103,103,0,0,1,0,206Zm-31-72V180a31,31,0,1,1,31,31Z"></path>
</svg>