<svg viewBox="0 0 322 172" xmlns="http://www.w3.org/2000/svg" fill-rule="evenodd" clip-rule="evenodd" stroke-linejoin="round" stroke-miterlimit="2" class="artMap7"><path d="M256.954 157.031l-21.275 11.876-34.432 2.993-34.367-.498-14.819-4.064-10.369-2.849-13.865 3.465-12.21-2.653-.193-11.255H5.183l-.085-.704S-.863 104.129.131 89.215c.991-14.867 1.491-27.257 1.491-27.257l.016-.392 7.211-5.151 15.71-15.218 2.504-6.015 8.876-6.262 19.525 2.502 18.666-3.53 9.57 10.577 8.844 2.457 11.859 8.762-1.816 102.758h12.81l-.786-46.01 5.466-10.44.965-21.716-3.931-2.948-1.026-22.582 8.001-7.001.987-7.443 11.472-9.972 3.014-9.042 8.83-4.158 19.252-3.948L176.885 0l16.262 11.177 51.155 17.382 13.755 13.755.502 61.267-4.485 2.99-.46 10.041 3.95 2.466v36.353h9.692V78.725l10.721-2.68 9.45 2.485 7.986-1.496 14.318 5.623.137.188s9.544 13.099 11.058 23.165c1.487 9.946.996 50.231.996 50.231l-.009.79h-64.959zM186.318 8.425l-9.375-6.444-8.614 6.697-19.431 3.985-8.037 3.784-2.936 8.808-11.345 9.861-.987 7.44-7.875 6.89.957 21.059 4.003 3.002-1.018 22.916-5.443 10.393.978 57.191 10.606 2.305 13.91-3.477 10.773 2.96 14.623 4.01 33.31.483v-16.535l-7.974-3.75a.8013.8013 0 01-.455-.636.8017.8017 0 01.304-.72l4.177-3.248 1.956-32.705-5.404-15.221a.8018.8018 0 01.064-.674l4.844-8.238-.488-27.377-5.103-10.774-5.798 2.678 3.822 5.125a.8.8 0 01-.031.996l-5.312 6.258c-.271.319-.741.376-1.079.131l-15.383-11.125a.8006.8006 0 01-.324-.535l-2.54-17.792-12.676-1.881v13.256c0 .113-.024.224-.07.327l-6.6 14.73 5.386 5.39c.201.201.28.494.208.769a.8015.8015 0 01-.56.567l-8.31 2.307 9.78 12.717c.134.174.19.396.156.613l-1.491 9.451 18.451 11.275c.377.23.496.723.266 1.099-.231.377-.723.496-1.1.266l-18.789-11.481-16.841-3.47c-.487 5.656-3.129 36.226-3.61 39.091-.011.069.016.144.048.23.066.18.177.374.322.583.536.775 1.484 1.691 2.643 2.669 4.723 3.98 12.894 8.827 12.894 8.827.269.16.42.461.387.772l-1.014 9.6 5.509 5.509c.312.312.312.819 0 1.131-.312.312-.819.312-1.131 0l-5.779-5.779a.7983.7983 0 01-.23-.65l1-9.472c-1.778-1.075-8.525-5.224-12.667-8.715-1.524-1.284-2.699-2.499-3.218-3.449-.314-.574-.413-1.093-.342-1.52.528-3.149 3.671-39.86 3.671-39.86a.803.803 0 01.319-.573.799.799 0 01.64-.142l17.037 3.51 1.391-8.812-10.294-13.385a.8015.8015 0 01-.125-.741.7976.7976 0 01.545-.518l8.133-2.258-4.806-4.81a.799.799 0 01-.164-.892l6.755-15.077V33.338c0-.233.101-.454.277-.606.177-.152.41-.22.64-.185l14.184 2.104c.35.052.624.328.674.678l2.577 18.047 14.509 10.492 4.421-5.209-4.032-5.406a.801.801 0 01-.134-.675c.06-.234.221-.428.44-.529l6.68-3.085-11.989-25.315a.8005.8005 0 01-.004-.675l6.658-14.549zm1.339.92l-6.387 13.956 17.69 37.354a.793.793 0 01.077.328l.496 27.774a.793.793 0 01-.11.42l-4.769 8.112 5.333 15.023c.036.101.051.208.045.315l-1.988 33.229a.7952.7952 0 01-.307.583l-3.433 2.671 7.253 3.411c.281.132.46.414.46.724v16.982l33.182-2.885 20.765-11.591v-35.786l-3.991-2.492.54-11.784 4.439-2.96-.489-59.747-13.029-13.028-51.011-17.333-4.766-3.276zm81.882 70.459l-.683.17v75.458h10.537l2.175-6.091-5.346-10.21-4.036-20.669 2.979-7.949-3.433-20.598-2.193-10.111zm1.553-.389l2.212 10.199 3.509 21.059-2.97 7.926 3.905 19.997 5.562 10.623-2.218 6.213h39.239c.061-5.663.369-40.112-.987-49.185-1.365-9.072-9.485-20.669-10.633-22.272l-13.455-5.284-7.888 1.478-9.401-2.472-6.875 1.718zM43.677 31.525l-7.324-.939-7.99 5.637-2.454 5.894L9.877 57.648l-6.673 4.766c-.093 2.216-.587 13.566-1.476 26.908-.92 13.796 4.153 57.081 4.874 63.124h9.82v-24.574l-7.418-3.464a.8005.8005 0 01-.454-.616.8013.8013 0 01.272-.716l10.77-9.231 1.031-19.092a.8205.8205 0 01.056-.254l5.254-13.133c.116-.29.391-.486.703-.501.312-.016.605.151.749.428l4.718 9.039-.447-19.683a.8014.8014 0 01.437-.732.7998.7998 0 01.848.078l7.239 5.537 6.523-21.435-4.433-10.841 1.407-11.731zm-3.605 45.939l-6.779-5.186.487 21.446c.009.372-.24.701-.6.793a.8006.8006 0 01-.909-.404l-5.499-10.536-4.558 11.394-1.043 19.302a.7996.7996 0 01-.278.564l-10.088 8.646 6.755 3.155c.282.131.462.414.462.725v25.083h53.445l-9.858-10.286-20.97 1.023 1.778-10.077h6.805l5.694-5.256-13.665-18.542 4.451-26.215-5.63-5.629zm33.611 74.982h27.303l1.803-101.962-10.958-8.096-9.006-2.501-9.279-10.256-18.034 3.411-10.248-1.314-1.356 11.307 4.491 10.983-6.884 22.626 5.902 5.902-4.474 26.36 14.11 19.148-7.206 6.652H43.76l-1.197 6.781 19.697-.96 11.423 11.919zM62.12 69.324v16.817h26.288V68.765l-26.288.559zm1.6 1.567v13.65h23.088V70.4l-23.088.491z"/></svg>