<svg xmlns="http://www.w3.org/2000/svg" viewBox="0 0 927 387" class="plwgLogo" ><path d="M401.48 219.33c-17.3 0-31.59-5.77-42.11-16.05v77.46H315V87h43.87v14.54h.5a56.93 56.93 0 0142.11-18.3c37.6 0 63.91 30.33 63.91 67.93s-26.31 68.16-63.91 68.16zm-13.29-98.26c-17.29 0-29.83 12.53-29.83 30.08 0 17.79 13.29 30.33 29.83 30.33 16.8 0 30.08-12.54 30.08-30.33 0-17.55-12.03-30.08-30.08-30.08zM477 0h44.37v215.57H477zm122.93 215.57L531 87h51.13l31.34 69.43L644.3 87h30.58l30.83 69.43L737 87h51.14l-68.9 128.57h-30.07l-29.58-66.43L630 215.57zm216.53 13.78c4.76 7.77 15.54 16.55 34.84 16.55 12.28 0 31.33-7.27 31.33-30.08v-9.53c-9.52 10.53-24.56 13-42.11 13-37.6 0-63.92-30.33-63.92-67.93s26.32-68.18 63.92-68.18c17.05 0 30.83 5.51 41.36 15.29h.75V87H927v132.1c0 43.11-31.83 65.42-75.7 65.42-26.82 0-57.65-6-71.19-37.35zm37.35-47.87c17.29 0 29.83-12.54 29.83-30.08 0-17.8-13.29-30.33-29.83-30.33-16.8 0-30.08 12.53-30.08 30.33 0 17.54 12.03 30.08 30.08 30.08zM135 67H81a59.07 59.07 0 00-59 59v54a41 41 0 0041 41h31v62H54v-7a15 15 0 00-15-15H15a15 15 0 00-15 15v24a15 15 0 0015 15h24a15 15 0 0015-15v-7h40v18a44.11 44.11 0 01-40 43.86V348a15 15 0 00-15-15H15a15 15 0 00-15 15v24a15 15 0 0015 15h24a15 15 0 0015-15v-7.17A54.11 54.11 0 00104 311v-18h31a113 113 0 000-226zm0 216h-31v-62h31a41 41 0 10-41-41v31H63a31 31 0 01-31-31v-54a49.05 49.05 0 0149-49h54a103 103 0 010 206zm-31-72v-31a31 31 0 1131 31z"/></svg>