<svg viewBox="0 0 2500 2500" xmlns="http://www.w3.org/2000/svg" xml:space="preserve" style="fill-rule:evenodd;clip-rule:evenodd;stroke-linejoin:round;stroke-miterlimit:2"><path d="M1928 2300a1250 1250 0 1 1 260-224l-297-300 273-376-258-190-250 341-492-501a425 425 0 0 1-142-303c0-148 80-216 154-240 56-17 71-15 95-15 166 0 264 125 264 279v148h347V771l-3-35c-9-89-56-303-228-451-110-110-398-160-599-89a498 498 0 0 0-330 320c-26 74-44 172-44 199-3 15-3 24-3 32 0 69 12 134 35 202a603 603 0 0 0 95 187c-213 181-320 377-320 587 0 169 56 305 166 415s270 163 487 163c258 0 447-121 551-237l239 236Zm-782-328c-186 0-314-98-314-252 0-95 62-225 196-311l427 424a377 377 0 0 1-309 139Z" style="fill:#ff9b59;fill-rule:nonzero"/></svg>
