<?xml version="1.0" encoding="UTF-8" standalone="no"?><!DOCTYPE svg PUBLIC "-//W3C//DTD SVG 1.1//EN" "http://www.w3.org/Graphics/SVG/1.1/DTD/svg11.dtd"><svg width="100%" height="100%" viewBox="0 0 799 138" version="1.1" xmlns="http://www.w3.org/2000/svg" xmlns:xlink="http://www.w3.org/1999/xlink" xml:space="preserve" xmlns:serif="http://www.serif.com/" style="fill-rule:evenodd;clip-rule:evenodd;stroke-linejoin:round;stroke-miterlimit:2;"><path d="M189.361,26.044c-0.483,0.825 -0.82,1.346 -1.029,1.566c-0.204,0.225 -0.462,0.234 -0.771,0.025c-1.195,-0.783 -2.291,-1.366 -3.283,-1.741c-0.992,-0.379 -2.125,-0.567 -3.387,-0.567c-2.875,0 -5.109,1.088 -6.7,3.258c-1.592,2.175 -2.388,5.384 -2.388,9.625c0,3.971 0.746,7.05 2.233,9.242c1.488,2.188 3.792,3.283 6.905,3.283c1.129,0 2.291,-0.154 3.491,-0.462c1.196,-0.308 2.342,-0.75 3.438,-1.333c0.379,-0.205 0.671,-0.213 0.875,-0.025c0.204,0.187 0.496,0.691 0.871,1.512l0.566,1.233c0.375,0.855 0.579,1.43 0.613,1.721c0.033,0.292 -0.171,0.571 -0.613,0.846c-0.616,0.379 -1.337,0.738 -2.158,1.079c-0.821,0.342 -1.683,0.642 -2.592,0.896c-0.908,0.258 -1.837,0.463 -2.796,0.617c-0.958,0.154 -1.9,0.233 -2.825,0.233c-2.5,0 -4.712,-0.429 -6.645,-1.283c-1.934,-0.859 -3.567,-2.088 -4.905,-3.696c-1.333,-1.608 -2.354,-3.571 -3.054,-5.879c-0.7,-2.309 -1.054,-4.9 -1.054,-7.775c0,-2.875 0.371,-5.504 1.104,-7.879c0.738,-2.38 1.8,-4.417 3.184,-6.113c1.387,-1.692 3.083,-3.008 5.083,-3.95c2,-0.942 4.267,-1.412 6.8,-1.412c3.833,-0 7.117,1.025 9.858,3.079c0.442,0.341 0.646,0.662 0.613,0.95c-0.034,0.291 -0.288,0.883 -0.767,1.771l-0.667,1.179Z" style="fill-rule:nonzero;"/><path d="M195.878,29.435c0.754,0 1.35,0.017 1.796,0.05c0.446,0.034 0.779,0.075 1.004,0.13c0.221,0.05 0.375,0.129 0.458,0.229c0.088,0.104 0.163,0.225 0.234,0.358l3.183,10.063c0.546,1.745 1.008,3.37 1.383,4.875c0.38,1.508 0.688,2.962 0.925,4.366c0.275,-1.337 0.6,-2.783 0.975,-4.337c0.38,-1.559 0.805,-3.159 1.284,-4.8l2.979,-10.167c0.033,-0.133 0.1,-0.254 0.204,-0.358c0.104,-0.1 0.263,-0.179 0.488,-0.229c0.22,-0.055 0.529,-0.096 0.925,-0.13c0.391,-0.033 0.933,-0.05 1.616,-0.05l0.667,0c0.787,0 1.404,0.017 1.85,0.05c0.442,0.034 0.767,0.096 0.975,0.18c0.204,0.087 0.317,0.187 0.333,0.308c0.017,0.121 0.009,0.25 -0.025,0.383l-8.779,25.717c-0.754,2.192 -1.542,4.067 -2.362,5.621c-0.821,1.558 -1.738,2.841 -2.746,3.85c-1.009,1.012 -2.154,1.754 -3.438,2.233c-1.283,0.479 -2.766,0.721 -4.441,0.721c-1.096,-0 -2.159,-0.121 -3.184,-0.358c-1.025,-0.242 -1.812,-0.55 -2.362,-0.925c-0.238,-0.171 -0.338,-0.413 -0.304,-0.721c0.033,-0.304 0.17,-0.871 0.408,-1.692l0.204,-0.721c0.275,-0.887 0.508,-1.471 0.696,-1.741c0.187,-0.275 0.471,-0.346 0.846,-0.209c0.412,0.138 0.925,0.259 1.537,0.359c0.621,0.104 1.167,0.154 1.646,0.154c0.683,-0 1.317,-0.084 1.896,-0.254c0.583,-0.171 1.133,-0.48 1.646,-0.925c0.512,-0.446 1,-1.055 1.462,-1.821c0.463,-0.771 0.917,-1.754 1.359,-2.954l-9.238,-26.334c-0.071,-0.133 -0.087,-0.262 -0.05,-0.383c0.033,-0.121 0.163,-0.221 0.383,-0.308c0.221,-0.084 0.555,-0.146 1,-0.18c0.446,-0.033 1.08,-0.05 1.9,-0.05l0.667,0Z" style="fill-rule:nonzero;"/><path d="M224.524,29.435c1.262,0 2.083,0.042 2.462,0.125c0.375,0.088 0.617,0.267 0.717,0.542c0.071,0.238 0.129,0.546 0.183,0.925c0.05,0.375 0.109,0.75 0.18,1.129c0.82,-0.958 1.87,-1.737 3.154,-2.337c1.283,-0.6 2.712,-0.9 4.287,-0.9c1.571,-0 2.959,0.241 4.159,0.721c1.195,0.479 2.187,1.162 2.975,2.054c0.858,0.958 1.47,2.087 1.85,3.387c0.375,1.3 0.562,2.925 0.562,4.875l0,15.813c0,0.137 -0.033,0.254 -0.1,0.358c-0.071,0.1 -0.217,0.179 -0.437,0.229c-0.221,0.054 -0.559,0.096 -1,0.129c-0.446,0.034 -1.046,0.05 -1.796,0.05l-0.259,0c-0.82,0 -1.462,-0.016 -1.925,-0.05c-0.462,-0.033 -0.804,-0.075 -1.025,-0.129c-0.225,-0.05 -0.362,-0.129 -0.412,-0.229c-0.05,-0.104 -0.075,-0.221 -0.075,-0.358l-0,-13.863c-0,-0.887 -0.021,-1.633 -0.054,-2.233c-0.034,-0.596 -0.084,-1.104 -0.154,-1.513c-0.067,-0.412 -0.171,-0.754 -0.309,-1.025c-0.137,-0.275 -0.308,-0.533 -0.512,-0.77c-0.342,-0.38 -0.813,-0.667 -1.413,-0.875c-0.596,-0.205 -1.275,-0.309 -2.025,-0.309c-0.583,0 -1.183,0.071 -1.8,0.209c-0.612,0.137 -1.162,0.341 -1.641,0.616c-0.546,0.342 -0.905,0.725 -1.075,1.154c-0.171,0.425 -0.292,0.95 -0.363,1.567c-0.067,0.579 -0.1,1.317 -0.1,2.204l0,14.838c0,0.137 -0.033,0.254 -0.104,0.358c-0.071,0.1 -0.213,0.179 -0.433,0.229c-0.225,0.054 -0.559,0.096 -1.005,0.129c-0.445,0.034 -1.045,0.05 -1.795,0.05l-0.259,0c-0.821,0 -1.462,-0.016 -1.925,-0.05c-0.458,-0.033 -0.804,-0.075 -1.025,-0.129c-0.225,-0.05 -0.358,-0.129 -0.412,-0.229c-0.05,-0.104 -0.075,-0.221 -0.075,-0.358l-0,-14.171c-0,-2.017 -0.034,-4.046 -0.104,-6.083c-0.067,-2.034 -0.155,-3.755 -0.255,-5.159c0,-0.171 0.017,-0.312 0.05,-0.433c0.034,-0.121 0.155,-0.213 0.359,-0.283c0.208,-0.067 0.525,-0.121 0.95,-0.155c0.429,-0.033 1,-0.05 1.721,-0.05l0.258,0Z" style="fill-rule:nonzero;"/><path d="M267.641,38.11c-0.584,-1.062 -1.284,-1.85 -2.105,-2.362c-0.82,-0.513 -1.679,-0.771 -2.566,-0.771c-1.746,0 -3.104,0.675 -4.079,2.029c-0.975,1.35 -1.467,3.413 -1.467,6.184c-0,5 1.883,7.495 5.65,7.495c0.717,0 1.442,-0.12 2.179,-0.358c0.738,-0.242 1.292,-0.567 1.667,-0.975c0.275,-0.308 0.462,-0.675 0.566,-1.104c0.105,-0.429 0.155,-0.983 0.155,-1.671l-0,-8.467Zm3.954,-8.675c0.987,0 1.65,0.034 1.975,0.1c0.325,0.071 0.537,0.242 0.641,0.513c0.105,0.346 0.188,0.892 0.259,1.646c0.066,0.75 0.116,1.625 0.15,2.616c0.033,0.992 0.054,2.055 0.054,3.184l-0,16.837c-0,4.892 -1.046,8.484 -3.133,10.779c-2.055,2.259 -5.184,3.388 -9.392,3.388c-1.542,-0 -3.1,-0.204 -4.671,-0.617c-1.575,-0.408 -2.875,-0.908 -3.904,-1.487c-0.275,-0.171 -0.417,-0.404 -0.433,-0.696c-0.021,-0.288 0.179,-0.929 0.591,-1.925l0.354,-0.871c0.38,-0.854 0.671,-1.412 0.875,-1.667c0.205,-0.258 0.446,-0.316 0.717,-0.179c0.892,0.409 1.875,0.759 2.954,1.05c1.079,0.292 2.113,0.438 3.104,0.438c1.884,-0 3.338,-0.559 4.363,-1.671c1.029,-1.113 1.542,-3.038 1.542,-5.775l-0,-0.767c-1.813,1.538 -4.005,2.309 -6.571,2.309c-3.388,-0 -6.05,-1.18 -7.984,-3.542c-1.933,-2.363 -2.9,-5.663 -2.9,-9.908c0,-2.259 0.284,-4.275 0.85,-6.055c0.563,-1.779 1.35,-3.279 2.359,-4.491c1.008,-1.217 2.2,-2.142 3.571,-2.775c1.366,-0.629 2.854,-0.95 4.462,-0.95c1.404,-0 2.679,0.3 3.825,0.9c1.146,0.6 2.146,1.358 3.004,2.283c0.034,-0.271 0.092,-0.658 0.18,-1.154c0.083,-0.496 0.162,-0.813 0.229,-0.95c0.033,-0.104 0.079,-0.188 0.129,-0.254c0.05,-0.071 0.154,-0.129 0.308,-0.184c0.154,-0.05 0.375,-0.083 0.667,-0.1c0.292,-0.016 0.729,-0.025 1.308,-0.025l0.517,0Z" style="fill-rule:nonzero;"/><path d="M292.999,34.977c-2.054,0 -3.533,0.729 -4.442,2.183c-0.908,1.455 -1.362,3.463 -1.362,6.03c-0,2.5 0.421,4.425 1.262,5.775c0.834,1.354 2.163,2.029 3.975,2.029c2.054,-0 3.534,-0.729 4.442,-2.184c0.904,-1.454 1.358,-3.462 1.358,-6.029c0,-2.5 -0.421,-4.425 -1.254,-5.775c-0.842,-1.354 -2.167,-2.029 -3.979,-2.029Zm0.154,-6.058c3.829,-0 6.842,1.141 9.033,3.416c2.188,2.275 3.284,5.655 3.284,10.138c-0,4.687 -1.121,8.287 -3.358,10.804c-2.246,2.517 -5.521,3.775 -9.834,3.775c-3.833,0 -6.846,-1.137 -9.033,-3.417c-2.192,-2.275 -3.284,-5.654 -3.284,-10.137c0,-4.688 1.117,-8.288 3.363,-10.804c2.238,-2.517 5.517,-3.775 9.829,-3.775Z" style="fill-rule:nonzero;"/><path d="M313.891,29.435c1.262,0 2.083,0.042 2.462,0.125c0.375,0.088 0.6,0.267 0.667,0.542c0.033,0.1 0.087,0.342 0.154,0.717c0.067,0.379 0.129,0.821 0.179,1.337c0.054,0.513 0.104,1.05 0.154,1.617c0.054,0.562 0.096,1.104 0.129,1.617c0.821,-2.125 1.796,-3.73 2.925,-4.825c1.13,-1.096 2.517,-1.646 4.159,-1.646c0.583,-0 1.029,0.071 1.337,0.208c0.1,0.033 0.175,0.075 0.229,0.129c0.05,0.05 0.096,0.163 0.13,0.334c0.033,0.17 0.058,0.416 0.075,0.741c0.016,0.325 0.025,0.779 0.025,1.363l-0,0.716c-0,0.65 -0.009,1.167 -0.025,1.542c-0.017,0.375 -0.05,0.65 -0.105,0.821c-0.05,0.171 -0.125,0.283 -0.229,0.333c-0.1,0.05 -0.221,0.075 -0.358,0.075c-1.438,0.138 -2.629,0.509 -3.567,1.104c-0.941,0.6 -1.754,1.396 -2.441,2.388c-0.65,0.992 -1.13,2.25 -1.434,3.775c-0.308,1.521 -0.462,3.496 -0.462,5.925l-0,7.396c-0,0.137 -0.038,0.254 -0.104,0.358c-0.071,0.1 -0.213,0.179 -0.438,0.229c-0.221,0.054 -0.554,0.096 -1,0.129c-0.446,0.034 -1.046,0.05 -1.796,0.05l-0.258,0c-0.821,0 -1.463,-0.016 -1.925,-0.05c-0.463,-0.033 -0.804,-0.075 -1.025,-0.129c-0.225,-0.05 -0.358,-0.129 -0.413,-0.229c-0.05,-0.104 -0.074,-0.221 -0.074,-0.358l-0,-14.171c-0,-2.017 -0.034,-4.046 -0.105,-6.083c-0.066,-2.034 -0.154,-3.755 -0.254,-5.159c0,-0.171 0.017,-0.312 0.05,-0.433c0.033,-0.121 0.154,-0.213 0.359,-0.283c0.204,-0.067 0.52,-0.121 0.949,-0.155c0.43,-0.033 1,-0.05 1.721,-0.05l0.309,0Z" style="fill-rule:nonzero;"/><path d="M367.737,26.044c-0.48,0.825 -0.821,1.346 -1.026,1.566c-0.208,0.225 -0.466,0.234 -0.77,0.025c-1.2,-0.783 -2.296,-1.366 -3.288,-1.741c-0.991,-0.379 -2.121,-0.567 -3.387,-0.567c-2.875,0 -5.109,1.088 -6.7,3.258c-1.592,2.175 -2.388,5.384 -2.388,9.625c0,3.971 0.746,7.05 2.234,9.242c1.491,2.188 3.791,3.283 6.904,3.283c1.129,0 2.296,-0.154 3.491,-0.462c1.2,-0.308 2.346,-0.75 3.438,-1.333c0.379,-0.205 0.671,-0.213 0.875,-0.025c0.204,0.187 0.496,0.691 0.871,1.512l0.566,1.233c0.375,0.855 0.58,1.43 0.617,1.721c0.033,0.292 -0.175,0.571 -0.617,0.846c-0.616,0.379 -1.333,0.738 -2.158,1.079c-0.821,0.342 -1.683,0.642 -2.592,0.896c-0.904,0.258 -1.837,0.463 -2.796,0.617c-0.958,0.154 -1.9,0.233 -2.82,0.233c-2.5,0 -4.717,-0.429 -6.65,-1.283c-1.934,-0.859 -3.567,-2.088 -4.905,-3.696c-1.333,-1.608 -2.35,-3.571 -3.05,-5.879c-0.704,-2.309 -1.054,-4.9 -1.054,-7.775c0,-2.875 0.367,-5.504 1.104,-7.879c0.734,-2.38 1.796,-4.417 3.184,-6.113c1.383,-1.692 3.079,-3.008 5.079,-3.95c2.004,-0.942 4.271,-1.412 6.804,-1.412c3.829,-0 7.117,1.025 9.854,3.079c0.442,0.341 0.65,0.662 0.617,0.95c-0.037,0.291 -0.292,0.883 -0.771,1.771l-0.666,1.179Z" style="fill-rule:nonzero;"/><path d="M388.936,40.369c-0.17,-1.609 -0.649,-2.934 -1.437,-3.979c-0.788,-1.042 -1.9,-1.567 -3.338,-1.567c-1.437,-0 -2.6,0.487 -3.491,1.462c-0.888,0.975 -1.504,2.338 -1.846,4.084l10.112,-0Zm-10.112,5.029c0.275,1.85 0.983,3.25 2.129,4.208c1.146,0.959 2.696,1.438 4.646,1.438c1.267,-0 2.5,-0.154 3.696,-0.463c1.196,-0.308 2.379,-0.7 3.541,-1.179c0.275,-0.137 0.505,-0.121 0.692,0.05c0.192,0.171 0.421,0.65 0.696,1.438l0.462,1.283c0.309,0.892 0.455,1.471 0.434,1.746c-0.017,0.275 -0.179,0.496 -0.488,0.666c-1.3,0.721 -2.829,1.309 -4.591,1.771c-1.763,0.463 -3.55,0.696 -5.367,0.696c-2.017,0 -3.842,-0.308 -5.467,-0.925c-1.625,-0.617 -3.008,-1.517 -4.154,-2.696c-1.15,-1.179 -2.029,-2.616 -2.646,-4.312c-0.616,-1.692 -0.925,-3.634 -0.925,-5.825c0,-2.088 0.292,-4.013 0.875,-5.775c0.579,-1.763 1.409,-3.288 2.488,-4.571c1.079,-1.283 2.404,-2.275 3.979,-2.975c1.575,-0.7 3.337,-1.054 5.287,-1.054c1.95,-0 3.663,0.346 5.134,1.029c1.471,0.683 2.712,1.642 3.721,2.875c1.008,1.229 1.762,2.692 2.258,4.387c0.496,1.696 0.746,3.534 0.746,5.517c-0,0.996 -0.034,1.688 -0.104,2.079c-0.067,0.396 -0.205,0.592 -0.409,0.592l-16.633,-0Z" style="fill-rule:nonzero;"/><path d="M404.849,17.523c0.717,-0 1.3,0.012 1.746,0.029c0.442,0.017 0.775,0.05 1,0.1c0.221,0.054 0.375,0.121 0.462,0.204c0.084,0.088 0.146,0.2 0.179,0.338c0.067,0.375 0.138,1.041 0.205,2c0.07,0.958 0.12,2.104 0.154,3.441c0.033,1.334 0.058,2.813 0.079,4.438c0.017,1.625 0.025,3.312 0.025,5.058l-0,16.321c-0,0.583 0.117,1.021 0.358,1.308c0.238,0.292 0.684,0.438 1.334,0.438l0.616,-0c0.238,-0 0.388,0.137 0.438,0.412c0.05,0.275 0.079,0.888 0.079,1.846l-0,0.463c-0,0.925 -0.029,1.508 -0.079,1.746c-0.05,0.241 -0.179,0.408 -0.388,0.512c-0.375,0.171 -0.871,0.317 -1.487,0.438c-0.613,0.12 -1.267,0.179 -1.95,0.179c-1.85,-0 -3.284,-0.513 -4.313,-1.542c-0.616,-0.612 -1.041,-1.367 -1.283,-2.258c-0.238,-0.888 -0.358,-1.934 -0.358,-3.129l-0,-17.813c-0,-1.233 -0.017,-2.558 -0.05,-3.979c-0.038,-1.421 -0.071,-2.779 -0.105,-4.079c-0.033,-1.3 -0.079,-2.471 -0.129,-3.517c-0.05,-1.046 -0.091,-1.804 -0.125,-2.283c0,-0.138 0.013,-0.25 0.05,-0.338c0.034,-0.083 0.154,-0.15 0.359,-0.204c0.204,-0.05 0.537,-0.083 1,-0.1c0.462,-0.017 1.104,-0.029 1.925,-0.029l0.258,-0Z" style="fill-rule:nonzero;"/><path d="M418.557,29.435l0,-1.233c0,-1.883 0.246,-3.533 0.742,-4.954c0.496,-1.421 1.208,-2.608 2.129,-3.567c1.746,-1.779 4.213,-2.671 7.396,-2.671c1.983,0 3.867,0.325 5.642,0.975c0.241,0.071 0.37,0.259 0.387,0.567c0.017,0.308 -0.075,0.908 -0.283,1.796l-0.204,0.871c-0.205,0.891 -0.384,1.466 -0.538,1.721c-0.154,0.258 -0.337,0.354 -0.542,0.283c-0.583,-0.138 -1.137,-0.242 -1.666,-0.308c-0.534,-0.067 -1.071,-0.105 -1.617,-0.105c-1.646,0 -2.792,0.446 -3.442,1.338c-0.65,0.887 -0.975,2.308 -0.975,4.258l0,1.029l5.905,0c0.237,0 0.412,0.117 0.512,0.359c0.104,0.237 0.154,0.975 0.154,2.208l0,0.358c0,1.234 -0.05,1.967 -0.154,2.209c-0.1,0.237 -0.275,0.358 -0.512,0.358l-5.905,0l0,20.842c0,0.137 -0.033,0.254 -0.1,0.358c-0.07,0.1 -0.216,0.179 -0.437,0.229c-0.225,0.054 -0.558,0.096 -1,0.129c-0.446,0.034 -1.046,0.05 -1.8,0.05l-0.254,0c-0.821,0 -1.463,-0.016 -1.925,-0.05c-0.463,-0.033 -0.804,-0.075 -1.029,-0.129c-0.221,-0.05 -0.359,-0.129 -0.409,-0.229c-0.05,-0.104 -0.075,-0.221 -0.075,-0.358l0,-20.842l-3.595,0c-0.242,0 -0.413,-0.121 -0.517,-0.358c-0.1,-0.242 -0.154,-0.975 -0.154,-2.209l-0,-0.358c-0,-1.233 0.054,-1.971 0.154,-2.208c0.104,-0.242 0.275,-0.359 0.517,-0.359l3.595,0Z" style="fill-rule:nonzero;"/><path d="M438.166,29.435c0.75,0 1.35,0.017 1.796,0.05c0.441,0.034 0.779,0.075 0.999,0.13c0.221,0.05 0.375,0.129 0.463,0.229c0.083,0.104 0.163,0.225 0.229,0.358l3.183,10.063c0.546,1.745 1.009,3.37 1.388,4.875c0.375,1.508 0.683,2.962 0.921,4.366c0.275,-1.337 0.6,-2.783 0.975,-4.337c0.379,-1.559 0.804,-3.159 1.287,-4.8l2.975,-10.167c0.034,-0.133 0.104,-0.254 0.205,-0.358c0.104,-0.1 0.266,-0.179 0.487,-0.229c0.225,-0.055 0.533,-0.096 0.925,-0.13c0.396,-0.033 0.933,-0.05 1.617,-0.05l0.671,0c0.783,0 1.399,0.017 1.845,0.05c0.446,0.034 0.771,0.096 0.975,0.18c0.204,0.087 0.317,0.187 0.334,0.308c0.016,0.121 0.008,0.25 -0.025,0.383l-8.78,25.717c-0.75,2.192 -1.537,4.067 -2.358,5.621c-0.825,1.558 -1.737,2.841 -2.75,3.85c-1.008,1.012 -2.154,1.754 -3.437,2.233c-1.284,0.479 -2.763,0.721 -4.442,0.721c-1.092,-0 -2.154,-0.121 -3.183,-0.358c-1.025,-0.242 -1.813,-0.55 -2.359,-0.925c-0.241,-0.171 -0.341,-0.413 -0.308,-0.721c0.033,-0.304 0.171,-0.871 0.413,-1.692l0.204,-0.721c0.275,-0.887 0.504,-1.471 0.691,-1.741c0.188,-0.275 0.471,-0.346 0.846,-0.209c0.413,0.138 0.925,0.259 1.542,0.359c0.616,0.104 1.162,0.154 1.641,0.154c0.684,-0 1.317,-0.084 1.901,-0.254c0.583,-0.171 1.129,-0.48 1.641,-0.925c0.513,-0.446 1.004,-1.055 1.463,-1.821c0.462,-0.771 0.916,-1.754 1.362,-2.954l-9.242,-26.334c-0.066,-0.133 -0.083,-0.262 -0.05,-0.383c0.034,-0.121 0.163,-0.221 0.384,-0.308c0.225,-0.084 0.558,-0.146 1.004,-0.18c0.442,-0.033 1.075,-0.05 1.9,-0.05l0.667,0Z" style="fill-rule:nonzero;"/><path d="M478.77,37.34c-1.304,-1.575 -2.842,-2.363 -4.621,-2.363c-1.883,0 -3.279,0.721 -4.183,2.158c-0.909,1.434 -1.363,3.525 -1.363,6.263c0,1.537 0.163,2.804 0.488,3.796c0.325,0.996 0.745,1.779 1.258,2.362c0.479,0.546 1.058,0.934 1.746,1.154c0.683,0.225 1.387,0.334 2.104,0.334c0.717,-0 1.446,-0.121 2.183,-0.359c0.734,-0.241 1.292,-0.566 1.667,-0.975c0.275,-0.308 0.463,-0.675 0.567,-1.104c0.1,-0.429 0.154,-0.983 0.154,-1.666l-0,-9.6Zm3.691,-19.817c0.755,-0 1.355,0.021 1.8,0.054c0.442,0.033 0.775,0.075 1,0.129c0.221,0.05 0.367,0.125 0.438,0.229c0.067,0.105 0.1,0.225 0.1,0.359l0,31.362c0,0.584 0.121,0.971 0.362,1.159c0.238,0.187 0.613,0.279 1.13,0.279c0.304,-0 0.491,0.121 0.562,0.362c0.067,0.238 0.104,0.821 0.104,1.746l0,0.563c0,0.891 -0.037,1.487 -0.104,1.795c-0.071,0.309 -0.187,0.496 -0.358,0.567c-0.479,0.171 -1.046,0.317 -1.696,0.433c-0.65,0.121 -1.317,0.184 -2,0.184c-1.129,-0 -2.071,-0.234 -2.825,-0.696c-0.75,-0.463 -1.3,-1.083 -1.642,-1.871c-0.891,0.921 -1.941,1.633 -3.154,2.129c-1.217,0.496 -2.542,0.746 -3.983,0.746c-1.675,0 -3.179,-0.317 -4.513,-0.95c-1.337,-0.633 -2.475,-1.542 -3.416,-2.721c-0.942,-1.183 -1.659,-2.608 -2.155,-4.287c-0.495,-1.675 -0.745,-3.575 -0.745,-5.696c-0,-2.263 0.275,-4.288 0.821,-6.083c0.545,-1.8 1.316,-3.321 2.308,-4.571c0.996,-1.246 2.183,-2.196 3.571,-2.85c1.387,-0.646 2.916,-0.975 4.596,-0.975c2.324,-0 4.362,0.771 6.108,2.312l-0,-12.937c-0,-0.134 0.025,-0.254 0.075,-0.359c0.05,-0.104 0.187,-0.179 0.412,-0.229c0.221,-0.054 0.563,-0.096 1.025,-0.129c0.463,-0.033 1.104,-0.054 1.925,-0.054l0.254,-0Z" style="fill-rule:nonzero;"/><path d="M509.103,37.34c-1.3,-1.575 -2.842,-2.363 -4.621,-2.363c-1.879,0 -3.275,0.721 -4.183,2.158c-0.904,1.434 -1.358,3.525 -1.358,6.263c-0,1.537 0.162,2.804 0.487,3.796c0.325,0.996 0.742,1.779 1.258,2.362c0.48,0.546 1.059,0.934 1.746,1.154c0.684,0.225 1.384,0.334 2.104,0.334c0.717,-0 1.446,-0.121 2.184,-0.359c0.733,-0.241 1.287,-0.566 1.666,-0.975c0.271,-0.308 0.463,-0.675 0.563,-1.104c0.104,-0.429 0.154,-0.983 0.154,-1.666l0,-9.6Zm3.696,-19.817c0.754,-0 1.354,0.021 1.796,0.054c0.446,0.033 0.779,0.075 1.004,0.129c0.221,0.05 0.367,0.125 0.437,0.229c0.067,0.105 0.1,0.225 0.1,0.359l0,31.362c0,0.584 0.121,0.971 0.359,1.159c0.241,0.187 0.617,0.279 1.129,0.279c0.308,-0 0.496,0.121 0.567,0.362c0.066,0.238 0.1,0.821 0.1,1.746l-0,0.563c-0,0.891 -0.034,1.487 -0.1,1.795c-0.071,0.309 -0.188,0.496 -0.359,0.567c-0.483,0.171 -1.046,0.317 -1.696,0.433c-0.649,0.121 -1.316,0.184 -2,0.184c-1.133,-0 -2.07,-0.234 -2.825,-0.696c-0.754,-0.463 -1.3,-1.083 -1.641,-1.871c-0.892,0.921 -1.942,1.633 -3.158,2.129c-1.213,0.496 -2.542,0.746 -3.98,0.746c-1.675,0 -3.183,-0.317 -4.516,-0.95c-1.334,-0.633 -2.471,-1.542 -3.413,-2.721c-0.942,-1.183 -1.658,-2.608 -2.158,-4.287c-0.496,-1.675 -0.742,-3.575 -0.742,-5.696c0,-2.263 0.271,-4.288 0.821,-6.083c0.546,-1.8 1.317,-3.321 2.308,-4.571c0.996,-1.246 2.184,-2.196 3.571,-2.85c1.383,-0.646 2.917,-0.975 4.592,-0.975c2.329,-0 4.362,0.771 6.108,2.312l0,-12.937c0,-0.134 0.025,-0.254 0.079,-0.359c0.05,-0.104 0.188,-0.179 0.409,-0.229c0.225,-0.054 0.566,-0.096 1.029,-0.129c0.462,-0.033 1.104,-0.054 1.925,-0.054l0.254,-0Z" style="fill-rule:nonzero;"/><path d="M525.274,29.435c0.75,0 1.35,0.017 1.796,0.05c0.446,0.034 0.779,0.075 1,0.13c0.225,0.05 0.379,0.129 0.462,0.229c0.088,0.104 0.163,0.225 0.234,0.358l3.179,10.063c0.546,1.745 1.012,3.37 1.387,4.875c0.375,1.508 0.684,2.962 0.925,4.366c0.271,-1.337 0.596,-2.783 0.971,-4.337c0.379,-1.559 0.808,-3.159 1.288,-4.8l2.975,-10.167c0.029,-0.133 0.104,-0.254 0.208,-0.358c0.1,-0.1 0.263,-0.179 0.488,-0.229c0.22,-0.055 0.529,-0.096 0.92,-0.13c0.396,-0.033 0.934,-0.05 1.617,-0.05l0.667,0c0.787,0 1.404,0.017 1.85,0.05c0.445,0.034 0.77,0.096 0.975,0.18c0.204,0.087 0.316,0.187 0.333,0.308c0.017,0.121 0.008,0.25 -0.025,0.383l-8.779,25.717c-0.75,2.192 -1.538,4.067 -2.359,5.621c-0.82,1.558 -1.737,2.841 -2.745,3.85c-1.013,1.012 -2.159,1.754 -3.442,2.233c-1.283,0.479 -2.763,0.721 -4.442,0.721c-1.091,-0 -2.154,-0.121 -3.179,-0.358c-1.029,-0.242 -1.812,-0.55 -2.362,-0.925c-0.238,-0.171 -0.342,-0.413 -0.309,-0.721c0.034,-0.304 0.171,-0.871 0.413,-1.692l0.204,-0.721c0.275,-0.887 0.504,-1.471 0.692,-1.741c0.187,-0.275 0.47,-0.346 0.85,-0.209c0.408,0.138 0.92,0.259 1.537,0.359c0.617,0.104 1.163,0.154 1.642,0.154c0.687,-0 1.317,-0.084 1.9,-0.254c0.583,-0.171 1.129,-0.48 1.646,-0.925c0.512,-0.446 1,-1.055 1.462,-1.821c0.458,-0.771 0.913,-1.754 1.358,-2.954l-9.241,-26.334c-0.067,-0.133 -0.084,-0.262 -0.05,-0.383c0.033,-0.121 0.162,-0.221 0.387,-0.308c0.221,-0.084 0.555,-0.146 1,-0.18c0.442,-0.033 1.075,-0.05 1.9,-0.05l0.667,0Z" style="fill-rule:nonzero;"/><path d="M565.878,37.34c-1.304,-1.575 -2.842,-2.363 -4.621,-2.363c-1.883,0 -3.275,0.721 -4.183,2.158c-0.908,1.434 -1.362,3.525 -1.362,6.263c-0,1.537 0.162,2.804 0.491,3.796c0.321,0.996 0.742,1.779 1.254,2.362c0.479,0.546 1.063,0.934 1.746,1.154c0.683,0.225 1.388,0.334 2.104,0.334c0.721,-0 1.446,-0.121 2.184,-0.359c0.733,-0.241 1.291,-0.566 1.666,-0.975c0.275,-0.308 0.463,-0.675 0.567,-1.104c0.1,-0.429 0.154,-0.983 0.154,-1.666l0,-9.6Zm3.696,-19.817c0.75,-0 1.35,0.021 1.796,0.054c0.446,0.033 0.779,0.075 1,0.129c0.221,0.05 0.366,0.125 0.437,0.229c0.067,0.105 0.1,0.225 0.1,0.359l0,31.362c0,0.584 0.121,0.971 0.363,1.159c0.237,0.187 0.616,0.279 1.129,0.279c0.308,-0 0.496,0.121 0.562,0.362c0.071,0.238 0.105,0.821 0.105,1.746l-0,0.563c-0,0.891 -0.034,1.487 -0.105,1.795c-0.066,0.309 -0.187,0.496 -0.358,0.567c-0.479,0.171 -1.042,0.317 -1.696,0.433c-0.65,0.121 -1.316,0.184 -2,0.184c-1.129,-0 -2.071,-0.234 -2.82,-0.696c-0.755,-0.463 -1.305,-1.083 -1.646,-1.871c-0.888,0.921 -1.942,1.633 -3.155,2.129c-1.216,0.496 -2.541,0.746 -3.979,0.746c-1.679,0 -3.183,-0.317 -4.516,-0.95c-1.338,-0.633 -2.475,-1.542 -3.417,-2.721c-0.942,-1.183 -1.658,-2.608 -2.154,-4.287c-0.496,-1.675 -0.746,-3.575 -0.746,-5.696c0,-2.263 0.275,-4.288 0.825,-6.083c0.546,-1.8 1.313,-3.321 2.308,-4.571c0.992,-1.246 2.184,-2.196 3.567,-2.85c1.387,-0.646 2.917,-0.975 4.596,-0.975c2.325,-0 4.362,0.771 6.108,2.312l0,-12.937c0,-0.134 0.025,-0.254 0.075,-0.359c0.05,-0.104 0.188,-0.179 0.413,-0.229c0.221,-0.054 0.562,-0.096 1.025,-0.129c0.462,-0.033 1.104,-0.054 1.925,-0.054l0.258,-0Z" style="fill-rule:nonzero;"/><path d="M596.007,37.494c-0.479,-0.754 -1.121,-1.35 -1.925,-1.796c-0.804,-0.446 -1.65,-0.671 -2.541,-0.671c-1.88,0 -3.267,0.713 -4.159,2.133c-0.887,1.421 -1.333,3.463 -1.333,6.134c-0,1.129 0.088,2.179 0.258,3.158c0.171,0.975 0.463,1.804 0.871,2.488c0.413,0.683 0.967,1.225 1.667,1.616c0.704,0.396 1.567,0.592 2.596,0.592c0.821,-0 1.57,-0.138 2.258,-0.413c0.683,-0.27 1.213,-0.65 1.592,-1.129c0.27,-0.375 0.458,-0.796 0.562,-1.258c0.104,-0.463 0.154,-1 0.154,-1.617l0,-9.237Zm0.821,-7.392c0,-0.104 0.033,-0.196 0.104,-0.283c0.067,-0.084 0.205,-0.154 0.409,-0.204c0.208,-0.055 0.504,-0.096 0.9,-0.13c0.391,-0.033 0.933,-0.05 1.616,-0.05l0.309,0c1.3,0 2.12,0.05 2.462,0.155c0.342,0.1 0.517,0.287 0.517,0.562c-0,0.413 -0.013,1.025 -0.025,1.85c-0.021,0.821 -0.029,1.733 -0.029,2.746c-0,1.008 -0.009,2.079 -0.025,3.208c-0.017,1.129 -0.025,2.225 -0.025,3.284l-0,3.133c-0,2.017 0.033,4.046 0.104,6.079c0.066,2.038 0.154,3.758 0.254,5.163c-0,0.17 -0.008,0.316 -0.025,0.433c-0.017,0.121 -0.121,0.217 -0.308,0.283c-0.188,0.071 -0.488,0.121 -0.896,0.154c-0.413,0.034 -0.975,0.05 -1.696,0.05l-0.258,0c-1.267,0 -2.08,-0.041 -2.438,-0.125c-0.358,-0.087 -0.587,-0.266 -0.692,-0.541c-0.07,-0.171 -0.129,-0.425 -0.179,-0.771c-0.054,-0.342 -0.112,-0.667 -0.179,-0.975c-0.787,0.892 -1.833,1.6 -3.133,2.133c-1.3,0.529 -2.6,0.796 -3.9,0.796c-1.679,0 -3.192,-0.308 -4.542,-0.925c-1.354,-0.617 -2.5,-1.517 -3.442,-2.696c-0.941,-1.179 -1.658,-2.6 -2.154,-4.262c-0.5,-1.659 -0.746,-3.546 -0.746,-5.671c0,-2.325 0.3,-4.396 0.9,-6.208c0.596,-1.817 1.417,-3.338 2.463,-4.571c1.042,-1.234 2.25,-2.171 3.621,-2.825c1.367,-0.646 2.821,-0.975 4.362,-0.975c1.405,-0 2.684,0.291 3.85,0.875c1.163,0.583 2.034,1.3 2.617,2.154l0.204,-1.846Z" style="fill-rule:nonzero;"/><path d="M613.462,29.435c0.754,0 1.349,0.017 1.795,0.05c0.446,0.034 0.779,0.075 1,0.13c0.225,0.05 0.367,0.129 0.438,0.229c0.066,0.104 0.104,0.225 0.104,0.358l-0,13.863c-0,0.887 0.017,1.633 0.05,2.233c0.033,0.596 0.088,1.104 0.154,1.512c0.067,0.413 0.171,0.755 0.308,1.025c0.138,0.275 0.309,0.534 0.513,0.771c0.683,0.788 1.812,1.184 3.388,1.184c0.583,-0 1.174,-0.071 1.77,-0.209c0.6,-0.137 1.138,-0.341 1.617,-0.616c0.55,-0.342 0.908,-0.725 1.079,-1.155c0.171,-0.425 0.292,-0.95 0.358,-1.562c0.071,-0.583 0.105,-1.321 0.105,-2.208l-0,-14.838c-0,-0.133 0.025,-0.254 0.075,-0.358c0.054,-0.1 0.191,-0.179 0.412,-0.229c0.221,-0.055 0.567,-0.096 1.025,-0.13c0.463,-0.033 1.104,-0.05 1.925,-0.05l0.258,0c0.755,0 1.35,0.017 1.796,0.05c0.446,0.034 0.78,0.075 1,0.13c0.225,0.05 0.371,0.129 0.438,0.229c0.067,0.104 0.104,0.225 0.104,0.358l0,14.171c0,2.017 0.033,4.046 0.1,6.079c0.071,2.038 0.154,3.758 0.258,5.163c0,0.17 -0.016,0.316 -0.054,0.433c-0.033,0.121 -0.15,0.217 -0.358,0.283c-0.204,0.071 -0.521,0.121 -0.95,0.154c-0.425,0.034 -1,0.05 -1.717,0.05l-0.258,0c-1.267,0 -2.088,-0.041 -2.463,-0.125c-0.379,-0.087 -0.616,-0.266 -0.721,-0.541c-0.066,-0.238 -0.129,-0.546 -0.179,-0.925c-0.05,-0.375 -0.108,-0.75 -0.179,-1.129c-0.821,0.995 -1.866,1.783 -3.129,2.362c-1.267,0.583 -2.687,0.875 -4.263,0.875c-1.575,0 -2.954,-0.242 -4.133,-0.721c-1.179,-0.479 -2.162,-1.162 -2.95,-2.054c-0.854,-0.954 -1.471,-2.087 -1.85,-3.387c-0.375,-1.3 -0.562,-2.925 -0.562,-4.875l-0,-15.813c-0,-0.133 0.025,-0.254 0.075,-0.358c0.054,-0.1 0.191,-0.179 0.412,-0.229c0.221,-0.055 0.567,-0.096 1.025,-0.13c0.463,-0.033 1.104,-0.05 1.925,-0.05l0.259,0Z" style="fill-rule:nonzero;"/><path d="M676.753,26.044c-0.479,0.825 -0.821,1.346 -1.025,1.566c-0.208,0.225 -0.462,0.234 -0.771,0.025c-1.2,-0.783 -2.296,-1.366 -3.287,-1.741c-0.992,-0.379 -2.121,-0.567 -3.388,-0.567c-2.875,0 -5.108,1.088 -6.7,3.258c-1.591,2.175 -2.383,5.384 -2.383,9.625c-0,3.971 0.742,7.05 2.229,9.242c1.492,2.188 3.792,3.283 6.904,3.283c1.134,0 2.296,-0.154 3.492,-0.462c1.2,-0.308 2.346,-0.75 3.442,-1.333c0.375,-0.205 0.666,-0.213 0.87,-0.025c0.205,0.187 0.496,0.691 0.871,1.512l0.567,1.233c0.375,0.855 0.579,1.43 0.617,1.721c0.033,0.292 -0.171,0.571 -0.617,0.846c-0.617,0.379 -1.333,0.738 -2.154,1.079c-0.825,0.342 -1.688,0.642 -2.596,0.896c-0.904,0.258 -1.837,0.463 -2.796,0.617c-0.958,0.154 -1.9,0.233 -2.821,0.233c-2.5,0 -4.716,-0.429 -6.65,-1.283c-1.933,-0.859 -3.566,-2.088 -4.904,-3.696c-1.333,-1.608 -2.35,-3.571 -3.05,-5.879c-0.704,-2.309 -1.054,-4.9 -1.054,-7.775c-0,-2.875 0.367,-5.504 1.104,-7.879c0.734,-2.38 1.796,-4.417 3.183,-6.113c1.384,-1.692 3.08,-3.008 5.08,-3.95c2.004,-0.942 4.271,-1.412 6.804,-1.412c3.833,-0 7.116,1.025 9.854,3.079c0.446,0.341 0.65,0.662 0.617,0.95c-0.038,0.291 -0.292,0.883 -0.771,1.771l-0.667,1.179Z" style="fill-rule:nonzero;"/><path d="M683.274,29.435c0.75,0 1.35,0.017 1.796,0.05c0.441,0.034 0.775,0.075 1,0.13c0.221,0.05 0.375,0.129 0.462,0.229c0.084,0.104 0.163,0.225 0.229,0.358l3.184,10.063c0.546,1.745 1.008,3.37 1.387,4.875c0.375,1.508 0.684,2.962 0.921,4.366c0.275,-1.337 0.6,-2.783 0.975,-4.337c0.379,-1.559 0.804,-3.159 1.288,-4.8l2.975,-10.167c0.033,-0.133 0.104,-0.254 0.204,-0.358c0.104,-0.1 0.266,-0.179 0.487,-0.229c0.225,-0.055 0.534,-0.096 0.925,-0.13c0.392,-0.033 0.934,-0.05 1.617,-0.05l0.667,0c0.787,0 1.404,0.017 1.85,0.05c0.441,0.034 0.77,0.096 0.975,0.18c0.204,0.087 0.316,0.187 0.333,0.308c0.017,0.121 0.008,0.25 -0.025,0.383l-8.779,25.717c-0.75,2.192 -1.538,4.067 -2.363,5.621c-0.821,1.558 -1.737,2.841 -2.745,3.85c-1.009,1.012 -2.155,1.754 -3.438,2.233c-1.283,0.479 -2.763,0.721 -4.442,0.721c-1.096,-0 -2.154,-0.121 -3.183,-0.358c-1.025,-0.242 -1.813,-0.55 -2.358,-0.925c-0.242,-0.171 -0.342,-0.413 -0.309,-0.721c0.034,-0.304 0.171,-0.871 0.409,-1.692l0.208,-0.721c0.271,-0.887 0.504,-1.471 0.692,-1.741c0.187,-0.275 0.47,-0.346 0.846,-0.209c0.412,0.138 0.925,0.259 1.541,0.359c0.617,0.104 1.163,0.154 1.642,0.154c0.683,-0 1.316,-0.084 1.9,-0.254c0.583,-0.171 1.129,-0.48 1.642,-0.925c0.512,-0.446 0.999,-1.055 1.462,-1.821c0.462,-0.771 0.917,-1.754 1.362,-2.954l-9.241,-26.334c-0.067,-0.133 -0.083,-0.262 -0.05,-0.383c0.033,-0.121 0.162,-0.221 0.383,-0.308c0.225,-0.084 0.558,-0.146 1.004,-0.18c0.442,-0.033 1.075,-0.05 1.9,-0.05l0.667,0Z" style="fill-rule:nonzero;"/><path d="M711.916,29.435c1.266,0 2.087,0.042 2.462,0.125c0.379,0.088 0.617,0.267 0.721,0.542c0.067,0.238 0.133,0.571 0.204,1c0.067,0.429 0.138,0.829 0.204,1.208c0.854,-0.995 1.909,-1.808 3.159,-2.441c1.25,-0.629 2.608,-0.95 4.079,-0.95c1.608,-0 3.112,0.346 4.516,1.029c1.405,0.683 2.467,1.692 3.184,3.029c1.029,-1.3 2.241,-2.304 3.646,-3.004c1.404,-0.7 2.908,-1.054 4.516,-1.054c1.504,-0 2.834,0.241 3.979,0.721c1.146,0.479 2.113,1.162 2.901,2.054c0.854,0.958 1.47,2.087 1.845,3.387c0.38,1.3 0.567,2.925 0.567,4.875l0,15.813c0,0.137 -0.033,0.254 -0.104,0.358c-0.067,0.1 -0.213,0.179 -0.433,0.229c-0.225,0.054 -0.559,0.096 -1.005,0.129c-0.446,0.034 -1.041,0.05 -1.795,0.05l-0.255,0c-0.821,0 -1.466,-0.016 -1.925,-0.05c-0.462,-0.033 -0.808,-0.075 -1.029,-0.129c-0.221,-0.05 -0.358,-0.129 -0.408,-0.229c-0.054,-0.104 -0.079,-0.221 -0.079,-0.358l-0,-13.863c-0,-0.887 -0.017,-1.633 -0.05,-2.233c-0.038,-0.596 -0.088,-1.104 -0.154,-1.513c-0.071,-0.412 -0.171,-0.754 -0.309,-1.025c-0.137,-0.275 -0.308,-0.533 -0.512,-0.77c-0.688,-0.788 -1.763,-1.184 -3.234,-1.184c-0.483,0 -1.004,0.063 -1.566,0.184c-0.567,0.116 -1.088,0.316 -1.567,0.587c-0.546,0.342 -0.908,0.729 -1.079,1.154c-0.171,0.429 -0.292,0.95 -0.359,1.567c-0.066,0.583 -0.104,1.317 -0.104,2.208l0,14.888c0,0.137 -0.033,0.254 -0.1,0.358c-0.071,0.1 -0.212,0.179 -0.437,0.229c-0.221,0.054 -0.559,0.096 -1,0.129c-0.446,0.034 -1.046,0.05 -1.796,0.05l-0.258,0c-0.821,0 -1.463,-0.016 -1.925,-0.05c-0.463,-0.033 -0.804,-0.075 -1.025,-0.129c-0.225,-0.05 -0.363,-0.129 -0.413,-0.229c-0.05,-0.104 -0.075,-0.221 -0.075,-0.358l0,-13.863c0,-0.887 -0.021,-1.633 -0.054,-2.233c-0.033,-0.596 -0.083,-1.104 -0.154,-1.513c-0.067,-0.412 -0.171,-0.754 -0.304,-1.025c-0.138,-0.275 -0.313,-0.533 -0.517,-0.77c-0.683,-0.788 -1.762,-1.184 -3.233,-1.184c-0.479,0 -1,0.063 -1.567,0.184c-0.563,0.116 -1.083,0.316 -1.562,0.587c-0.551,0.342 -0.909,0.729 -1.08,1.154c-0.171,0.429 -0.291,0.95 -0.358,1.567c-0.071,0.583 -0.104,1.317 -0.104,2.208l-0,14.888c-0,0.137 -0.034,0.254 -0.1,0.358c-0.071,0.1 -0.217,0.179 -0.438,0.229c-0.225,0.054 -0.558,0.096 -1.004,0.129c-0.442,0.034 -1.042,0.05 -1.796,0.05l-0.254,0c-0.821,0 -1.462,-0.016 -1.925,-0.05c-0.462,-0.033 -0.804,-0.075 -1.029,-0.129c-0.221,-0.05 -0.358,-0.129 -0.408,-0.229c-0.05,-0.104 -0.079,-0.221 -0.079,-0.358l-0,-14.171c-0,-2.017 -0.034,-4.046 -0.1,-6.083c-0.071,-2.034 -0.155,-3.755 -0.259,-5.159c0,-0.171 0.017,-0.312 0.05,-0.433c0.033,-0.121 0.154,-0.213 0.363,-0.283c0.204,-0.067 0.521,-0.121 0.95,-0.155c0.425,-0.033 1,-0.05 1.716,-0.05l0.259,0Z" style="fill-rule:nonzero;"/><path d="M757.653,29.435c1.263,0 2.084,0.042 2.463,0.125c0.375,0.088 0.595,0.267 0.666,0.542c0.034,0.1 0.084,0.342 0.154,0.717c0.067,0.379 0.13,0.821 0.18,1.337c0.054,0.513 0.104,1.05 0.154,1.617c0.054,0.562 0.096,1.104 0.129,1.617c0.821,-2.125 1.796,-3.73 2.925,-4.825c1.129,-1.096 2.517,-1.646 4.158,-1.646c0.584,-0 1.025,0.071 1.334,0.208c0.104,0.033 0.179,0.075 0.233,0.129c0.05,0.05 0.092,0.163 0.125,0.334c0.037,0.17 0.062,0.416 0.079,0.741c0.017,0.325 0.025,0.779 0.025,1.363l0,0.716c0,0.65 -0.008,1.167 -0.025,1.542c-0.017,0.375 -0.05,0.65 -0.104,0.821c-0.05,0.171 -0.125,0.283 -0.229,0.333c-0.104,0.05 -0.221,0.075 -0.358,0.075c-1.438,0.138 -2.63,0.509 -3.571,1.104c-0.942,0.6 -1.75,1.396 -2.438,2.388c-0.65,0.992 -1.129,2.25 -1.433,3.775c-0.313,1.521 -0.467,3.496 -0.467,5.925l0,7.396c0,0.137 -0.033,0.254 -0.1,0.358c-0.071,0.1 -0.217,0.179 -0.437,0.229c-0.221,0.054 -0.554,0.096 -1,0.129c-0.446,0.034 -1.046,0.05 -1.796,0.05l-0.259,0c-0.82,0 -1.462,-0.016 -1.924,-0.05c-0.463,-0.033 -0.805,-0.075 -1.025,-0.129c-0.225,-0.05 -0.363,-0.129 -0.413,-0.229c-0.05,-0.104 -0.075,-0.221 -0.075,-0.358l-0,-14.171c-0,-2.017 -0.038,-4.046 -0.104,-6.083c-0.067,-2.034 -0.154,-3.755 -0.254,-5.159c-0,-0.171 0.012,-0.312 0.05,-0.433c0.033,-0.121 0.154,-0.213 0.358,-0.283c0.204,-0.067 0.521,-0.121 0.95,-0.155c0.425,-0.033 1,-0.05 1.721,-0.05l0.308,0Z" style="fill-rule:nonzero;"/><path d="M778.336,29.435c0.755,0 1.35,0.017 1.796,0.05c0.446,0.034 0.78,0.075 1.005,0.13c0.22,0.05 0.366,0.129 0.433,0.229c0.071,0.104 0.104,0.225 0.104,0.358l0,13.863c0,0.887 0.017,1.633 0.05,2.233c0.033,0.596 0.087,1.104 0.154,1.512c0.071,0.413 0.171,0.755 0.309,1.025c0.137,0.275 0.308,0.534 0.512,0.771c0.687,0.788 1.817,1.184 3.387,1.184c0.584,-0 1.175,-0.071 1.771,-0.209c0.6,-0.137 1.138,-0.341 1.617,-0.616c0.55,-0.342 0.908,-0.725 1.079,-1.155c0.171,-0.425 0.292,-0.95 0.363,-1.562c0.066,-0.583 0.1,-1.321 0.1,-2.208l-0,-14.838c-0,-0.133 0.025,-0.254 0.079,-0.358c0.05,-0.1 0.187,-0.179 0.408,-0.229c0.221,-0.055 0.567,-0.096 1.029,-0.13c0.459,-0.033 1.105,-0.05 1.925,-0.05l0.255,0c0.754,0 1.349,0.017 1.795,0.05c0.446,0.034 0.779,0.075 1.004,0.13c0.221,0.05 0.367,0.129 0.434,0.229c0.071,0.104 0.104,0.225 0.104,0.358l-0,14.171c-0,2.017 0.033,4.046 0.104,6.079c0.067,2.038 0.154,3.758 0.254,5.163c0,0.17 -0.016,0.316 -0.05,0.433c-0.033,0.121 -0.154,0.217 -0.358,0.283c-0.204,0.071 -0.525,0.121 -0.95,0.154c-0.429,0.034 -1,0.05 -1.721,0.05l-0.254,0c-1.267,0 -2.092,-0.041 -2.467,-0.125c-0.375,-0.087 -0.616,-0.266 -0.716,-0.541c-0.071,-0.238 -0.13,-0.546 -0.18,-0.925c-0.054,-0.375 -0.112,-0.75 -0.183,-1.129c-0.821,0.995 -1.862,1.783 -3.129,2.362c-1.267,0.583 -2.688,0.875 -4.263,0.875c-1.574,0 -2.95,-0.242 -4.129,-0.721c-1.183,-0.479 -2.166,-1.162 -2.954,-2.054c-0.854,-0.954 -1.471,-2.087 -1.846,-3.387c-0.379,-1.3 -0.566,-2.925 -0.566,-4.875l-0,-15.813c-0,-0.133 0.025,-0.254 0.079,-0.358c0.05,-0.1 0.187,-0.179 0.408,-0.229c0.221,-0.055 0.567,-0.096 1.029,-0.13c0.459,-0.033 1.104,-0.05 1.925,-0.05l0.254,0Z" style="fill-rule:nonzero;"/><path d="M176.049,104.473l8.008,-0l-0.566,-1.796c-0.442,-1.404 -0.838,-2.654 -1.18,-3.75c-0.341,-1.092 -0.65,-2.079 -0.925,-2.95c-0.275,-0.875 -0.512,-1.658 -0.716,-2.362c-0.209,-0.7 -0.396,-1.396 -0.567,-2.08c-0.375,1.3 -0.846,2.884 -1.412,4.75c-0.563,1.867 -1.259,4.03 -2.08,6.496l-0.562,1.692Zm4.362,-21.921c0.717,0 1.292,0.008 1.721,0.025c0.425,0.017 0.763,0.063 1,0.129c0.238,0.067 0.413,0.154 0.513,0.254c0.104,0.105 0.187,0.242 0.258,0.413l12.679,35.217c0.138,0.341 0.017,0.583 -0.358,0.72c-0.379,0.138 -1.317,0.205 -2.825,0.205l-0.617,-0c-0.75,-0 -1.366,-0.017 -1.846,-0.05c-0.479,-0.034 -0.866,-0.088 -1.154,-0.155c-0.291,-0.066 -0.508,-0.154 -0.641,-0.258c-0.138,-0.1 -0.225,-0.237 -0.259,-0.408l-2.925,-8.525l-11.808,-0l-2.825,8.525c-0.104,0.308 -0.383,0.529 -0.846,0.666c-0.462,0.138 -1.429,0.205 -2.9,0.205l-0.512,-0c-1.509,-0 -2.434,-0.05 -2.775,-0.155c-0.342,-0.104 -0.446,-0.341 -0.309,-0.716l12.529,-35.271c0.034,-0.138 0.092,-0.254 0.18,-0.358c0.083,-0.105 0.245,-0.188 0.487,-0.259c0.238,-0.066 0.571,-0.116 1,-0.154c0.429,-0.033 1.017,-0.05 1.771,-0.05l0.462,0Z" style="fill-rule:nonzero;"/><path d="M203.77,92.41c1.266,0 2.087,0.042 2.462,0.125c0.379,0.088 0.6,0.267 0.671,0.542c0.033,0.1 0.083,0.342 0.15,0.717c0.071,0.379 0.129,0.821 0.183,1.337c0.05,0.513 0.1,1.05 0.155,1.617c0.05,0.562 0.091,1.104 0.129,1.617c0.821,-2.121 1.796,-3.73 2.925,-4.825c1.129,-1.096 2.516,-1.646 4.158,-1.646c0.579,-0 1.025,0.071 1.333,0.208c0.105,0.033 0.18,0.075 0.23,0.125c0.054,0.054 0.095,0.163 0.129,0.338c0.033,0.17 0.062,0.416 0.079,0.741c0.017,0.325 0.025,0.779 0.025,1.363l-0,0.716c-0,0.65 -0.008,1.167 -0.025,1.542c-0.017,0.375 -0.05,0.65 -0.104,0.821c-0.05,0.171 -0.129,0.283 -0.229,0.333c-0.105,0.05 -0.225,0.075 -0.359,0.075c-1.441,0.138 -2.629,0.509 -3.571,1.104c-0.941,0.6 -1.754,1.396 -2.437,2.388c-0.65,0.996 -1.129,2.25 -1.438,3.775c-0.308,1.525 -0.462,3.5 -0.462,5.929l-0,7.392c-0,0.137 -0.033,0.258 -0.1,0.362c-0.071,0.1 -0.217,0.179 -0.438,0.229c-0.225,0.05 -0.558,0.096 -1.004,0.13c-0.446,0.033 -1.041,0.05 -1.796,0.05l-0.254,-0c-0.825,-0 -1.466,-0.017 -1.925,-0.05c-0.462,-0.034 -0.808,-0.08 -1.029,-0.13c-0.221,-0.05 -0.358,-0.129 -0.412,-0.229c-0.05,-0.104 -0.075,-0.225 -0.075,-0.362l-0,-14.167c-0,-2.021 -0.034,-4.05 -0.105,-6.083c-0.066,-2.038 -0.15,-3.759 -0.254,-5.163c0,-0.171 0.017,-0.312 0.05,-0.433c0.034,-0.121 0.154,-0.217 0.359,-0.283c0.208,-0.067 0.525,-0.121 0.95,-0.155c0.429,-0.033 1.004,-0.05 1.72,-0.05l0.309,0Z" style="fill-rule:nonzero;"/><path d="M226.77,85.015c0.75,-0 1.35,0.016 1.796,0.054c0.445,0.033 0.779,0.075 1,0.125c0.22,0.054 0.37,0.129 0.437,0.233c0.067,0.1 0.104,0.221 0.104,0.358l0,6.625l6.109,0c0.237,0 0.408,0.121 0.512,0.359c0.104,0.237 0.154,0.975 0.154,2.208l0,0.358c0,1.234 -0.05,1.967 -0.154,2.209c-0.104,0.237 -0.275,0.358 -0.512,0.358l-6.109,0l0,12.679c0,0.754 0.067,1.354 0.204,1.8c0.138,0.442 0.359,0.804 0.667,1.075c0.546,0.479 1.3,0.721 2.258,0.721c0.413,0 0.838,-0.042 1.284,-0.129c0.446,-0.088 0.908,-0.213 1.387,-0.383c0.271,-0.071 0.496,0.016 0.667,0.254c0.171,0.241 0.392,0.837 0.667,1.796l0.154,0.516c0.275,0.959 0.404,1.571 0.387,1.846c-0.021,0.275 -0.183,0.496 -0.491,0.667c-0.821,0.412 -1.763,0.729 -2.821,0.95c-1.063,0.225 -2.088,0.333 -3.079,0.333c-1.438,0 -2.663,-0.179 -3.671,-0.537c-1.013,-0.359 -1.859,-0.88 -2.542,-1.567c-0.721,-0.717 -1.25,-1.633 -1.592,-2.746c-0.341,-1.112 -0.516,-2.508 -0.516,-4.183l-0,-13.092l-3.542,0c-0.237,0 -0.408,-0.121 -0.512,-0.358c-0.1,-0.242 -0.155,-0.975 -0.155,-2.209l0,-0.358c0,-1.233 0.055,-1.971 0.155,-2.208c0.104,-0.238 0.275,-0.359 0.512,-0.359l3.542,0l-0,-6.625c-0,-0.137 0.029,-0.258 0.079,-0.358c0.05,-0.104 0.187,-0.179 0.412,-0.233c0.221,-0.05 0.563,-0.092 1.025,-0.125c0.463,-0.038 1.105,-0.054 1.925,-0.054l0.259,-0Z" style="fill-rule:nonzero;"/><path d="M241.966,113.715c0.441,-0.788 0.804,-1.3 1.075,-1.542c0.275,-0.238 0.55,-0.254 0.825,-0.05c0.991,0.683 2.058,1.225 3.208,1.617c1.146,0.395 2.267,0.591 3.362,0.591c1.367,0 2.43,-0.233 3.184,-0.691c0.75,-0.467 1.129,-1.038 1.129,-1.721c-0,-0.65 -0.325,-1.163 -0.975,-1.542c-0.654,-0.375 -1.463,-0.708 -2.442,-1c-0.975,-0.292 -2.025,-0.608 -3.154,-0.95c-1.129,-0.342 -2.183,-0.821 -3.158,-1.437c-0.975,-0.617 -1.788,-1.43 -2.438,-2.438c-0.65,-1.012 -0.975,-2.337 -0.975,-3.979c0,-1.338 0.271,-2.542 0.821,-3.621c0.546,-1.079 1.292,-1.996 2.229,-2.746c0.946,-0.754 2.063,-1.325 3.367,-1.721c1.3,-0.391 2.704,-0.591 4.208,-0.591c1.713,-0 3.275,0.225 4.696,0.671c1.421,0.441 2.679,1.075 3.775,1.895c0.275,0.175 0.367,0.413 0.283,0.721c-0.087,0.309 -0.387,0.909 -0.9,1.796l-0.462,0.721c-0.479,0.787 -0.838,1.275 -1.075,1.462c-0.242,0.188 -0.5,0.196 -0.771,0.025c-0.821,-0.512 -1.654,-0.916 -2.492,-1.208c-0.837,-0.287 -1.754,-0.433 -2.745,-0.433c-1.542,-0 -2.655,0.291 -3.338,0.871c-0.479,0.412 -0.721,0.908 -0.721,1.487c0,0.654 0.325,1.158 0.979,1.517c0.646,0.358 1.463,0.691 2.438,1c0.975,0.308 2.029,0.641 3.158,1.004c1.129,0.358 2.179,0.837 3.154,1.433c0.975,0.6 1.792,1.388 2.442,2.363c0.65,0.979 0.975,2.233 0.975,3.775c0,1.196 -0.233,2.333 -0.696,3.412c-0.458,1.079 -1.104,2.013 -1.925,2.8c-1.95,1.884 -4.771,2.821 -8.471,2.821c-1.983,0 -3.804,-0.292 -5.466,-0.871c-1.659,-0.583 -3.021,-1.316 -4.079,-2.208c-0.205,-0.171 -0.284,-0.413 -0.234,-0.717c0.054,-0.308 0.284,-0.841 0.696,-1.591l0.513,-0.925Z" style="fill-rule:nonzero;"/><path d="M303.57,89.019c-0.479,0.825 -0.821,1.346 -1.025,1.566c-0.209,0.225 -0.463,0.234 -0.771,0.025c-1.2,-0.783 -2.296,-1.366 -3.288,-1.745c-0.991,-0.375 -2.12,-0.563 -3.387,-0.563c-2.875,0 -5.108,1.088 -6.7,3.258c-1.592,2.175 -2.388,5.384 -2.388,9.625c0,3.971 0.746,7.055 2.234,9.242c1.487,2.192 3.791,3.288 6.904,3.288c1.129,-0 2.296,-0.155 3.492,-0.463c1.195,-0.308 2.345,-0.754 3.441,-1.333c0.375,-0.209 0.667,-0.213 0.871,-0.025c0.204,0.187 0.496,0.691 0.871,1.512l0.567,1.234c0.375,0.854 0.583,1.429 0.616,1.72c0.034,0.288 -0.17,0.571 -0.616,0.846c-0.617,0.375 -1.334,0.738 -2.159,1.075c-0.821,0.346 -1.683,0.646 -2.591,0.9c-0.905,0.259 -1.838,0.463 -2.796,0.617c-0.959,0.154 -1.9,0.229 -2.825,0.229c-2.496,0 -4.713,-0.425 -6.646,-1.283c-1.938,-0.854 -3.571,-2.088 -4.904,-3.696c-1.334,-1.608 -2.354,-3.567 -3.054,-5.875c-0.705,-2.313 -1.055,-4.904 -1.055,-7.779c0,-2.875 0.367,-5.504 1.105,-7.879c0.737,-2.38 1.795,-4.417 3.183,-6.113c1.387,-1.692 3.079,-3.008 5.083,-3.95c2,-0.942 4.271,-1.412 6.805,-1.412c3.829,-0 7.116,1.025 9.854,3.079c0.446,0.341 0.65,0.658 0.616,0.95c-0.033,0.291 -0.291,0.879 -0.771,1.771l-0.666,1.179Z" style="fill-rule:nonzero;"/><path d="M320.407,97.952c-2.054,0 -3.533,0.729 -4.441,2.183c-0.905,1.455 -1.359,3.467 -1.359,6.034c0,2.496 0.417,4.421 1.259,5.775c0.837,1.35 2.162,2.025 3.979,2.025c2.05,-0 3.533,-0.725 4.442,-2.179c0.904,-1.455 1.358,-3.467 1.358,-6.034c-0,-2.496 -0.421,-4.425 -1.259,-5.775c-0.837,-1.354 -2.162,-2.029 -3.979,-2.029Zm0.154,-6.058c3.834,-0 6.846,1.141 9.038,3.416c2.187,2.275 3.283,5.655 3.283,10.138c0,4.692 -1.121,8.292 -3.362,10.808c-2.242,2.517 -5.517,3.771 -9.829,3.771c-3.834,0 -6.846,-1.137 -9.038,-3.412c-2.187,-2.275 -3.283,-5.655 -3.283,-10.138c-0,-4.692 1.121,-8.292 3.362,-10.808c2.242,-2.517 5.517,-3.775 9.829,-3.775Z" style="fill-rule:nonzero;"/><path d="M341.716,92.41c0.75,0 1.35,0.017 1.795,0.05c0.442,0.034 0.78,0.075 1,0.13c0.221,0.05 0.367,0.125 0.438,0.229c0.067,0.104 0.1,0.225 0.1,0.358l-0,13.863c-0,0.891 0.017,1.633 0.054,2.233c0.033,0.6 0.083,1.104 0.154,1.517c0.067,0.408 0.171,0.75 0.304,1.025c0.138,0.275 0.313,0.529 0.517,0.77c0.683,0.788 1.813,1.18 3.388,1.18c0.583,-0 1.17,-0.067 1.77,-0.205c0.6,-0.137 1.138,-0.341 1.617,-0.616c0.55,-0.342 0.908,-0.725 1.079,-1.154c0.171,-0.43 0.292,-0.95 0.359,-1.567c0.07,-0.583 0.104,-1.317 0.104,-2.208l-0,-14.838c-0,-0.133 0.025,-0.254 0.075,-0.358c0.054,-0.104 0.187,-0.179 0.412,-0.229c0.221,-0.055 0.563,-0.096 1.025,-0.13c0.463,-0.033 1.104,-0.05 1.929,-0.05l0.255,0c0.754,0 1.35,0.017 1.795,0.05c0.446,0.034 0.78,0.075 1,0.13c0.225,0.05 0.371,0.125 0.438,0.229c0.067,0.104 0.104,0.225 0.104,0.358l0,14.171c0,2.021 0.033,4.046 0.104,6.083c0.067,2.038 0.15,3.759 0.255,5.159c-0,0.175 -0.017,0.316 -0.051,0.437c-0.033,0.121 -0.154,0.217 -0.358,0.283c-0.208,0.067 -0.525,0.121 -0.95,0.155c-0.429,0.033 -1.004,0.05 -1.721,0.05l-0.258,-0c-1.267,-0 -2.088,-0.042 -2.463,-0.13c-0.379,-0.083 -0.616,-0.262 -0.72,-0.537c-0.067,-0.238 -0.125,-0.546 -0.18,-0.925c-0.05,-0.375 -0.112,-0.75 -0.179,-1.129c-0.82,0.991 -1.866,1.779 -3.133,2.362c-1.267,0.579 -2.683,0.871 -4.258,0.871c-1.575,0 -2.955,-0.237 -4.134,-0.717c-1.179,-0.479 -2.162,-1.162 -2.95,-2.054c-0.858,-0.958 -1.475,-2.087 -1.85,-3.387c-0.375,-1.3 -0.562,-2.925 -0.562,-4.879l-0,-15.813c-0,-0.133 0.025,-0.254 0.075,-0.358c0.05,-0.104 0.187,-0.179 0.408,-0.229c0.225,-0.055 0.567,-0.096 1.029,-0.13c0.463,-0.033 1.104,-0.05 1.925,-0.05l0.259,0Z" style="fill-rule:nonzero;"/><path d="M371.387,92.41c1.266,0 2.087,0.042 2.462,0.125c0.375,0.088 0.617,0.267 0.721,0.542c0.066,0.238 0.125,0.546 0.179,0.925c0.05,0.375 0.108,0.75 0.179,1.129c0.821,-0.958 1.871,-1.737 3.158,-2.337c1.28,-0.6 2.709,-0.9 4.284,-0.9c1.575,-0 2.962,0.241 4.158,0.721c1.2,0.479 2.192,1.162 2.979,2.054c0.854,0.958 1.471,2.087 1.85,3.387c0.375,1.3 0.563,2.925 0.563,4.875l-0,15.813c-0,0.137 -0.034,0.258 -0.104,0.362c-0.067,0.1 -0.213,0.179 -0.434,0.229c-0.225,0.05 -0.558,0.096 -1.004,0.13c-0.442,0.033 -1.042,0.05 -1.796,0.05l-0.258,-0c-0.821,-0 -1.463,-0.017 -1.921,-0.05c-0.462,-0.034 -0.808,-0.08 -1.029,-0.13c-0.221,-0.05 -0.358,-0.129 -0.408,-0.229c-0.055,-0.104 -0.08,-0.225 -0.08,-0.362l0,-13.863c0,-0.887 -0.016,-1.629 -0.05,-2.229c-0.033,-0.6 -0.087,-1.104 -0.154,-1.517c-0.071,-0.408 -0.171,-0.754 -0.308,-1.025c-0.137,-0.275 -0.308,-0.533 -0.513,-0.77c-0.345,-0.375 -0.816,-0.667 -1.412,-0.875c-0.6,-0.205 -1.275,-0.309 -2.029,-0.309c-0.583,0 -1.179,0.071 -1.796,0.209c-0.617,0.137 -1.162,0.341 -1.642,0.616c-0.55,0.342 -0.908,0.725 -1.079,1.154c-0.171,0.43 -0.291,0.95 -0.358,1.567c-0.071,0.579 -0.104,1.317 -0.104,2.204l-0,14.838c-0,0.137 -0.034,0.258 -0.105,0.362c-0.066,0.1 -0.212,0.179 -0.433,0.229c-0.225,0.05 -0.558,0.096 -1.004,0.13c-0.446,0.033 -1.042,0.05 -1.796,0.05l-0.254,-0c-0.825,-0 -1.467,-0.017 -1.925,-0.05c-0.467,-0.034 -0.808,-0.08 -1.029,-0.13c-0.225,-0.05 -0.359,-0.129 -0.413,-0.229c-0.05,-0.104 -0.075,-0.225 -0.075,-0.362l0,-14.167c0,-2.021 -0.033,-4.05 -0.104,-6.083c-0.067,-2.038 -0.15,-3.759 -0.254,-5.163c-0,-0.171 0.017,-0.312 0.05,-0.433c0.033,-0.121 0.154,-0.217 0.358,-0.283c0.209,-0.067 0.525,-0.121 0.95,-0.155c0.429,-0.033 1,-0.05 1.721,-0.05l0.259,0Z" style="fill-rule:nonzero;"/><path d="M418.257,98.465c-0.479,0.925 -0.846,1.458 -1.104,1.591c-0.254,0.138 -0.508,0.121 -0.746,-0.05c-0.925,-0.65 -1.833,-1.146 -2.72,-1.487c-0.892,-0.342 -1.884,-0.513 -2.98,-0.513c-0.887,0 -1.716,0.146 -2.487,0.434c-0.771,0.291 -1.446,0.754 -2.029,1.387c-0.584,0.633 -1.046,1.446 -1.384,2.438c-0.346,0.995 -0.516,2.175 -0.516,3.541c-0,2.604 0.558,4.604 1.67,6.009c1.109,1.404 2.796,2.104 5.055,2.104c1.062,-0 2.029,-0.129 2.904,-0.384c0.871,-0.258 1.804,-0.625 2.796,-1.104c0.308,-0.171 0.55,-0.146 0.72,0.075c0.171,0.225 0.48,0.834 0.925,1.825l0.309,0.717c0.375,0.892 0.571,1.475 0.587,1.746c0.017,0.275 -0.096,0.496 -0.333,0.666c-1.062,0.721 -2.354,1.33 -3.879,1.825c-1.521,0.496 -3.171,0.742 -4.95,0.742c-3.767,0 -6.763,-1.025 -8.988,-3.079c-1.3,-1.196 -2.3,-2.713 -3,-4.542c-0.704,-1.833 -1.054,-3.912 -1.054,-6.237c0,-2.225 0.325,-4.238 0.975,-6.034c0.65,-1.795 1.575,-3.329 2.771,-4.595c1.133,-1.163 2.492,-2.063 4.083,-2.696c1.592,-0.634 3.446,-0.95 5.571,-0.95c1.642,-0 3.217,0.266 4.721,0.796c1.508,0.533 2.842,1.275 4.008,2.233c0.271,0.242 0.384,0.512 0.334,0.821c-0.05,0.308 -0.3,0.891 -0.746,1.746l-0.513,0.975Z" style="fill-rule:nonzero;"/><path d="M428.061,92.41c0.755,0 1.355,0.017 1.8,0.05c0.442,0.034 0.775,0.075 1,0.13c0.221,0.05 0.367,0.125 0.438,0.229c0.067,0.104 0.1,0.225 0.1,0.358l0,25.567c0,0.137 -0.033,0.258 -0.1,0.362c-0.071,0.1 -0.217,0.179 -0.438,0.229c-0.225,0.05 -0.558,0.096 -1,0.13c-0.445,0.033 -1.045,0.05 -1.8,0.05l-0.254,-0c-0.821,-0 -1.462,-0.017 -1.925,-0.05c-0.462,-0.034 -0.804,-0.08 -1.029,-0.13c-0.221,-0.05 -0.358,-0.129 -0.408,-0.229c-0.05,-0.104 -0.079,-0.225 -0.079,-0.362l-0,-25.567c-0,-0.133 0.029,-0.254 0.079,-0.358c0.05,-0.104 0.187,-0.179 0.408,-0.229c0.225,-0.055 0.567,-0.096 1.029,-0.13c0.463,-0.033 1.104,-0.05 1.925,-0.05l0.254,0Zm-4.616,-8.316c-0,-1.134 0.408,-2.117 1.229,-2.954c0.821,-0.838 1.85,-1.259 3.083,-1.259c1.229,0 2.259,0.421 3.079,1.259c0.821,0.837 1.23,1.82 1.23,2.954c-0,1.129 -0.409,2.112 -1.23,2.95c-0.82,0.837 -1.85,1.258 -3.079,1.258c-1.233,0 -2.262,-0.421 -3.083,-1.258c-0.821,-0.838 -1.229,-1.821 -1.229,-2.95Z" style="fill-rule:nonzero;"/><path d="M441.666,80.498c0.72,-0 1.3,0.008 1.745,0.025c0.446,0.017 0.78,0.05 1,0.104c0.225,0.05 0.38,0.121 0.467,0.204c0.083,0.088 0.142,0.196 0.179,0.334c0.067,0.379 0.134,1.045 0.204,2.004c0.067,0.958 0.121,2.104 0.155,3.437c0.033,1.338 0.058,2.817 0.075,4.442c0.02,1.625 0.025,3.312 0.025,5.058l-0,16.325c-0,0.579 0.121,1.017 0.362,1.309c0.238,0.291 0.684,0.437 1.333,0.437l0.617,0c0.238,0 0.383,0.138 0.438,0.408c0.05,0.275 0.075,0.892 0.075,1.85l-0,0.463c-0,0.925 -0.025,1.504 -0.075,1.746c-0.055,0.237 -0.184,0.408 -0.388,0.512c-0.375,0.171 -0.871,0.317 -1.487,0.438c-0.617,0.116 -1.267,0.179 -1.95,0.179c-1.85,-0 -3.288,-0.517 -4.313,-1.542c-0.617,-0.616 -1.046,-1.366 -1.283,-2.258c-0.242,-0.892 -0.359,-1.933 -0.359,-3.133l0,-17.813c0,-1.233 -0.02,-2.558 -0.054,-3.979c-0.033,-1.421 -0.066,-2.779 -0.1,-4.083c-0.037,-1.3 -0.079,-2.471 -0.129,-3.513c-0.054,-1.046 -0.096,-1.808 -0.129,-2.287c-0,-0.138 0.017,-0.246 0.05,-0.334c0.033,-0.083 0.154,-0.154 0.362,-0.204c0.205,-0.054 0.538,-0.087 1,-0.104c0.463,-0.017 1.105,-0.025 1.926,-0.025l0.254,-0Z" style="fill-rule:nonzero;"/><path d="M478.27,97.952c-2.054,0 -3.534,0.729 -4.442,2.183c-0.904,1.455 -1.358,3.467 -1.358,6.034c-0,2.496 0.416,4.421 1.258,5.775c0.838,1.35 2.163,2.025 3.979,2.025c2.05,-0 3.534,-0.725 4.438,-2.179c0.908,-1.455 1.362,-3.467 1.362,-6.034c0,-2.496 -0.421,-4.425 -1.258,-5.775c-0.838,-1.354 -2.167,-2.029 -3.979,-2.029Zm0.154,-6.058c3.833,-0 6.846,1.141 9.037,3.416c2.188,2.275 3.284,5.655 3.284,10.138c-0,4.692 -1.121,8.292 -3.363,10.808c-2.241,2.517 -5.52,3.771 -9.829,3.771c-3.833,0 -6.846,-1.137 -9.037,-3.412c-2.192,-2.275 -3.284,-5.655 -3.284,-10.138c0,-4.692 1.121,-8.292 3.363,-10.808c2.241,-2.517 5.517,-3.775 9.829,-3.775Z" style="fill-rule:nonzero;"/><path d="M497.728,92.41l0,-1.233c0,-1.883 0.246,-3.533 0.746,-4.954c0.492,-1.421 1.204,-2.608 2.129,-3.567c1.746,-1.779 4.208,-2.671 7.392,-2.671c1.983,0 3.866,0.325 5.646,0.975c0.241,0.067 0.37,0.259 0.387,0.563c0.017,0.308 -0.079,0.908 -0.283,1.8l-0.204,0.871c-0.209,0.891 -0.388,1.462 -0.542,1.721c-0.154,0.258 -0.333,0.35 -0.538,0.283c-0.583,-0.138 -1.137,-0.242 -1.67,-0.308c-0.53,-0.071 -1.067,-0.105 -1.617,-0.105c-1.642,0 -2.788,0.446 -3.438,1.338c-0.65,0.887 -0.975,2.308 -0.975,4.258l0,1.029l5.905,0c0.237,0 0.408,0.121 0.512,0.359c0.104,0.237 0.154,0.975 0.154,2.208l0,0.358c0,1.234 -0.05,1.967 -0.154,2.209c-0.104,0.237 -0.275,0.358 -0.512,0.358l-5.905,0l0,20.842c0,0.137 -0.033,0.258 -0.104,0.362c-0.066,0.1 -0.212,0.179 -0.433,0.229c-0.225,0.05 -0.558,0.096 -1.004,0.13c-0.446,0.033 -1.042,0.05 -1.796,0.05l-0.258,-0c-0.821,-0 -1.463,-0.017 -1.925,-0.05c-0.459,-0.034 -0.805,-0.08 -1.025,-0.13c-0.225,-0.05 -0.359,-0.129 -0.413,-0.229c-0.05,-0.104 -0.075,-0.225 -0.075,-0.362l0,-20.842l-3.596,0c-0.237,0 -0.408,-0.121 -0.512,-0.358c-0.104,-0.242 -0.154,-0.975 -0.154,-2.209l-0,-0.358c-0,-1.233 0.05,-1.971 0.154,-2.208c0.104,-0.238 0.275,-0.359 0.512,-0.359l3.596,0Z" style="fill-rule:nonzero;"/><path d="M530.791,82.552c1.466,0 2.437,0.058 2.896,0.179c0.462,0.121 0.725,0.35 0.795,0.692l3.746,15.042c0.513,2.054 1.013,4.204 1.492,6.445c0.475,2.242 0.858,4.338 1.129,6.288c0.1,-0.821 0.233,-1.754 0.388,-2.796c0.154,-1.046 0.325,-2.133 0.512,-3.262c0.188,-1.13 0.383,-2.275 0.592,-3.438c0.204,-1.162 0.425,-2.258 0.666,-3.287l3.438,-14.992c0.033,-0.171 0.104,-0.313 0.208,-0.433c0.1,-0.121 0.279,-0.217 0.538,-0.284c0.254,-0.066 0.616,-0.112 1.079,-0.129c0.462,-0.017 1.067,-0.025 1.821,-0.025l0.462,0c1.504,0 2.492,0.071 2.95,0.204c0.463,0.138 0.729,0.363 0.796,0.667l3.442,14.583c0.237,1.129 0.487,2.309 0.746,3.542c0.254,1.233 0.483,2.454 0.691,3.671c0.204,1.212 0.392,2.396 0.563,3.541c0.175,1.146 0.308,2.184 0.412,3.105c0.104,-0.921 0.246,-1.95 0.438,-3.08c0.187,-1.129 0.4,-2.291 0.641,-3.491c0.238,-1.196 0.48,-2.413 0.717,-3.646c0.242,-1.229 0.496,-2.413 0.771,-3.542l3.437,-14.683c0.071,-0.342 0.309,-0.571 0.721,-0.692c0.413,-0.121 1.367,-0.179 2.875,-0.179l0.309,0c0.787,0 1.404,0.017 1.85,0.05c0.441,0.038 0.787,0.096 1.025,0.179c0.237,0.088 0.374,0.179 0.408,0.284c0.037,0.104 0.037,0.225 -0,0.358l-9.288,35.221c-0.071,0.308 -0.337,0.529 -0.796,0.666c-0.462,0.138 -1.433,0.205 -2.904,0.205l-0.666,-0c-1.575,-0 -2.634,-0.05 -3.184,-0.155c-0.546,-0.104 -0.854,-0.341 -0.925,-0.716l-2.821,-11.604c-0.275,-1.13 -0.541,-2.309 -0.795,-3.542c-0.259,-1.233 -0.505,-2.463 -0.746,-3.696c-0.238,-1.233 -0.454,-2.437 -0.642,-3.621c-0.187,-1.179 -0.333,-2.283 -0.437,-3.312c-0.271,2.087 -0.625,4.366 -1.05,6.829c-0.43,2.462 -0.9,4.808 -1.413,7.033l-2.825,11.913c-0.071,0.308 -0.333,0.529 -0.796,0.666c-0.462,0.138 -1.429,0.205 -2.9,0.205l-1.079,-0c-0.792,-0 -1.408,-0.009 -1.871,-0.025c-0.462,-0.017 -0.825,-0.059 -1.083,-0.13c-0.254,-0.066 -0.433,-0.162 -0.533,-0.279c-0.104,-0.121 -0.175,-0.266 -0.213,-0.437l-9.75,-35.221c-0.067,-0.171 -0.075,-0.304 -0.025,-0.408c0.05,-0.105 0.196,-0.188 0.438,-0.259c0.237,-0.066 0.596,-0.116 1.079,-0.154c0.479,-0.033 1.129,-0.05 1.95,-0.05l0.721,0Z" style="fill-rule:nonzero;"/><path d="M591.366,100.469c-0.479,-0.754 -1.121,-1.35 -1.925,-1.796c-0.805,-0.446 -1.65,-0.667 -2.542,-0.667c-1.883,0 -3.267,0.709 -4.158,2.129c-0.888,1.421 -1.334,3.467 -1.334,6.134c0,1.129 0.084,2.183 0.254,3.158c0.176,0.975 0.467,1.808 0.876,2.492c0.412,0.683 0.966,1.221 1.666,1.616c0.704,0.392 1.567,0.588 2.596,0.588c0.821,-0 1.571,-0.133 2.258,-0.408c0.684,-0.275 1.213,-0.65 1.592,-1.13c0.271,-0.375 0.463,-0.795 0.563,-1.258c0.104,-0.462 0.154,-1 0.154,-1.617l-0,-9.241Zm0.82,-7.392c0,-0.104 0.038,-0.196 0.105,-0.283c0.066,-0.088 0.204,-0.154 0.412,-0.204c0.204,-0.055 0.504,-0.096 0.896,-0.13c0.396,-0.033 0.933,-0.05 1.617,-0.05l0.308,0c1.3,0 2.121,0.05 2.467,0.155c0.341,0.1 0.512,0.287 0.512,0.562c0,0.413 -0.008,1.025 -0.025,1.85c-0.017,0.821 -0.025,1.738 -0.025,2.746c0,1.008 -0.012,2.079 -0.025,3.208c-0.021,1.129 -0.029,2.225 -0.029,3.284l-0,3.133c-0,2.021 0.033,4.046 0.104,6.083c0.067,2.038 0.154,3.759 0.254,5.159c0,0.175 -0.008,0.316 -0.025,0.437c-0.016,0.121 -0.12,0.217 -0.304,0.283c-0.192,0.067 -0.491,0.121 -0.9,0.155c-0.412,0.033 -0.975,0.05 -1.696,0.05l-0.254,-0c-1.267,-0 -2.079,-0.042 -2.442,-0.13c-0.358,-0.083 -0.587,-0.262 -0.691,-0.537c-0.071,-0.171 -0.129,-0.429 -0.179,-0.771c-0.05,-0.342 -0.113,-0.667 -0.18,-0.975c-0.787,0.892 -1.833,1.6 -3.133,2.129c-1.3,0.529 -2.6,0.796 -3.9,0.796c-1.679,0 -3.191,-0.308 -4.546,-0.921c-1.35,-0.616 -2.495,-1.516 -3.437,-2.696c-0.942,-1.183 -1.663,-2.604 -2.158,-4.262c-0.496,-1.658 -0.742,-3.55 -0.742,-5.671c-0,-2.329 0.3,-4.4 0.896,-6.212c0.6,-1.817 1.42,-3.338 2.466,-4.571c1.042,-1.234 2.25,-2.171 3.617,-2.825c1.371,-0.65 2.825,-0.975 4.367,-0.975c1.4,-0 2.683,0.291 3.85,0.875c1.162,0.583 2.033,1.3 2.616,2.154l0.204,-1.846Z" style="fill-rule:nonzero;"/><path d="M608.566,80.498c0.716,-0 1.3,0.008 1.746,0.025c0.441,0.017 0.774,0.05 0.999,0.104c0.221,0.05 0.375,0.121 0.463,0.204c0.083,0.088 0.146,0.196 0.179,0.334c0.067,0.379 0.133,1.045 0.204,2.004c0.071,0.958 0.121,2.104 0.154,3.437c0.034,1.338 0.059,2.817 0.08,4.442c0.016,1.625 0.025,3.312 0.025,5.058l-0,16.325c-0,0.579 0.116,1.017 0.358,1.309c0.237,0.291 0.683,0.437 1.333,0.437l0.617,0c0.242,0 0.387,0.138 0.438,0.408c0.049,0.275 0.079,0.892 0.079,1.85l-0,0.463c-0,0.925 -0.03,1.504 -0.079,1.746c-0.051,0.237 -0.18,0.408 -0.388,0.512c-0.375,0.171 -0.871,0.317 -1.488,0.438c-0.616,0.116 -1.266,0.179 -1.95,0.179c-1.85,-0 -3.283,-0.517 -4.312,-1.542c-0.617,-0.616 -1.046,-1.366 -1.283,-2.258c-0.242,-0.892 -0.359,-1.933 -0.359,-3.133l0,-17.813c0,-1.233 -0.016,-2.558 -0.05,-3.979c-0.037,-1.421 -0.071,-2.779 -0.104,-4.083c-0.037,-1.3 -0.079,-2.471 -0.129,-3.513c-0.05,-1.046 -0.096,-1.808 -0.129,-2.287c-0,-0.138 0.017,-0.246 0.054,-0.334c0.033,-0.083 0.154,-0.154 0.358,-0.204c0.205,-0.054 0.538,-0.087 1,-0.104c0.463,-0.017 1.104,-0.025 1.925,-0.025l0.259,-0Z" style="fill-rule:nonzero;"/><path d="M636.545,103.344c-0.175,-1.609 -0.654,-2.934 -1.442,-3.979c-0.787,-1.042 -1.9,-1.567 -3.333,-1.567c-1.438,-0 -2.604,0.487 -3.492,1.462c-0.892,0.98 -1.508,2.338 -1.85,4.084l10.117,-0Zm-10.117,5.029c0.275,1.85 0.983,3.254 2.129,4.212c1.15,0.959 2.696,1.438 4.646,1.438c1.267,-0 2.5,-0.154 3.7,-0.463c1.196,-0.308 2.375,-0.7 3.542,-1.179c0.271,-0.137 0.504,-0.121 0.691,0.05c0.188,0.171 0.421,0.65 0.696,1.438l0.459,1.283c0.308,0.892 0.454,1.471 0.437,1.746c-0.016,0.275 -0.179,0.496 -0.487,0.667c-1.3,0.716 -2.834,1.308 -4.596,1.77c-1.763,0.463 -3.55,0.692 -5.363,0.692c-2.021,0 -3.841,-0.308 -5.466,-0.921c-1.63,-0.616 -3.013,-1.516 -4.159,-2.696c-1.15,-1.183 -2.029,-2.62 -2.646,-4.312c-0.616,-1.696 -0.925,-3.638 -0.925,-5.829c0,-2.088 0.292,-4.013 0.875,-5.775c0.58,-1.763 1.413,-3.284 2.488,-4.571c1.079,-1.283 2.404,-2.275 3.979,-2.975c1.575,-0.7 3.338,-1.054 5.288,-1.054c1.954,-0 3.662,0.341 5.133,1.029c1.475,0.683 2.712,1.642 3.725,2.875c1.008,1.229 1.762,2.696 2.258,4.387c0.496,1.696 0.746,3.538 0.746,5.521c0,0.992 -0.037,1.684 -0.104,2.079c-0.071,0.392 -0.208,0.588 -0.412,0.588l-16.634,-0Z" style="fill-rule:nonzero;"/><path d="M648.811,113.715c0.446,-0.788 0.805,-1.3 1.08,-1.542c0.275,-0.238 0.545,-0.254 0.821,-0.05c0.991,0.683 2.062,1.225 3.208,1.617c1.146,0.395 2.266,0.591 3.362,0.591c1.371,0 2.429,-0.233 3.184,-0.691c0.75,-0.467 1.129,-1.038 1.129,-1.721c-0,-0.65 -0.325,-1.163 -0.975,-1.542c-0.65,-0.375 -1.463,-0.708 -2.438,-1c-0.975,-0.292 -2.029,-0.608 -3.158,-0.95c-1.129,-0.342 -2.183,-0.821 -3.158,-1.437c-0.975,-0.617 -1.788,-1.43 -2.438,-2.438c-0.65,-1.012 -0.975,-2.337 -0.975,-3.979c0,-1.338 0.275,-2.542 0.821,-3.621c0.546,-1.079 1.292,-1.996 2.233,-2.746c0.942,-0.754 2.063,-1.325 3.363,-1.721c1.3,-0.391 2.704,-0.591 4.208,-0.591c1.713,-0 3.279,0.225 4.7,0.671c1.421,0.441 2.675,1.075 3.771,1.895c0.275,0.175 0.371,0.413 0.283,0.721c-0.087,0.309 -0.383,0.909 -0.895,1.796l-0.467,0.721c-0.479,0.787 -0.838,1.275 -1.075,1.462c-0.242,0.188 -0.496,0.196 -0.771,0.025c-0.821,-0.512 -1.65,-0.916 -2.492,-1.208c-0.837,-0.287 -1.75,-0.433 -2.745,-0.433c-1.538,-0 -2.65,0.291 -3.338,0.871c-0.479,0.412 -0.717,0.908 -0.717,1.487c0,0.654 0.325,1.158 0.975,1.517c0.65,0.358 1.463,0.691 2.438,1c0.975,0.308 2.029,0.641 3.158,1.004c1.129,0.358 2.183,0.837 3.159,1.433c0.974,0.6 1.787,1.388 2.437,2.363c0.65,0.979 0.975,2.233 0.975,3.775c0,1.196 -0.229,2.333 -0.692,3.412c-0.462,1.079 -1.104,2.013 -1.925,2.8c-1.954,1.884 -4.775,2.821 -8.471,2.821c-1.987,0 -3.808,-0.292 -5.466,-0.871c-1.663,-0.583 -3.021,-1.316 -4.083,-2.208c-0.205,-0.171 -0.284,-0.413 -0.234,-0.717c0.054,-0.308 0.283,-0.841 0.696,-1.591l0.512,-0.925Z" style="fill-rule:nonzero;"/><path d="M17.686,69.219c5.392,-26.296 28.084,-45.388 54.65,-46.513c-1.158,-0.312 -2.325,-0.587 -3.491,-0.829c-3.854,-0.783 -7.704,-1.162 -11.496,-1.162c-26.671,-0 -50.629,18.695 -56.171,45.745c-3.058,14.938 -0.117,30.18 8.292,42.913c8.441,12.779 21.371,21.504 36.408,24.571c2.429,0.496 4.896,0.837 7.358,1.012c-26.062,-10.325 -41.237,-37.983 -35.55,-65.737Z" style="fill-rule:nonzero;"/><path d="M2.195,44.573c-0.542,2.4 -0.929,4.85 -1.159,7.317c9.18,-21.792 30.621,-35.596 53.767,-35.596c4.242,-0 8.538,0.462 12.825,1.425c26.263,5.887 44.967,28.883 45.575,55.396c0.338,-1.146 0.633,-2.305 0.896,-3.463c3.35,-14.879 0.704,-30.175 -7.458,-43.071c-8.192,-12.937 -20.946,-21.912 -35.921,-25.266c-30.85,-6.913 -61.592,12.491 -68.525,43.258Z" style="fill-rule:nonzero;"/><path d="M76.903,120.31c-26.875,-1.404 -49.192,-20.941 -54.254,-46.979c-0.138,1.196 -0.238,2.388 -0.3,3.571c-0.8,15.254 4.404,29.908 14.654,41.258c10.25,11.35 24.321,18.046 39.617,18.846c31.575,1.625 58.616,-22.641 60.266,-54.125c0.13,-2.471 0.1,-4.95 -0.091,-7.412c-6.363,27.237 -31.546,46.354 -59.892,44.841Z" style="fill-rule:nonzero;"/><path d="M117.957,66.919c-5.208,26.325 -27.762,45.575 -54.321,46.883c1.163,0.304 2.33,0.575 3.488,0.8c31.017,6.108 61.237,-14.096 67.358,-45.037c2.963,-14.959 -0.087,-30.18 -8.583,-42.855c-8.529,-12.725 -21.517,-21.362 -36.571,-24.325c-2.417,-0.475 -4.879,-0.795 -7.354,-0.958c26.125,10.154 41.483,37.708 35.983,65.492Z" style="fill-rule:nonzero;"/></svg>