<?xml version="1.0" encoding="UTF-8" standalone="no"?><!DOCTYPE svg PUBLIC "-//W3C//DTD SVG 1.1//EN" "http://www.w3.org/Graphics/SVG/1.1/DTD/svg11.dtd"><svg width="100%" height="100%" viewBox="0 0 1720 1995" version="1.1" xmlns="http://www.w3.org/2000/svg" xmlns:xlink="http://www.w3.org/1999/xlink" xml:space="preserve" xmlns:serif="http://www.serif.com/" style="fill-rule:evenodd;clip-rule:evenodd;stroke-linejoin:round;stroke-miterlimit:2;"><path d="M1404.7,1994.17l-377.208,-372.014c-88.577,98.682 -250.545,202.424 -470.722,202.424c-184.746,-0 -321.407,-45.546 -415.045,-139.166c-93.638,-93.621 -141.723,-210.014 -141.723,-354.241c0,-179.651 91.108,-346.65 273.323,-500.997c-7.593,-10.122 -17.716,-25.303 -30.37,-45.546c-12.653,-17.712 -30.369,-55.666 -50.615,-113.863c-20.246,-58.196 -30.369,-113.863 -30.369,-172.059c-0,-7.591 -0,-15.182 2.531,-27.834c-0,-22.772 15.184,-106.272 37.961,-169.529c37.962,-98.681 116.415,-227.726 280.915,-273.271c172.092,-60.727 417.576,-17.712 511.214,75.908c146.785,126.515 187.277,308.696 194.869,384.604l2.531,30.364l-0,126.514l-296.1,0l0,-126.514c0,-131.575 -83.515,-237.847 -225.238,-237.847c-20.246,-0 -32.899,-2.531 -80.984,12.651c-63.269,20.242 -131.6,78.439 -131.6,204.954c0,91.09 40.493,177.12 121.477,258.089l420.107,427.619l212.584,-290.983l220.176,161.938l-232.83,321.347l519.802,521.073l-0,96.379l-314.686,-0Zm12.818,-31.25l-368.082,-363.013c-6.083,-5.999 -14.356,-9.246 -22.894,-8.986c-8.539,0.26 -16.599,4.004 -22.305,10.361c-84.175,93.778 -238.232,192.048 -447.467,192.048c-174.678,-0 -304.415,-41.497 -392.95,-130.016c-87.768,-87.751 -132.568,-196.956 -132.568,-332.141c-0,-171.396 88.428,-329.897 262.271,-477.152c12.621,-10.691 14.726,-29.366 4.8,-42.598c-7.225,-9.63 -16.828,-24.096 -28.869,-43.357c-0.341,-0.545 -0.698,-1.079 -1.071,-1.602c-11.753,-16.45 -27.724,-51.914 -46.528,-105.965c-19.039,-54.728 -28.634,-107.063 -28.634,-161.791c-0,-5.918 -0.049,-11.841 1.924,-21.704c0.403,-2.018 0.607,-4.071 0.607,-6.13c-0,-21.317 14.677,-99.238 35.968,-158.538c35.313,-91.65 107.467,-211.914 259.996,-254.145c0.695,-0.193 1.382,-0.409 2.061,-0.648c97.805,-34.513 220.646,-33.259 322.421,-7.892c65.366,16.293 122.12,42.257 156.299,76.43c0.545,0.545 1.11,1.069 1.693,1.572c138.697,119.544 176.883,291.722 184.145,363.735c0.007,0.068 2.407,28.862 2.407,28.862c-0,0 -0,93.964 -0,93.964c-0,0 -233.599,0 -233.599,0c-0.001,0 -0.001,-95.264 -0.001,-95.264c0,-149.321 -95.651,-269.097 -256.488,-269.097c-22.597,-0 -36.724,-2.844 -90.393,14.101c-0.038,0.012 -0.076,0.024 -0.114,0.036c-72.826,23.3 -153.327,89.092 -153.327,234.718c0,98.705 42.85,192.406 130.59,280.147c-0.064,-0.064 419.952,427.462 419.952,427.462c6.43,6.545 15.413,9.934 24.565,9.266c9.151,-0.667 17.547,-5.323 22.96,-12.732l194.09,-265.669c0,-0 169.927,124.98 169.927,124.98c-0,-0 -214.626,296.221 -214.626,296.221c-9.001,12.424 -7.653,29.544 3.182,40.405l510.676,511.925c-0,-0.001 -0,52.207 -0,52.207l-270.618,-0Zm-853.156,-387.953c121.747,0 218.349,-44.794 287.523,-130.554c10.055,-12.464 9.059,-30.512 -2.305,-41.795l-364.43,-361.832c-10.411,-10.337 -26.611,-12.039 -38.944,-4.093c-124.723,80.362 -181.355,203.274 -181.355,291.95c0,148.397 119.689,246.324 299.511,246.324Zm0,-31.25c-159.438,0 -268.261,-83.499 -268.261,-215.074c0,-80.97 53.146,-192.302 167.031,-265.681l364.43,361.832c-63.269,78.439 -151.846,118.923 -263.2,118.923Z"/></svg>