<?xml version="1.0" encoding="UTF-8" standalone="no"?><!DOCTYPE svg PUBLIC "-//W3C//DTD SVG 1.1//EN" "http://www.w3.org/Graphics/SVG/1.1/DTD/svg11.dtd"><svg width="100%" height="100%" viewBox="0 0 1720 1995" version="1.1" xmlns="http://www.w3.org/2000/svg" xmlns:xlink="http://www.w3.org/1999/xlink" xml:space="preserve" xmlns:serif="http://www.serif.com/" style="fill-rule:evenodd;clip-rule:evenodd;stroke-linejoin:round;stroke-miterlimit:2;"><path d="M1404.7,1994.17l-377.208,-372.014c-88.577,98.682 -250.545,202.424 -470.722,202.424c-184.746,-0 -321.407,-45.546 -415.045,-139.166c-93.638,-93.621 -141.723,-210.014 -141.723,-354.241c0,-179.651 91.108,-346.65 273.323,-500.997c-7.593,-10.122 -17.716,-25.303 -30.37,-45.546c-12.653,-17.712 -30.369,-55.666 -50.615,-113.863c-20.246,-58.196 -30.369,-113.863 -30.369,-172.059c-0,-7.591 -0,-15.182 2.531,-27.834c-0,-22.772 15.184,-106.272 37.961,-169.529c37.962,-98.681 116.415,-227.726 280.915,-273.271c172.092,-60.727 417.576,-17.712 511.214,75.908c146.785,126.515 187.277,308.696 194.869,384.604l2.531,30.364l-0,126.514l-296.1,0l0,-126.514c0,-131.575 -83.515,-237.847 -225.238,-237.847c-20.246,-0 -32.899,-2.531 -80.984,12.651c-63.269,20.242 -131.6,78.439 -131.6,204.954c0,91.09 40.493,177.12 121.477,258.089l420.107,427.619l212.584,-290.983l220.176,161.938l-232.83,321.347l519.802,521.073l-0,96.379l-314.686,-0Zm-840.338,-450.453c-159.438,0 -268.261,-83.499 -268.261,-215.074c0,-80.97 53.146,-192.302 167.031,-265.681l364.43,361.832c-63.269,78.439 -151.846,118.923 -263.2,118.923Z"/></svg>