<?xml version="1.0" encoding="UTF-8" standalone="no"?><!DOCTYPE svg PUBLIC "-//W3C//DTD SVG 1.1//EN" "http://www.w3.org/Graphics/SVG/1.1/DTD/svg11.dtd"><svg width="100%" height="100%" viewBox="0 0 512 512" version="1.1" xmlns="http://www.w3.org/2000/svg" xmlns:xlink="http://www.w3.org/1999/xlink" xml:space="preserve" xmlns:serif="http://www.serif.com/" style="fill-rule:evenodd;clip-rule:evenodd;stroke-linejoin:round;stroke-miterlimit:2;"><path d="M409.124,512l-66.627,-65.849c-24.36,27.139 -68.904,55.67 -129.457,55.67c-50.809,0 -88.393,-12.526 -114.146,-38.273c-25.752,-25.748 -38.976,-57.758 -38.976,-97.423c-0,-49.408 25.056,-95.336 75.169,-137.784c-2.088,-2.784 -4.872,-6.959 -8.352,-12.526c-3.48,-4.871 -8.352,-15.309 -13.921,-31.315c-5.568,-16.005 -8.352,-31.314 -8.352,-47.319c0,-2.088 0,-4.176 0.696,-7.655c0,-6.263 4.176,-29.227 10.44,-46.624c10.441,-27.139 32.017,-62.629 77.257,-75.155c47.329,-16.701 114.842,-4.871 140.594,20.877c40.369,34.794 51.505,84.897 53.593,105.773l0.696,8.351l0,34.794l-81.433,-0l-0,-34.794c-0,-36.186 -22.968,-65.413 -61.945,-65.413c-5.568,0 -9.048,-0.696 -22.272,3.48c-17.4,5.567 -36.193,21.572 -36.193,56.366c0,25.051 11.137,48.711 33.409,70.979l115.537,117.604l58.465,-80.026l60.553,44.536l-64.033,88.377l76.12,76.324l-56.822,57.025Zm-193.996,-87.421c-43.849,-0 -73.777,-22.964 -73.777,-59.15c-0,-22.268 14.616,-52.887 45.936,-73.067l100.226,99.51c-17.401,21.573 -41.761,32.707 -72.385,32.707Z" style="fill:#fff;"/></svg>