<?xml version="1.0" encoding="UTF-8" standalone="no"?><!DOCTYPE svg PUBLIC "-//W3C//DTD SVG 1.1//EN" "http://www.w3.org/Graphics/SVG/1.1/DTD/svg11.dtd"><svg width="100%" height="100%" viewBox="0 0 1452 1452" version="1.1" xmlns="http://www.w3.org/2000/svg" xmlns:xlink="http://www.w3.org/1999/xlink" xml:space="preserve" xmlns:serif="http://www.serif.com/" style="fill-rule:evenodd;clip-rule:evenodd;stroke-linejoin:round;stroke-miterlimit:2;"><ellipse cx="725.669" cy="722.937" rx="725.669" ry="722.937" style="fill:none;"/><clipPath id="_clip1"><ellipse cx="725.669" cy="722.937" rx="725.669" ry="722.937"/></clipPath><g clip-path="url(#_clip1)"><path d="M1234.53,1451.34c-113.34,73.267 -363.995,0.167 -508.859,0.167c-164.034,-0 -586.965,149.345 -725.669,-0.167c-149.452,-161.098 0,-489.029 0,-725.503c0,-192.767 -122.798,-595.831 0,-725.836c132.336,-140.102 517.929,0.167 725.669,0.167c199.985,-0 618.952,-131.21 750.263,-0.167c131.665,131.396 -24.593,525.313 -24.593,725.836c-0,184.714 113.833,536.399 -0,664.568c-0,0 -0.147,0.099 -0,0l-354.792,-356.951l160.297,-220.569l-149.874,-110.241l-143.812,195.669l-286.861,-288.685c-55.126,-55.121 -82.69,-113.686 -82.69,-175.697c0,-86.126 46.513,-125.744 89.581,-139.524c32.731,-10.335 41.344,-8.613 55.126,-8.613c96.471,0 153.319,72.346 153.319,161.917l0,86.126l201.556,-0l-0,-86.126l-1.723,-20.67c-5.168,-51.676 -32.731,-175.697 -132.648,-261.823c-63.739,-63.733 -230.84,-93.016 -347.984,-51.675c-111.975,31.005 -165.378,118.853 -191.219,186.032c-15.504,43.062 -25.84,99.906 -25.84,115.408c-1.723,8.613 -1.723,13.78 -1.723,18.948c0,39.618 6.891,77.513 20.673,117.131c13.781,39.618 25.84,65.456 34.454,77.513c8.613,13.781 15.504,24.116 20.672,31.006c-124.034,105.073 -186.051,218.759 -186.051,341.058c-0,98.184 32.731,177.419 96.471,241.153c63.739,63.733 156.765,94.738 282.522,94.738c149.874,0 260.126,-70.623 320.421,-137.801l253.314,252.611Zm-568.567,-306.009c-108.53,-0 -182.606,-56.843 -182.606,-146.414c0,-55.121 36.177,-130.912 113.698,-180.865l248.068,246.32c-43.068,53.398 -103.362,80.959 -179.16,80.959Zm59.708,-1144.54c0,-0 0,-0 0,-0Z" style="fill:url(#_Linear2);"/></g><defs><linearGradient id="_Linear2" x1="0" y1="0" x2="1" y2="0" gradientUnits="userSpaceOnUse" gradientTransform="matrix(1452.29,-1451.34,1451.34,1452.29,3.55271e-15,1451.51)"><stop offset="0" style="stop-color:#f315ff;stop-opacity:1"/><stop offset="0.75" style="stop-color:#ffb300;stop-opacity:1"/><stop offset="1" style="stop-color:#ffeb03;stop-opacity:1"/></linearGradient></defs></svg>
