<?xml version="1.0" encoding="UTF-8" standalone="no"?><!DOCTYPE svg PUBLIC "-//W3C//DTD SVG 1.1//EN" "http://www.w3.org/Graphics/SVG/1.1/DTD/svg11.dtd"><svg width="100%" height="100%" viewBox="0 0 2500 2500" version="1.1" xmlns="http://www.w3.org/2000/svg" xmlns:xlink="http://www.w3.org/1999/xlink" xml:space="preserve" xmlns:serif="http://www.serif.com/" style="fill-rule:evenodd;clip-rule:evenodd;stroke-linejoin:round;stroke-miterlimit:2;"><path d="M1927.85,2299.51c-195.473,126.819 -428.531,200.487 -678.661,200.487c-689.444,-0 -1249.18,-559.684 -1249.18,-1249.06c-0,-689.374 559.741,-1249.06 1249.18,-1249.06c689.444,-0 1249.18,559.683 1249.18,1249.06c-0,315.664 -117.362,604.136 -310.764,824.086l-296.868,-298.605l272.825,-376.578l-257.997,-189.772l-249.101,340.996l-492.271,-501.116c-94.896,-94.886 -142.344,-195.702 -142.344,-302.449c0,-148.259 80.069,-216.458 154.206,-240.18c56.344,-17.791 71.171,-14.825 94.895,-14.825c166.068,-0 263.929,124.537 263.929,278.727l-0,148.259l346.962,-0l-0,-148.259l-2.966,-35.582c-8.896,-88.956 -56.344,-302.449 -228.342,-450.708c-109.723,-109.712 -397.376,-160.12 -599.029,-88.956c-192.756,53.373 -284.686,204.598 -329.169,320.24c-26.689,74.13 -44.482,171.981 -44.482,198.667c-2.966,14.826 -2.966,23.722 -2.966,32.617c0,68.2 11.862,133.434 35.586,201.633c23.724,68.199 44.483,112.677 59.31,133.433c14.827,23.722 26.689,41.513 35.586,53.373c-213.515,180.877 -320.273,376.579 -320.273,587.107c0,169.015 56.345,305.414 166.068,415.125c109.723,109.712 269.859,163.086 486.339,163.086c257.998,-0 447.789,-121.573 551.581,-237.215l238.761,235.466Zm-781.445,-327.387c-186.826,0 -314.342,-97.851 -314.342,-252.04c0,-94.886 62.275,-225.354 195.722,-311.345l427.031,424.022c-74.138,91.92 -177.93,139.363 -308.411,139.363Z" style="fill-rule:nonzero;"/></svg>