<?xml version="1.0" encoding="UTF-8" standalone="no"?><!DOCTYPE svg PUBLIC "-//W3C//DTD SVG 1.1//EN" "http://www.w3.org/Graphics/SVG/1.1/DTD/svg11.dtd"><svg width="100%" height="100%" viewBox="0 0 2134 2134" version="1.1" xmlns="http://www.w3.org/2000/svg" xmlns:xlink="http://www.w3.org/1999/xlink" xml:space="preserve" xmlns:serif="http://www.serif.com/" style="fill-rule:evenodd;clip-rule:evenodd;stroke-linejoin:round;stroke-miterlimit:2;"><path d="M1645.1,1962.25c-166.803,108.219 -365.679,171.082 -579.124,171.082c-588.325,0 -1065.97,-477.596 -1065.97,-1065.86c-0,-588.265 477.646,-1065.86 1065.97,-1065.86c588.326,0 1065.97,477.597 1065.97,1065.86c0,269.367 -100.149,515.529 -265.185,703.22l-253.327,-254.809l232.81,-321.347l-220.157,-161.939l-212.567,290.984l-420.071,-427.619c-80.977,-80.969 -121.466,-166.999 -121.466,-258.09c0,-126.514 68.325,-184.711 131.589,-204.953c48.08,-15.182 60.733,-12.652 80.977,-12.652c141.711,0 225.219,106.272 225.219,237.848l-0,126.514l296.074,0l0,-126.514l-2.53,-30.364c-7.592,-75.909 -48.081,-258.09 -194.853,-384.604c-93.63,-93.621 -339.093,-136.636 -511.17,-75.909c-164.486,45.545 -242.933,174.59 -280.891,273.272c-22.775,63.257 -37.959,146.756 -37.959,169.529c-2.53,12.651 -2.53,20.242 -2.53,27.833c-0,58.197 10.122,113.863 30.366,172.06c20.245,58.197 37.959,96.151 50.611,113.863c12.653,20.242 22.775,35.424 30.367,45.545c-182.2,154.348 -273.299,321.347 -273.299,500.998c-0,144.226 48.08,260.62 141.71,354.24c93.631,93.621 230.28,139.166 415.01,139.166c220.158,0 382.113,-103.742 470.683,-202.423l203.742,200.931Zm-666.833,-279.37c-159.424,0 -268.238,-83.5 -268.238,-215.075c-0,-80.969 53.141,-192.302 167.016,-265.68l364.399,361.831c-63.264,78.439 -151.833,118.924 -263.177,118.924Z" style="fill-rule:nonzero;"/></svg>