<?xml version="1.0" encoding="UTF-8" standalone="no"?><!DOCTYPE svg PUBLIC "-//W3C//DTD SVG 1.1//EN" "http://www.w3.org/Graphics/SVG/1.1/DTD/svg11.dtd"><svg width="100%" height="100%" viewBox="0 0 1455 1825" version="1.1" xmlns="http://www.w3.org/2000/svg" xmlns:xlink="http://www.w3.org/1999/xlink" xml:space="preserve" xmlns:serif="http://www.serif.com/" style="fill-rule:evenodd;clip-rule:evenodd;stroke-linejoin:round;stroke-miterlimit:2;"><path d="M1232.77,1824.7l-205.276,-202.449c-88.577,98.681 -250.545,202.423 -470.722,202.423c-184.746,-0 -321.407,-45.545 -415.045,-139.166c-93.638,-93.621 -141.723,-210.014 -141.723,-354.241c0,-179.65 91.108,-346.649 273.323,-500.997c-7.593,-10.121 -17.716,-25.303 -30.37,-45.545c-12.653,-17.712 -30.369,-55.667 -50.615,-113.863c-20.246,-58.197 -30.369,-113.863 -30.369,-172.06c-0,-7.591 -0,-15.182 2.531,-27.833c-0,-22.773 15.184,-106.272 37.961,-169.53c37.962,-98.681 116.415,-227.726 280.915,-273.271c172.092,-60.727 417.576,-17.712 511.214,75.909c146.785,126.514 187.277,308.695 194.869,384.604l2.531,30.363l-0,126.515l-296.1,-0l0,-126.515c0,-131.575 -83.515,-237.847 -225.238,-237.847c-20.246,-0 -32.899,-2.53 -80.984,12.651c-63.269,20.243 -131.6,78.439 -131.6,204.954c0,91.09 40.493,177.12 121.477,258.09l420.107,427.619l212.584,-290.984l220.176,161.939l-232.83,321.347l255.001,256.369c-67.515,74.883 -125.556,126.783 -221.817,191.518Zm-668.406,-280.888c-159.438,-0 -268.261,-83.5 -268.261,-215.075c0,-80.969 53.146,-192.302 167.031,-265.68l364.43,361.831c-63.269,78.439 -151.846,118.924 -263.2,118.924Z"/></svg>