<?xml version="1.0" encoding="UTF-8" standalone="no"?><!DOCTYPE svg PUBLIC "-//W3C//DTD SVG 1.1//EN" "http://www.w3.org/Graphics/SVG/1.1/DTD/svg11.dtd"><svg width="100%" height="100%" viewBox="0 0 552 120" version="1.1" xmlns="http://www.w3.org/2000/svg" xmlns:xlink="http://www.w3.org/1999/xlink" xml:space="preserve" xmlns:serif="http://www.serif.com/" style="fill-rule:evenodd;clip-rule:evenodd;stroke-linejoin:round;stroke-miterlimit:2;"><path d="M20.85,21.304l-3.75,-12.416l-3.9,12.416l7.65,0Zm-8.562,-20.271l10.283,0l11.963,33.8l-9.679,0l-2.18,-6.991l-11.3,-0l-2.233,6.991l-9.275,0l12.421,-33.8Z" style="fill-rule:nonzero;"/><path d="M51.205,16.287c1.183,0 2.145,-0.362 2.891,-1.091c0.742,-0.725 1.113,-1.696 1.113,-2.913c-0,-1.283 -0.354,-2.295 -1.063,-3.041c-0.712,-0.742 -1.708,-1.113 -2.991,-1.113l-4.305,0l0,8.158l4.355,0Zm-13.125,-15.254l13.987,0c1.825,0 3.471,0.238 4.942,0.709c1.471,0.475 2.729,1.175 3.775,2.104c1.046,0.929 1.858,2.087 2.433,3.471c0.575,1.383 0.863,2.991 0.863,4.816c-0,2.225 -0.492,4.163 -1.471,5.8c-0.979,1.642 -2.279,2.95 -3.9,3.93l7.246,12.97l-9.63,0l-5.725,-11.504l-3.75,0l0,11.504l-8.77,0l-0,-33.8Z" style="fill-rule:nonzero;"/><rect x="69.905" y="1.033" width="8.971" height="33.8" style="fill-rule:nonzero;"/><path d="M84.959,1.033l24.325,0l-0,7.754l-15.354,0l-0,5.221l12.612,0l0,7.296l-12.612,0l-0,5.775l16.416,0l0,7.754l-25.387,0l-0,-33.8Z" style="fill-rule:nonzero;"/><path d="M115.009,1.033l8.158,0l12.975,18.85l0,-18.85l8.867,0l-0,33.8l-7.65,0l-13.48,-19.408l0,19.408l-8.87,0l-0,-33.8Z" style="fill-rule:nonzero;"/><path d="M151.092,1.033l8.158,0l12.975,18.85l0,-18.85l8.867,0l0,33.8l-7.65,0l-13.483,-19.408l-0,19.408l-8.867,0l0,-33.8Z" style="fill-rule:nonzero;"/><rect x="187.175" y="1.033" width="8.971" height="33.8" style="fill-rule:nonzero;"/><path d="M215.35,16.287c1.184,0 2.146,-0.362 2.888,-1.091c0.746,-0.725 1.116,-1.696 1.116,-2.913c0,-1.283 -0.354,-2.295 -1.062,-3.041c-0.712,-0.742 -1.708,-1.113 -2.992,-1.113l-4.308,0l0,8.158l4.358,0Zm-13.125,-15.254l13.988,0c1.825,0 3.471,0.238 4.942,0.709c1.47,0.475 2.729,1.175 3.775,2.104c1.045,0.929 1.858,2.087 2.433,3.471c0.571,1.383 0.862,2.991 0.862,4.816c0,2.225 -0.491,4.163 -1.47,5.8c-0.984,1.642 -2.28,2.95 -3.905,3.93l7.246,12.97l-9.629,0l-5.725,-11.504l-3.75,0l0,11.504l-8.767,0l0,-33.8Z" style="fill-rule:nonzero;"/><path d="M259.388,15.529l13.887,0l0,15.25c-2.029,1.725 -4.35,2.967 -6.966,3.725c-2.621,0.763 -5.25,1.142 -7.884,1.142c-2.737,-0 -5.195,-0.413 -7.37,-1.242c-2.184,-0.829 -4.034,-2.012 -5.55,-3.546c-1.521,-1.541 -2.68,-3.404 -3.475,-5.604c-0.792,-2.196 -1.188,-4.658 -1.188,-7.396c0,-2.571 0.429,-4.941 1.292,-7.12c0.862,-2.18 2.066,-4.055 3.62,-5.626c1.555,-1.57 3.405,-2.795 5.55,-3.675c2.146,-0.879 4.517,-1.316 7.121,-1.316c2.805,-0 5.43,0.462 7.884,1.391c2.446,0.93 4.5,2.48 6.154,4.638l-5.829,5.879c-1.046,-1.046 -2.167,-1.908 -3.367,-2.583c-1.2,-0.675 -2.596,-1.013 -4.183,-1.013c-1.45,0 -2.738,0.254 -3.85,0.759c-1.117,0.508 -2.054,1.191 -2.813,2.054c-0.762,0.858 -1.341,1.875 -1.75,3.037c-0.404,1.167 -0.608,2.409 -0.608,3.725c-0,1.455 0.221,2.763 0.658,3.93c0.438,1.166 1.05,2.162 1.825,2.991c0.779,0.825 1.725,1.467 2.838,1.925c1.116,0.458 2.366,0.683 3.754,0.683c1.112,0 2.175,-0.133 3.191,-0.404c1.013,-0.271 1.992,-0.745 2.938,-1.42l0,-3.242l-5.879,-0l-0,-6.942Z" style="fill-rule:nonzero;"/><path d="M296.738,21.304l-3.75,-12.416l-3.9,12.416l7.65,0Zm-8.563,-20.271l10.288,0l11.958,33.8l-9.679,0l-2.179,-6.991l-11.3,-0l-2.229,6.991l-9.275,0l12.416,-33.8Z" style="fill-rule:nonzero;"/><path d="M313.971,1.033l8.159,0l12.97,18.85l0,-18.85l8.871,0l0,33.8l-7.65,0l-13.483,-19.408l-0,19.408l-8.867,0l0,-33.8Z" style="fill-rule:nonzero;"/><path d="M11.88,63.321l-12.013,-20.321l10.292,0l6.587,12.058l6.184,-12.058l9.983,0l-12.063,20.271l0,13.529l-8.97,-0l-0,-13.479Z" style="fill-rule:nonzero;"/><path d="M44.567,43l8.971,0l-0,25.896l15.658,-0l0,7.904l-24.629,-0l0,-33.8Z" style="fill-rule:nonzero;"/><path d="M88.25,69.196c1.321,-0 2.488,-0.242 3.521,-0.733c1.034,-0.488 1.904,-1.155 2.613,-2.001c0.704,-0.845 1.25,-1.841 1.616,-2.991c0.375,-1.146 0.559,-2.363 0.559,-3.65c-0,-1.283 -0.184,-2.496 -0.559,-3.646c-0.366,-1.146 -0.912,-2.146 -1.616,-2.992c-0.709,-0.846 -1.579,-1.512 -2.613,-2c-1.033,-0.487 -2.2,-0.733 -3.521,-0.733c-1.316,0 -2.491,0.246 -3.52,0.733c-1.034,0.488 -1.9,1.154 -2.609,2c-0.712,0.846 -1.25,1.846 -1.625,2.992c-0.371,1.15 -0.554,2.363 -0.554,3.646c0,1.287 0.183,2.504 0.554,3.65c0.375,1.15 0.913,2.146 1.625,2.991c0.709,0.846 1.575,1.513 2.609,2.001c1.029,0.491 2.204,0.733 3.52,0.733Zm0,8.416c-2.537,0 -4.87,-0.45 -7.016,-1.341c-2.146,-0.896 -4.004,-2.129 -5.575,-3.7c-1.571,-1.571 -2.796,-3.45 -3.675,-5.629c-0.879,-2.18 -1.317,-4.55 -1.317,-7.121c0,-2.567 0.438,-4.938 1.317,-7.117c0.879,-2.179 2.104,-4.054 3.675,-5.625c1.571,-1.575 3.429,-2.796 5.575,-3.675c2.146,-0.879 4.479,-1.321 7.016,-1.321c2.538,0 4.88,0.442 7.046,1.321c2.159,0.879 4.021,2.1 5.571,3.675c1.558,1.571 2.775,3.446 3.654,5.625c0.875,2.179 1.317,4.55 1.317,7.117c-0,2.571 -0.442,4.941 -1.317,7.121c-0.879,2.179 -2.096,4.058 -3.654,5.629c-1.55,1.571 -3.412,2.804 -5.571,3.7c-2.166,0.891 -4.508,1.341 -7.046,1.341Z" style="fill-rule:nonzero;"/><path d="M117.442,50.85l-10.387,-0l-0,-7.85l29.745,0l0,7.85l-10.287,-0l-0,25.95l-9.071,-0l0,-25.95Z" style="fill-rule:nonzero;"/><path d="M140.859,43l24.321,0l-0,7.754l-15.355,0l0,5.217l12.621,-0l0,7.3l-12.621,-0l0,5.775l16.421,-0l0,7.754l-25.387,-0l-0,-33.8Z" style="fill-rule:nonzero;"/><path d="M184.034,58.25c1.179,0 2.141,-0.358 2.887,-1.087c0.742,-0.725 1.113,-1.701 1.113,-2.913c-0,-1.288 -0.354,-2.296 -1.063,-3.042c-0.708,-0.745 -1.704,-1.116 -2.991,-1.116l-4.305,-0l0,8.158l4.359,0Zm-13.129,-15.25l13.987,0c1.825,0 3.471,0.237 4.942,0.704c1.471,0.475 2.729,1.175 3.775,2.108c1.05,0.93 1.858,2.084 2.433,3.467c0.575,1.388 0.862,2.992 0.862,4.817c0,2.229 -0.491,4.167 -1.47,5.804c-0.979,1.637 -2.279,2.95 -3.9,3.925l7.246,12.975l-9.63,-0l-5.725,-11.504l-3.75,-0l0,11.504l-8.77,-0l-0,-33.8Z" style="fill-rule:nonzero;"/><rect x="202.734" y="43" width="8.971" height="33.8" style="fill-rule:nonzero;"/><path d="M2.417,84.783l9.004,0l0,26l15.721,0l0,7.934l-24.725,-0l0,-33.934Z" style="fill-rule:nonzero;"/><path d="M46.275,111.083c1.321,0 2.5,-0.241 3.534,-0.733c1.037,-0.496 1.908,-1.162 2.621,-2.012c0.712,-0.846 1.254,-1.851 1.629,-3.001c0.371,-1.154 0.558,-2.374 0.558,-3.666c0,-1.288 -0.187,-2.509 -0.558,-3.663c-0.375,-1.15 -0.917,-2.15 -1.629,-3c-0.713,-0.845 -1.584,-1.516 -2.621,-2.008c-1.034,-0.492 -2.213,-0.737 -3.534,-0.737c-1.325,-0 -2.504,0.245 -3.537,0.737c-1.038,0.492 -1.908,1.163 -2.621,2.008c-0.712,0.85 -1.254,1.85 -1.629,3c-0.371,1.154 -0.558,2.375 -0.558,3.663c-0,1.292 0.187,2.512 0.558,3.666c0.375,1.15 0.917,2.155 1.629,3.001c0.713,0.85 1.583,1.516 2.621,2.012c1.033,0.492 2.212,0.733 3.537,0.733Zm0,8.45c-2.545,0 -4.895,-0.454 -7.05,-1.35c-2.154,-0.9 -4.016,-2.137 -5.595,-3.712c-1.575,-1.579 -2.805,-3.463 -3.688,-5.65c-0.883,-2.188 -1.325,-4.571 -1.325,-7.15c0,-2.575 0.442,-4.958 1.325,-7.146c0.883,-2.188 2.113,-4.071 3.688,-5.646c1.579,-1.579 3.441,-2.808 5.595,-3.691c2.155,-0.88 4.505,-1.321 7.05,-1.321c2.542,-0 4.9,0.441 7.071,1.321c2.171,0.883 4.038,2.112 5.596,3.691c1.558,1.575 2.779,3.458 3.663,5.646c0.883,2.188 1.325,4.571 1.325,7.146c-0,2.579 -0.442,4.962 -1.325,7.15c-0.884,2.187 -2.105,4.071 -3.663,5.65c-1.558,1.575 -3.425,2.812 -5.596,3.712c-2.171,0.896 -4.529,1.35 -7.071,1.35Z" style="fill-rule:nonzero;"/><path d="M75.58,92.667l-10.43,-0l0,-7.884l29.863,0l-0,7.884l-10.325,-0l-0,26.05l-9.108,-0l-0,-26.05Z" style="fill-rule:nonzero;"/><path d="M107.73,92.667l-10.425,-0l-0,-7.884l29.866,0l0,7.884l-10.329,-0l0,26.05l-9.112,-0l-0,-26.05Z" style="fill-rule:nonzero;"/><path d="M131.242,84.783l24.421,0l-0,7.784l-15.417,-0l0,5.241l12.671,0l0,7.325l-12.671,0l0,5.8l16.488,0l-0,7.784l-25.492,-0l-0,-33.934Z" style="fill-rule:nonzero;"/><path d="M174.592,100.096c1.188,-0 2.15,-0.367 2.9,-1.096c0.746,-0.729 1.117,-1.704 1.117,-2.925c-0,-1.288 -0.354,-2.304 -1.067,-3.054c-0.712,-0.742 -1.712,-1.117 -3.004,-1.117l-4.321,0l0,8.192l4.375,-0Zm-13.179,-15.313l14.042,0c1.833,0 3.487,0.238 4.962,0.709c1.475,0.475 2.738,1.183 3.792,2.112c1.05,0.934 1.862,2.096 2.441,3.483c0.575,1.392 0.863,3.005 0.863,4.838c-0,2.238 -0.492,4.179 -1.475,5.825c-0.983,1.646 -2.288,2.958 -3.917,3.942l7.275,13.025l-9.666,-0l-5.75,-11.55l-3.763,-0l0,11.55l-8.804,-0l-0,-33.934Z" style="fill-rule:nonzero;"/><path d="M200.842,105.183l-12.058,-20.4l10.329,0l6.617,12.109l6.204,-12.109l10.025,0l-12.109,20.35l0,13.584l-9.008,-0l0,-13.534Z" style="fill-rule:nonzero;"/><path d="M233.659,84.783l23.658,0l0,7.884l-14.654,-0l-0,6.566l11.35,0l-0,7.425l-11.35,0l-0,12.059l-9.004,-0l-0,-33.934Z" style="fill-rule:nonzero;"/><path d="M261.188,84.783l9.004,0l0,19.892c0,1.867 0.433,3.392 1.296,4.579c0.867,1.188 2.3,1.779 4.3,1.779c2,0 3.425,-0.6 4.275,-1.804c0.846,-1.204 1.271,-2.721 1.271,-4.554l-0,-19.892l9.108,0l0,20.709c0,2.17 -0.354,4.129 -1.071,5.875c-0.708,1.746 -1.721,3.229 -3.025,4.45c-1.308,1.22 -2.85,2.154 -4.629,2.8c-1.783,0.641 -3.742,0.966 -5.879,0.966c-2.138,0 -4.104,-0.325 -5.9,-0.966c-1.8,-0.646 -3.35,-1.567 -4.654,-2.775c-1.309,-1.205 -2.317,-2.68 -3.029,-4.425c-0.713,-1.746 -1.067,-3.725 -1.067,-5.925l-0,-20.709Z" style="fill-rule:nonzero;"/><path d="M296.342,84.783l8.192,0l13.025,18.925l-0,-18.925l8.904,0l-0,33.934l-7.684,-0l-13.533,-19.484l0,19.484l-8.904,-0l0,-33.934Z" style="fill-rule:nonzero;"/><path d="M345.238,110.783c2.95,0 5.233,-0.841 6.846,-2.521c1.608,-1.679 2.412,-3.858 2.412,-6.537c0,-1.354 -0.183,-2.588 -0.558,-3.692c-0.375,-1.1 -0.942,-2.05 -1.704,-2.846c-0.763,-0.795 -1.721,-1.416 -2.875,-1.858c-1.154,-0.442 -2.525,-0.662 -4.121,-0.662l-3.663,-0l0,18.116l3.663,0Zm-12.667,-26l13.025,0c2.609,0 5.025,0.338 7.25,1.017c2.221,0.679 4.146,1.712 5.775,3.1c1.625,1.392 2.9,3.175 3.817,5.342c0.912,2.175 1.371,4.733 1.371,7.683c-0,2.821 -0.467,5.267 -1.396,7.354c-0.938,2.088 -2.217,3.834 -3.846,5.242c-1.625,1.408 -3.558,2.458 -5.8,3.154c-2.237,0.696 -4.646,1.042 -7.221,1.042l-12.975,-0l0,-33.934Z" style="fill-rule:nonzero;"/><path d="M368.592,84.783l24.421,0l-0,7.784l-15.417,-0l0,5.241l12.671,0l0,7.325l-12.671,0l0,5.8l16.488,0l-0,7.784l-25.492,-0l0,-33.934Z" style="fill-rule:nonzero;"/><path d="M411.43,110.783c2.954,0 5.233,-0.841 6.845,-2.521c1.609,-1.679 2.417,-3.858 2.417,-6.537c0,-1.354 -0.187,-2.588 -0.558,-3.692c-0.375,-1.1 -0.946,-2.05 -1.709,-2.846c-0.762,-0.795 -1.72,-1.416 -2.87,-1.858c-1.155,-0.442 -2.53,-0.662 -4.125,-0.662l-3.663,-0l0,18.116l3.663,0Zm-12.667,-26l13.025,0c2.612,0 5.025,0.338 7.25,1.017c2.221,0.679 4.146,1.712 5.775,3.1c1.629,1.392 2.9,3.175 3.817,5.342c0.916,2.175 1.37,4.733 1.37,7.683c0,2.821 -0.466,5.267 -1.395,7.354c-0.934,2.088 -2.213,3.834 -3.842,5.242c-1.629,1.408 -3.563,2.458 -5.8,3.154c-2.242,0.696 -4.65,1.042 -7.225,1.042l-12.975,-0l-0,-33.934Z" style="fill-rule:nonzero;"/><path d="M500.988,9.95c-0,-3.379 1.446,-7.408 4.671,-7.408c2.25,-0 4.987,3.545 8.208,10.625c-2.737,3.546 -5.633,8.216 -8.529,14.012c-2.904,-7.567 -4.35,-13.204 -4.35,-17.229Z" style="fill-rule:nonzero;"/><path d="M501.575,89.129l4.171,-1.954c4.096,12.092 15.904,15.404 26.829,9.717l1.692,4.137c-14.333,8.138 -27.658,2.942 -32.692,-11.9Zm48.996,-10.583c-2.191,4.35 -5.087,6.883 -9.5,6.883c-4.996,0 -7.567,-3.342 -8.212,-7.212c-2.738,3.225 -6.279,4.312 -9.979,3.175c-4.025,-1.284 -6.759,-5.105 -6.759,-11.221c0,-8.375 4.667,-19 9.975,-23.508l-2.496,-5.521c-0.304,0.737 -2.558,5.15 -3.65,6.979l-3.329,-1.438c0,0 2.317,-5.104 2.834,-6.183c5.083,-10.771 10.904,-20.658 10.904,-27.262c-0,-2.738 -1.896,-4.625 -3.488,-4.667c-4.996,-0.142 -12.521,10.721 -19.921,26.658c-5.891,12.596 -9.25,21.617 -9.762,28.213l-3.438,1.283c-4.508,-6.542 -11.137,-11.467 -19.154,-11.467c-6.762,0 -10.466,3.217 -10.466,5.484c-0,2.091 2.091,2.895 3.22,3.221c9.817,2.575 13.684,10.62 16.738,22.695c4.508,17.554 16.104,29.309 32.996,29.309c17.541,-0 34.287,-15.138 33.487,-35.421Z" style="fill-rule:nonzero;"/><path d="M526.63,73.754c-2.067,0 -3.742,-1.671 -3.742,-3.741c-0,-2.059 1.675,-3.734 3.742,-3.734c2.066,0 3.733,1.675 3.733,3.734c-0,2.07 -1.667,3.741 -3.733,3.741Zm9.087,-25.979c-6.95,-3.208 -15.413,12.092 -15.413,22.396c0,5.475 2.413,7.541 5.309,7.525c3.667,-0.025 7.608,-4.946 10.346,-13.004c3.379,-8.367 3.121,-15.363 -0.242,-16.917Z" style="fill-rule:nonzero;"/><path d="M542.746,77.904c-1.854,0 -3.362,-1.508 -3.362,-3.367c-0,-1.854 1.508,-3.362 3.362,-3.362c1.858,0 3.363,1.508 3.363,3.362c-0,1.859 -1.505,3.367 -3.363,3.367Zm4.925,-20.937c-3.541,-0 -8.25,7.245 -10.021,14.166c-1.125,3.867 -1.412,10.259 3.421,10.259c5.058,-0 9.171,-7.517 10.3,-14.284c0.967,-5.791 -0.483,-10.141 -3.7,-10.141Z" style="fill-rule:nonzero;"/><path d="M539.809,11.017c0.191,-0 0.329,-0.046 0.421,-0.142c0.087,-0.092 0.129,-0.217 0.129,-0.371c-0,-0.162 -0.046,-0.283 -0.142,-0.362c-0.092,-0.08 -0.242,-0.121 -0.446,-0.121l-0.575,-0l0,0.996l0.613,-0Zm-1.238,-1.517l1.267,-0c0.204,-0 0.379,0.029 0.525,0.087c0.142,0.063 0.262,0.138 0.362,0.23c0.096,0.091 0.167,0.196 0.209,0.312c0.041,0.113 0.062,0.225 0.062,0.338c0,0.212 -0.05,0.4 -0.154,0.571c-0.108,0.17 -0.267,0.299 -0.483,0.387l0.796,1.354l-0.705,0l-0.733,-1.271l-0.521,0l0,1.271l-0.625,0l0,-3.279Zm1.125,4.275c0.367,0 0.704,-0.067 1.017,-0.2c0.308,-0.133 0.575,-0.317 0.8,-0.554c0.229,-0.233 0.404,-0.513 0.529,-0.829c0.129,-0.321 0.192,-0.663 0.192,-1.03c-0,-0.362 -0.063,-0.708 -0.192,-1.025c-0.125,-0.32 -0.3,-0.595 -0.529,-0.833c-0.225,-0.233 -0.492,-0.421 -0.8,-0.554c-0.313,-0.137 -0.65,-0.208 -1.008,-0.208c-0.363,-0 -0.705,0.071 -1.013,0.208c-0.308,0.133 -0.575,0.321 -0.804,0.554c-0.234,0.238 -0.408,0.513 -0.538,0.833c-0.125,0.317 -0.187,0.663 -0.187,1.025c-0,0.367 0.062,0.709 0.187,1.03c0.13,0.316 0.304,0.596 0.53,0.829c0.229,0.237 0.495,0.421 0.804,0.554c0.312,0.133 0.65,0.2 1.012,0.2Zm0,0.621c-0.45,-0 -0.875,-0.083 -1.266,-0.25c-0.392,-0.167 -0.734,-0.396 -1.025,-0.692c-0.284,-0.292 -0.513,-0.637 -0.68,-1.029c-0.166,-0.396 -0.25,-0.821 -0.25,-1.271c0,-0.454 0.084,-0.875 0.25,-1.267c0.167,-0.395 0.396,-0.737 0.68,-1.029c0.291,-0.287 0.633,-0.52 1.025,-0.691c0.391,-0.167 0.82,-0.254 1.275,-0.254c0.454,-0 0.875,0.087 1.266,0.254c0.388,0.171 0.729,0.404 1.017,0.691c0.287,0.292 0.512,0.634 0.683,1.029c0.167,0.392 0.25,0.813 0.25,1.267c0,0.45 -0.083,0.875 -0.25,1.271c-0.171,0.392 -0.396,0.737 -0.683,1.029c-0.288,0.296 -0.629,0.525 -1.021,0.692c-0.396,0.167 -0.817,0.25 -1.271,0.25Z" style="fill-rule:nonzero;"/></svg>