<?xml version="1.0" encoding="UTF-8" standalone="no"?><!DOCTYPE svg PUBLIC "-//W3C//DTD SVG 1.1//EN" "http://www.w3.org/Graphics/SVG/1.1/DTD/svg11.dtd"><svg width="100%" height="100%" viewBox="0 0 365 123" version="1.1" xmlns="http://www.w3.org/2000/svg" xmlns:xlink="http://www.w3.org/1999/xlink" xml:space="preserve" xmlns:serif="http://www.serif.com/" style="fill-rule:evenodd;clip-rule:evenodd;stroke-linejoin:round;stroke-miterlimit:2;"><path d="M-0.002,106.891c0,8.709 7.058,15.768 15.765,15.768l333.064,0c8.707,0 15.765,-7.059 15.765,-15.768l-0,-91.123c-0,-8.709 -7.058,-15.768 -15.765,-15.768l-333.064,0c-8.707,0 -15.765,7.059 -15.765,15.768l0,91.123Zm1.66,0l-0,-91.123c-0,-7.792 6.315,-14.108 14.105,-14.108l333.064,-0c7.79,-0 14.105,6.316 14.105,14.108c0,-0 0,91.123 0,91.123c0,7.792 -6.315,14.108 -14.105,14.108c-0,0 -333.064,0 -333.064,0c-7.79,0 -14.105,-6.316 -14.105,-14.108Zm154.921,-93.191l-0,97.496l1.862,-0l-0,-97.496l-1.862,-0Zm-42.728,85.521c-0,-0 1.241,2.591 0.533,3.546c-2.824,0.083 -4.745,-0.005 -8.911,0.42c-3.853,0.392 -6.349,0.646 -6.653,3.967c0,0 -0.833,-0.837 -0.762,-2.929c0.079,-2.092 3.558,-4.425 7.19,-4.292c0,0 4.549,0.079 5.062,-0.191c1.087,-0.58 -1.679,-5.875 -2.15,-6.83c-4.037,-8.07 -3.937,-10.683 -4.095,-11.112c0,-0 -11.285,-2.117 -14.064,-9.804c8.961,7.621 16.38,7.554 16.38,7.554c0.938,3.658 4.795,14.487 7.47,19.671Zm-58.511,-23.25c0,-0 -6.144,18.829 -16.905,25.741c-0,0 6.557,-0.933 8.582,-0.108c2.024,0.829 4.099,2.208 2.129,5.35c-0,0 3.899,-2.142 2.824,-5.362c-0.85,-2.555 -4.674,-2.759 -4.674,-2.759c-0,0 -1.1,-0.479 -0.463,-2.104c0.642,-1.637 4.754,-7.054 5.408,-8.033c0.654,-0.992 5.991,-9.05 6.203,-9.513c-0,0 4.703,0.667 6.953,-3.816c2.349,-4.655 -2.658,-9.163 -2.658,-9.163c0,0 2.2,5.004 -0.346,7.467c-3.012,2.908 -7.053,2.3 -7.053,2.3Zm-6.424,-0.388c0,0 -1.708,-4.033 -0.425,-7.612c0.838,-2.309 3.021,-4.275 7.328,-5.35c0,-0 -7.527,6.858 -2.008,12.783c0,0 -3.936,4.188 -5.444,7.763c-1.5,3.57 -4.783,11.058 -5.866,12.804c-1.096,1.729 -2.625,3.971 -6.924,5.908c-4.762,0.413 -9.973,1.213 -10.315,4.892c0,-0 -0.92,-0.921 -0.837,-3.242c0.083,-2.325 3.941,-4.925 7.973,-4.787c4.029,0.15 7.632,-0.884 9.52,-5.742c1.883,-4.871 6.011,-16.563 6.998,-17.417Zm84.196,-54.801l-1.314,0.343l-0.05,-0c3.382,3.125 3.191,8.079 3.191,8.079c0.275,7.604 -7.961,16.338 -12.731,27.829c10.74,1.338 18.238,8.013 18.238,15.284c0,10.187 -6.228,13.77 -11.894,13.845c-1.999,0.021 -4.211,-0.295 -6.807,-1.829c-3.02,-1.787 -5.545,-5.112 -5.545,-11.587c0,-6.346 1.479,-10.288 2.313,-12.513l-0.021,-0.025c-2.575,0.096 -5.112,0.4 -7.324,0.863c0,-0 -1.995,0.591 -2.9,0.866c2.4,1.405 4.75,3.692 5.57,7.267c0.521,2.563 0.279,5.825 -0.991,9.971c-0.271,4.062 1.495,10.092 2.866,14.575l1.541,4.096c0.817,1.808 2.088,2.321 2.088,2.321c-0,-0 3.149,0.458 4.032,2.366c1.183,2.538 -0.845,3.834 -0.845,3.834c0.728,-3.055 -1.913,-3.388 -3.471,-3.617l-0.129,-0.017c-1.525,-0.225 -2.537,-0.091 -2.537,-0.091c0.196,-1.034 -1.783,-6.546 -1.65,-6.18c0,0 -2.537,-7.295 -3.607,-10.5c-1.113,-3.304 -1.867,-7.987 -1.867,-7.987c0,-0 7.612,-12.692 -9.415,-18.417c0,0 1.196,-0.121 2.121,-0.004c1.92,-0.754 4.407,-1.275 4.407,-1.275c3.029,-0.821 6.441,-1.354 10.394,-1.483c1.171,-0.038 2.162,-0.025 3.275,0.05c4.903,-10.471 13.252,-21.309 13.252,-27.704c-0,-4.125 -2.842,-6.9 -2.842,-6.9l-0.483,1.554c0,-0 -2.304,-5.279 -4.003,-6.609l0.054,0.034c-0,-0 5.25,2.091 7.084,3.561Zm102.522,76.297l4.615,0l0,7.042c-0.691,0.321 -2.232,0.696 -4.336,0.696c-2.441,-0 -6.253,-1.238 -6.253,-6.859c-0,-3.208 1.803,-6.704 6.798,-6.704c1.538,0 2.65,0.3 3.437,0.525l-0.187,2.575c-0.658,-0.3 -1.654,-0.733 -3.004,-0.733c-3.249,-0 -3.887,2.987 -3.887,4.471c0,2.441 1.125,4.358 3.475,4.358c0.45,-0 0.804,-0.058 1.071,-0.188l-0,-2.97l-1.729,-0l-0,-2.213Zm79.073,3.4l-5.765,0c-0,1.163 0.749,2.233 2.42,2.233c1.012,0 2.029,-0.375 2.762,-0.77l0.054,2.237c-0.954,0.354 -2.083,0.563 -3.095,0.563c-3.437,-0 -4.962,-2.084 -4.962,-5.071c0,-2.634 1.542,-5.017 4.341,-5.017c0.883,0 4.245,0 4.245,5.108l0,0.717Zm-102.378,-3.212c-0.787,-0.321 -1.52,-0.53 -2.387,-0.53c-0.77,0 -1.108,0.375 -1.108,0.717c0,0.6 0.433,0.804 2.05,1.408c1.012,0.375 2.045,1.013 2.045,2.855c0,2.179 -1.633,3.025 -3.607,3.025c-0.863,-0 -2.179,-0.096 -3.208,-0.471l0.071,-2.292c0.716,0.433 1.616,0.679 2.445,0.679c1.387,0 1.483,-0.491 1.483,-0.921c0,-0.433 -0.771,-0.62 -2.049,-1.15c-1.029,-0.429 -2.046,-1.254 -2.046,-3.004c-0,-1.05 0.75,-2.929 3.662,-2.929c1.221,0 2.233,0.225 2.724,0.396l-0.075,2.217Zm113.793,-2.463l1.691,0l0,-2.008l2.891,-0.921l0,2.929l1.917,0l-0,2.083l-1.917,0l0,4.492c0,0.958 0.434,1.221 0.996,1.221c0.413,-0 0.675,-0.075 0.975,-0.208l-0,2.087c-0.3,0.113 -1.108,0.263 -2.066,0.263c-1.538,-0 -2.871,-0.75 -2.871,-2.892l0,-4.963l-1.616,0l-0,-2.083Zm-79.411,-0.15c3.004,0 4.603,2.083 4.603,5.017c0,2.966 -1.599,5.071 -4.603,5.071c-3.004,-0 -4.603,-2.105 -4.603,-5.071c-0,-2.934 1.599,-5.017 4.603,-5.017Zm24.504,5.825l-5.766,0c0,1.163 0.75,2.233 2.425,2.233c1.016,0 2.029,-0.375 2.762,-0.77l0.054,2.237c-0.958,0.354 -2.083,0.563 -3.1,0.563c-3.436,-0 -4.957,-2.084 -4.957,-5.071c0,-2.634 1.542,-5.017 4.337,-5.017c0.883,0 4.245,0 4.245,5.108l-0,0.717Zm-71.675,0l-5.766,0c0,1.163 0.754,2.233 2.425,2.233c1.012,0 2.029,-0.375 2.762,-0.77l0.054,2.237c-0.958,0.354 -2.083,0.563 -3.099,0.563c-3.437,-0 -4.958,-2.084 -4.958,-5.071c0,-2.634 1.542,-5.017 4.337,-5.017c0.887,0 4.245,0 4.245,5.108l-0,0.717Zm14.964,-9.975l2.966,0l0,5.746l0.042,-0c0.337,-1.088 1.429,-1.596 2.499,-1.596c2.158,0 2.871,1.579 2.871,3.529l-0,6.409l-2.966,-0l-0,-6.03c-0,-1.22 -0.546,-1.541 -1.146,-1.541c-0.958,-0 -1.3,0.829 -1.3,2.083l0,5.488l-2.966,-0l0,-14.088Zm58.456,6.35c0,-0.942 -0.016,-1.542 -0.075,-2.05l2.704,0c0.021,0.583 0.058,1.183 0.079,1.767l0.034,-0c0.604,-1.05 1.016,-1.917 2.724,-1.917l0.433,0l0,2.742c-0.32,-0.075 -0.583,-0.113 -0.995,-0.113c-1.729,0 -1.937,1.504 -1.937,2.929l-0,4.38l-2.967,-0l0,-7.738Zm48.9,1.708c0,-1.22 -0.546,-1.541 -1.145,-1.541c-0.959,-0 -1.296,0.829 -1.296,2.083l-0,5.488l-2.97,-0l-0,-7.738c-0,-0.942 -0.017,-1.542 -0.075,-2.05l2.708,0c0.037,0.433 0.075,0.975 0.075,1.633l0.037,0c0.45,-1.066 1.2,-1.783 2.758,-1.783c2.162,0 2.874,1.579 2.874,3.529l0,6.409l-2.966,-0l0,-6.03Zm-36.185,0c-0,-1.22 -0.546,-1.541 -1.146,-1.541c-0.958,-0 -1.295,0.829 -1.295,2.083l-0,5.488l-2.971,-0l0,-7.738c0,-0.942 -0.016,-1.542 -0.07,-2.05l2.703,0c0.038,0.433 0.075,0.975 0.075,1.633l0.038,0c0.45,-1.066 1.199,-1.783 2.762,-1.783c2.158,0 2.87,1.579 2.87,3.529l-0,6.409l-2.966,-0l-0,-6.03Zm15.66,0c-0,-1.129 -0.467,-1.541 -1.125,-1.541c-0.883,-0 -1.221,0.637 -1.221,1.371l0,6.2l-2.966,-0l0,-6.03c0,-1.241 -0.546,-1.541 -1.033,-1.541c-0.979,-0 -1.317,0.846 -1.317,2.083l0,5.488l-2.966,-0l0,-7.738c0,-0.942 -0.021,-1.542 -0.075,-2.05l2.704,0c0.038,0.433 0.075,0.975 0.075,1.633l0.037,0c0.45,-1.066 1.204,-1.783 2.763,-1.783c1.408,0 2.12,0.658 2.537,1.633c0.429,-0.916 1.124,-1.633 2.682,-1.633c2.158,0 2.875,1.579 2.875,3.529l-0,6.409l-2.97,-0l-0,-6.03Zm-118.675,-4.154l-0.038,0l-1.633,10.184l-3.608,-0l-2.628,-13.113l2.966,0l1.579,9.317l0.037,-0l1.558,-9.317l3.608,0l1.596,9.317l0.037,-0l1.691,-9.317l2.704,0l-2.575,13.113l-3.603,-0l-1.691,-10.184Zm18.721,-3.904l2.966,0l0,14.088l-2.966,-0l0,-14.088Zm50.791,4.3l3.083,0l1.804,6.971l0.038,-0l1.783,-6.971l2.891,0l-3.062,9.788l-3.491,-0l-3.046,-9.788Zm-5.461,7.908c1.033,0 1.52,-1.125 1.52,-3.041c0,-1.917 -0.487,-2.988 -1.52,-2.988c-1.033,0 -1.521,1.071 -1.521,2.988c0,1.916 0.488,3.041 1.521,3.041Zm-145.812,-2.733c-0,0 2.045,-1.121 4.449,-0.892c1.479,0.146 3.745,-0.054 3.745,-0.054c-1.208,-0.012 -3.103,-2.471 -5.965,-1.991c-2.483,0.412 -2.229,2.937 -2.229,2.937Zm211.105,-1.117c-0,-1.241 -0.321,-2.404 -1.542,-2.404c-1.52,0 -1.52,1.879 -1.52,2.404l3.062,0Zm-43.493,0c0,-1.241 -0.316,-2.404 -1.541,-2.404c-1.521,0 -1.521,1.879 -1.521,2.404l3.062,0Zm-71.675,0c0,-1.241 -0.32,-2.404 -1.541,-2.404c-1.521,0 -1.521,1.879 -1.521,2.404l3.062,0Zm-169.378,-0.029c-0,0 2.278,-1.233 4.945,-0.975c1.641,0.159 4.811,-1.029 4.811,-1.029c-1.333,-0.012 -4.495,-1.592 -7.273,-1.246c-2.779,0.346 -2.483,3.25 -2.483,3.25Zm68.721,-18.671c-0,0 0.925,0.634 1.816,1.117c-0.741,1.796 -0.979,2.933 -1.12,3.308c-0.313,0.85 -1.333,4.292 -1.817,5.513c-0.483,1.221 0.342,1.571 0.342,1.571c-0,-0 2.874,0.166 3.508,2.075c0.808,2.416 -2.108,4.021 -2.108,4.021c1.466,-2.355 -0.084,-3.392 -1.604,-4.009c-1.521,-0.616 -5.97,0.079 -5.97,0.079c4.67,-2.554 6.199,-11.908 6.953,-13.675Zm-4.595,9.35c-0.933,1.555 -2.333,3.63 -5.316,4.63c-3.233,-0.067 -7.124,0.733 -7.386,3.491c0,0 -0.687,-0.696 -0.633,-2.425c0.066,-1.75 2.453,-3.654 5.982,-3.462c3.024,0.162 4.978,-1.092 6.287,-4.404c0.891,-2.23 -0.059,-7.013 1.141,-10.042c-0,-0 1.629,1.258 2.349,1.858c0,0 0.059,-0.016 -0.287,0.809c-1.125,2.683 -0.587,6.558 -2.137,9.545Zm-11.056,2.175c-0,0 -0.225,-2.191 1.866,-2.445c2.087,-0.263 4.449,0.925 5.453,0.929c0,-0 -2.374,0.896 -3.612,0.779c-1.991,-0.192 -3.707,0.737 -3.707,0.737Zm196.619,-7.337c-0.471,1.633 -1.145,2.217 -2.345,2.217c-0.379,-0 -0.792,-0.042 -1.071,-0.117l0.075,-1.425c0.242,0.112 0.525,0.187 0.862,0.187c0.45,0 0.788,-0.208 1.05,-1.2l0.379,-1.466l-3.024,-9.729l1.654,-0l2.137,7.812l0.042,0l1.987,-7.812l1.579,-0l-3.325,11.533Zm-216.574,-3.988c-0,0 2.262,-0.47 3.032,-1.045c0,-0 1.05,1.137 5.387,1.045c0.367,-0.004 0.604,0 0.742,0c4.815,-0.6 10.685,-2.32 19.904,-6.166l1,1.641c-7.198,2.43 -15.884,9.271 -26.778,8.192c-0.775,-0.079 -4.354,-0.796 -5.099,-1.029c0.458,-0.608 1.812,-2.638 1.812,-2.638Zm60.431,-20.137c-1.387,4.121 -2.241,8.579 -2.071,13.446c0.154,4.458 3.037,10.65 10.061,10.025c3.654,-0.321 5.941,-2.692 7.116,-5.088c1.378,-2.821 1.291,-5.716 1.291,-5.716c-0,-0 0.087,-4.605 -4.324,-8.517c-2.421,-2.213 -6.158,-3.908 -12.073,-4.15Zm120.091,20.404c0,0.583 0.059,1.183 0.075,1.767l-1.52,-0l-0.059,-1.409l-0.037,0c-0.413,0.75 -1.125,1.538 -2.516,1.538c-1.971,-0 -3.304,-1.613 -3.304,-4.921c-0,-3.304 1.333,-4.921 3.304,-4.921c1.091,0 1.803,0.434 2.441,1.446l0.037,0l0,-5.821l1.579,0l0,12.321Zm3.32,-2.554c0,2.217 0.867,3.25 2.613,3.25c0.787,-0 1.653,-0.396 2.199,-0.788l0.075,1.425c-0.754,0.359 -1.729,0.563 -2.687,0.563c-2.537,-0 -3.849,-1.913 -3.849,-4.921c-0,-3.004 1.312,-4.921 3.699,-4.921c2.158,0 3.362,1.729 3.362,4.546l0,0.846l-5.412,-0Zm14.048,2.554c-0,0.583 0.054,1.183 0.075,1.767l-1.521,-0l-0.054,-1.409l-0.037,0c-0.417,0.75 -1.129,1.538 -2.516,1.538c-1.975,-0 -3.308,-1.613 -3.308,-4.921c-0,-3.304 1.333,-4.921 3.308,-4.921c1.087,0 1.799,0.434 2.441,1.446l0.033,0l0,-5.821l1.579,0l-0,12.321Zm6.499,-12.321l1.575,0l-0,5.821l0.037,0c0.642,-1.012 1.354,-1.446 2.441,-1.446c1.975,0 3.308,1.617 3.308,4.921c0,3.308 -1.333,4.921 -3.308,4.921c-1.387,-0 -2.104,-0.788 -2.512,-1.538l-0.041,0l-0.055,1.409l-1.524,-0c0.02,-0.584 0.079,-1.184 0.079,-1.767l-0,-12.321Zm-62.702,13.975c-0.375,0.129 -0.899,0.242 -1.333,0.242c-1.445,-0 -2.212,-0.579 -2.212,-2.271l0,-6.162l-1.525,-0l0,-1.275l1.525,-0l0,-1.955l1.575,-0.47l-0,2.425l1.97,-0l0,1.275l-1.97,-0l-0,5.654c-0,1.091 0.283,1.504 0.996,1.504c0.395,-0 0.674,-0.113 0.974,-0.246l0,1.279Zm20.601,-1.954c-0,0.696 0.054,1.388 0.075,2.067l-1.521,-0l-0.054,-1.429l-0.042,-0c-0.504,1.091 -1.312,1.558 -2.42,1.558c-1.67,-0 -2.799,-0.958 -2.799,-3.058l-0,-6.65l1.578,-0l0,6.179c0,1.521 0.563,2.179 1.579,2.179c1.238,-0 2.025,-0.863 2.025,-2.592l-0,-5.766l1.579,-0l-0,7.512Zm-38.702,-6.858c0.792,-0.504 1.767,-0.788 2.704,-0.788c1.408,0 2.254,0.6 2.554,0.9c0.416,0.417 0.829,1 0.829,2.35l-0,4.996c-0,0.563 0.037,1.129 0.075,1.467l-1.429,-0l-0.092,-1.296l-0.037,-0c-0.434,0.733 -1.221,1.425 -2.687,1.425c-1.579,-0 -2.762,-0.917 -2.762,-2.758c-0,-1.859 1.224,-3.234 4.507,-3.234l0.921,0l-0,-0.429c-0,-0.717 -0.054,-1.129 -0.354,-1.542c-0.321,-0.433 -0.942,-0.6 -1.6,-0.6c-0.975,0 -1.912,0.392 -2.458,0.996l-0.171,-1.487Zm24.242,-4.188l5.861,0l0,1.429l-4.207,0l-0,4.171l3.999,0l0,1.425l-3.999,0l-0,6.088l-1.654,-0l-0,-13.113Zm-15.922,5.6c-0,-0.696 -0.059,-1.391 -0.075,-2.066l1.52,-0l0.059,1.5l0.037,-0c0.508,-1.163 1.312,-1.634 2.72,-1.634l0,1.559c-0.187,-0.038 -0.391,-0.055 -0.599,-0.055c-1.221,0 -2.083,1.05 -2.083,3.134l-0,5.075l-1.579,-0l-0,-7.513Zm32.673,0c0,-0.696 -0.058,-1.391 -0.075,-2.066l1.521,-0l0.058,1.425l0.033,-0c0.509,-1.088 1.317,-1.559 2.425,-1.559c1.67,0 2.799,0.959 2.799,3.063l0,6.65l-1.578,-0l-0,-6.179c-0,-1.525 -0.563,-2.18 -1.579,-2.18c-1.238,0 -2.029,0.863 -2.029,2.592l-0,5.767l-1.575,-0l0,-7.513Zm-49.066,-5.6l3.153,0c1.317,0 2.142,0.359 2.837,1.017c0.659,0.637 1.034,1.558 1.034,2.704c-0,2.554 -1.484,3.904 -4.262,3.904l-1.108,0l-0,5.488l-1.654,-0l-0,-13.113Zm12.656,8.417c-0.279,-0.038 -0.675,-0.038 -1.108,-0.038c-1.858,0 -2.741,0.884 -2.741,1.988c-0,1.017 0.525,1.675 1.616,1.675c1.371,-0 2.233,-1.108 2.233,-2.425l-0,-1.2Zm48.67,-3.738c-1.445,0 -2.103,1.238 -2.103,3.642c-0,2.404 0.658,3.646 2.103,3.646c1.446,-0 2.104,-1.242 2.104,-3.646c0,-2.404 -0.658,-3.642 -2.104,-3.642Zm17.368,0c-1.445,0 -2.099,1.238 -2.099,3.642c-0,2.404 0.654,3.646 2.099,3.646c1.45,-0 2.104,-1.242 2.104,-3.646c0,-2.404 -0.654,-3.642 -2.104,-3.642Zm13.86,7.288c1.446,-0 2.104,-1.242 2.104,-3.646c0,-2.404 -0.658,-3.642 -2.104,-3.642c-1.445,0 -2.103,1.238 -2.103,3.642c-0,2.404 0.658,3.646 2.103,3.646Zm-20.392,-4.379c0,-1.988 -0.616,-2.984 -1.879,-2.984c-1.012,0 -1.912,0.75 -1.954,2.984l3.833,-0Zm-193.862,-38.917c0,0 0.513,1.85 0.217,5.229c-0.283,5.784 -11.602,13.755 -11.465,23.346c0.079,5.733 4.304,9.154 4.304,9.154c-0,0 -1.896,-5.058 -1.05,-10.121c1.171,-7.025 10.027,-15.041 9.748,-21.941c-0.167,-4.071 -1.754,-5.667 -1.754,-5.667Zm123.354,37.604l0.899,0c2.008,0 2.742,-0.941 2.742,-2.404c-0,-1.804 -1.013,-2.517 -2.704,-2.517l-0.937,0l-0,4.921Zm-154.569,-26.008c10.29,7.546 1.666,11.037 1.666,11.037c2.021,0.859 3.633,0.28 4.512,-1.033c0.321,-0.496 0.625,-1.1 0.792,-1.579c0.291,-0.817 0.325,-1.475 0.325,-1.475c3.645,3.575 7.619,9.683 10.219,12.925c-0.792,-3.142 -0.18,-4.558 -0.425,-4.85c-3.1,-3.725 -4.137,-5.058 -6.162,-7.308c-6.128,-6.775 -10.927,-7.717 -10.927,-7.717Zm62.564,19.204c3.758,-10.112 13.906,-10.517 14.277,-10.533c-10.794,-2.121 -13.544,3.333 -14.173,7.166c-9.227,-1.8 -17.122,-1.987 -17.122,-1.987c11.094,1.55 17.018,5.354 17.018,5.354Zm40.905,-38.029c0,-0 -15.126,-3.025 -29.99,1.342c-14.869,4.362 -12.777,12.133 -12.94,16.462c-0.15,4.333 -3.82,13.942 -16.905,12.675c-0,0 7.757,4.238 16.397,-2.729c8.632,-6.967 2.608,-15.408 9.557,-19.429c6.944,-4.025 12.327,-7.367 33.881,-8.321Zm-60.806,18.1c-0.483,-1.246 -0.329,-4.817 -0.187,-5.463c0.508,-1.37 0.971,-2.716 1.25,-3.991l0.229,0.116l1.616,1.013c-0.675,-0.837 -1.312,-3.05 -1.65,-4.388c-0.029,-0.17 -0.062,-0.35 -0.108,-0.52c-0.708,-2.867 -2.154,-4.542 -2.154,-4.542c0,-0 1.058,2.733 0.7,4.95c-0.35,4.625 -6.911,9.925 -5.428,18.029c0.821,4.479 5.299,8.042 5.299,8.042c-0,-0 -1.425,-2.946 -2.437,-8.509c-0.4,-2.191 0.312,-3.904 1.283,-6.533l0.358,0.338l1.229,1.458Zm-48.295,1.879c-0,0 0.533,-1.329 1.599,-1.871c1.067,-0.55 2.558,-0.641 4.308,-0.441c1.491,0.158 4.582,1.525 9.044,5.233c6.212,5.162 8.432,8.35 8.478,8.196c0.391,-1.246 1.883,-3.671 1.883,-3.671c-2.933,-2.571 -13.185,-9.279 -16.381,-10.55c-3.591,-1.446 -8.527,-1.829 -8.931,3.104Zm93.583,-33.529c0,-0 -11.635,1.879 -17.388,3.729c-5.77,1.846 -14.173,5.479 -17.981,10.242c-3.807,4.766 -0.604,12.321 -1.574,17.35c-0.971,5.029 -8.436,10.137 -8.436,10.137c-0,0 8.686,-2.225 11.885,-9.225c2.354,-5.141 -0.637,-8.721 2.975,-16.662c3.611,-7.934 30.519,-15.571 30.519,-15.571Zm3.391,28.587c-7.299,-14.533 11.09,-14.279 11.09,-14.279c-7.186,1.479 -9.958,5.051 -10.932,8.253c-0.944,3.101 -0.204,5.855 -0.156,6.026l0.002,0l-0.002,0.001c0.002,0.005 0.002,0.008 0.002,0.008l-0.004,-0.008c-0.136,0.003 -3.634,0.115 -7.15,1.668c-3.586,1.585 -7.191,4.669 -7.264,10.669c-0.262,-0.45 -7.84,-13.679 14.418,-12.338l-0.004,0Zm181.452,8.509c-0.734,2.291 -1.767,3.266 -3.42,3.266c-0.525,0 -1.275,-0.091 -1.784,-0.241l0.096,-2.2c0.188,0.112 0.504,0.229 0.938,0.229c0.995,-0 1.466,-1.113 1.466,-1.954l-3.399,-9.788l3.078,0l1.821,6.629l0.037,0l1.729,-6.629l2.891,0l-3.453,10.688Zm-106.79,-0c-0.733,2.291 -1.766,3.266 -3.416,3.266c-0.529,0 -1.279,-0.091 -1.787,-0.241l0.096,-2.2c0.187,0.112 0.504,0.229 0.937,0.229c0.996,-0 1.466,-1.113 1.466,-1.954l-3.399,-9.788l3.079,0l1.82,6.629l0.042,0l1.725,-6.629l2.895,0l-3.458,10.688Zm-100.22,-2.059c0,0 5.912,0.83 9.39,4.888c0,-0 -4.761,-3.692 -10.173,-2.737c0,-0 0.517,-1.071 0.783,-2.151Zm200.098,-8.987c-0.47,-0.262 -1.258,-0.75 -2.666,-0.75c-2.066,-0 -3.378,1.671 -3.378,4.321c-0,2.554 1.483,4.283 3.432,4.283c1.504,0 2.388,-0.562 2.687,-0.696l0.113,2.742c-0.525,0.171 -1.616,0.471 -3.287,0.471c-3.587,-0 -6.103,-2.688 -6.103,-6.838c-0,-4.812 3.233,-6.725 5.899,-6.725c1.95,0 2.945,0.434 3.453,0.638l-0.15,2.554Zm-60.856,7.946c0,1.241 0.038,1.75 0.075,2.2l-2.82,-0c-0.033,-0.375 -0.075,-0.884 -0.075,-1.563l-0.037,0c-0.3,0.604 -0.954,1.713 -2.667,1.713c-2.195,-0 -3.437,-2.163 -3.437,-5.279c0,-2.63 0.98,-4.809 3.437,-4.809c1.371,0 2.162,0.713 2.517,1.596l0.037,0l0,-5.746l2.97,0l0,11.888Zm9.707,-7.121c0.767,-0.242 2.083,-0.617 3.154,-0.617c3.437,0 4.224,1.429 4.224,3.604l-0,3.571c-0,1.446 0.021,2.105 0.079,2.763l-2.708,-0l-0.075,-1.354l-0.037,-0c-0.129,0.6 -1.275,1.504 -2.683,1.504c-1.825,-0 -3.025,-1.188 -3.025,-2.971c0,-3.267 3.812,-3.283 4.845,-3.283l0.9,-0c0,-1.88 -1.391,-1.88 -1.82,-1.88c-0.75,0 -1.562,0.167 -2.725,0.863l-0.129,-2.2Zm18.718,-0.467l1.691,0l-0,-2.012l2.895,-0.921l0,2.933l1.912,0l0,2.084l-1.912,-0l0,4.491c0,0.959 0.429,1.221 0.992,1.221c0.412,0 0.679,-0.075 0.979,-0.208l-0,2.083c-0.3,0.117 -1.108,0.267 -2.067,0.267c-1.541,-0 -2.874,-0.75 -2.874,-2.896l-0,-4.958l-1.616,-0l-0,-2.084Zm75.266,7.738c-0,0.937 0.016,1.541 0.075,2.05l-2.704,-0c-0.038,-0.434 -0.075,-0.979 -0.075,-1.638l-0.042,0c-0.45,1.071 -1.2,1.788 -2.758,1.788c-2.162,-0 -2.874,-1.579 -2.874,-3.534l-0,-6.404l2.966,0l0,6.029c0,1.221 0.546,1.542 1.146,1.542c0.958,0 1.295,-0.829 1.295,-2.087l0,-5.484l2.971,0l-0,7.738Zm-76.241,-2.067l-5.762,0c0,1.167 0.75,2.238 2.421,2.238c1.012,-0 2.029,-0.375 2.762,-0.771l0.054,2.233c-0.958,0.358 -2.083,0.567 -3.1,0.567c-3.436,-0 -4.957,-2.088 -4.957,-5.075c0,-2.629 1.541,-5.013 4.341,-5.013c0.883,0 4.241,0 4.241,5.109l-0,0.712Zm-42.584,-5.821c3.003,0 4.599,2.084 4.599,5.013c-0,2.971 -1.596,5.075 -4.599,5.075c-3.008,-0 -4.604,-2.104 -4.604,-5.075c0,-2.929 1.596,-5.013 4.604,-5.013Zm17.197,2.196c-0,-0.937 -0.017,-1.537 -0.075,-2.046l2.703,0c0.021,0.584 0.059,1.184 0.079,1.767l0.034,0c0.604,-1.054 1.016,-1.917 2.724,-1.917l0.434,0l-0,2.742c-0.321,-0.075 -0.584,-0.113 -0.996,-0.113c-1.729,0 -1.937,1.505 -1.937,2.93l-0,4.379l-2.966,-0l-0,-7.742Zm-54.383,-5.371l3.083,0l0,10.746l4.337,0l0,2.367l-7.42,-0l0,-13.113Zm88.822,-0.975l2.966,0l0,5.746l0.038,0c0.337,-1.087 1.429,-1.596 2.5,-1.596c2.158,0 2.87,1.579 2.87,3.529l-0,6.409l-2.966,-0l-0,-6.029c-0,-1.225 -0.546,-1.542 -1.146,-1.542c-0.958,-0 -1.296,0.825 -1.296,2.083l0,5.488l-2.966,-0l0,-14.088Zm-68.913,4.3l1.425,6.967l0.038,-0l1.391,-6.967l3.379,0l1.333,6.967l0.042,-0l1.37,-6.967l2.816,0l-2.612,9.788l-3.153,-0l-1.596,-7.159l-0.042,0l-1.499,7.159l-3.233,-0l-2.629,-9.788l2.97,0Zm115.389,3.759c-0,-1.13 -0.471,-1.542 -1.125,-1.542c-0.883,-0 -1.225,0.637 -1.225,1.371l-0,6.2l-2.962,-0l-0,-6.029c-0,-1.242 -0.55,-1.542 -1.037,-1.542c-0.975,-0 -1.313,0.846 -1.313,2.083l0,5.488l-2.97,-0l0,-7.742c0,-0.937 -0.017,-1.537 -0.075,-2.046l2.704,0c0.041,0.434 0.079,0.975 0.079,1.634l0.037,-0c0.45,-1.071 1.2,-1.784 2.758,-1.784c1.413,0 2.125,0.659 2.537,1.634c0.434,-0.921 1.125,-1.634 2.687,-1.634c2.158,0 2.875,1.579 2.875,3.529l-0,6.409l-2.97,-0l-0,-6.029Zm5.032,-1.713c-0,-0.937 -0.021,-1.537 -0.075,-2.046l2.704,0c0.016,0.584 0.054,1.184 0.075,1.767l0.037,0c0.6,-1.054 1.013,-1.917 2.725,-1.917l0.429,0l-0,2.742c-0.317,-0.075 -0.579,-0.113 -0.992,-0.113c-1.729,0 -1.937,1.505 -1.937,2.93l0,4.379l-2.966,-0l-0,-7.742Zm-73.629,3.025c-1.183,0 -3.041,0.075 -3.041,1.708c0,1.28 1.033,1.28 1.279,1.28c0.258,-0 1.762,-0.038 1.762,-2.425l0,-0.563Zm-29.515,2.838c1.033,-0 1.52,-1.13 1.52,-3.046c0,-1.917 -0.487,-2.984 -1.52,-2.984c-1.033,0 -1.525,1.067 -1.525,2.984c-0,1.916 0.492,3.046 1.525,3.046Zm10.681,-0.113c1.221,0 1.483,-1.767 1.483,-2.896c0,-1.558 -0.279,-3.021 -1.483,-3.021c-1.312,0 -1.429,1.463 -1.429,3.021c0,1.017 0.079,2.896 1.429,2.896Zm-202.481,-6.875c4.341,-1.092 4.82,1.771 5.736,2.458l3.316,2.03c-4.482,-9.934 -9.052,-4.488 -9.052,-4.488Zm231.68,3.138c0,-1.242 -0.316,-2.405 -1.537,-2.405c-1.521,0 -1.521,1.88 -1.521,2.405l3.058,-0Zm-139.6,-2.434c-17.377,-4.191 -22.784,-1.187 -22.784,-1.187c0,-0 0.383,-0.984 0.625,-1.534c0.392,-0.866 0.496,-1.091 0.608,-1.304c12.735,-0.487 21.551,4.025 21.551,4.025Zm-67.622,-17.733c0,-0 -5.891,-1.879 -9.548,1.104l1.925,3.321c-0,-0 5.586,-4.558 9.719,1.983c-0,0 -3.079,4.025 -9.574,2.892c0,-0 1.767,3.046 6.078,3.021c4.316,-0.029 8.507,-4.367 9.857,-2.904c-0,-0 -0.454,-6.18 7.078,-8.359c-0,0 1.725,1.404 2.033,2.196c-0,0 2.474,-1.95 2.337,-6.729c-0.133,-4.779 -2.825,-6.95 -3.787,-7.763c0,0 0.567,2.85 -0.7,5.509c-0.737,1.546 -2.362,3.479 -4.849,3.55c0,-0 -2.045,0.037 -3.403,-0.375c-1.359,-0.413 -6.753,-2.225 -7.166,2.554Zm1.079,6.687c0,0 -1.958,-2.1 -4.253,-2.1c-3.316,0 -6.078,3.538 -9.028,3.542c-2.954,0 -4.428,-0.996 -4.428,-0.996c-0,0 1.787,2.413 4.603,2.413c3.658,-0 6.366,-3.604 8.794,-3.604c2.417,-0 4.312,0.745 4.312,0.745Zm281.572,-2.575c-0,2.646 -1.988,3.755 -4.091,3.755c-0.809,-0 -2.104,-0.3 -2.8,-0.58l0.075,-1.6c0.675,0.455 1.766,0.83 2.629,0.83c1.933,-0 2.683,-1.146 2.683,-2.8l-0,-1.505l-0.034,0c-0.62,1.092 -1.466,1.617 -2.52,1.617c-1.971,0 -3.304,-1.617 -3.304,-4.921c0,-3.304 1.333,-4.92 3.475,-4.92c0.958,-0 1.82,0.599 2.349,1.52l0.034,0l0.058,-1.387l1.52,-0c-0.016,0.558 -0.074,1.162 -0.074,1.746l-0,8.245Zm-88.406,1.542c-0.466,1.633 -1.145,2.213 -2.345,2.213c-0.375,-0 -0.792,-0.038 -1.071,-0.113l0.075,-1.425c0.242,0.113 0.525,0.188 0.862,0.188c0.45,-0 0.792,-0.209 1.054,-1.205l0.375,-1.462l-3.024,-9.729l1.654,-0l2.137,7.812l0.042,0l1.991,-7.812l1.575,-0l-3.325,11.533Zm-42.492,-6.275c-0,2.217 0.862,3.25 2.612,3.25c0.787,0 1.649,-0.396 2.195,-0.792l0.075,1.43c-0.75,0.358 -1.729,0.562 -2.687,0.562c-2.533,0 -3.849,-1.917 -3.849,-4.921c-0,-3.004 1.316,-4.92 3.699,-4.92c2.162,-0 3.362,1.729 3.362,4.545l0,0.846l-5.407,0Zm79.861,-4.604c0.791,-0.504 1.766,-0.787 2.703,-0.787c1.408,-0 2.254,0.599 2.554,0.899c0.412,0.413 0.825,0.996 0.825,2.35l-0,4.996c-0,0.563 0.042,1.125 0.079,1.467l-1.429,-0l-0.096,-1.296l-0.037,0c-0.429,0.729 -1.221,1.425 -2.683,1.425c-1.579,0 -2.762,-0.921 -2.762,-2.762c-0,-1.859 1.221,-3.229 4.508,-3.229l0.92,-0l0,-0.434c0,-0.712 -0.054,-1.125 -0.354,-1.537c-0.321,-0.434 -0.941,-0.605 -1.6,-0.605c-0.974,0 -1.916,0.396 -2.458,0.996l-0.17,-1.483Zm29.799,-0.787c2.537,-0 3.853,1.916 3.853,4.92c0,3.004 -1.316,4.921 -3.853,4.921c-2.533,0 -3.85,-1.917 -3.85,-4.921c0,-3.004 1.317,-4.92 3.85,-4.92Zm23.754,0.787c0.791,-0.504 1.766,-0.787 2.703,-0.787c1.413,-0 2.254,0.599 2.554,0.899c0.413,0.413 0.829,0.996 0.829,2.35l0,4.996c0,0.563 0.038,1.125 0.075,1.467l-1.429,-0l-0.091,-1.296l-0.042,0c-0.429,0.729 -1.221,1.425 -2.683,1.425c-1.575,0 -2.762,-0.921 -2.762,-2.762c0,-1.859 1.221,-3.229 4.508,-3.229l0.92,-0l0,-0.434c0,-0.712 -0.054,-1.125 -0.354,-1.537c-0.321,-0.434 -0.941,-0.605 -1.6,-0.605c-0.974,0 -1.916,0.396 -2.457,0.996l-0.171,-1.483Zm-149.899,-4.187l4.283,13.112l-1.729,-0l-1.054,-3.421l-4.995,0l-1.05,3.421l-1.654,-0l4.395,-13.112l1.804,-0Zm63.618,5.595c0,-0.691 -0.058,-1.387 -0.079,-2.062l1.525,-0l0.054,1.425l0.037,-0c0.508,-1.092 1.317,-1.558 2.425,-1.558c1.67,-0 2.799,0.958 2.799,3.062l0,6.65l-1.578,-0l-0,-6.179c-0,-1.525 -0.563,-2.179 -1.579,-2.179c-1.242,-0 -2.029,0.862 -2.029,2.587l-0,5.771l-1.575,-0l0,-7.517Zm50.095,0c0,-0.691 -0.054,-1.387 -0.075,-2.062l1.521,-0l0.058,1.425l0.038,-0c0.508,-1.092 1.316,-1.558 2.42,-1.558c1.675,-0 2.8,0.958 2.8,3.062l-0,6.65l-1.579,-0l-0,-6.179c-0,-1.525 -0.563,-2.179 -1.575,-2.179c-1.241,-0 -2.029,0.862 -2.029,2.587l0,5.771l-1.579,-0l0,-7.517Zm-102.432,-2.062l1.579,-0l0,9.579l-1.579,-0l0,-9.579Zm21.409,2.062c0,-0.691 -0.058,-1.387 -0.075,-2.062l1.521,-0l0.058,1.425l0.033,-0c0.509,-1.092 1.317,-1.558 2.425,-1.558c1.67,-0 2.799,0.958 2.799,3.062l0,6.65l-1.578,-0l-0,-6.179c-0,-1.525 -0.563,-2.179 -1.579,-2.179c-1.238,-0 -2.029,0.862 -2.029,2.587l-0,5.771l-1.575,-0l0,-7.517Zm9.203,-2.062l1.574,-0l0,9.579l-1.574,-0l-0,-9.579Zm4.016,2.062c-0,-0.691 -0.059,-1.387 -0.075,-2.062l1.52,-0l0.059,1.5l0.037,-0c0.504,-1.167 1.312,-1.633 2.72,-1.633l0,1.558c-0.187,-0.038 -0.395,-0.054 -0.599,-0.054c-1.221,-0 -2.083,1.05 -2.083,3.133l-0,5.075l-1.579,-0l-0,-7.517Zm58.756,0c0,-0.691 -0.058,-1.387 -0.075,-2.062l1.521,-0l0.058,1.425l0.033,-0c0.509,-1.092 1.317,-1.558 2.425,-1.558c1.67,-0 2.799,0.958 2.799,3.062l0,6.65l-1.579,-0l0,-6.179c0,-1.525 -0.562,-2.179 -1.578,-2.179c-1.238,-0 -2.029,0.862 -2.029,2.587l-0,5.771l-1.575,-0l0,-7.517Zm-81.027,0c-0,-0.691 -0.055,-1.387 -0.075,-2.062l1.52,-0l0.058,1.425l0.038,-0c0.508,-1.092 1.316,-1.558 2.42,-1.558c1.675,-0 2.8,0.958 2.8,3.062l-0,6.65l-1.579,-0l-0,-6.179c-0,-1.525 -0.562,-2.179 -1.575,-2.179c-1.241,-0 -2.029,0.862 -2.029,2.587l0,5.771l-1.578,-0l-0,-7.517Zm108.331,-6.571l1.574,0l0,14.088l-1.574,-0l-0,-14.088Zm26.249,6.571c0,-0.691 -0.058,-1.387 -0.075,-2.062l1.521,-0l0.058,1.425l0.037,-0c0.505,-1.092 1.313,-1.558 2.421,-1.558c1.67,-0 2.799,0.958 2.799,3.062l0,6.65l-1.578,-0l-0,-6.179c-0,-1.525 -0.563,-2.179 -1.579,-2.179c-1.238,-0 -2.029,0.862 -2.029,2.587l-0,5.771l-1.575,-0l0,-7.517Zm-71.3,-6.571l1.579,0l0,5.821l0.038,0c0.412,-0.808 1.237,-1.445 2.345,-1.445c1.675,-0 2.799,0.958 2.799,3.062l0,6.65l-1.574,-0l-0,-6.179c-0,-1.525 -0.563,-2.179 -1.579,-2.179c-1.242,-0 -2.029,0.862 -2.029,2.587l0,5.771l-1.579,-0l0,-14.088Zm-9.444,0.976l3.362,-0c1.387,-0 2.158,0.337 2.762,0.899c0.675,0.638 0.975,1.542 0.975,2.501c-0,1.387 -0.659,2.72 -2.591,3.137l-0,0.037c0.791,0.15 1.162,0.525 1.424,1.275l1.842,5.263l-1.783,-0l-1.5,-4.433c-0.379,-1.092 -0.846,-1.505 -2.087,-1.505l-0.75,0l-0,5.938l-1.654,-0l-0,-13.112Zm-71.9,5.595c0,-0.691 -0.054,-1.387 -0.075,-2.062l1.521,-0l0.058,1.5l0.037,-0c0.509,-1.167 1.313,-1.633 2.725,-1.633l-0,1.558c-0.192,-0.038 -0.396,-0.054 -0.604,-0.054c-1.221,-0 -2.083,1.05 -2.083,3.133l-0,5.075l-1.579,-0l0,-7.517Zm95.354,2.821c-0.283,-0.042 -0.675,-0.042 -1.108,-0.042c-1.858,0 -2.741,0.888 -2.741,1.992c-0,1.017 0.525,1.675 1.612,1.675c1.375,0 2.237,-1.108 2.237,-2.425l0,-1.2Zm53.553,0c-0.283,-0.042 -0.675,-0.042 -1.108,-0.042c-1.858,0 -2.741,0.888 -2.741,1.992c0,1.017 0.525,1.675 1.612,1.675c1.375,0 2.237,-1.108 2.237,-2.425l0,-1.2Zm-224.044,-8.742c0,0 -9.602,2.975 -12.631,12.359l4.304,-0.954c-0,-0 0.058,-5.85 8.327,-11.405Zm195.708,12.292c1.504,0 2.199,-1.242 2.199,-3.646c0,-2.404 -0.695,-3.646 -2.199,-3.646c-1.5,0 -2.196,1.242 -2.196,3.646c0,2.404 0.696,3.646 2.196,3.646Zm17.559,0c1.446,0 2.104,-1.242 2.104,-3.646c-0,-2.404 -0.658,-3.646 -2.104,-3.646c-1.446,0 -2.104,1.242 -2.104,3.646c0,2.404 0.658,3.646 2.104,3.646Zm-272.406,-2.95c-0,0 -1.796,3.092 -4.591,1.296c-0,-0 0.067,-1.842 1.649,-1.663c1.584,0.18 1.375,0.825 2.942,0.367Zm129.773,-0.754l-2.012,-6.533l-0.038,-0l-2.066,6.533l4.116,0Zm19.246,-0.675c0,-1.992 -0.62,-2.987 -1.879,-2.987c-1.016,-0 -1.916,0.754 -1.953,2.987l3.832,-0Zm58.811,-1.767l1.275,0c1.766,0 2.441,-1.162 2.441,-2.308c-0,-1.467 -0.954,-2.158 -2.404,-2.158l-1.312,-0l-0,4.466Zm-127.005,-3.101l0.027,-0.007l0,0.029c-0.009,-0.007 -0.018,-0.015 -0.027,-0.022Zm60.812,-3.132l0,1.875l-1.729,0l0,-1.875l1.729,-0Zm30.607,-0l0,1.875l-1.728,0l-0,-1.875l1.728,-0Z"/></svg>