<?xml version="1.0" encoding="UTF-8" standalone="no"?><!DOCTYPE svg PUBLIC "-//W3C//DTD SVG 1.1//EN" "http://www.w3.org/Graphics/SVG/1.1/DTD/svg11.dtd"><svg width="100%" height="100%" viewBox="0 0 467 498" version="1.1" xmlns="http://www.w3.org/2000/svg" xmlns:xlink="http://www.w3.org/1999/xlink" xml:space="preserve" xmlns:serif="http://www.serif.com/" style="fill-rule:evenodd;clip-rule:evenodd;stroke-linejoin:round;stroke-miterlimit:2;"><path d="M393.823,496.821c-3.491,-0.298 -7.868,-2.09 -11.082,-3.484c-9.177,-3.98 -12.868,-12.707 -12.868,-23.021c-0,-5.682 1.222,-13.379 7.04,-19.528c4.609,-4.87 11.29,-6.881 15.551,-7.525c6.262,-0.947 10.536,0.618 13.276,1.006c2.34,0.332 7.213,3.261 7.213,3.261l-2.302,4.679c0,0 -1.424,-0.703 -2.131,-1.065c-1.592,-0.815 -3.203,-1.769 -5.036,-2.033c-13.545,-1.954 -26.81,5.264 -25.795,20.673c0.493,7.479 4.113,16.766 11.459,19.607c2.249,0.87 5.963,1.477 8.371,1.596c4.764,0.234 10.227,-1.596 10.227,-1.596l-0,-16.17l7.167,-0l0,19.172c0,-0 -2.579,2.06 -5.447,2.905c-6.079,1.791 -11.51,1.876 -15.643,1.523Zm-349.167,-4.937c-1.014,-1.421 -2.552,-4.282 -2.552,-4.282c-0,-0 -5.42,2.634 -8.457,2.998c-10.231,1.228 -17.689,-0.098 -23.231,-10.014c-4.729,-8.459 -3.14,-23.444 5.991,-29.477c2.689,-1.777 6.861,-2.538 9.608,-2.531c4.349,0.009 9.346,1.023 13.441,2.081c0.779,0.201 2.158,1.09 2.158,1.09c0.839,-1.743 1.566,-3.431 2.159,-5.054c-0,-0 -2.716,-1.257 -3.79,-1.607c-2.066,-0.674 -3.16,-1.002 -5.283,-1.465c-10.109,-2.208 -19.912,0.413 -27.228,8.126c-12.42,13.095 -8.891,34.674 7.131,42.102c7.54,3.496 12.709,3.577 20.179,1.997c2.126,-0.45 3.724,-1.3 5.753,-2.081c1.409,-0.542 2.767,-1.214 4.121,-1.883Zm152.775,-0c-1.014,-1.421 -2.551,-4.282 -2.551,-4.282c-0,-0 -5.42,2.634 -8.458,2.998c-10.23,1.228 -17.688,-0.098 -23.231,-10.014c-4.728,-8.459 -3.139,-23.444 5.991,-29.477c2.69,-1.777 6.862,-2.538 9.608,-2.531c4.35,0.009 9.347,1.023 13.441,2.081c0.78,0.201 2.159,1.09 2.159,1.09c0.839,-1.743 1.565,-3.431 2.158,-5.054c0,-0 -2.716,-1.257 -3.789,-1.607c-2.067,-0.674 -3.16,-1.002 -5.283,-1.465c-10.109,-2.208 -19.913,0.413 -27.228,8.126c-12.42,13.095 -8.892,34.674 7.131,42.102c7.54,3.496 12.708,3.577 20.179,1.997c2.126,-0.45 3.723,-1.3 5.753,-2.081c1.408,-0.542 2.766,-1.214 4.12,-1.883Zm-103.701,-50.541l7.26,-0.991l-0,55.496l-7.26,-0l-0,-54.505Zm-30.316,49.451l19.818,-0l0,5.054l-25.999,-0l0,-52.225l6.181,-0l0,47.171Zm60.533,-0l19.72,-0l0,5.054l-26.98,-0l0,-52.225l7.26,-0l0,47.171Zm154.488,4.504l-3.099,-0l-15.498,-51.029l7.168,0l11.429,37.957l9.105,-23.917l-3.971,-14.04l7.168,0l10.073,37.085l14.433,-37.085l6.296,0l-19.663,51.029l-2.906,-0l-9.299,-29.049l-11.236,29.049Zm62.573,-4.939l18.404,0l-0,4.939l-25.669,-0l0,-51.029l7.265,0l-0,46.09Zm88.435,4.939l-6.296,-0l21.503,-51.029l3.196,0l18.404,51.029l-7.168,-0l-5.037,-13.847l-18.403,0l-6.199,13.847Zm-200.646,-34.525c4.36,0 7.899,3.538 7.899,7.896c0,4.359 -3.539,7.897 -7.899,7.897c-4.359,-0 -7.899,-3.538 -7.899,-7.897c0,-4.358 3.54,-7.896 7.899,-7.896Zm215.853,-3.432l-8.04,18.978l15.208,0l-7.168,-18.978Zm-215.238,-70.286l-15.41,1.091l12.466,-10.517l-5.203,-14.188l12.368,9.227l12.466,-9.227l-4.122,14.188l13.447,9.426l-16.687,-0l-4.122,14.288l-5.203,-14.288Zm55.263,-5.259l-15.607,4.168l9.423,-12.403l-9.423,-12.402l15.607,5.06l8.344,-13.196l1.079,16.371l14.528,5.259l-14.528,3.968l0,15.479l-9.423,-12.304Zm-109.249,-4.167l-15.607,-3.969l14.527,-5.258l0,-15.28l9.423,12.402l14.528,-6.25l-8.344,13.394l9.423,12.403l-14.527,-4.168l-9.423,12.403l-0,-15.677Zm159.211,-16.371l-13.545,8.136l5.202,-14.486l-12.368,-10.319l15.607,1.091l6.184,-14.486l4.123,15.578l15.607,0.992l-13.546,8.136l4.123,15.578l-11.387,-10.22Zm-213.394,-9.227l-13.448,-8.434l15.607,-0.992l4.123,-15.28l6.38,14.486l15.411,-1.091l-12.466,10.219l6.184,14.486l-13.448,-8.433l-12.368,9.227l4.025,-14.188Zm255.995,-24.706l-10.503,12.402l1.08,-15.478l-15.607,-6.052l15.607,-3.175l1.079,-15.479l8.344,13.395l15.607,-4.167l-9.423,12.402l8.343,12.403l-14.527,-6.251Zm-167.856,-8.388c-3.104,1.006 -7.958,5.283 -9.693,11.232c-0.76,2.602 -0.734,7.111 -0.734,7.111c0,0 2.627,-3.959 4.474,-5.129c2.11,-1.335 8.267,-1.93 10.994,-1.508c7.976,1.234 15.384,6.556 23.564,6.506c10.5,-0.064 9.792,-0.288 19.482,-4.189c2.481,-0.999 7.51,-5.154 7.51,-5.154c-0,0 -5.255,0.641 -6.565,0.606c-3.666,-0.099 -4.647,0.468 -8.147,-0.059c-2.974,-0.447 -6.127,-1.526 -9.025,-2.332c-10.629,-2.96 -20.227,-10.854 -31.86,-7.084Zm-128.58,-5.007l-10.503,-12.402l15.607,4.167l8.344,-12.402l1.079,15.279l15.607,3.175l-14.527,6.251l0,15.28l-9.423,-12.402l-15.607,5.258l9.423,-12.204Zm212.522,-15.212c-2.405,0.893 -6.33,4.085 -6.758,4.684c-0.58,0.812 -1.536,2.019 -1.908,2.944c-0.957,2.375 -1.902,10.368 -1.415,10.311c-0,0 2.087,-3.293 2.977,-4.204c1.387,-1.42 3.059,-2.67 5.014,-3.018c11.191,-1.991 19.561,6.435 30.306,7.001c8.639,0.454 13.595,-1.471 21.141,-5.11c2.485,-1.198 6.527,-4.98 6.527,-4.98c0,0 -11.434,0.87 -15.908,0.447c-12.02,-1.137 -19.73,-9.662 -32.013,-9.662c-2.449,-0 -5.667,0.735 -7.963,1.587Zm-161.088,-0.634c-2.294,0.877 -6.588,4.511 -8.031,6.672c-1.173,1.758 -1.271,3.531 -1.578,5.818c-0.386,2.875 -0.213,5.467 -0.213,5.467c0,0 1.229,-2.245 2.15,-3.124c1.436,-1.371 2.964,-2.448 4.917,-2.804c11.179,-2.041 20.595,5.859 31.331,6.424c8.639,0.454 12.727,-1.233 20.238,-4.943c2.474,-1.222 6.329,-5.334 6.329,-5.334c0,-0 -9.015,1.153 -13.489,0.73c-12.078,-1.142 -22.034,-9.89 -34.372,-9.89c-2.45,0 -4.994,0.109 -7.282,0.984Zm274.154,-12.034l-7.263,14.486l-2.16,-15.479l-16.49,-2.877l14.527,-6.35l-3.239,-15.28l11.386,11.311l14.528,-7.342l-7.264,13.395l11.583,11.311l-15.608,-3.175Zm-228.622,0.979c3.56,-1.909 20.113,-13.667 26.497,-17.63c5.132,-3.187 10.224,-6.131 15.441,-9.177c4.163,-2.43 12.438,-7.431 12.438,-7.431c0,-0 -8.103,1.849 -11.377,2.392c-15.167,2.516 -28.015,3.161 -28.015,3.161c0,0 -0.46,1.449 -0.886,2.066c-1.222,1.772 -2.854,4.79 -4.31,6.473c-4.728,5.464 -9.295,11.285 -15.396,15.166c-0.431,0.274 0.205,-2.527 0.253,-3.035c0.325,-3.395 0.32,-5.021 -0.228,-9.472c-0.346,-2.81 -0.921,-4.614 -1.194,-7.432c-0.161,-1.665 -0.194,-4.93 -0.194,-4.93c0,0 -11.441,-1.424 -20.232,-7.807c-3.758,-2.728 -7.681,-6.135 -7.681,-6.135c-0,-0 4.86,7.288 8.048,12.809c1.465,2.536 7.8,15.83 8.364,23.642c0.221,3.063 -0.356,6.945 -1.338,9.855c-0.803,2.378 -3.338,6.783 -3.338,6.783c-0,-0 3.833,-0.815 5.818,-1.493c2.194,-0.748 5.095,-1.527 7.168,-2.563c2.781,-1.39 7.422,-3.772 10.162,-5.242Zm128.088,6.688c2.813,-0.577 9.604,-0.925 12.121,-2.245c6.519,-3.422 13.071,-6.11 13.61,-14.517c0.584,-9.107 -3.94,-16.604 -6.487,-24.906c-1.704,-5.558 -3.05,-18.296 -3.05,-18.296c-0,-0 -0.88,2.609 -1.058,3.274c-0.551,2.053 -1.209,3.245 -1.714,5.311c-0.582,2.383 -0.843,4.591 -1.08,7.032c-0.604,6.216 -0.371,8.195 0.605,14.974c0.373,2.596 1.633,6.625 2.164,9.148c0.456,2.163 0.459,2.668 0.528,4.807c0.161,4.982 -3.021,7.558 -7.023,10.425c-2.551,1.828 -2.469,1.717 -4.898,3.051c-0.607,0.333 -3.718,1.942 -3.718,1.942Zm-253.127,-25.031l-6.184,-14.486l14.527,8.136l11.387,-11.311l-3.24,15.478l13.743,8.136l-15.608,1.092l-3.239,15.478l-7.362,-14.387l-15.607,2.084l11.583,-10.22Zm225.76,8.899c-0,-0 -0.805,0.814 -1.972,1.988c-0.389,0.392 -2.025,1.513 -2.025,1.513c-0.08,2.598 12.182,8.869 13.019,7.751c0,0 -0.961,-0.745 -1.189,-1.129c-0.65,-1.095 -1.324,-1.905 -1.763,-3.1c-0.844,-2.302 2.399,-6.341 2.952,-7.083c7.512,-10.07 16.739,-19.64 13.776,-33.641c-2.559,-12.094 -19.93,-11.725 -28.339,-9.148c-1.83,0.561 -7.501,4.305 -7.501,4.305c-0.339,-0.043 -1.275,-8.357 -1.121,-9.987c0.07,-0.742 -0.204,-5.233 -0.467,-4.486c-0.846,2.405 -1.508,5.394 -2.227,9.185c-0.578,3.046 -1.344,9.148 -1.082,9.148c-0,-0 -5.681,5.273 -8.364,8.066c-8.872,9.233 -17.797,19.43 -30.195,24.276c-4.626,1.808 -14.398,3.613 -14.398,3.613c-0,0 5.43,0.526 8.202,0.223c3.555,-0.389 7.419,-0.235 10.843,-1.27c10.071,-3.046 14.254,-5.34 24.784,-12.88c3.349,-2.398 10.688,-8.32 10.688,-8.563c-0,-0 0.768,1.797 1.184,3.159c0.306,1.002 0.469,2.695 0.579,3.737c0.774,7.309 -0.067,9.621 -4.835,14.388c-2.246,2.245 -2.374,2.088 -5.087,3.666c-1.263,0.734 -2.297,1.21 -3.577,1.914c-0.317,0.174 -1.799,0.793 -1.799,0.793c0.939,0.549 24.183,-4.061 25.357,-16.531c0.869,-9.226 -3.933,-17.284 -3.933,-17.284c0,-0 1.819,-0.868 2.851,-1.012c6.102,-0.849 12.19,0.97 13.456,8.329c0.792,4.61 -0.1,8.087 -1.867,12.049c-0.452,1.013 -1.443,2.288 -2.116,3.251c-0.822,1.178 -3.834,4.76 -3.834,4.76Zm145.668,-41.84l-3.239,15.28l-7.264,-13.196l-15.607,1.885l11.583,-11.311l-7.264,-13.394l13.448,7.342l12.466,-10.22l-3.24,15.28l14.528,7.342l-15.411,0.992Zm-53.006,9.32c-2.841,0.567 -5.603,0.391 -8.364,-0c-6.373,-0.904 -12.392,-5.166 -13.755,-11.663c-1.287,-6.133 -0.085,-9.49 1.892,-14.901c0.617,-1.687 2.161,-5.122 2.161,-5.122c0,-0 -5.791,-0.966 -8.895,-0.972c-7.852,-0.014 -17.811,2.128 -17.811,2.128c0,-0 -0.564,2.534 -0.767,3.896c-0.167,1.113 -0.431,2.199 -0.714,3.333c-0.188,0.754 -0.484,2.188 -0.683,2.939c-0.201,0.752 -0.919,2.98 -0.919,2.98c0,0 -1.628,-10.404 -6.461,-16.259c-1.396,-1.691 -3.325,-2.869 -5.117,-4.132c-1.66,-1.169 -6.381,-3.006 -6.381,-3.006c0,-0 24.845,-5.429 33.342,-5.158c6.382,0.204 18.893,3.148 18.893,3.148c0,-0 2.516,-4.609 3.66,-7.154c1.377,-3.065 6.44,-20.886 6.44,-20.886c0,-0 -3.359,-0.86 -8.331,-0.405c-1.45,0.133 -5.512,0.975 -5.512,0.975c-0,-0 4.008,-3.69 5.447,-5.654c2.095,-2.857 3.811,-5.906 5.578,-8.977c5.102,-8.865 5.27,-8.668 8.364,-18.296c0.749,-2.332 1.968,-7.082 1.968,-7.082c-0,0 2.367,19.281 0.161,34.01c-2.029,13.545 -1.782,13.639 -6.195,26.635c-1.03,3.034 -4.368,9.226 -4.368,9.226c0,-0 5.75,2.735 7.618,4.411c4.381,3.931 8.741,9.576 9.732,15.585c0.599,3.631 -0.761,12.213 -3.659,15.358c-2.04,2.214 -4.252,4.429 -7.324,5.043Zm-331.084,-28.965l-1.865,-15.28l10.306,11.311l15.607,-6.35l-8.343,13.395l11.582,11.311l-16.686,-3.175l-7.264,13.394l-2.159,-15.279l-15.607,-3.175l14.429,-6.152Zm94.235,21.882c-2.468,-0.52 -4.972,-1.049 -7.281,-2.065c-4.067,-1.791 -16.972,-9.743 -19.779,-12.296c-8.551,-7.78 -10.152,-12.619 -16.265,-22.759c-1.921,-3.186 -3.666,-6.24 -6.461,-8.696c-4.218,-3.707 -14.774,-5.753 -16.742,-5.039c0,-0 4.059,1.315 6.209,2.853c5.541,3.963 8.766,12.831 7.38,19.378c-1.077,5.09 -5.917,8.678 -10.294,10.114c-0.686,0.224 -5.45,1.1 -5.45,1.1c0,-0 3.809,2.305 4.283,2.495c4.358,1.743 8.804,1.954 12.541,0.776c2.566,-0.808 3.991,-2.661 3.991,-2.661c0,-0 4.248,4.769 7.426,6.57c3.52,1.996 6.981,3.998 10.768,5.423c9.728,3.664 7.334,2.878 17.634,4.72c2.433,0.435 6.589,0.616 8.974,0.502c0.593,-0.029 3.066,-0.415 3.066,-0.415Zm9.447,-4.131c-0,0 4.259,1.489 3.247,0.984c-11.814,-5.905 -19.431,-16.966 -25.092,-28.625c-8.845,-18.217 -8.49,-41.016 3.149,-58.33c7.739,-11.513 21.611,-19.378 35.424,-19.378c4.222,-0 8.568,0.109 12.497,1.655c2.519,0.992 6.04,4.012 6.04,4.012c0.385,-6.413 1.216,-12.029 2.287,-17.218c0,0 -1.402,-0.546 -4.096,-0.745c-3.971,-0.294 -10.173,0.492 -13.678,1.082c-9.523,1.603 -10.84,2.007 -19.778,5.213c-2.454,0.881 -4.875,1.851 -7.282,2.853c-0.744,0.31 -2.081,1.45 -2.081,1.45c-0,-0 0.629,-1.75 0.999,-2.434c0.712,-1.316 1.374,-2.808 2.165,-4.079c1.31,-2.109 2.51,-4.173 4.132,-6.052c6.508,-7.539 14.556,-12.28 24.01,-15.148c3.084,-0.936 5.82,-1.926 8.975,-2.587c1.7,-0.356 5.958,-0.654 5.958,-0.654l-0.37,-5.008c0,0 -5.678,0.009 -8.811,0.32c-9.636,0.954 -18.6,4.465 -27.695,7.929c-2.634,1.003 -4.864,2.752 -7.53,3.879c-1.124,0.476 -3.87,2.407 -3.87,2.407c-0,0 1.495,-3.345 1.891,-3.741c2.362,-2.362 3.369,-3.8 6.557,-5.595c0.689,-0.388 5.001,-2.978 5.001,-2.978c-0,0 -3.008,-1.297 -7.264,-1.35c-7.903,-0.097 -13.013,6.092 -20.763,7.279c-2.042,0.313 -4.143,0.211 -6.199,0c-1.48,-0.152 -4.348,-1.433 -4.348,-1.433c-0,0 0.79,2.427 1.465,3.162c2.993,3.263 5.715,4.648 9.972,6.087c0.438,0.148 3.669,0.607 3.669,0.607c0,-0 -9.712,12.924 -9.774,13.021c-6.492,10.178 -12.276,21.481 -13.579,33.739c-2.223,20.911 4.375,44.211 17.909,60.298c3.433,4.081 7.088,8.093 11.414,11.214c4.724,3.407 10.124,5.803 15.449,8.164Zm227.402,-3.148c1.039,-1.89 0.904,-5.597 0,-8.164c-0.662,-1.881 -2.374,-3.317 -4.092,-4.305c-0.907,-0.521 -1.741,-0.957 -2.773,-1.572c-0.681,-0.406 -2.581,-1.304 -2.581,-1.304c-0,0 -2.064,3.684 -2.757,6.029c-0.351,1.186 -0.345,2.23 -0.504,3.308c-0.618,4.19 2.111,8.487 6.508,9.254c0.709,0.124 1.854,0.173 2.549,-0.014c2.422,-0.649 2.419,-0.99 3.65,-3.232Zm-143.744,-9.098c-0.012,0.02 -0.018,0.036 -0.018,0.049l0.018,-0.049c0.675,-1.182 20.398,-14.402 32.159,-18.149c5.502,-1.753 11.153,-3.05 16.826,-4.131c5.919,-1.128 13.575,-1.671 19.376,0.504c2.121,0.795 5.716,2.644 5.716,2.644c0,-0 3.457,-4.896 5.651,-7.608c4.148,-5.126 8.866,-9.743 14.128,-13.836c4.656,-3.623 9.421,-6.507 14.563,-8.361c4.403,-1.588 12.203,-3.963 12.203,-3.963c0,-0 -1.48,-7.325 -1.97,-11.185c-1.376,-10.838 0.834,-21.385 3.248,-31.871c1.524,-6.62 4.272,-12.421 7.38,-18.296c1.091,-2.063 2.853,-6.394 2.853,-6.394c-4.304,3.955 -8.64,7.938 -13.481,11.214c-11.627,7.867 -20.737,10.695 -34.341,14.361c-26.202,7.063 -53.683,8.569 -78.228,21.346c-12.881,6.704 -23.958,16.271 -31.39,28.821c-1.136,1.918 -1.944,4.012 -2.952,6c-1.419,2.799 -6.585,10.544 -4.33,8.361c12.229,-11.836 8.823,-15.163 23.026,-24.591c12.476,-8.282 25.529,-10.545 39.754,-13.378c15.666,-3.12 15.397,-3.848 31.094,-6.295c10.984,-1.713 20.59,-4.44 31.291,-7.083c3.211,-0.792 5.173,-1.266 8.081,-2.118c0.691,-0.202 3.235,-1.029 3.235,-1.029c0,-0 -2.298,6.686 -2.952,12.295c-0.561,4.814 -0.059,10.672 -0.059,10.672c0,0 -8.733,5.851 -13.421,9.788c-3.783,3.177 -7.09,6.942 -10.414,10.595c-2.623,2.883 -7.397,8.98 -7.397,8.98c0,0 -2.503,-5.014 -4.133,-7.279c-2.391,-3.324 -8.876,-11.143 -14.068,-15.372c-3.698,-3.012 -11.024,-7.154 -11.024,-7.154c0,0 3.672,6.573 5.453,9.645c3.374,5.82 7.962,20.002 7.352,19.766c-0,0 -5.174,0.697 -6.179,0.996c-0.202,0.06 -7.669,2.682 -7.708,2.546c-1.385,-4.819 -3.038,-11.87 -7.282,-19.477c-1.664,-2.983 -6.387,-8.339 -6.387,-8.339c0,-0 1.686,8.744 2.269,12.782c0.747,5.181 -0.189,19.585 -0.843,19.382c0,-0 -11.785,7.232 -16.884,11.882c-2.175,1.985 -4.346,4.006 -6.199,6.296c-1.22,1.508 -2.101,3.082 -3.061,4.767c-0.346,0.607 -0.855,1.989 -0.955,2.266Zm-39.016,-19.736c-0.745,0.817 -2.191,2.383 -3.004,3.035c-2.116,1.697 -8.225,5.421 -10.993,6.057c-11.87,2.726 -26.526,0.131 -34.816,-9.51c-8.572,-9.971 -10.441,-26.37 -4.39,-38.128c3.098,-6.02 8.816,-10.914 14.046,-14.886c2.44,-1.853 6.285,-3.443 6.285,-3.443c-0,0 -2.862,3.369 -3.841,4.534c-2.214,2.638 -4.311,4.306 -5.847,6.557c-5.96,8.733 -6.184,10.545 -7.297,19.534c2.381,-4.275 2.886,-4.947 5.638,-8.887c0.599,-0.857 1.444,-1.949 2.089,-2.772c0.44,-0.56 2.203,-2.246 2.203,-2.246c0,0 -4.136,10.499 -3.731,17.053c0.405,6.555 3.523,17.897 8.847,22.443c4.869,4.158 13.154,7.022 19.412,5.748c7.939,-1.616 17.543,-8.536 17.543,-8.536c0,-0 -2.317,3.465 -2.144,3.447c0.47,-0.516 0.661,-0.734 0.233,-0.233c-0.135,0.159 -0.209,0.231 -0.233,0.233Zm236.649,-18.71l2.16,15.478l-11.386,-11.311l-14.528,6.053l8.344,-13.197l-11.681,-11.509l15.607,3.175l8.343,-13.395l2.16,15.578l15.411,3.175l-14.43,5.953Zm-382.814,-19.447l2.16,-15.478l7.263,13.394l16.687,-2.083l-11.583,11.311l7.264,13.394l-14.527,-7.143l-11.288,10.319l1.865,-15.578l-13.448,-7.144l15.607,-0.992Zm149.64,8.759c9.9,-10.897 15.545,-20.027 28.383,-29.297c29.36,-21.202 64.329,-22.345 97.668,-32.87c5.67,-1.79 11.562,-3.253 16.728,-6.197c1.686,-0.961 2.176,-3.167 3.183,-4.825c4.569,-7.523 9.012,-15.173 13.545,-22.717c1.437,-2.392 2.69,-4.891 4.133,-7.279c0.658,-1.09 3.082,-4.031 2.165,-3.148c-10.534,10.132 -10.69,13.961 -24.108,20.657c-22.785,11.369 -48.023,14.488 -72.07,22.033c-20.988,6.584 -40.492,21.065 -54.178,38.068c-3.339,4.149 -13.064,17.705 -15.449,25.575Zm219.629,-41.7l6.282,14.486l-14.528,-7.342l-11.386,10.319l3.239,-15.28l-13.742,-7.342l15.607,-2.084l4.221,-15.28l6.282,14.288l15.607,-0.794l-11.582,9.029Zm-351.502,-17.562l7.263,-13.394l2.945,15.478l15.607,2.084l-14.527,7.143l3.239,15.578l-11.583,-11.311l-14.527,6.052l7.264,-13.196l-11.288,-10.517l15.607,2.083Zm150.597,-24.3c-0.761,0.557 -3.931,3.786 -4.062,3.886c-3.592,2.736 -8.29,5.39 -12.694,6.296c-11.848,2.435 -23.706,2.773 -34.44,9.049c-2.544,1.488 -4.171,2.57 -6.632,4.191c-1.673,1.102 -3.201,1.707 -4.472,3.254c-0.397,0.483 -1.827,2.001 -2.475,2.785c0.702,-0.399 1.652,-1.022 2.409,-1.303c2.07,-0.771 4.273,-1.776 6.354,-2.517c2.807,-0.998 5.176,-1.743 8.064,-2.475c9.469,-2.402 18.921,-2.35 28.142,1.082c2.172,0.808 5.968,2.786 8.256,3.155c3.98,0.642 10.996,-0.094 14.671,-0.991c1.817,-0.443 3.175,-1.1 4.838,-1.954c0.603,-0.309 1.46,-1.194 1.46,-1.194c-10.951,1.734 -20.292,0.817 -26.291,-5.704c0,0 0.754,-0.219 1.1,-0.395c1.3,-0.657 4.087,-2.219 5.216,-3.147c3.67,-3.018 6.068,-6.581 8.462,-10.132c1.307,-1.938 1.713,-3.546 2.094,-3.886c0.027,-0.02 0.05,-0.036 0.071,-0.048c-0.024,0.011 -0.047,0.027 -0.071,0.048Zm172.832,-3.382l10.502,12.403l-15.607,-4.168l-9.423,13.395l-1.079,-15.478l-14.528,-3.969l14.528,-5.259l-1.08,-15.478l10.503,11.311l14.527,-5.06l-8.343,12.303Zm-292.412,-15.478l11.583,-10.319l-2.159,15.578l14.527,6.052l-15.607,3.175l-1.08,15.28l-8.147,-14.288l-15.607,2.977l10.306,-11.311l-7.263,-13.196l13.447,6.052Zm250.891,-21.63l13.546,8.136l-15.607,1.091l-4.123,15.479l-6.184,-14.486l-15.607,0.992l12.368,-10.22l-5.202,-14.486l13.545,8.136l11.288,-9.227l-4.024,14.585Zm-207.112,-10.22l14.527,-7.342l-6.282,14.486l11.582,10.22l-15.607,-2.084l-6.282,14.486l-3.239,-15.279l-16.687,-3.176l13.742,-7.342l-3.239,-14.287l11.485,10.318Zm158.23,-13.394l15.607,4.167l-15.607,5.06l1.079,15.578l-10.503,-12.403l-14.527,5.06l9.423,-12.204l-10.503,-12.402l15.607,3.969l8.344,-12.403l1.08,15.578Zm-107.287,-6.35l15.607,-2.878l-10.306,12.403l8.343,13.395l-14.527,-6.351l-10.503,11.311l2.16,-15.577l-15.607,-5.953l15.607,-4.167l1.079,-14.288l8.147,12.105Zm52.024,-3.969l16.785,0l-12.466,9.227l5.202,14.486l-13.546,-9.227l-12.367,9.227l4.122,-14.486l-12.466,-9.227l15.509,0l4.123,-14.486l5.104,14.486Z"/></svg>