<svg viewBox="0 0 512 512" xmlns="http://www.w3.org/2000/svg" xml:space="preserve" style="fill-rule:evenodd;clip-rule:evenodd;stroke-linejoin:round;stroke-miterlimit:2"><path d="M394 471a256 256 0 1 1 53-45s-15 17 0 0l-60-62 56-77-53-39-50 69-102-102a87 87 0 0 1-29-62c0-30 17-44 32-49 11-4 14-3 19-3 34 0 54 25 54 57v30h71v-37c-2-19-12-62-47-93-22-22-81-32-123-18-39 11-58 42-67 66-6 15-9 35-9 40l-1 7c0 14 3 27 8 41a124 124 0 0 0 19 39c-44 37-66 77-66 120 0 34 12 62 34 85 23 22 56 33 100 33 53 0 92-25 113-48l48 48Zm-159-67c-38 0-65-20-65-52 0-19 13-46 40-63l88 86a77 77 0 0 1-63 29ZM256 0Z" style="fill:url(#a)"/><defs><linearGradient id="a" x1="0" y1="0" x2="1" y2="0" gradientUnits="userSpaceOnUse" gradientTransform="rotate(-45 618 256) scale(723.841)"><stop offset="0" style="stop-color:#f315ff;stop-opacity:1"/><stop offset=".8" style="stop-color:#ffb300;stop-opacity:1"/><stop offset="1" style="stop-color:#ffeb03;stop-opacity:1"/></linearGradient></defs></svg>
