<?xml version="1.0" encoding="UTF-8" standalone="no"?><!DOCTYPE svg PUBLIC "-//W3C//DTD SVG 1.1//EN" "http://www.w3.org/Graphics/SVG/1.1/DTD/svg11.dtd"><svg width="100%" height="100%" viewBox="0 0 512 512" version="1.1" xmlns="http://www.w3.org/2000/svg" xmlns:xlink="http://www.w3.org/1999/xlink" xml:space="preserve" xmlns:serif="http://www.serif.com/" style="fill-rule:evenodd;clip-rule:evenodd;stroke-linejoin:round;stroke-miterlimit:2;"><path d="M394.496,471.04c-39.958,25.83 -87.592,40.793 -138.663,40.793c-141.198,0 -255.833,-114.635 -255.833,-255.833c0,-141.198 114.635,-255.833 255.833,-255.833c141.198,-0 255.833,114.635 255.833,255.833c0,65.121 -24.383,124.591 -64.515,169.777c-0,-0 -15.409,17.348 -0,-0l-60.566,-61.327l56.513,-77.762l-52.838,-38.865l-50.701,68.983l-101.132,-101.775c-19.435,-19.433 -29.152,-40.08 -29.152,-61.942c-0,-30.363 16.398,-44.331 31.581,-49.189c11.54,-3.643 14.576,-3.036 19.435,-3.036c34.01,-0 54.052,25.505 54.052,57.083l0,30.364l71.058,-0l0,-30.364l-0.607,-7.287c-1.822,-18.218 -11.539,-61.941 -46.765,-92.305c-22.471,-22.469 -81.382,-32.793 -122.681,-18.218c-39.476,10.931 -58.304,41.902 -67.414,65.585c-5.466,15.182 -9.11,35.222 -9.11,40.687c-0.607,3.036 -0.607,4.858 -0.607,6.68c0,13.967 2.429,27.327 7.288,41.294c4.859,13.968 9.11,23.077 12.147,27.328c3.036,4.858 5.466,8.501 7.288,10.93c-43.728,37.044 -65.592,77.124 -65.592,120.24c-0,34.614 11.539,62.549 34.011,85.018c22.471,22.469 55.267,33.399 99.602,33.399c52.838,0 91.707,-24.898 112.964,-48.581l48.571,48.323Zm-159.713,-67.149c-38.262,0 -64.377,-20.039 -64.377,-51.617c-0,-19.433 12.754,-46.153 40.084,-63.764l87.455,86.84c-15.183,18.825 -36.44,28.541 -63.162,28.541Zm21.05,-403.505c0,0 0,0 0,0Z"/></svg>