<svg viewBox="0 0 433 293" xmlns="http://www.w3.org/2000/svg" fill-rule="evenodd" clip-rule="evenodd" stroke-linejoin="round" stroke-miterlimit="2" class="artMap2"><path d="M193.475 152.221V93.296l4.192-5.334V69.154h4.396l7.845 3.515L261.699 0l52.075 72.759 4.532-2.093 8.573.431v19.697l3.05 1.521v61.797h77.085l-.582-.099 7.121-41.675.075.013-.052-.531h7.299l3.437 26.734 8.088.771V292.1H-.042v-68.571l25.585-2.756 8.378 1.458 1.861-2.607 43.791 1.548 1.892 1.896h2.681v-29.385l18.82-85.288h7.346l-.048.228.027-.004 6.208 44.73h76.97l.001-1.128h.005zm-46.78 100.206V290.5h45.256v-38.073h-45.256zm-37.632-97.478v66.423l-7.743-3.39-15.574 6.608v.079h-4.945l-1.915-1.921-42.301-1.494-1.947 2.726-9.148-1.592-23.932 2.578v2.379c.012-.001.023-.001.034-.001h117.413c.441 0 .8.358.8.8 0 .441-.359.8-.8.8H1.592c-.011 0-.022 0-.034-.001v17.035h29.131c.441 0 .8.359.8.8 0 .442-.359.8-.8.8H1.558V290.5h116.726v-7.912c0-1.58 1.121-3.124 2.544-4.362 1.939-1.686 4.362-2.825 4.362-2.825l.345-.162.344.166s2.379 1.153 4.282 2.849c1.395 1.244 2.494 2.79 2.494 4.354l.129 7.892h12.311v-31.945H27.372c-.442 0-.8-.359-.8-.8 0-.442.358-.8.8-.8h117.723v-64.364l48.371-33.753.002-3.889h-84.405zM286.042 290.5v-24.45c0-25.295-22.108-34.647-24.778-35.684-2.674 1.014-24.772 10.169-24.772 35.684v24.45h2.694v-17.48c0-3.744 2.901-7.271 5.279-9.493a3.9633 3.9633 0 01-.508-1.945c0-2.226 1.804-4.03 4.029-4.03 2.23 0 4.033 1.805 4.033 4.03 0 .788-.228 1.521-.62 2.14 2.338 2.232 5.066 5.668 5.066 9.288l.224 17.49h7.638v-17.48c0-3.744 2.902-7.271 5.28-9.493-.322-.575-.509-1.236-.509-1.945 0-2.226 1.804-4.03 4.029-4.03 2.231 0 4.034 1.805 4.034 4.03 0 .788-.229 1.521-.62 2.14 2.338 2.232 5.066 5.668 5.066 9.288l.224 17.49h4.211zm76.8 0l.019-10.432c0-2.228-1.232-4.345-2.672-6.101-1.712-2.086-3.749-3.663-4.633-4.303-.865.637-2.843 2.196-4.507 4.262-1.407 1.746-2.609 3.856-2.609 6.084v10.49h14.402zm-231.658 0c-.035-2.132-.129-7.868-.129-7.878 0-1.17-.924-2.251-1.959-3.173-1.32-1.177-2.89-2.067-3.571-2.428-.693.356-2.298 1.24-3.647 2.413-1.052.914-1.994 1.987-1.994 3.154v7.912h11.3zM430.8 185.332V140.78l-7.912-.755-3.421-26.604h-4.126l2.667 27.048h-4.275v15.243h-29.495v41.289h-.001V290.5h35.666V187.873l5.871-11.45 5.026 8.909zm0 3.087l-.073.041-4.886-8.661-4.338 8.461V290.5h9.297V188.419zM287.642 290.5h25.067V91.706H210.693V290.5h24.199v-24.45c0-28.314 26.115-37.294 26.115-37.294l.264-.091.263.094s26.108 9.231 26.108 37.291v24.45zm76.8 0h18.195v-38.073h-52.71V290.5h16.913v-10.49c0-2.586 1.331-5.062 2.963-7.088 2.357-2.926 5.304-4.902 5.304-4.902l.443-.297.444.294s3.018 1.995 5.431 4.935c1.674 2.039 3.036 4.528 3.036 7.117l-.019 10.431zM209.093 74.057l-7.372-3.303h-2.454v17.762l-4.192 5.334v61.099h-.007l-.003 4.724-1.514 1.056V290.5h15.542V74.057zM255.089 290.5c-.035-2.72-.224-17.47-.224-17.48 0-3.468-2.925-6.669-5.082-8.615l-.611-.552.569-.595c.417-.436.678-1.024.678-1.676 0-1.342-1.088-2.43-2.433-2.43-1.342 0-2.429 1.088-2.429 2.43 0 .594.22 1.132.574 1.551l.503.596-.584.518c-2.174 1.928-5.264 5.205-5.264 8.773v17.48h14.303zm25.141 0c-.034-2.72-.223-17.47-.223-17.48 0-3.468-2.925-6.669-5.082-8.615l-.612-.552.57-.595c.417-.436.678-1.024.678-1.676 0-1.342-1.089-2.43-2.434-2.43-1.341 0-2.429 1.088-2.429 2.43 0 .594.221 1.132.574 1.551l.504.596-.584.518c-2.174 1.928-5.265 5.205-5.265 8.773v17.48h14.303zm34.079-216.226V290.5h14.018V154.91h.002V93.305l-3.05-1.521V72.619l-6.66-.335-4.31 1.99zm-48.404 177.099c0-6.267-4.723-13.526-4.723-13.526l-.634-.971-.682.938s-4.749 6.551-4.749 13.559c0 2.56 4.619 21.513 4.619 21.513l.777 3.178.777-3.178s4.615-18.953 4.615-21.513zm-5.42-11.595c-1.243 2.003-3.768 6.676-3.768 11.595 0 1.856 2.49 12.48 3.796 17.922 1.304-5.442 3.792-16.066 3.792-17.922 0-4.466-2.585-9.463-3.82-11.595zm16.55 11.595c0-2.978-2.417-5.396-5.394-5.396-2.977 0-5.394 2.418-5.394 5.396 0 2.979 2.417 5.397 5.394 5.397 2.977 0 5.394-2.418 5.394-5.397zm-22.716 0c0-2.978-2.417-5.396-5.394-5.396-2.977 0-5.394 2.418-5.394 5.396 0 2.979 2.417 5.397 5.394 5.397 2.977 0 5.394-2.418 5.394-5.397zm21.116 0c0 2.095-1.7 3.796-3.794 3.796-2.094 0-3.794-1.701-3.794-3.796 0-2.095 1.7-3.796 3.794-3.796 2.094 0 3.794 1.701 3.794 3.796zm-22.716 0c0 2.095-1.7 3.796-3.794 3.796-2.094 0-3.794-1.701-3.794-3.796 0-2.095 1.7-3.796 3.794-3.796 2.094 0 3.794 1.701 3.794 3.796zm77.208-87.186v86.64h52.71v-53.384l-52.71-33.256zm-183.232 29.239v57.401h45.256v-88.981l-45.256 31.58zm36.15 34.924c0-4.045-2.147-7.927-4.762-11.113-3.826-4.663-8.609-7.828-8.609-7.828l-.444-.294-.443.297s-4.671 3.133-8.407 7.771c-2.551 3.167-4.647 7.032-4.647 11.074v21.037l27.26-.177.052-20.767zm184.61 0c0-4.045-2.148-7.927-4.762-11.113-3.826-4.663-8.609-7.828-8.609-7.828l-.445-.294-.443.297s-4.67 3.133-8.407 7.771c-2.551 3.167-4.647 7.032-4.647 11.074v21.037l27.261-.177.052-20.767zm-198.419-17.299c-1.215.875-4.706 3.531-7.61 7.136-2.325 2.887-4.293 6.385-4.293 10.07v19.426l24.064-.156.048-19.178c0-3.684-2.016-7.194-4.398-10.097-2.984-3.636-6.573-6.323-7.811-7.201zm184.609 0c-1.214.875-4.706 3.531-7.61 7.136-2.325 2.887-4.293 6.385-4.293 10.07v19.426l24.065-.156.048-19.178c0-3.684-2.017-7.194-4.399-10.097-2.984-3.636-6.573-6.323-7.811-7.201zm-188.634 14.477v-7.058c0-1.133.565-2.223 1.279-3.11.979-1.217 2.205-2.038 2.205-2.038l.452-.304.449.31s1.202.831 2.163 2.055c.698.888 1.251 1.978 1.252 3.104l.033 7.01c.935-1.072 1.987-1.778 1.987-1.778l.453-.304.448.311s1.203.83 2.164 2.054c.697.888 1.249 1.976 1.252 3.101l.28 16.724-7.931.052v-.01l-6.486.043v-.04l-6.224.041-.118-16.824c0-1.132.565-2.223 1.278-3.109.98-1.218 2.206-2.039 2.206-2.039l.452-.304.449.311s1.039.718 1.957 1.802zm184.608-.002v-7.056c0-1.133.565-2.223 1.278-3.11.98-1.217 2.206-2.038 2.206-2.038l.452-.304.449.31s1.202.831 2.163 2.055c.698.888 1.251 1.978 1.252 3.104l.033 7.011c.935-1.073 1.988-1.779 1.988-1.779l.453-.304.448.311s1.203.83 2.164 2.054c.697.888 1.249 1.976 1.252 3.101l.28 16.724-7.932.052v-.01l-6.486.043v-.04l-6.223.041-.118-16.824c0-1.132.565-2.223 1.279-3.109.979-1.218 2.205-2.039 2.205-2.039l.452-.304.449.311s1.038.717 1.956 1.8zm0 12.827l-.141-9.465c0-.776-.429-1.507-.91-2.119-.466-.594-1-1.079-1.368-1.381-.374.299-.92.78-1.397 1.373-.488.607-.925 1.332-.925 2.101l.107 15.218 4.634-.03v-5.697zm-184.608.084l-.142-9.549c0-.776-.429-1.507-.91-2.119-.467-.594-1-1.079-1.368-1.381-.374.299-.92.78-1.397 1.373-.488.607-.925 1.332-.925 2.101l.107 15.218 4.635-.03v-5.613zm1.684 5.642l4.637-.031-.121-25.558c0-.776-.429-1.507-.91-2.119-.466-.594-1-1.078-1.368-1.381-.374.3-.92.781-1.397 1.373-.488.607-.925 1.332-.925 2.107v19.958l.084 5.651zm184.61 0l4.635-.031-.121-25.558c0-.776-.429-1.507-.91-2.119-.467-.594-1-1.078-1.368-1.381-.374.3-.92.781-1.397 1.373-.488.607-.925 1.332-.925 2.107v19.874l.086 5.735zM175.27 225.388c-.375.299-.921.78-1.397 1.373-.489.607-.925 1.332-.925 2.099l.134 15.187 4.719-.031-.253-15.128c0-.776-.429-1.507-.91-2.119-.467-.594-1.001-1.079-1.368-1.381zm184.609 0c-.375.299-.921.78-1.398 1.373-.488.607-.924 1.332-.924 2.099l.134 15.187 4.719-.031-.253-15.128c0-.776-.43-1.507-.91-2.119-.467-.594-1.001-1.079-1.368-1.381zm3.878 3.5v-.013.013zm-184.609 0v-.013.013zm125.055-76.478c0-43.425-41.717-56.386-41.717-56.386l-.231-.072-.232.069s-42.645 12.579-42.645 56.389v74.565l84.825-.832V152.41zm-41.96-54.782c-3.331 1.06-41.265 14.03-41.265 54.782v72.949l81.625-.801V152.41c-.01-2.836-.183-5.668-.573-8.478-.657-4.72-1.906-9.355-3.771-13.742-1.09-2.564-2.387-5.04-3.87-7.4-5.076-8.073-12.279-14.658-20.418-19.562-2.152-1.297-4.373-2.48-6.653-3.536-1.648-.763-3.327-1.469-5.047-2.055l-.028-.009zm-154.78 57.321h-8.65l9.525-44.954h-4.087l-18.505 83.862v28.995l15.584-6.612 6.133 2.685v-63.976zm136.731-6.847c1.232-2.918 3.023-5.662 5-8.116 5.416-6.724 12.187-11.267 12.187-11.267l.452-.303.449.31s5.931 4.1 11.066 10.259l.009-.012.646.814.007.009c.076.095.151.19.226.285.97 1.236 1.895 2.543 2.728 3.908.79 1.237 1.61 2.636 2.279 4.032.155-2.66 1.546-5.171 3.228-7.239 2.586-3.18 5.819-5.301 5.819-5.301l.445-.293.441.298s3.266 2.199 5.878 5.44c1.803 2.237 3.275 4.965 3.275 7.8l.367 71.182-17.14.171.001.046-39.064.256v-.042h-17.429l-.054-71.611c0-2.838 1.472-5.566 3.276-7.803 2.613-3.241 5.881-5.441 5.881-5.441l.447-.301.447.301s3.267 2.2 5.881 5.441c1.67 2.071 3.057 4.565 3.252 7.177zm10.865 70.596v-64.955c0-1.735-.996-3.983-2.154-6.071-1.204-2.171-2.608-4.163-3.415-5.255-.768 1.154-2.116 3.275-3.272 5.559-.59 1.169-1.136 2.379-1.518 3.519-.216.804-.38 1.619-.482 2.441v.593h-.061l-.036 6.994-.028-.001v57.248l10.966-.072zm-12.441-65.324v-4.646c0-2.482-1.345-4.843-2.922-6.799-1.889-2.343-4.142-4.108-5.082-4.799-.941.691-3.193 2.456-5.083 4.799-1.577 1.956-2.921 4.317-2.921 6.799l.053 70.011h15.83v-62.824c0-.495.022-.989.065-1.48l.001-.184c0-.279.02-.573.059-.877zm23.814-.861v-1.165c0-1.585-.9-3.642-1.943-5.552-1.066-1.952-2.305-3.747-3.041-4.763-.7 1.005-1.866 2.764-2.87 4.681-.992 1.893-1.846 3.938-1.846 5.528l-.021 3.744h-.052v63.702l9.73-.064v-65.376c0-.236.015-.482.043-.735zm9.258-7.548c-.882-1.39-1.736-2.582-2.294-3.333-.776 1.113-2.147 3.168-3.32 5.405-.985 1.876-1.847 3.878-2.044 5.534v2.469h-.043v63.573l11.928-.078v-.04l.021-.001-.732-62.432v-.009c0-3.903-1.453-7.679-3.516-11.088zm81.729 73.525v-.003.003zm-184.608 0v-.003.003zm108.727-.011l15.55-.156-.359-69.593c0-2.482-1.344-4.844-2.92-6.8-1.892-2.347-4.148-4.114-5.085-4.802-.931.668-3.15 2.374-5.012 4.664-1.556 1.914-2.883 4.239-2.883 6.717v9.434h-.001l.71 60.536zm-150.901-39.588l.299 20.666-16.12.106v-20.82c0-2.362 1.213-4.626 2.704-6.477 2.146-2.664 4.83-4.463 4.83-4.463l.452-.304.449.31s2.632 1.82 4.737 4.5c1.459 1.858 2.647 4.125 2.649 6.482zm-7.849-9.335c-.808.599-2.551 1.988-4.022 3.814-1.265 1.571-2.35 3.469-2.35 5.473v19.209l12.897-.085-.276-19.069c0-2.008-1.064-3.918-2.308-5.501-1.44-1.834-3.146-3.234-3.941-3.841zm-.799 27.167l-4.32.028-.084-12.473c0-.846.415-1.664.95-2.327.711-.881 1.6-1.475 1.6-1.475l.453-.304.448.31s.871.602 1.567 1.488c.04.051.079.103.117.155.044-.059.089-.117.135-.174.711-.881 1.6-1.475 1.6-1.475l.453-.304.448.31s.871.602 1.567 1.488c.52.663.925 1.478.927 2.318l.179 12.423-6.04.04v-.028zm252.55-41.011v34.73l8.099 5.11v-39.84h-8.099zm-252.627 28.365c-.066-.409-.309-.789-.568-1.119-.255-.325-.541-.602-.771-.803-.237.2-.53.476-.793.801-.308.382-.595.834-.595 1.317l.073 10.868 2.72-.018c-.023-3.38-.073-10.841-.073-10.845 0-.067.002-.134.007-.201zm1.774 11.063l2.72-.018-.156-10.827c0-.491-.281-.949-.586-1.337-.255-.325-.541-.602-.771-.803-.237.2-.53.476-.793.801-.265.328-.514.708-.579 1.114.006.073.009.145.009.218l.156 10.852zm222.653-6.807l6.011 6.012 6.01-6.012-6.01-6.011-6.011 6.011zm2.263 0l3.748 3.749 3.747-3.749-3.747-3.748-3.748 3.748zm-18.675-32.621v6.583l43.012 27.137v-33.72h-43.012zM127.85 184.295v-.012.012zm-4.32 0v-.012.012zm7.107-5.397v-.012.012zm283.557-60.809l-6.156 36.023h4.095v-15.243h4.109l-2.048-20.78zm-313.407 35.26h14.097l-5.58-40.197-8.517 40.197zm155.709-18.691c-1.926 1.732-4.083 3.883-6.056 6.332l-.01.012c.723.955 2.436 3.302 3.874 5.894.413.744.8 1.509 1.138 2.268.358-1.346.994-2.809 1.719-4.193 1.198-2.287 2.618-4.357 3.272-5.275l-3.937-5.038zm9.96-.495l-4.024 5.506c.681.918 2.19 3.032 3.462 5.36.656 1.203 1.243 2.463 1.635 3.654.332-.799.718-1.605 1.13-2.389 1.369-2.61 2.997-4.98 3.71-5.982-1.968-2.401-4.075-4.492-5.913-6.149zm-1.157-1.02c-1.574-1.354-2.842-2.313-3.479-2.78-.723.514-2.249 1.638-4.119 3.238l3.712 4.75 3.834-5.246.052.038zm-10.418-4.519c0-5.067-4.113-9.182-9.179-9.182s-9.179 4.115-9.179 9.182c0 5.068 4.113 9.183 9.179 9.183s9.179-4.115 9.179-9.183zm33.904 0c0-5.067-4.113-9.182-9.179-9.182s-9.179 4.115-9.179 9.182c0 5.068 4.113 9.183 9.179 9.183s9.179-4.115 9.179-9.183zm-1.6 0c0 4.185-3.396 7.582-7.579 7.582s-7.579-3.397-7.579-7.582c0-4.184 3.396-7.582 7.579-7.582s7.579 3.398 7.579 7.582zm-33.904 0c0 4.185-3.396 7.582-7.579 7.582s-7.579-3.397-7.579-7.582c0-4.184 3.396-7.582 7.579-7.582s7.579 3.398 7.579 7.582zm25.204 3.552c0-1.075-.87-1.941-1.941-1.941-1.075 0-1.942.866-1.942 1.941 0 1.076.867 1.946 1.942 1.946 1.071 0 1.941-.87 1.941-1.946zm-27.674 0c0-1.075-.871-1.941-1.942-1.941-1.075 0-1.942.866-1.942 1.941 0 1.076.867 1.946 1.942 1.946 1.071 0 1.942-.87 1.942-1.946zm33.939 0c0-1.075-.871-1.941-1.942-1.941-1.075 0-1.942.866-1.942 1.941 0 1.076.867 1.946 1.942 1.946 1.071 0 1.942-.87 1.942-1.946zm-40.203 0c0-1.075-.871-1.941-1.942-1.941-1.075 0-1.942.866-1.942 1.941 0 1.076.867 1.946 1.942 1.946 1.071 0 1.942-.87 1.942-1.946zm3.097-3.554c0-1.075-.871-1.941-1.942-1.941-1.075 0-1.941.866-1.941 1.941 0 1.075.866 1.942 1.941 1.942 1.071 0 1.942-.867 1.942-1.942zm33.939 0c0-1.075-.871-1.941-1.942-1.941-1.075 0-1.941.866-1.941 1.941 0 1.075.866 1.942 1.941 1.942 1.071 0 1.942-.867 1.942-1.942zm-30.772-3.187c0-1.075-.871-1.941-1.942-1.941-1.075 0-1.942.866-1.942 1.941 0 1.076.867 1.946 1.942 1.946 1.071 0 1.942-.87 1.942-1.946zm27.674 0c0-1.075-.87-1.941-1.941-1.941-1.075 0-1.942.866-1.942 1.941 0 1.076.867 1.946 1.942 1.946 1.071 0 1.941-.87 1.941-1.946zm6.265 0c0-1.075-.871-1.941-1.942-1.941-1.075 0-1.942.866-1.942 1.941 0 1.076.867 1.946 1.942 1.946 1.071 0 1.942-.87 1.942-1.946zm-40.203 0c0-1.075-.871-1.941-1.942-1.941-1.075 0-1.942.866-1.942 1.941 0 1.076.867 1.946 1.942 1.946 1.071 0 1.942-.87 1.942-1.946zm29.491-10.146c0-6.389-5.187-11.577-11.575-11.577-6.388 0-11.575 5.188-11.575 11.577s5.187 11.576 11.575 11.576c6.388 0 11.575-5.187 11.575-11.576zm-1.6 0c0 5.505-4.47 9.976-9.975 9.976s-9.975-4.471-9.975-9.976c0-5.506 4.47-9.976 9.975-9.976s9.975 4.47 9.975 9.976zm-61.745-40.965v15.782h102.016V74.02L261.701 2.753l-51.008 71.571zm70.474-30.292l.777 41.572-39.711.395V44.046c0-5.818 3.051-11.396 6.748-15.98 5.454-6.763 12.272-11.353 12.272-11.353l.447-.301.447.301s6.818 4.59 12.272 11.353c3.694 4.58 6.743 10.153 6.748 15.966zM261.7 18.352c-1.573 1.121-6.996 5.167-11.473 10.718-3.471 4.304-6.394 9.515-6.394 14.976v40.337l36.481-.363-.747-39.959v-.015c0-5.461-2.923-10.672-6.394-14.976-4.477-5.551-9.9-9.597-11.473-10.718z"/></svg>