<?xml version="1.0" encoding="UTF-8" standalone="no"?><!DOCTYPE svg PUBLIC "-//W3C//DTD SVG 1.1//EN" "http://www.w3.org/Graphics/SVG/1.1/DTD/svg11.dtd"><svg width="100%" height="100%" viewBox="0 0 512 208" version="1.1" xmlns="http://www.w3.org/2000/svg" xmlns:xlink="http://www.w3.org/1999/xlink" xml:space="preserve" xmlns:serif="http://www.serif.com/" style="fill-rule:evenodd;clip-rule:evenodd;stroke-linejoin:round;stroke-miterlimit:2;"><path d="M419.548,137.323l2.552,0.011c1.81,0.007 3.619,0.012 5.429,0.016c6.084,3.35 12.337,6.455 18.855,8.859c0.847,0.313 1.706,0.613 2.574,0.894c-0.889,0.179 -1.778,0.361 -2.667,0.544l-1.294,0.267c-6.844,1.421 -13.654,3.004 -20.423,4.746l-1.353,0.35c-6.734,1.755 -13.445,3.604 -20.114,5.591l-0.011,0.003c-7.814,2.328 -15.512,5.05 -23.168,7.85l-1.531,0.562c-6.585,2.417 -13.169,4.834 -19.763,7.225l-2.826,1.023c-5.44,1.965 -10.987,3.632 -16.57,5.135c-1.526,0.41 -3.052,0.823 -4.575,1.243c-1.924,-0.846 -4.176,-0.936 -6.272,-0.071c-0.665,0.275 -1.29,0.638 -1.859,1.08c-1.249,0.972 -2.497,1.956 -3.66,3.032c-0.744,0.688 -1.445,1.424 -2.054,2.235c-2.712,3.611 -3.329,8.502 -1.45,12.656c0.35,0.775 0.781,1.511 1.286,2.197l-0.005,0.003c0.507,0.694 1.085,1.333 1.725,1.905c3.677,3.289 8.965,4.106 13.475,2.234l0.084,-0.034l0.02,-0.009l0.02,-0.008l0.048,-0.021l0.091,-0.039l0.047,-0.022l0.029,-0.013l0.058,-0.026l0.043,-0.019c-0.485,0.223 0.208,-0.065 0.338,-0.111c0.643,-0.229 1.291,-0.445 1.939,-0.659c2.449,-0.807 4.912,-1.572 7.377,-2.333l-0,0c5.953,-1.838 11.89,-3.736 17.79,-5.742l1.443,-0.493c7.212,-2.475 14.375,-5.098 21.533,-7.727c7.736,-2.841 15.501,-5.637 23.375,-8.075l-0,0l1.191,-0.366c5.952,-1.821 11.946,-3.498 17.966,-5.078l0.024,-0.006c6.855,-1.798 13.747,-3.452 20.672,-4.957c6.673,-1.45 13.363,-2.827 20.073,-4.107c5.466,-1.042 10.942,-2.043 16.438,-2.915l0.007,-0.002c5.044,-0.8 10.041,-1.961 14.88,-3.607c1.767,-0.601 3.493,-1.364 5.038,-2.422c2.642,-1.81 4.638,-4.496 5.347,-7.648c0.896,-3.987 -0.405,-8.134 -3.209,-11.054c-1.205,-1.256 -2.638,-2.263 -4.157,-3.103l-0.013,-0.008l-0.122,-0.067l0.001,-0l-0.03,-0.016c-4.311,-2.352 -8.686,-4.592 -13.079,-6.799c-0.409,-3.212 -2.214,-6.12 -4.863,-7.98l-0.006,-0.005l-0.009,-0.006c-0.067,-0.047 -0.134,-0.094 -0.202,-0.139c-2.826,-1.892 -6.257,-2.799 -9.516,-3.624c-3.854,-0.977 -7.773,-1.689 -11.711,-2.226c-0.579,-0.079 -1.161,-0.143 -1.744,-0.196c-3.217,-1.688 -6.416,-3.413 -9.581,-5.193l-0,-0l-0.011,-0.006c-7.871,-4.427 -15.552,-9.189 -23.212,-13.966l-1.134,-0.709c-11.71,-7.326 -23.281,-14.881 -34.803,-22.504l-2.215,-1.467c-11.071,-7.336 -22.104,-14.734 -33.01,-22.313c-11.62,-8.075 -23.159,-16.267 -34.675,-24.493l-0.005,-0.004c-5.45,-3.893 -10.892,-7.797 -16.281,-11.774c-2.571,-1.897 -5.198,-3.764 -7.635,-5.836l-0.019,-0.017c-1.521,-1.294 -3.042,-2.589 -4.563,-3.883l-0.031,-0.026l-0.021,-0.018l-0.022,-0.018l-0.047,-0.04l-0.042,-0.034l-0.015,-0.012c-0.117,-0.097 -0.237,-0.191 -0.357,-0.282l-0.054,-0.042c-0.818,-0.646 -1.702,-1.173 -2.628,-1.58l-0.064,-0.028l-0.041,-0.018l-0.045,-0.019l-0.042,-0.018l-0.016,-0.007c-1.667,-0.699 -3.441,-1.004 -5.193,-0.934c-1.768,0.069 -3.528,0.521 -5.146,1.364l-0.06,0.031l-0.039,0.021l-0.044,0.023l-0.044,0.024l-0.013,0.007c-1.155,0.627 -2.222,1.449 -3.149,2.46c-0.961,1.042 -1.709,2.217 -2.241,3.466l-0.006,0.012l-0.006,0.016l-0.019,0.044l-0.015,0.036l-0.018,0.043l-0.02,0.05l-0.006,0.015c-0.653,1.61 -0.941,3.316 -0.881,5.002l0,0.011l0.003,0.075l0.002,0.039l0,0.006c0.078,1.73 0.523,3.451 1.343,5.037l0.049,0.095l0.01,0.018c0.494,0.934 1.114,1.814 1.858,2.61l0.963,1.071l0.001,0.002c0.039,0.043 0.078,0.085 0.117,0.128c1.072,1.173 2.282,2.225 3.466,3.282c1.971,1.761 3.969,3.491 5.971,5.218l0.008,0.006c0.008,0.007 0.016,0.014 0.024,0.021c7.001,6.039 14.267,11.775 21.547,17.469l0.016,0.013c10.442,8.166 20.811,16.424 31.149,24.721l-0,0l0.005,0.004c11.754,9.435 23.417,18.984 34.991,28.641l0,-0c5.414,4.516 10.837,9.049 16.367,13.441c-17.692,0.173 -35.382,0.539 -53.066,1.012c-22.545,0.602 -45.098,1.221 -67.651,1.391l0,0.001l-0,-0l-0,-0.001c-12.885,0.098 -25.77,0.225 -38.653,0.38l-5.522,0.069c-14.439,0.182 -28.879,0.299 -43.319,0.335l-0.001,0c-27.423,0.071 -54.849,0.612 -82.267,1.065c-16.302,0.27 -32.607,0.577 -48.901,1.154c-5.27,0.186 -10.541,0.397 -15.806,0.717c-2.822,0.171 -5.654,0.349 -8.462,0.7l-0.561,0.072c-3.633,0.484 -7.26,1.08 -10.825,1.939c-2.752,0.664 -5.503,1.474 -8.065,2.698c-4.05,1.935 -7.536,4.881 -9.766,8.809c-1.286,2.265 -0.493,5.142 1.771,6.428c2.264,1.286 5.141,0.493 6.427,-1.772l0,0c0.968,-1.705 2.78,-2.478 4.66,-2.692c4.811,-0.548 9.712,-0.502 14.56,-0.403l2.074,0.044c24.295,0.521 48.594,0.844 72.894,1.234l0.004,-0c17.055,0.273 34.111,0.509 51.168,0.596c10.463,0.053 20.933,0.099 31.393,-0.18c14.507,-0.386 29.012,-0.864 43.514,-1.419l2.747,-0.104c13.734,-0.513 27.472,-0.926 41.212,-1.233l1.722,-0.036c8.608,-0.164 17.222,-0.123 25.831,-0.038c13.28,0.131 26.56,0.41 39.838,0.743c26.368,0.664 52.744,1.16 79.117,1.282Z" style="fill-rule:nonzero;"/></svg>