<?xml version="1.0" encoding="UTF-8" standalone="no"?><!DOCTYPE svg PUBLIC "-//W3C//DTD SVG 1.1//EN" "http://www.w3.org/Graphics/SVG/1.1/DTD/svg11.dtd"><svg width="100%" height="100%" viewBox="0 0 512 208" version="1.1" xmlns="http://www.w3.org/2000/svg" xmlns:xlink="http://www.w3.org/1999/xlink" xml:space="preserve" xmlns:serif="http://www.serif.com/" style="fill-rule:evenodd;clip-rule:evenodd;stroke-linejoin:round;stroke-miterlimit:2;"><path d="M419.548,137.304l2.552,0.01c1.81,0.007 3.619,0.012 5.429,0.016c5.87,3.232 11.896,6.236 18.167,8.602l0.688,0.256c0.847,0.313 1.706,0.613 2.574,0.894c-1.321,0.267 -2.642,0.537 -3.961,0.811c-6.844,1.421 -13.654,3.004 -20.423,4.745l-1.353,0.35c-6.734,1.755 -13.445,3.604 -20.114,5.59l-0.011,0.004c-8.335,2.482 -16.538,5.413 -24.699,8.41c-7.525,2.763 -15.05,5.524 -22.589,8.247c-5.44,1.964 -10.987,3.631 -16.57,5.134c-1.526,0.411 -3.052,0.823 -4.575,1.243c-1.924,-0.845 -4.176,-0.936 -6.272,-0.07c-0.665,0.274 -1.29,0.637 -1.859,1.079c-1.249,0.972 -2.497,1.956 -3.66,3.031c-0.744,0.688 -1.445,1.425 -2.054,2.236c-2.712,3.61 -3.329,8.5 -1.45,12.653c0.35,0.775 0.781,1.512 1.286,2.197l-0.005,0.003c0.507,0.694 1.085,1.333 1.725,1.905c3.677,3.288 8.965,4.106 13.475,2.234l0.084,-0.035l0.02,-0.008l0.02,-0.009l0.048,-0.02l0.091,-0.04l0.047,-0.021l0.029,-0.013l0.058,-0.026l0.043,-0.02c-0.485,0.223 0.208,-0.064 0.338,-0.11c0.643,-0.229 1.291,-0.445 1.939,-0.659c2.449,-0.807 4.912,-1.572 7.377,-2.333l-0,0l1.116,-0.345c5.579,-1.73 11.142,-3.516 16.674,-5.396c7.7,-2.618 15.341,-5.416 22.976,-8.219l1.451,-0.532c7.256,-2.656 14.542,-5.257 21.924,-7.541l-0,-0c6.342,-1.963 12.735,-3.759 19.157,-5.444l0.024,-0.006c6.855,-1.798 13.747,-3.451 20.672,-4.956c6.673,-1.45 13.363,-2.827 20.073,-4.106l2.051,-0.389c4.785,-0.902 9.578,-1.764 14.387,-2.527l0.007,-0.001c5.044,-0.8 10.041,-1.961 14.88,-3.607l0.331,-0.114c1.651,-0.583 3.258,-1.316 4.707,-2.308c2.642,-1.81 4.638,-4.494 5.347,-7.646c0.896,-3.987 -0.405,-8.133 -3.209,-11.053c-1.205,-1.255 -2.638,-2.263 -4.157,-3.103l-0.013,-0.007l-0.122,-0.068l0.001,0l-0.03,-0.016c-4.311,-2.351 -8.686,-4.591 -13.079,-6.798c-0.409,-3.211 -2.214,-6.118 -4.863,-7.978l-0.006,-0.005l-0.009,-0.006c-0.067,-0.047 -0.134,-0.094 -0.202,-0.139c-2.826,-1.892 -6.257,-2.798 -9.516,-3.624c-3.854,-0.976 -7.773,-1.688 -11.711,-2.225l-0.372,-0.049c-0.456,-0.057 -0.914,-0.106 -1.372,-0.147c-3.217,-1.688 -6.416,-3.413 -9.581,-5.193l-0,0l-0.011,-0.006c-7.871,-4.426 -15.552,-9.187 -23.212,-13.964c-12.099,-7.547 -24.044,-15.342 -35.937,-23.21l-2.215,-1.466c-11.071,-7.335 -22.104,-14.731 -33.01,-22.31c-11.62,-8.073 -23.159,-16.264 -34.675,-24.489l-0.005,-0.004c-5.45,-3.893 -10.892,-7.797 -16.281,-11.773c-2.571,-1.897 -5.198,-3.764 -7.635,-5.835l-0.019,-0.017c-1.521,-1.294 -3.042,-2.588 -4.563,-3.883l-0.031,-0.025l-0.021,-0.018l-0.022,-0.019l-0.047,-0.039l-0.042,-0.034l-0.015,-0.012c-0.117,-0.097 -0.237,-0.191 -0.357,-0.283l-0.054,-0.041c-0.818,-0.646 -1.702,-1.173 -2.628,-1.58l-0.064,-0.028l-0.041,-0.018l-0.045,-0.019l-0.042,-0.018l-0.016,-0.007c-1.667,-0.699 -3.441,-1.004 -5.193,-0.934c-1.768,0.069 -3.528,0.521 -5.146,1.364l-0.06,0.031l-0.039,0.021l-0.044,0.023l-0.044,0.024l-0.013,0.007c-1.155,0.627 -2.222,1.449 -3.149,2.459c-0.961,1.042 -1.709,2.217 -2.241,3.466l-0.006,0.012l-0.006,0.016l-0.019,0.044l-0.015,0.036l-0.018,0.043l-0.02,0.05l-0.006,0.015c-0.653,1.609 -0.941,3.315 -0.881,5.002l0,0.01l0.003,0.076l0.002,0.039l0,0.005c0.078,1.73 0.523,3.451 1.343,5.037l0.049,0.094l0.01,0.019c0.494,0.934 1.114,1.813 1.858,2.609l0.963,1.071l0.001,0.002c0.039,0.043 0.078,0.085 0.117,0.128c1.072,1.172 2.282,2.225 3.466,3.282c1.971,1.76 3.969,3.49 5.971,5.216l0.008,0.007c0.008,0.007 0.016,0.014 0.024,0.021c7.001,6.038 14.267,11.773 21.547,17.467l0.016,0.012c10.442,8.165 20.811,16.422 31.149,24.718l-0,0l0.005,0.004c11.754,9.433 23.417,18.981 34.991,28.636l0,0c5.414,4.517 10.837,9.048 16.367,13.44c-16.841,0.164 -33.68,0.504 -50.512,0.944l-2.554,0.068c-22.545,0.602 -45.098,1.22 -67.651,1.391l0,-0l-0,-0l-0,-0c-14.725,0.112 -29.451,0.262 -44.175,0.448c-14.439,0.183 -28.879,0.299 -43.319,0.336l-0.001,-0c-25.709,0.066 -51.421,0.546 -77.126,0.979l-5.141,0.085c-16.302,0.27 -32.607,0.577 -48.901,1.154c-5.27,0.186 -10.541,0.397 -15.806,0.717c-3.011,0.183 -6.032,0.373 -9.023,0.772c-3.633,0.484 -7.26,1.08 -10.825,1.939c-2.666,0.642 -5.331,1.423 -7.824,2.584l-0.241,0.113c-4.05,1.935 -7.536,4.88 -9.766,8.808c-1.286,2.264 -0.493,5.142 1.771,6.427c2.264,1.286 5.141,0.493 6.427,-1.771l0,-0c0.968,-1.705 2.78,-2.479 4.66,-2.693l0.516,-0.056c5.332,-0.56 10.77,-0.416 16.118,-0.302c24.295,0.52 48.594,0.844 72.894,1.233l0.004,0c17.055,0.274 34.111,0.509 51.168,0.596c10.463,0.053 20.933,0.099 31.393,-0.179l2.72,-0.074c13.6,-0.373 27.198,-0.825 40.794,-1.346c14.649,-0.56 29.303,-1.009 43.959,-1.337l1.722,-0.035c8.608,-0.164 17.222,-0.124 25.831,-0.038c11.62,0.115 23.24,0.342 34.858,0.621l4.98,0.122c26.368,0.663 52.744,1.159 79.117,1.282Z" style="fill-rule:nonzero;"/></svg>