<svg width="100%" height="100%" viewBox="0 0 50 8" xmlns="http://www.w3.org/2000/svg" style="fill-rule:evenodd;clip-rule:evenodd;stroke-linejoin:round;stroke-miterlimit:2;"><path d="M0.4,3.754l0.651,-0.15c2.135,-0.334 5.022,-0.684 8.658,-1.052c2.903,-0.266 5.347,-0.483 7.333,-0.65c1.985,-0.167 3.511,-0.284 4.579,-0.35c1.101,-0 5.689,-0.251 13.763,-0.751c4.038,-0.267 7.099,-0.467 9.184,-0.601c2.086,-0.133 3.195,-0.2 3.329,-0.2c0.7,-0 1.234,0.167 1.601,0.5c0.367,0.334 0.551,0.935 0.551,1.802c-0,0.401 -0.067,0.818 -0.2,1.251c-0.134,0.434 -0.334,0.668 -0.601,0.701c-0.467,-0.033 -2.844,0.075 -7.132,0.325c-4.287,0.251 -10.535,0.609 -18.743,1.077c-4.972,0.266 -8.625,0.517 -10.961,0.75c-1.168,0.067 -4.855,0.517 -11.061,1.352c-0.3,-0 -0.584,-0.134 -0.851,-0.401c-0.333,-0.333 -0.5,-0.784 -0.5,-1.351c0,-0.401 0.083,-0.984 0.25,-1.752l0.15,-0.5Z" style="fill-rule:nonzero;"/></svg>
