<?xml version="1.0" encoding="UTF-8" standalone="no"?><!DOCTYPE svg PUBLIC "-//W3C//DTD SVG 1.1//EN" "http://www.w3.org/Graphics/SVG/1.1/DTD/svg11.dtd"><svg width="100%" height="100%" viewBox="0 0 512 12" version="1.1" xmlns="http://www.w3.org/2000/svg" xmlns:xlink="http://www.w3.org/1999/xlink" xml:space="preserve" xmlns:serif="http://www.serif.com/" style="fill-rule:evenodd;clip-rule:evenodd;stroke-linejoin:round;stroke-miterlimit:2;"><path d="M501.013,7.177l1.878,0.001c1.797,0 3.597,-0.005 5.392,0.076l-0.002,0.003c0.408,0.213 0.877,0.285 1.33,0.202c1.366,-0.25 2.445,-1.303 2.387,-2.776c-0.057,-1.438 -1.162,-2.478 -2.414,-3.005c-0.975,-0.411 -2.041,-0.591 -3.087,-0.706c-1.195,-0.13 -2.401,-0.165 -3.602,-0.165l-0.004,0c-5.027,0.004 -10.054,0.036 -15.081,0.109c-10.907,0.158 -21.815,0.241 -32.722,0.343c-6.971,0.066 -13.941,0.126 -20.911,0.159c-3.808,0.018 -7.617,0.045 -11.425,-0.004c-0.005,0 -0.01,0 -0.014,0c-7.109,-0.091 -14.217,-0.247 -21.324,-0.4c-7.573,-0.163 -15.145,-0.331 -22.715,-0.566c-5.574,-0.173 -11.149,-0.292 -16.725,-0.364c-11.03,-0.144 -22.064,-0.068 -33.093,-0.028l-1.068,0.003c-11.439,0.039 -22.882,0.039 -34.32,0.241c-5.441,0.097 -10.883,0.168 -16.324,0.214l-1.089,0.009c-5.6,0.043 -11.2,0.117 -16.798,0.221l-0.542,0.011c-8.429,0.16 -16.86,0.274 -25.29,0.388c-8.29,0.111 -16.581,0.222 -24.871,0.38c-7.302,0.139 -14.607,0.126 -21.911,0.096l-1.46,-0.006c-9.387,-0.039 -18.773,-0.062 -28.16,-0.066l-1.877,-0c-11.482,-0.002 -22.964,0.214 -34.441,0.517c-8.504,0.225 -17.01,0.483 -25.517,0.598c-7.133,0.096 -14.265,0.281 -21.397,0.454c-0.003,-0 -0.006,-0 -0.009,-0c-12.284,0.296 -24.573,0.384 -36.86,0.4l-0,-0c-5.86,0.007 -11.721,0.019 -17.581,0.054c-3.275,0.019 -6.552,0.034 -9.827,0.108l-0.002,-0c-1.591,0.036 -3.187,0.083 -4.774,0.221c-0.985,0.086 -2.102,0.155 -2.981,0.654c-0.99,0.55 -1.599,1.556 -1.743,2.667c-0.119,0.923 0.048,1.862 0.297,2.75c0.291,1.04 1.373,1.648 2.416,1.357c0.934,-0.259 1.537,-1.16 1.419,-2.119c-0.025,-0.211 -0.043,-0.423 -0.043,-0.636c0.312,-0.024 0.626,-0.039 0.938,-0.053c1.51,-0.064 3.022,-0.074 4.533,-0.079l0.855,-0.002c8.26,-0.022 16.522,-0.002 24.784,0.01l1.709,0.002c12.324,0.016 24.651,-0.037 36.973,-0.288l5.348,-0.109c5.347,-0.109 10.695,-0.221 16.042,-0.353l1.597,-0.04c7.985,-0.199 15.97,-0.414 23.955,-0.625l1.074,-0.028c11.084,-0.291 22.169,-0.552 33.254,-0.742c0.007,-0 0.014,-0 0.021,-0c9.999,-0.171 19.998,-0.279 29.999,-0.329l1.465,-0.008c7.33,-0.038 14.66,-0.086 21.987,-0.237l0.001,0c8.281,-0.17 16.564,-0.295 24.847,-0.42c8.436,-0.128 16.873,-0.257 25.309,-0.417l0.54,-0.01c5.583,-0.105 11.168,-0.176 16.753,-0.218c5.813,-0.043 11.625,-0.092 17.437,-0.146l0.001,0c10.707,-0.1 21.416,-0.054 32.124,-0.025l2.142,0.005c11.366,0.027 22.734,0.024 34.099,0.171c5.544,0.072 11.088,0.203 16.629,0.402c7.577,0.272 15.155,0.539 22.732,0.805c7.123,0.249 14.246,0.504 21.371,0.664c10.811,0.243 21.626,0.307 32.438,0.419c10.924,0.114 21.85,0.272 32.775,0.26l1.879,-0.002c3.758,-0.003 7.516,-0.004 11.274,-0.002Z" style="fill-rule:nonzero;"/></svg>