<?xml version="1.0" encoding="UTF-8" standalone="no"?><!DOCTYPE svg PUBLIC "-//W3C//DTD SVG 1.1//EN" "http://www.w3.org/Graphics/SVG/1.1/DTD/svg11.dtd"><svg width="100%" height="100%" viewBox="0 0 512 9" version="1.1" xmlns="http://www.w3.org/2000/svg" xmlns:xlink="http://www.w3.org/1999/xlink" xml:space="preserve" xmlns:serif="http://www.serif.com/" style="fill-rule:evenodd;clip-rule:evenodd;stroke-linejoin:round;stroke-miterlimit:2;"><path d="M419.257,5.472l1.745,0.002c6.15,0.005 12.301,0.226 18.445,0.469c9.804,0.389 19.611,0.711 29.419,1.017c4.688,0.147 9.376,0.291 14.064,0.419c2.298,0.063 4.598,0.14 6.898,0.155c2.633,0.018 5.266,-0.036 7.898,-0.112c2.473,-0.072 4.963,-0.169 7.416,-0.508c1.314,-0.182 2.656,-0.354 3.934,-0.724l0.298,-0.086c0.059,-0.017 0.118,-0.034 0.177,-0.051c0.041,-0.01 0.081,-0.021 0.122,-0.033l-0,0.001l0.038,-0.012c0.092,-0.027 0.182,-0.058 0.269,-0.093l0.152,-0.052c1.557,-0.658 2.285,-2.45 1.624,-4.002c-0.601,-1.414 -2.163,-2.163 -3.647,-1.748c-0.251,0.07 -0.5,0.146 -0.751,0.22l-0.004,0.001c-0.329,0.096 -0.672,0.153 -1.01,0.21c-0.662,0.111 -1.328,0.199 -1.995,0.279l-0.003,0c-2.112,0.255 -4.248,0.339 -6.375,0.403l-0.426,0.013c-2.571,0.074 -5.143,0.135 -7.715,0.15c-6.737,0.039 -13.477,-0.018 -20.213,-0.046l-0.652,-0.002c-9.667,-0.037 -19.336,-0.039 -29.002,0.098l-0.46,0.007c-6.069,0.089 -12.139,0.169 -18.208,0.166l-0.289,0c-4.367,-0.004 -8.733,0.009 -13.099,0.036l-0.874,0.006c-4.861,0.033 -9.722,0.074 -14.583,0.124c-4.777,0.049 -9.554,0.076 -14.332,0.081l-0.462,0c-5.207,0.004 -10.414,0.034 -15.621,0.084c-6.913,0.066 -13.825,0.148 -20.738,0.232l-2.962,0.036c-7.609,0.094 -15.218,0.185 -22.825,0.228l-0.737,0.004c-5.225,0.027 -10.45,0.076 -15.674,0.151c-5.06,0.072 -10.12,0.068 -15.179,-0.013c-5.114,-0.082 -10.229,-0.126 -15.344,-0.14l-0.495,-0.001c-5.451,-0.013 -10.903,-0.09 -16.352,-0.231l-0.492,-0.013c-5.08,-0.133 -10.161,-0.293 -15.24,-0.488l-0.349,-0.014c-3.601,-0.135 -7.205,-0.221 -10.808,-0.307c-6.107,-0.145 -12.214,-0.265 -18.321,-0.378c-13.719,-0.255 -27.439,-0.454 -41.159,-0.568c-8.267,-0.069 -16.535,-0.161 -24.802,-0.151l-0.394,0.001c-3.934,0.006 -7.869,-0.007 -11.804,-0.041c-5.202,-0.045 -10.405,0.022 -15.606,0.103l-1.041,0.017c-6.739,0.107 -13.478,0.199 -20.218,0.269c-4.501,0.047 -9.002,0.091 -13.502,0.195l-0.435,0.01c-2.675,0.065 -5.349,0.144 -8.022,0.241l-0.535,0.02c-2.618,0.096 -5.236,0.209 -7.854,0.335l-0.523,0.026c-4.824,0.237 -9.642,0.588 -14.459,0.927c-5.761,0.404 -11.549,0.663 -17.325,0.484c-4.537,-0.141 -9.074,-0.335 -13.605,-0.612c-3.106,-0.19 -6.221,-0.384 -9.333,-0.401l-0.148,-0.001c-0.911,-0.003 -1.83,0.017 -2.733,0.143c-0.748,0.104 -1.546,0.286 -2.14,0.778c-0.501,0.391 -0.825,0.974 -0.874,1.611c-0.032,0.414 0.051,0.825 0.193,1.212c0.284,0.777 0.757,1.486 1.223,2.163c0.454,0.66 1.359,0.827 2.02,0.375c0.62,-0.425 0.812,-1.249 0.446,-1.9c0.556,0.045 1.113,0.088 1.668,0.135c3.122,0.259 6.249,0.46 9.375,0.662c4.442,0.288 8.891,0.475 13.34,0.597l0.43,0.011c5.914,0.156 11.835,0.015 17.744,-0.228l0,-0c4.811,-0.198 9.623,-0.393 14.433,-0.612l0.52,-0.024c2.6,-0.117 5.201,-0.224 7.802,-0.32c2.828,-0.105 5.657,-0.19 8.487,-0.258c4.627,-0.111 9.256,-0.194 13.884,-0.278c6.75,-0.123 13.5,-0.278 20.25,-0.456l2.074,-0.055c4.838,-0.128 9.676,-0.258 14.515,-0.402c3.919,-0.116 7.841,-0.182 11.763,-0.2c0.002,-0 0.003,-0 0.004,-0c8.381,-0.038 16.763,0.029 25.144,0.073l0.008,0c13.707,0.072 27.415,0.204 41.121,0.376l0.001,0c9.666,0.122 19.333,0.26 29,0.31l0.46,0.002c4.924,0.024 9.848,0.058 14.772,0.098l0.985,0.008c5.126,0.042 10.253,0.071 15.379,0.085l1.025,0.003c4.612,0.011 9.225,0.025 13.837,0.044l1.977,0.008c4.913,0.021 9.825,0.065 14.737,0.131l0.475,0.007c5.231,0.072 10.462,0.09 15.693,0.063l0.369,-0.002c7.74,-0.043 15.481,-0.174 23.22,-0.307c0.002,0 0.004,0 0.006,0c7.893,-0.135 15.787,-0.269 23.682,-0.347l0.975,-0.01c4.87,-0.047 9.741,-0.086 14.611,-0.114l0.012,-0c4.924,-0.029 9.849,-0.003 14.772,0.077c4.716,0.077 9.431,0.122 14.148,0.132l0.456,0.001c4.071,0.006 8.143,0.012 12.214,0.016Z" style="fill-rule:nonzero;"/></svg>