<svg xmlns="http://www.w3.org/2000/svg" xmlns:xlink="http://www.w3.org/1999/xlink" width="75px" height="17px" viewBox="0 0 75 17" version="1.1">
  <g id="Finals" stroke="none" stroke-width="1" fill="none" fill-rule="evenodd">
    <g id="link-bg" style="fill: #00FFFF; fill-opacity: 0.2" fill-rule="nonzero">
      <path d="M2.71117986,14.635 C2.6978237,14.651 2.67008397,14.668 2.67213876,14.683 C2.67624835,14.721 2.69268671,14.759 2.70398808,14.797 C2.71837164,14.781 2.74508397,14.764 2.74405657,14.75 C2.73994698,14.711 2.72350863,14.673 2.71117986,14.635 L2.71117986,14.635 Z M3.6728237,10.317 C3.69131685,10.309 3.7087826,10.301 3.72624835,10.292 C3.71494698,10.279 3.69850863,10.252 3.69234424,10.254 C3.66563192,10.264 3.64097438,10.282 3.61528945,10.297 C3.63481,10.303 3.65330315,10.31 3.6728237,10.317 L3.6728237,10.317 Z M3.68926205,8.548 C3.70570041,8.535 3.72213876,8.523 3.73857712,8.511 C3.70159082,8.498 3.66460452,8.481 3.62659082,8.475 C3.61220726,8.473 3.59371411,8.497 3.57727575,8.51 C3.61426205,8.522 3.65227575,8.535 3.68926205,8.548 L3.68926205,8.548 Z M5.12042644,9.755 C5.11631685,9.74 5.11631685,9.715 5.10707027,9.711 C5.09063192,9.704 5.06597438,9.703 5.04953602,9.711 C5.00022096,9.735 5.00535794,9.76 5.06700178,9.773 C5.08241274,9.777 5.10296068,9.761 5.12042644,9.755 L5.12042644,9.755 Z M9.41083739,11.451 C9.42830315,11.441 9.4447415,11.43 9.46220726,11.42 C9.42727575,11.405 9.39234424,11.386 9.35535794,11.379 C9.34200178,11.376 9.32145383,11.398 9.30501548,11.408 C9.33994698,11.423 9.37487849,11.437 9.41083739,11.451 L9.41083739,11.451 Z M18.1406319,13.799 C18.1509059,13.758 18.1642621,13.723 18.1663169,13.687 C18.1663169,13.672 18.1406319,13.656 18.1272758,13.641 C18.1087826,13.673 18.0800155,13.704 18.0748785,13.739 C18.0728237,13.755 18.1159744,13.777 18.1406319,13.799 L18.1406319,13.799 Z M61.770084,5.469 C61.7772758,5.452 61.7916593,5.432 61.7875498,5.416 C61.775221,5.351 61.7485087,5.348 61.7217963,5.409 C61.7156319,5.424 61.7217963,5.448 61.7300155,5.464 C61.7330977,5.47 61.7567278,5.468 61.770084,5.469 L61.770084,5.469 Z M25.2800155,13.286 C25.239947,13.272 25.2050155,13.255 25.1670018,13.25 C25.1536456,13.248 25.1361799,13.273 25.1207689,13.286 C25.1485087,13.306 25.175221,13.339 25.2050155,13.342 C25.2276182,13.344 25.2533032,13.307 25.2800155,13.286 L25.2800155,13.286 Z M31.2286456,2.692 C31.2430292,2.657 31.2615224,2.622 31.2676867,2.586 C31.2707689,2.573 31.2430292,2.556 31.2286456,2.541 C31.2142621,2.556 31.185495,2.573 31.1885772,2.584 C31.1957689,2.621 31.2142621,2.656 31.2286456,2.692 L31.2286456,2.692 Z M31.98481,12.643 C32.0012484,12.639 32.0269333,12.64 32.0330977,12.63 C32.0423443,12.613 32.0495361,12.584 32.0402895,12.569 C32.0115224,12.516 31.979673,12.523 31.9642621,12.586 C31.9601525,12.603 31.9776182,12.624 31.98481,12.643 L31.98481,12.643 Z M33.580358,12.313 C33.6152895,12.3 33.650221,12.286 33.6851525,12.272 C33.6759059,12.258 33.6676867,12.232 33.6574128,12.231 C33.6224813,12.226 33.5875498,12.231 33.5536456,12.232 L33.580358,12.313 Z M63.5443991,9.854 C63.5587826,9.843 63.5875498,9.828 63.585495,9.821 C63.5772758,9.786 63.5608374,9.754 63.546452,9.721 C63.5330977,9.734 63.505358,9.749 63.5074128,9.758 C63.5146045,9.791 63.5310429,9.823 63.5443991,9.854 L63.5443991,9.854 Z M65.7029607,4.27 C65.7091251,4.251 65.7255635,4.23 65.7214539,4.213 C65.7060429,4.144 65.6762484,4.141 65.6474813,4.206 C65.6402895,4.221 65.6485087,4.247 65.6577552,4.264 C65.6618648,4.271 65.6865224,4.268 65.7029607,4.27 L65.7029607,4.27 Z M39.6255635,4.103 C39.6368648,4.117 39.6461114,4.139 39.6594676,4.143 C39.6779607,4.148 39.7067278,4.147 39.720084,4.136 C39.7580977,4.107 39.7426867,4.082 39.6800155,4.078 C39.6625498,4.077 39.6440566,4.094 39.6255635,4.103 L39.6255635,4.103 Z M45.6173443,11.814 C45.6019333,11.819 45.5783032,11.819 45.5721388,11.828 C45.5628922,11.846 45.554673,11.874 45.5628922,11.89 C45.5885772,11.946 45.6193991,11.94 45.63481,11.873 C45.6389196,11.856 45.6235087,11.834 45.6173443,11.814 L45.6173443,11.814 Z M50.4707689,9.849 L50.5026182,9.902 C50.5159744,9.887 50.5406319,9.874 50.5426867,9.859 C50.5488511,9.802 50.525221,9.776 50.4902895,9.795 C50.4779607,9.802 50.4769333,9.83 50.4707689,9.849 L50.4707689,9.849 Z M54.4807004,5.164 C54.4909744,5.177 54.5012484,5.195 54.5135772,5.198 C54.5320703,5.203 54.5577552,5.203 54.5731662,5.193 C54.6101525,5.168 54.5957689,5.146 54.5351525,5.143 C54.5166593,5.142 54.4981662,5.157 54.4807004,5.164 L54.4807004,5.164 Z M9.71700178,13.312 C9.69439904,13.278 9.67693329,13.238 9.64713876,13.21 C9.60398808,13.17 9.55364561,13.183 9.54645383,13.24 C9.54234424,13.271 9.57111137,13.327 9.59885109,13.338 C9.63070041,13.349 9.67693329,13.322 9.71700178,13.312 L9.71700178,13.312 Z M53.0865224,5.306 C53.1193991,5.3 53.1533032,5.293 53.1861799,5.287 C53.1748785,5.271 53.1656319,5.25 53.1491936,5.24 C53.1235087,5.223 53.0926867,5.215 53.0639196,5.202 L53.0865224,5.306 Z M53.2878922,1.789 C53.3269333,1.772 53.3844676,1.764 53.4019333,1.734 C53.4358374,1.676 53.4286456,1.606 53.3382347,1.607 C53.305358,1.608 53.2683717,1.657 53.2437141,1.691 C53.2108374,1.734 53.230358,1.77 53.2878922,1.789 L53.2878922,1.789 Z M33.629673,12.021 C33.6861799,12.004 33.7015908,11.969 33.6615224,11.928 C33.6337826,11.901 33.5937141,11.885 33.5587826,11.865 C33.5464539,11.901 33.5166593,11.945 33.5279607,11.971 C33.5392621,11.997 33.5937141,12.005 33.629673,12.021 L33.629673,12.021 Z M42.285495,4.539 C42.3656319,4.496 42.3430292,4.424 42.3327552,4.363 C42.3286456,4.333 42.2896045,4.309 42.2659744,4.282 C42.2495361,4.342 42.2238511,4.401 42.2207689,4.461 C42.2197415,4.488 42.264947,4.516 42.285495,4.539 L42.285495,4.539 Z M42.6111799,4.698 C42.6522758,4.648 42.6913169,4.601 42.7293306,4.554 C42.6923443,4.539 42.6522758,4.508 42.6183717,4.512 C42.5505635,4.521 42.5043306,4.569 42.5187141,4.639 C42.5238511,4.661 42.5731662,4.675 42.6111799,4.698 L42.6111799,4.698 Z M56.8909744,5.355 C56.8858374,5.268 56.8909744,5.172 56.7646045,5.163 C56.7471388,5.161 56.7111799,5.196 56.7132347,5.2 C56.7491936,5.28 56.7902895,5.357 56.830358,5.434 C56.8509059,5.408 56.8704265,5.382 56.8909744,5.355 L56.8909744,5.355 Z M7.00570041,6.243 C7.07864561,6.199 7.17624835,6.171 7.22145383,6.108 C7.29234424,6.006 7.16802918,6.023 7.12693329,6.019 C7.03754972,6.012 6.94405657,6.032 6.92967301,6.141 C6.92761822,6.167 6.9717963,6.199 7.00570041,6.243 L7.00570041,6.243 Z M40.3293306,4.4 C40.3745361,4.321 40.4207689,4.248 40.454673,4.17 C40.4608374,4.157 40.4156319,4.1 40.3981662,4.102 C40.2820703,4.116 40.2779607,4.212 40.2738511,4.296 C40.2717963,4.326 40.3057004,4.359 40.3293306,4.4 L40.3293306,4.4 Z M58.7330977,4.403 C58.8235087,4.374 58.8594676,4.315 58.8265908,4.251 C58.7978237,4.196 58.7351525,4.158 58.6868648,4.113 C58.6673443,4.168 58.6344676,4.223 58.6324128,4.28 C58.6293306,4.346 58.6580977,4.409 58.7330977,4.403 L58.7330977,4.403 Z M48.6440566,4.224 C48.6522758,4.314 48.6563854,4.38 48.6666593,4.445 C48.6800155,4.532 48.7036456,4.636 48.8187141,4.615 C48.9235087,4.597 48.9420018,4.51 48.8978237,4.413 C48.8711114,4.353 48.854673,4.289 48.8320703,4.227 C48.8074128,4.157 48.8289881,4.037 48.7015908,4.07 C48.6666593,4.078 48.6574128,4.183 48.6440566,4.224 L48.6440566,4.224 Z M20.8591251,5.201 C20.7666593,5.225 20.7009059,5.33 20.7132347,5.335 C20.8550155,5.393 20.8704265,5.605 21.0512484,5.598 C21.0789881,5.597 21.1344676,5.524 21.1272758,5.498 C21.0861799,5.354 21.0676867,5.179 20.8591251,5.201 L20.8591251,5.201 Z M38.6639196,4.648 C38.8272758,4.541 39.0039881,4.44 39.1611799,4.315 C39.2361799,4.256 39.1601525,4.203 39.0943991,4.189 C38.8190566,4.135 38.6289881,4.243 38.5724813,4.491 C38.5580977,4.552 38.579673,4.616 38.6639196,4.648 L38.6639196,4.648 Z M59.7872073,4.011 C59.7666593,3.983 59.7491936,3.937 59.7204265,3.928 C59.6813854,3.916 59.6176867,3.916 59.5909744,3.939 C59.4317278,4.072 59.2807004,4.217 59.3937141,4.448 C59.4111799,4.482 59.4769333,4.524 59.5057004,4.515 C59.6967963,4.458 59.6947415,4.287 59.7265908,4.136 C59.7358374,4.094 59.7656319,4.055 59.7872073,4.011 L59.7872073,4.011 Z M58.0139196,4.376 C58.0118648,4.353 58.0118648,4.33 58.0067278,4.309 C57.9245361,4 57.4940566,4.017 57.4118648,3.708 C57.3533032,3.743 57.2865224,3.77 57.2392621,3.816 C57.1971388,3.858 57.1786456,3.922 57.1488511,3.976 C57.3985087,4.091 57.4344676,4.368 57.6039881,4.536 C57.6594676,4.591 57.8238511,4.559 57.9327552,4.54 C58.004673,4.528 58.0159744,4.445 58.0139196,4.376 L58.0139196,4.376 Z M4.88412507,6.309 C4.93138534,6.415 4.59748123,6.655 5.02796068,6.635 C5.28583739,6.624 5.51494698,6.492 5.56528945,6.326 C5.63617986,6.1 5.31357712,6.086 5.16460452,5.975 C5.14611137,5.962 5.12659082,5.949 5.10604287,5.94 C4.88926205,5.849 4.81015246,5.897 4.82248123,6.121 C4.82659082,6.185 4.86254972,6.246 4.88412507,6.309 L4.88412507,6.309 Z M68.5909744,5.724 C68.5447415,5.617 68.595084,5.445 68.4378922,5.384 C68.3248785,5.34 68.2920018,5.459 68.2334402,5.525 C68.1902895,5.574 68.1255635,5.65 68.080358,5.644 C67.9519333,5.629 68.0166593,5.511 67.9991936,5.437 C67.979673,5.349 67.9714539,5.258 67.9426867,5.174 C67.9313854,5.144 67.8738511,5.112 67.8389196,5.113 C67.7772758,5.115 67.7680292,5.157 67.7906319,5.212 C67.8378922,5.33 67.7885772,5.393 67.6920018,5.489 C67.4670018,5.713 67.6652895,5.908 67.8317278,6.048 C67.9755635,6.168 68.1656319,6.229 68.230358,5.932 C68.2375498,5.895 68.3978237,5.891 68.4861799,5.867 C68.5509059,5.849 68.6259059,5.834 68.5909744,5.724 L68.5909744,5.724 Z M49.0632347,4.168 C49.0632347,4.253 49.0570703,4.299 49.0632347,4.343 C49.089947,4.571 49.0087826,4.909 49.45981,4.7 C49.5491936,4.659 49.630358,4.737 49.7022758,4.796 C49.8193991,4.892 49.9714539,4.935 50.0824128,4.831 C50.2652895,4.662 50.4183717,4.758 50.5776182,4.84 C50.6834402,4.894 50.7902895,4.96 50.8940566,4.869 C51.1139196,4.676 51.3039881,4.656 51.5711114,4.827 C51.9707689,5.084 51.7961114,4.461 52.0642621,4.483 C52.0991936,4.486 52.1423443,4.524 52.1639196,4.557 C52.30981,4.778 52.4557004,4.596 52.5810429,4.544 C52.7896045,4.458 52.5687141,4.322 52.5902895,4.204 C52.6067278,4.118 52.5420018,4.001 52.4392621,4.092 C52.2039881,4.3 52.2039881,4.135 52.1659744,3.964 C52.1341251,3.822 52.1084402,3.576 51.8896045,3.701 C51.6687141,3.826 51.4765908,3.846 51.2505635,3.787 C51.1241936,4.196 50.8971388,3.782 50.7193991,3.846 C50.380358,3.969 49.9714539,3.734 49.6714539,3.974 C49.4772758,4.13 49.4012484,4.048 49.2759059,3.939 C49.2235087,3.894 49.1526182,3.663 49.0971388,3.94 C49.079673,4.028 49.0704265,4.118 49.0632347,4.168 L49.0632347,4.168 Z M54.280358,3.597 C53.9156319,3.834 53.4748785,3.83 53.070084,3.934 C52.9385772,3.969 52.8337826,3.955 52.904673,4.09 C53.0176867,4.306 53.0690566,4.587 53.2930292,4.712 C53.4974813,4.825 53.4697415,4.495 53.6320703,4.465 C53.7491936,4.443 53.7800155,4.536 53.8498785,4.585 C54.2495361,4.868 54.2515908,4.865 54.6009059,4.552 C54.8557004,4.325 54.8793306,4.319 54.9676867,4.657 C55.0180292,4.852 55.0396045,4.991 55.2337826,4.782 C55.5204265,4.475 55.935495,4.631 56.2622073,4.483 C56.5447415,4.879 56.6413169,4.544 56.7800155,4.361 C56.8406319,4.281 56.8827552,4.215 56.7471388,4.164 C56.5745361,4.099 56.4101525,4.013 56.2344676,3.958 C56.0567278,3.901 55.9981662,4.039 55.9406319,4.163 L55.9529607,4.152 C55.6580977,3.873 55.4022758,3.707 55.2204265,3.784 C54.8443991,3.944 54.5670018,3.759 54.2690566,3.609 C54.25981,3.594 54.2526182,3.577 54.2402895,3.564 C54.2330977,3.556 54.2207689,3.553 54.210495,3.549 C54.2341251,3.565 54.2567278,3.581 54.280358,3.597 L54.280358,3.597 Z M62.5283032,3.663 L62.5406319,3.651 C62.3916593,3.692 62.2416593,3.774 62.0957689,3.768 C61.679673,3.749 61.5265908,3.946 61.5409744,4.32 C61.314947,4.336 61.2009059,4.399 61.4146045,4.602 C61.4228237,4.84 61.5378922,4.938 61.7690566,4.835 C61.8933717,4.781 61.9991936,4.69 62.1132347,4.616 L62.1019333,4.603 C62.1378922,4.763 62.1882347,5.073 62.3731662,4.907 C62.6926867,4.619 63.0676867,4.713 63.3943991,4.591 C63.7673443,4.452 63.7837826,4.612 63.7940566,4.874 C63.7971388,4.939 63.8269333,5.003 63.8454265,5.067 C63.8772758,5.013 63.9163169,4.963 63.9389196,4.906 C63.9902895,4.781 64.0334402,4.654 64.0776182,4.526 C64.2759059,3.961 64.1279607,3.761 63.5135772,3.786 C63.3810429,3.792 63.2906319,3.766 63.2289881,3.655 C63.2824128,3.628 63.404673,3.713 63.3779607,3.577 C63.3738511,3.555 63.264947,3.6 63.2402895,3.667 C63.1447415,3.708 63.0491936,3.749 62.9526182,3.789 L62.964947,3.801 C62.8570703,3.644 62.7697415,3.424 62.5283032,3.663 L62.5283032,3.663 Z M66.3070703,6.132 C66.3265908,6.2 66.25981,6.315 66.4005635,6.313 C66.4139196,6.313 66.4262484,6.197 66.4385772,6.134 C66.6214539,6.04 66.8690566,6.009 66.85981,5.726 C66.9050155,5.734 66.950221,5.746 66.9954265,5.748 C67.0889196,5.754 67.2091251,5.902 67.2697415,5.728 C67.320084,5.585 67.2512484,5.43 67.1022758,5.414 C66.8793306,5.39 66.880358,5.582 66.8711114,5.738 C66.7375498,5.75 66.5043306,5.806 66.4868648,5.768 C66.2741936,5.313 65.8560429,5.483 65.5406319,5.497 C64.9170018,5.525 64.3015908,5.362 63.6779607,5.464 C63.4591251,5.5 63.3676867,5.327 63.489947,5.188 C63.6101525,5.051 63.5166593,4.923 63.4776182,4.902 C63.3060429,4.81 63.3389196,5.006 63.3019333,5.071 C63.1478237,5.335 63.4426867,5.591 63.3378922,5.862 C63.2495361,6.088 63.3430292,6.119 63.5659744,6.111 C64.3283032,6.085 65.0906319,6.075 65.8498785,6.185 C65.9916593,6.206 66.1652895,6.23 66.3070703,6.132 L66.3070703,6.132 Z M41.7933717,4.342 C41.8241936,4.19 41.7759059,4.057 41.6259059,4.016 C41.4378922,3.966 41.4183717,4.129 41.3824128,4.254 C41.3639196,4.318 41.3536456,4.386 41.3217963,4.444 C41.279673,4.52 41.214947,4.649 41.1676867,4.646 C41.064947,4.637 41.1060429,4.516 41.0926867,4.44 C41.0772758,4.353 41.0813854,4.258 41.0454265,4.18 C41.0043306,4.092 40.9036456,4.059 40.8111799,4.087 C40.7084402,4.119 40.6817278,4.202 40.7269333,4.299 C40.8039881,4.462 40.8820703,4.624 40.9591251,4.787 C41.155358,5.205 41.4265908,5.232 41.7029607,4.856 C41.7872073,4.741 41.7851525,4.603 41.7923443,4.469 C41.9033032,4.472 42.0800155,4.502 42.050221,4.347 C42.0111799,4.146 41.8817278,4.367 41.7933717,4.342 L41.7933717,4.342 Z M12.8690566,12.867 C12.885495,12.858 12.9039881,12.851 12.9173443,12.839 C12.9255635,12.832 12.9255635,12.816 12.929673,12.805 C12.9132347,12.829 12.8978237,12.854 12.8813854,12.879 C12.6070703,12.871 12.3265908,12.839 12.1385772,13.104 C12.0656319,13.208 12.0368648,13.322 12.1755635,13.376 C12.2916593,13.422 12.4262484,13.609 12.5300155,13.475 C12.6697415,13.295 12.9368648,13.161 12.8690566,12.867 L12.8690566,12.867 Z M8.26528945,9.97 C8.28686479,9.963 8.31049493,9.959 8.32898808,9.948 C8.33926205,9.941 8.34131685,9.922 8.34748123,9.908 C8.32487849,9.933 8.30124835,9.958 8.27761822,9.983 C8.08035794,9.956 7.98789219,9.697 7.72487849,9.774 C7.61083739,9.807 7.49063192,9.802 7.47008397,9.926 C7.44028945,10.101 7.62419356,10.198 7.7228237,10.17 C7.90467301,10.117 8.14816616,10.191 8.26528945,9.97 L8.26528945,9.97 Z M23.0957689,13.071 C23.1142621,13.064 23.1358374,13.06 23.1522758,13.049 C23.160495,13.042 23.1615224,13.024 23.1656319,13.01 C23.1461114,13.034 23.1265908,13.058 23.1070703,13.082 C23.0741936,13.053 23.0423443,13.023 23.0084402,12.996 C22.930358,12.935 23.0135772,12.742 22.8533032,12.771 C22.7238511,12.795 22.6324128,12.918 22.5995361,13.049 C22.5738511,13.159 22.6704265,13.197 22.7577552,13.216 C22.850221,13.237 22.9211114,13.279 22.9724813,13.355 C22.6961114,13.368 22.5183717,13.498 22.4567278,13.765 C22.6652895,13.798 22.8543306,13.732 23.0423443,13.654 C23.1039881,13.629 23.1759059,13.626 23.2437141,13.613 C23.2488511,13.634 23.2509059,13.657 23.2622073,13.676 C23.2693991,13.686 23.289947,13.689 23.3043306,13.696 C23.279673,13.672 23.2550155,13.648 23.230358,13.625 C23.1666593,13.506 22.9714539,13.509 22.9560429,13.345 C23.0690566,13.286 23.085495,13.18 23.0957689,13.071 L23.0957689,13.071 Z M8.99268671,6.032 C8.83241274,5.788 8.68549493,5.996 8.55398808,6.061 C8.48309767,6.096 8.46049493,6.04 8.51700178,6.09 C8.63001548,6.191 8.76254972,6.122 8.88070041,6.056 C8.91665931,6.035 8.96289219,6.031 9.00501548,6.02 C9.01220726,6.04 9.01631685,6.063 9.02864561,6.08 C9.03583739,6.09 9.05741274,6.088 9.0728237,6.091 C9.08001548,6.047 9.05330315,6.027 8.99268671,6.032 L8.99268671,6.032 Z M63.4652895,11.986 C63.4385772,12.012 63.3173443,11.981 63.4067278,12.077 L63.4539881,11.975 C63.5988511,11.92 63.7858374,11.873 63.6163169,11.672 C63.5207689,11.56 63.3954265,11.515 63.3224813,11.71 C63.3009059,11.717 63.2762484,11.719 63.25981,11.732 C63.2495361,11.74 63.2505635,11.778 63.2536456,11.779 C63.3009059,11.793 63.3235087,11.767 63.3193991,11.707 C63.4211114,11.774 63.4652895,11.869 63.4652895,11.986 L63.4652895,11.986 Z M42.9974813,11.579 C42.6974813,11.323 42.7591251,11.61 42.7334402,11.75 C42.7262484,11.787 42.7509059,11.863 42.7693991,11.865 C42.8536456,11.876 42.8495361,11.8 42.8557004,11.749 C42.8670018,11.653 42.9091251,11.589 43.0087826,11.567 C43.0375498,11.599 43.0611799,11.638 43.0961114,11.661 C43.1464539,11.696 43.1967963,11.675 43.1844676,11.629 C43.1608374,11.542 43.2132347,11.637 43.1269333,11.604 C43.0868648,11.589 43.0406319,11.587 42.9974813,11.579 L42.9974813,11.579 Z M68.8293306,5.608 C68.8036456,5.815 68.9094676,5.893 69.10981,5.879 C69.1365224,5.902 69.1036456,6.02 69.200221,5.932 C69.1663169,5.918 69.1324128,5.904 69.0995361,5.889 C69.1005635,5.505 69.1005635,5.505 68.8262484,5.612 C68.8211114,5.55 68.8241936,5.475 68.7276182,5.549 C68.7625498,5.569 68.7964539,5.588 68.8293306,5.608 L68.8293306,5.608 Z M42.9224813,4.074 C42.8464539,4.043 42.7714539,3.947 42.6933717,4.017 C42.6276182,4.076 42.6235087,4.201 42.6923443,4.252 C42.7334402,4.282 42.8433717,4.222 42.9235087,4.203 C43.1166593,4.778 43.2769333,4.869 43.7916593,4.653 C43.9159744,4.601 44.0063854,4.462 44.1327552,4.627 C44.2622073,4.798 44.3721388,4.905 44.6464539,4.848 C44.8488511,4.807 45.0872073,4.972 45.1272758,4.612 C45.1611799,4.311 45.554673,4.777 45.585495,4.426 C45.5875498,4.404 45.5793306,4.381 45.5762484,4.358 C45.7673443,4.459 45.7005635,4.832 45.7961114,4.798 C46.0765908,4.698 46.4279607,4.86 46.6313854,4.64 C46.8368648,4.418 46.9539881,4.46 47.1933717,4.584 C47.3967963,4.69 47.579673,4.809 47.7666593,4.937 C47.9289881,5.047 47.9330977,4.876 47.9670018,4.781 L47.9557004,4.793 C48.0687141,4.658 48.2988511,4.814 48.3985087,4.612 C48.479673,4.446 48.5628922,4.292 48.5310429,4.1 C48.4991936,3.916 48.4416593,3.785 48.2176867,3.906 C47.9885772,4.031 47.7779607,3.962 47.5539881,3.876 C47.3906319,3.814 47.20981,3.693 47.0279607,3.82 C46.7063854,4.045 46.3786456,3.891 46.0447415,3.875 C45.6717963,3.857 45.4396045,3.539 45.0820703,3.524 C44.8920018,3.515 44.6967963,3.3 44.5170018,3.535 C44.4933717,3.566 44.4882347,3.634 44.5067278,3.666 C44.6238511,3.87 44.8776182,3.783 44.9916593,3.763 C45.4467963,3.68 45.4416593,3.939 45.4447415,4.228 C45.3050155,4.267 45.1498785,4.338 45.1622073,4.087 C45.210495,4.07 45.3111799,4.079 45.2166593,3.989 C45.1981662,4.021 45.1786456,4.053 45.1601525,4.085 C44.460495,3.904 43.75981,4.051 43.0591251,4.077 C43.014947,4 42.9707689,3.931 42.9224813,4.074 L42.9224813,4.074 Z M7.6087826,6.01 C7.71768671,6.188 7.88926205,6.152 8.03823465,6.1 C8.11528945,6.074 8.12350863,6.107 8.07213876,6.086 C7.94987849,6.035 7.80296068,6.044 7.66631685,6.029 C7.64268671,6.026 7.61905657,6.024 7.59645383,6.022 C7.58926205,6.004 7.58515246,5.984 7.5728237,5.969 C7.56665931,5.961 7.54816616,5.962 7.5337826,5.958 C7.55844013,5.976 7.58309767,5.993 7.6087826,6.01 L7.6087826,6.01 Z M66.0471388,3.677 C66.0954265,3.717 66.1385772,3.768 66.1940566,3.793 C66.2474813,3.817 66.3163169,3.821 66.355358,3.753 C66.3132347,3.742 66.2721388,3.731 66.2300155,3.722 C66.1663169,3.71 66.1015908,3.699 66.0378922,3.687 C66.0235087,3.676 66.0080977,3.664 65.9947415,3.652 C66.0122073,3.66 66.029673,3.669 66.0471388,3.677 L66.0471388,3.677 Z M67.8625498,4.378 C67.8101525,4.426 67.6735087,4.444 67.7957689,4.554 C67.8142621,4.492 67.8317278,4.429 67.8491936,4.366 C67.9509059,4.332 67.9817278,4.267 67.920084,4.18 C67.9057004,4.158 67.8276182,4.147 67.8183717,4.159 C67.754673,4.243 67.8615224,4.301 67.8625498,4.378 L67.8625498,4.378 Z M44.6043306,2.587 C44.6207689,2.51 44.7337826,2.455 44.6659744,2.362 C44.6557004,2.347 44.5735087,2.355 44.5570703,2.376 C44.4943991,2.459 44.4985087,2.536 44.6156319,2.576 C44.6228237,2.593 44.6279607,2.61 44.6382347,2.623 C44.6443991,2.631 44.6608374,2.632 44.6721388,2.636 C44.6495361,2.62 44.6269333,2.603 44.6043306,2.587 L44.6043306,2.587 Z M21.4704265,5.294 C21.4457689,5.259 21.4293306,5.214 21.3964539,5.193 C21.3533032,5.166 21.3060429,5.068 21.2526182,5.144 C21.2115224,5.203 21.2906319,5.25 21.3522758,5.27 C21.3923443,5.282 21.4385772,5.28 21.4827552,5.284 C21.510495,5.336 21.4180292,5.462 21.564947,5.43 C21.5896045,5.425 21.5423443,5.318 21.4704265,5.294 L21.4704265,5.294 Z M5.60124835,10.236 C5.60124835,10.186 5.60124835,10.137 5.60124835,10.088 C5.6217963,10.082 5.64542644,10.081 5.66289219,10.071 C5.67316616,10.065 5.67522096,10.044 5.68138534,10.03 C5.6587826,10.053 5.63617986,10.077 5.61357712,10.1 C5.48926205,10.081 5.3217963,9.98 5.33720726,10.234 C5.27248123,10.244 5.20467301,10.248 5.14405657,10.269 C5.11015246,10.281 5.13070041,10.324 5.18926205,10.328 C5.26117986,10.333 5.31152233,10.295 5.32385109,10.221 C5.42042644,10.222 5.51597438,10.223 5.61254972,10.224 C5.6207689,10.244 5.62385109,10.266 5.63617986,10.283 C5.64337164,10.293 5.66391959,10.293 5.67830315,10.297 C5.65159082,10.277 5.62590589,10.256 5.60124835,10.236 L5.60124835,10.236 Z M55.1988511,12.203 C55.1844676,12.219 55.170084,12.235 55.154673,12.251 C55.1659744,12.231 55.1762484,12.211 55.1875498,12.192 C55.3272758,12.105 55.3509059,12.017 55.1896045,11.928 C55.1731662,11.846 55.2995361,11.784 55.2235087,11.7 C55.2122073,11.687 55.1330977,11.704 55.1176867,11.727 C55.0539881,11.823 55.1012484,11.885 55.2019333,11.918 L55.1988511,12.203 Z M45.039947,2.445 C45.0615224,2.508 45.0111799,2.61 45.1313854,2.611 C45.1426867,2.611 45.1550155,2.503 45.1663169,2.446 C45.18481,2.44 45.205358,2.437 45.2207689,2.427 C45.2300155,2.42 45.2310429,2.402 45.2361799,2.389 C45.2166593,2.411 45.1971388,2.434 45.1776182,2.456 L45.0286456,2.456 C45.0224813,2.44 45.0183717,2.421 45.0080977,2.406 C45.0029607,2.397 44.9875498,2.394 44.9772758,2.388 L45.039947,2.445 Z M33.1878922,12.321 C33.2074128,12.313 33.2279607,12.308 33.2443991,12.296 C33.2536456,12.29 33.254673,12.273 33.25981,12.26 C33.2392621,12.284 33.2197415,12.308 33.1991936,12.332 C33.114947,12.325 33.0276182,12.305 32.9680292,12.388 C32.964947,12.393 32.9896045,12.429 33.0070703,12.435 C33.1128922,12.468 33.1632347,12.412 33.1878922,12.321 L33.1878922,12.321 Z M20.0279607,12.921 C19.979673,12.967 19.9313854,13.014 19.8830977,13.061 C19.7978237,13.094 19.6385772,13.06 19.710495,13.233 C19.7310429,13.282 19.7865224,13.319 19.8245361,13.361 C19.8378922,13.278 19.8512484,13.196 19.8635772,13.113 C19.8666593,13.092 19.8697415,13.071 19.8717963,13.05 C19.935495,13.018 20.0063854,12.994 20.0146045,12.909 C20.0711114,12.885 20.1861799,12.966 20.1748785,12.838 C20.1728237,12.816 20.0659744,12.868 20.0279607,12.921 L20.0279607,12.921 Z M7.14439904,9.964 C7.16494698,9.956 7.18754972,9.951 7.20604287,9.939 C7.21528945,9.932 7.21734424,9.914 7.22350863,9.901 C7.20090589,9.926 7.17933055,9.95 7.15672781,9.975 C7.08891959,9.996 7.02213876,10.018 6.95433055,10.04 C7.06015246,10.114 7.09302918,10.015 7.14439904,9.964 L7.14439904,9.964 Z M6.61734424,6.147 C6.5228237,5.974 6.43241274,6.015 6.34200178,6.15 C6.27727575,6.125 6.21460452,6.084 6.14885109,6.079 C6.07693329,6.073 6.01323465,6.129 6.01426205,6.198 C6.01528945,6.218 6.12419356,6.246 6.1837826,6.249 C6.25672781,6.254 6.31323465,6.214 6.33172781,6.138 C6.42727575,6.14 6.52385109,6.142 6.61939904,6.144 C6.63172781,6.203 6.63583739,6.278 6.72111137,6.195 C6.68720726,6.178 6.65227575,6.163 6.61734424,6.147 L6.61734424,6.147 Z M4.34165931,9.952 C4.32727575,9.882 4.28104287,9.842 4.21015246,9.847 C4.15364561,9.852 4.13412507,9.895 4.16597438,9.907 C4.22453602,9.928 4.29028945,9.931 4.35296068,9.942 C4.36734424,9.956 4.3827552,9.969 4.39816616,9.984 C4.37967301,9.973 4.36015246,9.963 4.34165931,9.952 L4.34165931,9.952 Z M68.129673,6.417 C68.1481662,6.483 68.1656319,6.497 68.1738511,6.458 C68.1748785,6.452 68.1378922,6.439 68.1183717,6.429 C68.1101525,6.413 68.1050155,6.396 68.0947415,6.383 C68.0875498,6.374 68.0721388,6.373 68.0608374,6.369 L68.129673,6.417 Z M59.8735087,5.008 C59.8601525,5.022 59.8478237,5.037 59.8344676,5.052 C59.8437141,5.033 59.8529607,5.014 59.8611799,4.996 C59.9115224,4.997 59.9628922,4.998 60.0122073,4.999 C60.0255635,5.042 60.0122073,5.128 60.1005635,5.052 C60.0687141,5.038 60.0358374,5.024 60.0029607,5.01 C59.9608374,4.919 59.9187141,4.902 59.8735087,5.008 L59.8735087,5.008 Z M45.6009059,2.457 C45.5330977,2.481 45.5197415,2.501 45.5618648,2.503 C45.5690566,2.504 45.5793306,2.466 45.5885772,2.445 C45.6019333,2.429 45.6142621,2.412 45.6276182,2.396 C45.6183717,2.416 45.6091251,2.437 45.6009059,2.457 L45.6009059,2.457 Z M44.8467963,9.814 C44.830358,9.823 44.8128922,9.831 44.7985087,9.843 C44.7913169,9.849 44.7892621,9.863 44.7851525,9.874 C44.8015908,9.85 44.8170018,9.826 44.8344676,9.802 C44.8539881,9.798 44.8765908,9.798 44.8920018,9.787 C44.9022758,9.781 44.9022758,9.76 44.9074128,9.745 C44.8868648,9.767 44.8663169,9.791 44.8467963,9.814 L44.8467963,9.814 Z M40.6231662,12.787 C40.6067278,12.794 40.5892621,12.799 40.5748785,12.809 C40.5666593,12.815 40.5625498,12.828 40.5574128,12.839 L40.6118648,12.776 C40.6313854,12.769 40.6539881,12.767 40.6693991,12.756 C40.679673,12.749 40.6786456,12.729 40.6827552,12.715 C40.6632347,12.739 40.6437141,12.763 40.6231662,12.787 L40.6231662,12.787 Z M18.0841251,10.714 C18.0943991,10.734 18.104673,10.754 18.114947,10.773 L18.2125498,10.718 C18.2505635,10.668 18.3769333,10.642 18.2577552,10.552 C18.2464539,10.611 18.2341251,10.67 18.2228237,10.729 C18.1735087,10.729 18.1231662,10.728 18.0738511,10.727 C18.0584402,10.711 18.039947,10.679 18.0307004,10.681 C17.9967963,10.69 17.9670018,10.71 17.9351525,10.726 C17.8940566,10.778 17.7707689,10.811 17.895084,10.899 C17.905358,10.837 17.9146045,10.775 17.9248785,10.713 C17.9783032,10.713 18.0317278,10.714 18.0841251,10.714 L18.0841251,10.714 Z M14.1461114,12.466 C14.1933717,12.511 14.2396045,12.557 14.2868648,12.603 C14.300221,12.617 14.3135772,12.631 14.3279607,12.645 C14.310495,12.635 14.2930292,12.624 14.2755635,12.614 C14.2293306,12.567 14.1830977,12.521 14.1368648,12.475 C14.1224813,12.461 14.1080977,12.448 14.0937141,12.433 C14.1111799,12.444 14.1286456,12.455 14.1461114,12.466 L14.1461114,12.466 Z M7.15672781,10.372 C7.16905657,10.385 7.18138534,10.396 7.19371411,10.408 C7.17727575,10.4 7.16083739,10.392 7.14337164,10.384 C7.11563192,10.36 7.16905657,10.242 7.05809767,10.313 C7.09097438,10.333 7.12385109,10.353 7.15672781,10.372 L7.15672781,10.372 Z M7.01186479,11.061 C6.99234424,11.07 6.9717963,11.076 6.95433055,11.088 C6.94508397,11.094 6.94200178,11.111 6.93583739,11.123 C6.95741274,11.098 6.97796068,11.074 6.99953602,11.05 C7.01391959,11.036 7.02933055,11.022 7.0447415,11.009 L7.01186479,11.061 Z M6.08207027,3.82 C6.12830315,3.866 6.17453602,3.912 6.2207689,3.958 L6.25159082,4.001 L6.21049493,3.969 C6.16323465,3.923 6.11700178,3.877 6.0707689,3.831 C6.06254972,3.811 6.05638534,3.789 6.04508397,3.772 C6.03789219,3.761 6.02145383,3.757 6.00912507,3.75 C6.0337826,3.773 6.05741274,3.797 6.08207027,3.82 L6.08207027,3.82 Z M5.19131685,10.913 C5.17796068,10.948 5.05056342,10.897 5.12453602,10.998 C5.14302918,10.966 5.16049493,10.933 5.17898808,10.901 C5.19850863,10.893 5.21905657,10.888 5.23549493,10.877 C5.2447415,10.87 5.2467963,10.854 5.25193329,10.842 C5.23241274,10.865 5.21186479,10.889 5.19131685,10.913 L5.19131685,10.913 Z M4.75056342,13.363 C4.62933055,13.406 4.61905657,13.449 4.74953602,13.494 C4.79165931,13.578 4.56563192,13.673 4.74337164,13.733 C4.85124835,13.768 4.85638534,13.638 4.87385109,13.559 C4.87693329,13.538 4.87693329,13.517 4.87898808,13.496 C4.97453602,13.456 4.97248123,13.413 4.88309767,13.367 C4.84200178,13.275 4.79987849,13.235 4.75056342,13.363 L4.75056342,13.363 Z M4.31802918,15.67 C4.33652233,15.705 4.30261822,15.807 4.40535794,15.736 C4.37248123,15.718 4.33857712,15.699 4.30570041,15.681 C4.29748123,15.661 4.29337164,15.637 4.28001548,15.62 C4.2728237,15.611 4.25124835,15.612 4.23583739,15.608 C4.22967301,15.65 4.25741274,15.67 4.31802918,15.67 L4.31802918,15.67 Z M3.3717963,10.628 C3.25261822,10.67 3.25364561,10.713 3.3707689,10.757 C3.39131685,10.831 3.36460452,10.933 3.47145383,10.957 C3.50022096,10.964 3.5577552,10.923 3.57419356,10.89 C3.62556342,10.789 3.64097438,10.687 3.50227575,10.632 C3.46117986,10.54 3.41905657,10.517 3.3717963,10.628 L3.3717963,10.628 Z M12.5906319,14.5 C12.5392621,14.583 12.4663169,14.639 12.3666593,14.639 C11.7327552,14.639 11.1430292,14.976 10.475221,14.825 C10.2522758,14.775 9.92967301,14.951 9.71494698,15.105 C9.40159082,15.329 9.11391959,15.308 8.80056342,15.168 C8.63104287,15.093 8.47898808,15.003 8.28686479,15.142 C8.21391959,15.196 8.11528945,15.121 8.08960452,15.016 C8.10604287,15.008 8.12556342,15.001 8.13994698,14.99 C8.14919356,14.983 8.15124835,14.969 8.15638534,14.958 C8.13789219,14.982 8.12042644,15.005 8.10193329,15.028 C7.67145383,15.058 7.54508397,15.396 7.38583739,15.699 L7.39919356,15.688 C6.82487849,15.213 6.20330315,15.108 5.5837826,15.562 C5.23652233,15.817 5.11734424,15.384 4.86357712,15.415 C4.83481,15.337 4.96323465,15.273 4.88515246,15.198 C4.8728237,15.186 4.79885109,15.209 4.78446753,15.234 C4.72487849,15.332 4.77624835,15.383 4.87796068,15.403 C4.96323465,15.569 5.12659082,15.728 4.80604287,15.857 C4.61905657,15.933 4.46802918,16.094 4.30159082,16.217 L4.31083739,16.226 C4.24097438,16.023 3.96563192,16.156 3.86802918,15.951 C3.78481,15.779 3.75707027,15.471 3.54028945,15.487 C3.40467301,15.497 3.31015246,15.797 3.13549493,15.917 C3.07898808,15.956 3.04405657,16.021 2.98960452,16.062 C2.93823465,16.099 2.8467963,16.158 2.82213876,16.141 C2.75227575,16.091 2.68754972,16.015 2.65364561,15.936 C2.5837826,15.769 2.75844013,15.644 2.75535794,15.484 C2.75330315,15.308 2.8087826,15.061 2.50467301,15.315 C2.44405657,15.366 2.38344013,15.359 2.32898808,15.302 C2.11323465,15.075 1.99302918,15.117 1.93446753,15.42 C1.90364561,15.576 1.67659082,15.641 1.6837826,15.813 C1.69405657,16.071 1.47933055,16.092 1.32213876,16.153 C1.23583739,16.187 0.93481,15.699 0.990289452,15.572 C1.05707027,15.419 1.05501548,15.265 1.07864561,15.11 C1.12796068,14.774 0.938919589,14.379 1.14337164,14.115 C1.35296068,13.844 1.84405657,14.079 2.09165931,13.906 C2.34850863,13.727 2.63104287,13.799 2.88994698,13.67 C3.11700178,13.557 3.26391959,13.627 3.00398808,13.384 C2.9197415,13.305 2.96083739,13.194 3.08823465,13.231 C3.63172781,13.388 3.84234424,13.028 4.05809767,12.665 C4.06631685,12.728 4.06631685,12.795 4.08789219,12.853 C4.10124835,12.887 4.15056342,12.869 4.15570041,12.814 C4.16186479,12.741 4.11460452,12.697 4.04371411,12.677 C4.00364561,12.541 3.87624835,12.569 3.77761822,12.542 L3.76528945,12.531 C3.7478237,12.471 3.73035794,12.413 3.71289219,12.354 C3.61117986,12.385 3.64200178,12.473 3.62556342,12.541 L3.63686479,12.53 C3.5197415,12.521 3.41289219,12.49 3.34200178,12.388 C3.36254972,12.387 3.38412507,12.389 3.40056342,12.382 C3.41186479,12.377 3.41494698,12.356 3.42111137,12.342 C3.39850863,12.362 3.37590589,12.381 3.35330315,12.401 C3.30604287,12.398 3.2577552,12.394 3.20946753,12.39 L3.21871411,12.401 C3.17350863,12.357 3.12830315,12.312 3.08309767,12.268 L3.06357712,12.246 C3.20124835,12.182 4.75364561,11.755 4.85741274,11.789 C4.99302918,11.835 5.06700178,11.709 5.18001548,11.723 C5.24063192,11.846 5.32385109,11.947 5.46049493,11.994 C5.46871411,12.014 5.4728237,12.036 5.48412507,12.052 C5.49131685,12.062 5.51083739,12.063 5.52419356,12.068 C5.49850863,12.048 5.47385109,12.027 5.44816616,12.006 C5.49234424,11.961 5.53857712,11.876 5.58070041,11.878 C5.80056342,11.887 6.16323465,12.006 6.21460452,11.927 C6.47864561,11.518 6.63172781,11.95 6.82898808,11.958 C6.89268671,11.961 6.96768671,11.947 7.01905657,11.913 C7.31494698,11.719 7.65501548,11.762 7.98172781,11.739 C8.02590589,11.817 8.07111137,11.864 8.11734424,11.74 C8.29302918,11.685 8.23344013,11.573 8.1717963,11.479 C8.10296068,11.371 8.00330315,11.344 7.8728237,11.399 C7.73823465,11.455 7.50501548,11.629 7.46802918,11.51 C7.30261822,10.965 7.24919356,11.608 7.14439904,11.526 C6.95535794,11.781 6.81871411,11.715 6.71289219,11.46 C6.72933055,11.453 6.7467963,11.449 6.76117986,11.44 C6.76939904,11.435 6.77350863,11.422 6.77967301,11.412 C6.76117986,11.432 6.74268671,11.452 6.72419356,11.471 C6.40056342,11.595 5.98241274,11.588 5.73481,11.454 C5.78104287,11.44 5.87864561,11.456 5.79131685,11.364 C5.77590589,11.397 5.76049493,11.43 5.74508397,11.464 C5.64953602,11.418 5.55398808,11.372 5.45844013,11.327 C5.44919356,11.312 5.43994698,11.298 5.42967301,11.284 C5.42248123,11.277 5.41323465,11.271 5.40604287,11.265 L5.46871411,11.316 C5.51391959,11.554 5.34850863,11.651 5.1697415,11.738 C5.22008397,11.432 4.93754972,11.34 4.78241274,11.166 C4.69713876,11.071 4.62933055,11.125 4.56563192,11.187 C4.46289219,11.286 4.34371411,11.335 4.1978237,11.309 L4.20296068,11.314 C4.16802918,11.246 4.20398808,11.136 4.06528945,11.133 C3.73652233,11.126 3.43035794,11.409 3.08104287,11.205 C3.0327552,11.176 2.96494698,11.236 2.92693329,11.305 C2.80467301,11.534 2.70090589,11.6 2.6228237,11.273 C2.59611137,11.165 2.46254972,11.175 2.40296068,11.246 C2.34439904,11.319 2.31357712,11.37 2.19850863,11.358 C2.00946753,11.337 1.77933055,11.635 1.65707027,11.41 C1.55638534,11.225 1.60467301,10.914 1.78344013,10.731 C2.01049493,10.498 1.94987849,10.923 2.10604287,10.896 L2.0947415,10.885 C2.14713876,10.944 2.04645383,11.138 2.25398808,11.056 C2.29405657,11.041 2.3207689,10.99 2.36083739,10.978 C2.70809767,10.877 2.44611137,10.741 2.38446753,10.616 L2.38344013,10.618 C2.65261822,10.679 2.6967963,10.3 2.95570041,10.34 C3.00707027,10.43 2.78823465,10.489 2.92487849,10.587 C2.93720726,10.596 2.97419356,10.594 2.98652233,10.583 C3.10261822,10.483 3.05433055,10.41 2.94131685,10.35 C2.89611137,10.238 2.76357712,10.136 2.89508397,10.001 C2.72145383,9.884 2.6197415,10.153 2.45330315,10.078 C2.4337826,10.069 2.40809767,10.072 2.38549493,10.07 L2.39063192,10.074 C2.34234424,10.027 2.29405657,9.979 2.2457689,9.932 L2.24987849,9.936 C2.15330315,9.747 2.5467963,9.532 2.21905657,9.355 C2.32385109,9.126 2.48309767,9.119 2.67624835,9.249 C2.69165931,9.263 2.70707027,9.278 2.72248123,9.292 C2.70296068,9.281 2.68446753,9.27 2.66597438,9.259 C2.81494698,8.894 2.70193329,8.448 3.03994698,8.137 C3.11289219,8.071 3.06049493,7.983 2.98241274,7.915 C2.76460452,7.729 2.76768671,7.726 3.1077552,7.616 C3.11494698,7.629 3.12316616,7.642 3.13035794,7.656 C3.12008397,7.645 3.10981,7.635 3.09850863,7.624 C3.20535794,7.256 2.89713876,7.277 2.68549493,7.207 L2.69165931,7.213 C2.59611137,7.024 2.40707027,7.121 2.26220726,7.079 C2.26220726,7.03 2.26220726,6.98 2.26220726,6.93 C2.2827552,6.923 2.30433055,6.917 2.3207689,6.906 C2.33001548,6.898 2.33309767,6.881 2.33823465,6.868 C2.31665931,6.893 2.29611137,6.918 2.27453602,6.943 C2.20570041,6.945 2.13789219,6.943 2.07008397,6.949 C2.02693329,6.953 1.94987849,6.966 1.94885109,6.98 C1.94063192,7.066 2.0197415,7.048 2.07111137,7.055 C2.13789219,7.064 2.2077552,7.063 2.27556342,7.066 C2.53549493,7.306 2.20056342,7.687 2.48617986,7.925 C2.48926205,7.927 2.42864561,8.012 2.42659082,8.011 C2.10809767,7.83 1.70535794,8.26 1.41563192,7.88 C1.47316616,7.847 1.53686479,7.823 1.58617986,7.781 C1.63446753,7.739 1.67145383,7.673 1.5728237,7.645 C1.54508397,7.637 1.48138534,7.673 1.46905657,7.702 C1.44337164,7.76 1.44131685,7.828 1.42898808,7.892 C1.11152233,7.997 0.785837398,8.087 0.47761822,8.213 C0.299878494,8.285 0.18481,8.12 0.0296730146,8.156 L0.0101524667,8.139 C-0.0494365744,7.91 0.168371644,7.839 0.27111137,7.701 C0.445768905,7.466 0.613234658,7.228 0.452960685,6.919 L0.44371411,6.928 C0.495083973,6.88 0.546453836,6.831 0.596796302,6.782 L0.586522329,6.793 C0.710837398,6.784 0.823851096,6.8 0.877275754,6.931 C0.854673014,6.935 0.831042877,6.935 0.812549726,6.945 C0.801248357,6.951 0.800220959,6.973 0.794056576,6.989 C0.817686713,6.966 0.842344247,6.943 0.865974384,6.92 C1.10022096,7.053 1.28515246,7.03 1.55227575,6.899 C1.98583739,6.684 2.48926205,6.531 2.93823465,6.938 C2.98549493,6.981 3.07590589,7.041 3.10981,7.024 C3.23515246,6.961 3.11802918,6.872 3.09645383,6.807 C3.03481,6.62 3.04405657,6.503 3.28960452,6.527 C3.40159082,6.538 3.54850863,6.487 3.61631685,6.587 C3.91117986,7.023 4.13617986,6.702 4.37761822,6.534 C4.40535794,6.558 4.38070041,6.676 4.47213876,6.585 C4.43720726,6.572 4.40227575,6.558 4.36631685,6.546 C4.32213876,6.18 4.52556342,5.82 4.37145383,5.446 C4.31597438,5.309 4.4207689,5.159 4.58207027,5.18 C5.05467301,5.24 5.26631685,4.913 5.51494698,4.631 C5.52111137,4.677 5.49542644,4.76 5.59713876,4.699 L5.50364561,4.641 C5.48104287,4.486 5.71939904,4.54 5.71631685,4.36 C5.71220726,4.105 5.86117986,4.265 5.97419356,4.296 C6.02042644,4.308 6.06049493,4.2 5.98857712,4.156 C5.84165931,4.064 5.68446753,3.993 5.5087826,4.1 C5.49953602,4.082 5.49439904,4.061 5.48207027,4.045 C5.47487849,4.036 5.45844013,4.033 5.44713876,4.027 C5.4717963,4.048 5.49542644,4.068 5.52008397,4.088 C5.52522096,4.209 5.49748123,4.312 5.36700178,4.36 L5.37727575,4.37 C5.28481,4.214 5.08549493,4.215 4.96323465,4.102 L4.93960452,4.075 C5.01768671,3.879 5.19850863,3.771 5.34234424,3.633 C5.4707689,3.509 5.58172781,3.54 5.66391959,3.691 C5.62796068,3.71 5.52624835,3.686 5.60227575,3.779 C5.6197415,3.745 5.63515246,3.712 5.65159082,3.678 C5.85809767,3.633 6.02248123,3.154 6.27727575,3.622 C6.51049493,3.508 6.75090589,3.404 6.97385109,3.273 C7.04885109,3.229 7.05707027,3.1 6.96049493,3.047 C6.85159082,2.987 6.81254972,2.921 6.78583739,2.799 C6.75193329,2.641 7.02419356,2.588 6.92248123,2.521 C6.76939904,2.419 6.56597438,2.467 6.43138534,2.628 C6.40261822,2.661 6.38309767,2.702 6.35844013,2.739 L6.3697415,2.73 C6.28241274,2.736 6.19405657,2.743 6.10570041,2.75 L6.06563192,2.717 C6.17967301,2.484 6.27830315,2.245 6.62967301,2.295 C6.72316616,2.309 6.83001548,2.225 6.93070041,2.186 C6.93891959,2.204 6.94508397,2.224 6.95741274,2.241 C6.96460452,2.25 6.98104287,2.253 6.99337164,2.258 C6.96871411,2.238 6.94302918,2.218 6.91837164,2.198 C6.98309767,2.007 7.11768671,2.019 7.22248123,2.135 C7.35707027,2.283 7.48549493,2.255 7.63446753,2.189 C7.67967301,2.234 7.58515246,2.362 7.71665931,2.339 C7.74234424,2.334 7.67659082,2.236 7.62111137,2.2 C7.6457689,2.073 7.78446753,1.958 7.84816616,2.005 C8.18926205,2.254 8.32693329,2.026 8.47590589,1.791 L8.46563192,1.8 C8.66083739,1.861 8.61871411,1.97 8.52522096,2.088 C8.45844013,2.173 8.38960452,2.258 8.3217963,2.342 L8.33207027,2.333 C8.28070041,2.347 8.21700178,2.359 8.23754972,2.429 C8.2447415,2.453 8.29816616,2.464 8.33104287,2.481 L8.3197415,2.469 C8.36700178,2.608 8.41939904,2.566 8.4707689,2.472 L8.46357712,2.479 C8.64028945,2.5 8.80261822,2.329 8.98652233,2.442 C9.00707027,2.462 9.02556342,2.482 9.04302918,2.505 L7.89234424,3.162 C7.89337164,3.068 7.89542644,2.973 7.89645383,2.878 C7.91802918,2.87 7.94165931,2.866 7.95912507,2.853 C7.96837164,2.846 7.96837164,2.826 7.97248123,2.812 C7.95193329,2.838 7.93035794,2.864 7.9087826,2.89 C7.69508397,2.839 7.52659082,2.97 7.33754972,3.021 C7.32830315,3.002 7.32213876,2.979 7.3087826,2.963 C7.30159082,2.953 7.28207027,2.952 7.26768671,2.948 C7.29439904,2.968 7.32213876,2.989 7.34987849,3.01 C7.47727575,3.272 7.72487849,3.087 7.90570041,3.151 C7.9478237,3.334 8.10398808,3.482 8.2478237,3.384 C8.49337164,3.215 8.63926205,3.277 8.81083739,3.456 C8.84987849,3.496 8.94850863,3.534 8.97419356,3.437 C9.06665931,3.092 9.38617986,3.264 9.58857712,3.172 L9.57522096,3.161 C9.84131685,3.374 10.1639196,3.337 10.4711114,3.338 C11.0084402,3.34 11.5293306,3.111 12.0861799,3.29 C12.3430292,3.372 12.5074128,3.174 12.5330977,2.907 L12.5197415,2.919 C12.6789881,2.94 12.8526182,2.849 12.9964539,2.959 C13.5337826,3.365 14.1378922,3.364 14.7738511,3.286 C15.0358374,3.254 15.3132347,3.309 15.580358,3.341 C16.2584402,3.424 16.935495,3.528 17.5632347,3.145 C17.6310429,3.104 17.6926867,3.138 17.7584402,3.144 C17.9834402,3.166 18.1940566,3.313 18.4128922,3.014 C18.5341251,2.849 18.8978237,3.003 19.0991936,3.119 C19.2543306,3.208 19.3170018,3.168 19.4557004,3.119 C20.1461114,2.878 20.820084,2.56 21.580358,2.572 C21.6810429,2.574 21.7622073,2.592 21.7807004,2.705 C21.7447415,2.727 21.7087826,2.748 21.6728237,2.769 C21.7077552,2.791 21.7426867,2.814 21.7786456,2.836 C21.7920018,2.848 21.8043306,2.861 21.8176867,2.873 C21.800221,2.865 21.7827552,2.856 21.7642621,2.847 C21.7652895,2.796 21.7652895,2.744 21.7663169,2.693 C21.939947,2.682 22.1279607,2.707 22.2851525,2.652 C22.5142621,2.572 22.53481,2.747 22.6221388,2.85 C22.6067278,2.865 22.5913169,2.879 22.5748785,2.893 L22.6108374,2.838 C22.7639196,2.718 22.8769333,2.472 23.1255635,2.606 C23.3628922,2.734 23.5231662,2.581 23.7091251,2.513 C23.7985087,2.48 24.4498785,2.336 24.5351525,2.374 C24.6471388,2.424 24.7293306,2.439 24.8536456,2.383 C25.3550155,2.155 25.4084402,2.139 25.7474813,2.58 C25.9817278,2.885 25.9406319,2.683 26.0166593,2.519 C26.0711114,2.4 26.0967963,2.184 26.364947,2.407 C26.5683717,2.575 26.900221,2.544 27.0861799,2.245 C27.205358,2.051 27.3707689,2.015 27.554673,2.149 C27.8187141,2.341 28.23481,2.194 28.4423443,2.55 C28.475221,2.607 28.7824128,2.599 28.9313854,2.437 C29.0135772,2.348 29.1389196,2.34 29.20981,2.484 C29.1389196,2.503 29.1235087,2.522 29.1646045,2.528 C29.1728237,2.529 29.1861799,2.491 29.1974813,2.471 C29.4738511,2.405 29.7430292,2.21 30.0368648,2.449 C30.0985087,2.5 30.2464539,2.49 30.2793306,2.398 C30.4170018,2.005 30.5824128,2.091 30.8464539,2.305 C30.9491936,2.389 31.1875498,2.281 31.3601525,2.364 C31.3981662,2.383 31.4865224,2.335 31.5327552,2.296 C31.7711114,2.093 31.7690566,2.09 32.010495,2.219 C31.9920018,2.382 32.080358,2.51 32.1522758,2.644 C32.0793306,2.656 31.989947,2.6 31.9375498,2.694 C31.9365224,2.697 31.9735087,2.729 31.9807004,2.725 C32.0361799,2.697 32.0885772,2.663 32.1420018,2.631 C32.3834402,2.4 32.1933717,2.314 32.000221,2.229 C32.1337826,2.022 32.2570703,2.143 32.3865224,2.236 C32.4933717,2.312 32.6094676,2.415 32.7122073,2.227 L32.6998785,2.238 C32.8272758,2.145 32.9505635,2.05 33.0800155,1.961 C33.1313854,1.925 33.200221,1.875 33.2495361,1.961 C33.4776182,2.366 33.795084,2.224 34.1115224,2.098 C34.1259059,2.145 34.1084402,2.247 34.2080977,2.153 C34.1731662,2.137 34.1372073,2.123 34.1022758,2.108 C34.2317278,1.994 34.2214539,1.785 34.3930292,1.701 L34.3837826,1.69 C34.4043306,1.769 34.454673,1.819 34.5368648,1.84 L34.5235087,1.831 C34.5748785,1.949 34.6765908,1.967 34.7926867,1.969 C34.9447415,1.973 35.1039881,1.961 35.2139196,2.098 C35.1800155,2.123 35.13481,2.14 35.1142621,2.173 C35.0875498,2.217 34.9971388,2.263 35.05981,2.315 C35.1163169,2.362 35.1769333,2.301 35.2077552,2.245 C35.2283032,2.209 35.2313854,2.164 35.2416593,2.123 C35.3659744,2.128 35.4666593,2.093 35.5170018,1.971 L35.504673,1.983 C35.6022758,1.985 35.6988511,1.986 35.7964539,1.987 L35.7830977,1.975 C35.7009059,2.404 35.7543306,2.455 36.210495,2.393 L36.2022758,2.387 C36.280358,2.495 36.3656319,2.644 36.5125498,2.597 C36.6646045,2.548 36.6019333,2.37 36.6235087,2.246 C36.6317278,2.203 36.6317278,2.158 36.6358374,2.114 L36.6255635,2.125 C36.6748785,2.127 36.7241936,2.127 36.7745361,2.128 L36.7622073,2.116 C36.8443991,2.363 37.250221,2.133 37.2830977,2.451 C37.4330977,2.336 37.6519333,2.521 37.8060429,2.284 C38.0289881,1.943 38.0639196,1.966 38.4111799,2.177 C38.4676867,2.212 38.5313854,2.237 38.5920018,2.265 C38.6012484,2.285 38.6063854,2.308 38.6197415,2.325 C38.6269333,2.333 38.6474813,2.332 38.6618648,2.335 C38.6680292,2.288 38.6402895,2.269 38.5807004,2.277 C38.7913169,1.88 39.1591251,1.986 39.4868648,2.029 C39.7375498,2.061 39.9769333,2.135 40.1392621,1.866 L40.1259059,1.876 C40.2245361,1.876 40.3221388,1.877 40.4207689,1.877 L40.4094676,1.868 C40.5656319,2.041 40.7474813,2.119 40.9776182,2.01 C41.0135772,1.993 41.0474813,1.971 41.0824128,1.952 C41.2447415,2.316 41.5683717,2.102 41.820084,2.147 C41.8190566,2.197 41.8190566,2.246 41.8190566,2.296 C41.8015908,2.301 41.7830977,2.304 41.7687141,2.313 C41.7594676,2.319 41.7563854,2.333 41.750221,2.344 L41.8077552,2.284 C41.9135772,2.242 41.910495,2.199 41.8077552,2.157 C41.8385772,2.126 41.8817278,2.063 41.900221,2.069 C42.3368648,2.217 42.3358374,2.218 42.8783032,2.071 C42.9440566,2.053 43.0139196,2.046 43.0807004,2.034 L43.0683717,2.021 C43.0375498,2.172 42.9872073,2.323 42.9872073,2.473 C42.9872073,2.536 43.089947,2.644 43.1567278,2.654 C43.314947,2.676 43.2676867,2.561 43.229673,2.483 C43.154673,2.329 43.2307004,2.175 43.2214539,2.022 L43.2091251,2.036 C43.260495,1.987 43.3118648,1.937 43.3632347,1.887 L43.3539881,1.897 C43.5841251,1.803 43.5789881,1.806 43.7125498,2.032 C43.7536456,2.103 43.8204265,2.166 43.920084,2.162 C43.9344676,2.229 43.8820703,2.333 44.0094676,2.334 C44.0217963,2.334 44.0351525,2.222 44.0474813,2.163 C44.1224813,2.148 44.225221,2.182 44.2437141,2.072 C44.2478237,2.048 44.1913169,1.988 44.1676867,1.99 C44.0505635,2.002 44.0947415,2.112 44.0618648,2.176 L43.90981,2.173 C43.9283032,2.063 43.914947,1.931 43.9745361,1.849 C44.064947,1.725 44.2334402,1.762 44.3628922,1.792 C44.4954265,1.822 44.6259059,1.885 44.7430292,1.956 C45.1221388,2.188 45.48481,2.301 45.8978237,1.995 C46.1536456,1.805 46.4639196,2.135 46.7659744,1.983 C46.8122073,1.959 46.9426867,2.112 47.0166593,1.909 C47.0731662,1.755 47.2416593,1.811 47.3824128,1.841 C47.4913169,1.864 47.5693991,2.117 47.7009059,1.912 C47.7964539,1.763 48.0491936,1.627 47.8262484,1.391 C47.7861799,1.348 47.7830977,1.273 47.7635772,1.213 C47.8478237,1.201 47.9320703,1.187 48.0163169,1.177 C48.1283032,1.164 48.2012484,1.234 48.2269333,1.319 C48.3584402,1.758 48.7406319,1.499 48.9974813,1.561 C49.0827552,1.581 49.2738511,1.347 49.180358,1.137 C49.1423443,1.055 49.0858374,0.979 49.0560429,0.895 C48.9861799,0.699 49.1187141,0.287 49.2769333,0.249 C49.4731662,0.201 49.5327552,0.401 49.6498785,0.492 C49.7176867,0.546 49.7536456,0.637 49.8039881,0.711 L49.8152895,0.7 C49.6724813,1.123 49.6724813,1.141 50.0505635,1.156 C50.3063854,1.166 50.4687141,1.289 50.6197415,1.459 C50.835495,1.701 51.0800155,1.729 51.3491936,1.543 L51.3378922,1.532 C51.5310429,1.758 51.6471388,1.628 51.7118648,1.436 C51.735495,1.367 51.6430292,1.267 51.6471388,1.183 C51.6533032,1.078 51.4488511,0.918 51.6974813,0.871 C51.8670018,0.84 52.105358,0.788 52.1608374,1.021 C52.2214539,1.28 52.314947,1.293 52.5882347,1.339 C52.9673443,1.404 53.3402895,1.412 53.7152895,1.447 C53.7717963,1.452 53.8221388,1.52 53.8745361,1.559 C53.8580977,1.574 53.8416593,1.589 53.825221,1.604 C53.8375498,1.585 53.8498785,1.566 53.8632347,1.547 C54.2166593,1.311 54.6019333,1.425 54.9779607,1.458 C55.0663169,1.467 55.030358,1.565 55.0519333,1.622 C55.1279607,1.827 55.3015908,1.87 55.4135772,1.7 C55.5666593,1.467 55.7526182,1.489 55.9467963,1.566 C56.1327552,1.639 56.305358,1.637 56.4841251,1.581 C57.1920018,1.361 57.9091251,1.405 58.6231662,1.529 C58.9365224,1.583 59.1913169,1.607 59.4286456,1.326 C59.6330977,1.082 60.0039881,1.216 60.2834402,1.091 C60.4313854,1.024 60.5957689,1.046 60.5423443,0.813 C60.5289881,0.756 60.6101525,0.697 60.6861799,0.713 C60.7241936,0.721 60.7878922,0.78 60.7817278,0.796 C60.6625498,1.116 60.8947415,1.241 61.1207689,1.344 C61.4341251,1.485 61.7536456,1.805 62.0957689,1.384 C62.4091251,1.395 62.73481,1.336 63.0317278,1.362 C63.6882347,1.417 64.3293306,1.357 64.9519333,1.215 C65.3279607,1.129 65.6187141,1.338 65.9608374,1.33 C66.1241936,1.326 66.275221,1.352 66.4241936,1.257 C66.5217963,1.195 66.6420018,1.155 66.6245361,1.016 C66.5916593,0.76 66.4231662,0.942 66.3152895,0.933 C65.895084,0.897 66.3265908,0.65 66.2115224,0.539 L66.1991936,0.552 C66.3245361,0.558 66.4437141,0.553 66.4889196,0.408 L66.4776182,0.419 C66.5269333,0.414 66.5772758,0.41 66.6276182,0.406 C66.6697415,0.515 66.7139196,0.509 66.7601525,0.408 C66.7889196,0.386 66.9029607,0.421 66.8176867,0.324 C66.8022758,0.356 66.7868648,0.388 66.7704265,0.42 C66.7190566,0.419 66.6676867,0.419 66.6163169,0.418 C66.5443991,0.163 66.8783032,0.182 66.9142621,0 L66.9019333,0.012 C67.0077552,0.087 67.1567278,0.13 67.0724813,0.315 C67.0087826,0.457 66.9522758,0.607 66.9245361,0.76 C66.885495,0.97 67.0375498,1.139 67.2039881,1.167 C67.4238511,1.204 67.4238511,1.039 67.3745361,0.855 C67.330358,0.693 67.5019333,0.712 67.6057004,0.686 C67.6128922,0.705 67.6170018,0.726 67.6283032,0.741 C67.6344676,0.75 67.6539881,0.75 67.6683717,0.755 C67.6437141,0.735 67.6190566,0.716 67.5954265,0.697 C67.7567278,0.5 67.9714539,0.624 67.9426867,0.753 C67.8872073,1.013 68.0063854,1.326 68.1276182,1.316 C68.4995361,1.285 68.7789881,1.635 69.1827552,1.463 C69.7128922,1.236 70.245084,1.351 70.9930292,1.401 C71.504673,1.436 71.8231662,1.637 72.1868648,1.917 C72.4139196,2.092 72.7591251,2.073 73.014947,1.881 C73.1207689,1.802 73.1690566,1.643 73.3385772,1.76 C73.5009059,1.873 73.3693991,1.934 73.2851525,2.001 C73.5245361,2.083 73.620084,2.385 73.9139196,2.39 C73.9498785,2.391 74.1533032,2.358 74.0094676,2.497 C73.7361799,2.761 74.0156319,2.941 74.0834402,3.154 C74.1009059,3.207 74.3022758,3.199 74.1420018,3.301 C74.1039881,3.325 74.0084402,3.29 73.9529607,3.26 C73.8748785,3.217 73.8666593,3.017 73.7094676,3.162 C73.6128922,3.252 73.5995361,3.338 73.6961114,3.45 C73.8882347,3.672 73.5810429,3.575 73.5471388,3.657 C73.4711114,3.533 73.3467963,3.529 73.2173443,3.493 C73.0365224,3.444 72.8875498,3.207 72.9697415,3.645 C73.0159744,3.89 72.7272758,4.126 72.4755635,4.278 C72.4683717,4.256 72.4663169,4.232 72.4539881,4.215 C72.4467963,4.204 72.425221,4.203 72.40981,4.198 C72.435495,4.22 72.4622073,4.243 72.4889196,4.265 C72.4580977,4.323 72.3872073,4.398 72.404673,4.438 C72.5988511,4.893 72.135495,5.13 72.0471388,5.489 C72.0214539,5.59 71.9269333,5.615 71.8324128,5.624 C71.7872073,5.628 71.7389196,5.629 71.6957689,5.619 C71.2981662,5.529 70.9015908,5.435 70.5050155,5.343 C70.5378922,5.321 70.6539881,5.355 70.5666593,5.254 C70.550221,5.287 70.5327552,5.321 70.5163169,5.354 C70.4474813,5.348 70.3776182,5.333 70.3087826,5.339 C69.9009059,5.375 69.85981,5.43 69.9224813,5.829 C69.939947,5.94 69.9420018,6.052 69.950221,6.164 C69.7858374,6.296 69.7622073,6.429 69.945084,6.566 C69.9533032,6.583 69.9584402,6.603 69.9707689,6.617 C69.9769333,6.626 69.9943991,6.627 70.0067278,6.631 C69.9820703,6.613 69.9584402,6.594 69.9337826,6.576 C69.9358374,6.435 69.9368648,6.294 69.9378922,6.153 C70.2204265,6.241 70.3344676,6.447 70.3539881,6.719 L70.3673443,6.702 C70.2779607,6.715 70.2265908,6.764 70.2122073,6.851 L70.2224813,6.839 C69.9440566,6.845 69.9080977,7.091 69.789947,7.256 L69.8022758,7.244 C69.6707689,7.285 69.5382347,7.322 69.4087826,7.367 C69.3173443,7.4 69.1909744,7.233 69.1283032,7.415 C69.3615224,7.452 69.0872073,7.771 69.3440566,7.79 C69.5495361,7.804 69.6902895,7.9 69.7837826,8.073 L69.7940566,8.063 C69.5896045,8.178 69.3861799,8.297 69.2341251,8.48 C69.2033032,8.501 69.0923443,8.469 69.1724813,8.565 L69.2238511,8.47 C69.414947,8.947 69.4036456,8.932 69.060495,9.182 C68.7995361,9.372 68.5467963,9.563 68.2344676,9.67 C68.1841251,9.687 68.1327552,9.768 68.1276182,9.824 C68.1163169,9.95 68.2283032,9.95 68.3176867,9.955 C68.804673,9.982 69.2916593,10.026 69.779673,9.984 L69.7693991,9.969 C69.875221,10.219 69.4426867,10.392 69.6676867,10.659 C69.7077552,10.707 69.6954265,10.76 69.6430292,10.759 C69.2433717,10.755 69.2577552,11.142 69.0656319,11.332 L69.0759059,11.342 C68.9320703,11.182 68.7861799,11.111 68.6382347,11.339 L68.6505635,11.327 C68.5622073,11.345 68.4615224,11.343 68.3885772,11.385 C68.1307004,11.533 67.9036456,11.8 67.5738511,11.495 C67.5070703,11.433 67.4125498,11.521 67.3324128,11.565 C67.0889196,11.699 66.8670018,11.654 66.6769333,11.454 C66.6913169,11.438 66.7067278,11.423 66.7211114,11.406 C66.7108374,11.427 66.6995361,11.446 66.6892621,11.466 C66.5505635,11.462 66.4211114,11.474 66.3009059,11.562 C66.2043306,11.631 66.1118648,11.696 66.125221,11.822 C66.1385772,11.965 66.25981,11.96 66.3707689,11.994 C66.8300155,12.135 66.8433717,12.175 66.6533032,12.586 C66.6163169,12.666 66.5731662,12.743 66.5330977,12.822 L66.5474813,12.812 C66.3985087,12.849 66.1920018,12.725 66.10981,12.956 L66.1221388,12.945 C66.0420018,13.022 65.9711114,13.114 65.8786456,13.171 C65.6957689,13.284 65.4717963,13.236 65.2704265,13.27 C65.0166593,13.313 65.0988511,13.6 64.8666593,13.638 C64.5584402,13.688 64.3313854,13.87 64.1834402,14.158 C64.1156319,14.289 63.9522758,14.335 63.8772758,14.137 C63.7652895,13.845 63.5659744,13.768 63.2474813,13.733 C62.8272758,13.687 62.4265908,13.427 61.9930292,13.69 C61.9611799,13.709 61.8830977,13.707 61.8635772,13.685 C61.7762484,13.582 61.7176867,13.45 61.6180292,13.362 C61.464947,13.226 61.4146045,13.557 61.2522758,13.46 C61.1351525,13.389 61.025221,13.3 60.8978237,13.255 C60.6533032,13.168 60.4334402,13.019 60.179673,13.348 C60.0574128,13.505 59.6967963,13.524 59.5170018,13.733 L59.5272758,13.722 C59.2807004,13.701 59.0988511,13.985 58.8841251,13.914 C58.6622073,13.841 58.6539881,13.538 58.5183717,13.371 C58.3735087,13.192 58.0868648,13.201 57.8711114,13.247 C57.2947415,13.371 56.7574128,13.737 56.1245361,13.483 C56.0926867,13.47 56.0392621,13.502 55.9971388,13.517 C55.5574128,13.677 55.5430292,13.681 55.4146045,13.209 C55.38481,13.096 55.3981662,12.963 55.2615224,12.959 C55.1279607,12.955 54.9985087,13.029 54.9337826,13.164 C54.9245361,13.184 54.9245361,13.209 54.9214539,13.231 C54.8885772,13.449 54.9245361,13.751 54.6265908,13.774 C54.3584402,13.795 54.3255635,13.467 54.1755635,13.306 C54.0666593,13.19 54.0091251,13.022 53.8889196,12.925 C53.7327552,12.8 53.7019333,12.483 53.4687141,12.535 C53.2868648,12.575 53.3906319,12.862 53.2909744,13.019 C53.220084,13.133 53.1995361,13.295 53.0557004,13.343 C52.7567278,13.444 52.6437141,13.694 52.5132347,13.933 C52.4567278,14.035 52.4022758,14.144 52.2882347,14.182 C52.1207689,14.239 51.960495,14.427 51.7765908,14.295 C51.6276182,14.189 51.5228237,13.999 51.5783032,13.816 C51.6779607,13.49 51.7067278,13.195 51.4488511,12.925 C51.4241936,12.9 51.4365224,12.84 51.435495,12.795 C51.4262484,12.372 51.3861799,12.333 51.0245361,12.498 C50.6967963,12.648 50.3248785,12.747 50.2190566,13.18 C50.1738511,13.362 49.9724813,13.449 49.7608374,13.33 C49.4957689,13.18 49.2378922,13.34 49.1557004,13.502 C48.9974813,13.817 48.7324128,13.858 48.4539881,13.917 C48.3933717,13.929 48.3224813,13.894 48.2557004,13.881 C48.2988511,13.834 48.3461114,13.79 48.3841251,13.74 C48.4683717,13.631 48.5567278,13.525 48.6265908,13.409 C48.8187141,13.094 48.7272758,12.78 48.3687141,12.627 C48.2166593,12.561 48.2094676,12.737 48.1765908,12.838 L48.1868648,12.828 C47.7779607,13.008 47.3885772,13.218 47.054673,13.514 C47.0033032,13.469 46.9878922,13.326 46.8738511,13.45 C46.9375498,13.468 47.0012484,13.484 47.0659744,13.501 C47.1060429,14.004 46.9457689,14.243 46.5543306,14.346 C46.379673,14.392 46.2759059,14.351 46.2255635,14.212 C46.185495,14.102 46.035495,13.992 46.1844676,13.85 C46.2830977,13.757 46.3817278,13.656 46.4485087,13.541 C46.5142621,13.428 46.4259059,13.323 46.3570703,13.235 C46.2728237,13.128 46.1885772,13.214 46.1300155,13.268 C45.9574128,13.427 45.8731662,13.028 45.6769333,13.217 C45.5505635,13.338 45.3625498,13.401 45.1971388,13.481 C45.0943991,13.531 44.9865224,13.576 44.8765908,13.606 C44.3330977,13.753 43.7577552,13.838 43.4454265,14.391 C43.4115224,14.451 43.260495,14.513 43.2122073,14.488 C43.0570703,14.406 43.2748785,14.302 43.2245361,14.202 C43.1937141,14.141 43.1587826,14.083 43.1248785,14.024 C43.1762484,14.007 43.2851525,14.024 43.1885772,13.921 C43.170084,13.958 43.1515908,13.995 43.1330977,14.031 C43.100221,14.002 43.0488511,13.977 43.0375498,13.941 C42.885495,13.49 42.8639196,13.471 42.5289881,13.734 C42.3440566,13.88 42.2238511,14.038 41.9721388,13.807 C41.8139196,13.661 41.6300155,13.852 41.4625498,13.907 C41.0628922,14.04 41.0680292,14.019 40.7813854,13.692 C40.6005635,13.485 40.5687141,13.19 40.2409744,13.05 C40.0313854,12.959 39.9461114,13.288 39.7447415,13.073 C39.6378922,12.958 39.3779607,12.895 39.1663169,12.966 C39.0440566,13.007 38.8693991,13.047 39.0728237,13.22 C39.0861799,13.232 38.9608374,13.311 38.9012484,13.263 C38.6259059,13.045 38.43481,12.801 38.4461114,12.414 C38.4512484,12.276 38.654673,12.057 38.3762484,11.945 L38.3844676,11.956 C38.3906319,11.879 38.5139196,11.784 38.4101525,11.734 C38.3012484,11.68 38.2868648,11.809 38.2601525,11.885 C38.2519333,11.905 38.2478237,11.927 38.2426867,11.948 L38.2396045,11.951 C38.1902895,11.997 38.1409744,12.043 38.0926867,12.089 L38.1039881,12.077 C38.0238511,12.127 37.9889196,12.177 38.1039881,12.228 L38.0926867,12.219 C38.1574128,12.385 38.2324128,12.548 38.2807004,12.718 C38.3207689,12.859 38.3495361,13.122 38.2704265,13.13 C38.05981,13.153 37.8214539,13.407 37.60981,13.115 C37.5091251,12.975 37.3611799,12.97 37.1824128,12.99 C36.8259059,13.028 36.4961114,13.225 36.1036456,13.116 C35.9577552,13.075 35.9084402,13.397 35.7050155,13.426 L35.7173443,13.438 C35.5961114,13.284 35.4522758,13.253 35.3115224,13.398 C35.1163169,13.598 34.9262484,13.613 34.7207689,13.421 C34.7402895,13.416 34.7628922,13.414 34.7783032,13.404 C34.7885772,13.397 34.7906319,13.378 34.7957689,13.365 C34.7741936,13.387 34.7526182,13.409 34.7320703,13.431 C34.4382347,13.503 34.3807004,13.816 34.15981,13.961 L34.170084,13.972 C34.0550155,13.835 33.9029607,13.75 33.8238511,13.968 C33.704673,14.292 33.4663169,14.536 33.2926867,14.823 C33.1704265,15.027 32.9967963,15.176 32.8971388,14.787 C32.8652895,14.659 32.7769333,14.702 32.6865224,14.739 C32.5724813,14.784 32.5026182,14.857 32.439947,14.959 C32.2735087,15.233 32.0783032,15.117 31.9560429,14.938 C31.8533032,14.785 31.7402895,14.647 31.6067278,14.524 C31.5430292,14.465 31.4330977,14.371 31.3837826,14.391 C30.7714539,14.631 30.9193991,14.131 30.8300155,13.864 C30.8228237,13.842 30.8166593,13.821 30.8094676,13.799 L30.800221,13.812 C31.0139196,13.686 31.2389196,13.555 31.2255635,13.274 C31.2152895,13.054 31.4690566,13.028 31.5019333,12.852 C31.5522758,12.852 31.6026182,12.853 31.6519333,12.853 C31.6683717,12.867 31.6837826,12.882 31.700221,12.896 C31.6807004,12.885 31.6601525,12.874 31.6406319,12.864 C31.6416593,12.798 31.6488511,12.732 31.6416593,12.667 C31.635495,12.614 31.6437141,12.533 31.5522758,12.554 C31.5286456,12.56 31.5091251,12.627 31.5060429,12.667 C31.5009059,12.732 31.5111799,12.799 31.5152895,12.865 C31.2152895,12.669 31.185495,12.572 31.3765908,12.37 C31.4834402,12.256 31.5204265,12.153 31.3724813,12.046 C31.3560429,12.033 31.3406319,12.02 31.3241936,12.007 C31.3447415,12.016 31.3642621,12.026 31.3837826,12.035 C30.7241936,12.316 30.3810429,12.89 30.0163169,13.442 C29.9402895,13.555 29.8827552,13.679 29.8221388,13.801 C29.7420018,13.96 29.6474813,14.085 29.4615224,13.921 C29.3156319,13.794 29.289947,13.941 29.2067278,14 C29.0988511,14.078 28.9652895,14.15 28.8358374,14.164 C28.5533032,14.197 28.4988511,13.898 28.314947,13.779 C28.1557004,14.006 27.9430292,14.111 27.6594676,14.041 C27.4560429,13.99 27.2587826,13.914 27.1087826,13.769 C26.9433717,13.609 27.0481662,13.441 27.1170018,13.27 C27.1488511,13.192 27.1457689,13.09 27.1283032,13.004 C27.0933717,12.831 26.9505635,12.816 26.8057004,12.84 C26.6577552,12.865 26.6474813,12.95 26.6865224,13.085 C26.7533032,13.312 26.8981662,13.541 26.7327552,13.785 L26.7461114,13.773 C26.4409744,13.73 26.3567278,14.08 26.0639196,14.12 C25.8594676,14.148 25.5471388,14.162 25.4628922,14.463 L25.4731662,14.451 C25.3632347,14.436 25.2461114,14.434 25.1906319,14.313 C25.2389196,14.297 25.3467963,14.318 25.2543306,14.215 C25.23481,14.25 25.2163169,14.285 25.1978237,14.32 C24.8824128,14.4 24.5978237,14.518 24.48481,14.854 C24.4375498,14.992 24.3214539,14.99 24.2033032,14.986 L24.2146045,14.997 C24.2772758,14.593 24.5217963,14.256 24.6543306,13.878 C24.6882347,13.782 24.9265908,13.784 24.8033032,13.654 C24.7087826,13.553 24.5217963,13.439 24.3738511,13.573 C24.2146045,13.718 24.1108374,13.845 23.9341251,13.588 C23.8632347,13.484 23.7378922,13.538 23.6526182,13.645 C23.4666593,13.877 23.2519333,14.075 22.9498785,14.159 L22.9601525,14.17 C22.9108374,14.031 22.8594676,14.069 22.8070703,14.168 L22.8183717,14.157 C22.710495,14.207 22.6704265,14.257 22.8173443,14.307 L22.8070703,14.297 C22.7443991,14.461 22.6827552,14.597 22.4988511,14.379 C22.4505635,14.322 22.335495,14.319 22.250221,14.29 L22.260495,14.301 C22.2080977,14.22 22.1557004,14.135 22.1043306,14.301 L22.1187141,14.289 C21.7519333,14.277 21.7519333,14.277 21.8248785,14.572 L21.8341251,14.559 C21.6635772,14.515 21.4221388,14.737 21.3214539,14.414 C21.2813854,14.286 21.1560429,14.21 21.0255635,14.143 C20.8930292,14.075 20.8015908,14.019 20.664947,14.15 C20.5365224,14.274 20.3351525,14.332 20.2211114,14.464 C19.98481,14.738 19.7279607,14.832 19.3786456,14.702 C19.2974813,14.672 19.1937141,14.703 19.1012484,14.702 C18.8844676,14.701 18.7221388,14.749 18.5690566,14.943 C18.4981662,15.032 18.3923443,14.709 18.2074128,14.689 C18.0029607,14.667 17.7872073,14.66 17.6033032,14.585 C17.2087826,14.424 16.8933717,14.508 16.5481662,14.732 C16.38481,14.839 16.1998785,14.939 16.0211114,15.031 C15.7981662,15.145 15.5443991,15.301 15.3193991,14.992 C15.2474813,14.894 15.104673,14.928 14.9937141,14.976 C14.9259059,15.005 14.8426867,15.015 14.8385772,14.935 C14.825221,14.635 14.5961114,14.562 14.3690566,14.524 C14.0156319,14.464 13.6509059,14.337 13.2974813,14.51 C13.0509059,14.632 12.8197415,14.653 12.5793306,14.511 C12.5341251,14.465 12.4878922,14.419 12.4416593,14.373 C12.4262484,14.361 12.4108374,14.348 12.3943991,14.335 L12.4529607,14.362 C12.4991936,14.408 12.5454265,14.454 12.5906319,14.5 L12.5906319,14.5 Z"/>
    </g>
  </g>
</svg>
