<svg width="100%" height="100%" viewBox="0 0 144 63" version="1.1" xmlns="http://www.w3.org/2000/svg" style="fill: #00FF00; fill-opacity: 0.2;"><path d="M0,15.095l0,32.494c2.896,-2.557 5.778,-5.692 8.638,-8.917c8.926,-10.067 17.701,-15.707 26.884,-15.672c9.258,0.035 18.168,5.772 27.268,15.779c14.368,15.802 29.244,23.611 43.866,23.915c11.934,0.249 24.236,-4.482 36.462,-15.348l-0,-32.478c-2.92,2.612 -5.824,5.319 -8.707,8.703c-9.3,10.603 -18.108,16.319 -27.276,16.128c-9.326,-0.194 -18.164,-6.314 -27.329,-16.393c-14.432,-15.872 -29.514,-23.25 -44.196,-23.306c-11.843,-0.045 -23.898,4.879 -35.61,15.095Z" /></svg>
