<svg viewBox="0 0 371 138" xmlns="http://www.w3.org/2000/svg" fill-rule="evenodd" clip-rule="evenodd" stroke-linejoin="round" stroke-miterlimit="2" class="artMap5"><path d="M243.674 4.692h2.767v.491h36.295l29.734 16.049h6.378v6.455h6.508v6.143h-4.641v7.732h-.004v45.39h50.212l-.138 7.442h-3.695v43.004h-47.859v-.001h-88.312v-.033h-10.528l-.211-61.805c0-9.741-3.962-17.555-12.035-21.606h-9.07v-4.13l-.017.003c-.696.094-1.388.218-2.074.372-1.2.27-2.379.632-3.525 1.078-2.071.805-4.032 1.886-5.829 3.192-1.528 1.111-2.936 2.385-4.199 3.79a27.4465 27.4465 0 00-2.586 3.374 27.3837 27.3837 0 00-1.932 3.514 27.3972 27.3972 0 00-1.853 5.557c-.192.885-.341 1.78-.446 2.679-.057.491-.1.983-.132 1.475l-.001.017h3.383v9.181h-3.436v12.432h-.003v41.324h-13.612v-.375H85.272v-.001H3.404V84.98H-.009l.01-7.484h12.451l29.044-25.225h43.776V41.404h-.002V33.83h-7.381v-6.143h7.842v-6.455h6.67l-.026-.049 29.926-16.001h36.803v-.49h3.645V.011h80.925v4.681zm-10.986 131.105h8.928V42.203h-77.248v94.008h10.457V88.128h.003v-4.073h-9.423v-9.181h9.473l.002-.034a30.39 30.39 0 01.136-1.565c.108-.955.264-1.904.466-2.843a28.9243 28.9243 0 011.936-5.86 28.9757 28.9757 0 012.059-3.765 28.9244 28.9244 0 012.738-3.582c1.354-1.511 2.868-2.88 4.51-4.071 1.949-1.413 4.08-2.576 6.329-3.435 1.231-.469 2.498-.847 3.785-1.127a25.68 25.68 0 012.204-.378l.032-.004v-5.167h10.6v5.349l.024.005c.378.079.754.164 1.129.257.745.185 1.482.399 2.21.64 1.87.621 3.679 1.427 5.389 2.405 2.099 1.201 4.05 2.66 5.787 4.344.961.932 1.857 1.932 2.676 2.992a27.538 27.538 0 012.255 3.422 26.7167 26.7167 0 013.119 9.357c.091.667.158 1.338.2 2.011.022.348.036.696.045 1.044v.005h7.31v9.181h-7.3v51.709h.169v.033zm-69.92-7.488H86.872v7.527h75.896v-7.527zM5.004 135.835h80.268v-4.221H5.004v4.221zm323.604-.037v-4.184h-7.897v4.184h7.897zm9.988 0v-18.642h-8.388v18.642h8.388zm26.894-4.184h-25.294v4.184h25.294v-4.184zm-46.379-3.305h-75.895v7.488h75.895v-7.488zM209.675 50.028v2.921c8.08 4.432 12.105 12.539 12.105 22.607l.205 60.208h8.934V84.055h-5.558v-9.181h5.548c-.326-12.51-9.538-22.282-21.234-24.846zm111.036 44.309v35.677h7.897v-14.458h11.588v14.458h25.294V94.337h-44.779zM5.004 84.965v45.049h80.268V84.965H5.004zm238.212-3.418v45.162h75.895V81.547h-75.895zm-156.344 0v45.162h75.896V81.547H86.872zm-37.113 38.529v4.829h21.892v-4.829H49.759zm-33.206 0v4.829h21.892v-4.829H16.553zm34.806 1.6v1.629h18.692v-1.629H51.359zm-33.206 0v1.629h18.692v-1.629H18.153zm252.515-5.381v4.83h21.891v-4.83h-21.891zm-157.265 0v4.83h21.891v-4.83h-21.891zm1.6 1.6v1.63h18.691v-1.63h-18.691zm157.265 0v1.63h18.691v-1.63h-18.691zM52.36 94.558v24.041h16.825V94.558H52.36zm-33.205 0v24.041H35.98V94.558H19.155zm38.537 18.436v4.005h2.244v-4.005h-2.244zm-23.312 0h-2.146v4.005h2.146v-4.005zm-6.05 0v4.005h2.304v-4.005H28.33zm-3.842 0v4.005h2.242v-4.005h-2.242zm43.097 0h-2.146v4.005h2.146v-4.005zm-44.697 4.005v-4.005h-2.133v4.005h2.133zm33.204 0v-4.005H53.96v4.005h2.132zm5.444-4.005v4.005h2.303v-4.005h-2.303zm54.469-22.218v24.041h16.825V90.776h-16.825zm157.269 0v24.041h16.821V90.776h-16.821zm3.729 22.441v-4.004h-2.129v4.004h2.129zm-145.773-4.004h-2.146v4.004h2.146v-4.004zm-11.493 4.004v-4.004h-2.132v4.004h2.132zm1.6-4.004v4.004h2.244v-4.004h-2.244zm3.844 0v4.004h2.303v-4.004h-2.303zm153.422 0v4.004h2.242v-4.004h-2.242zm3.842 0v4.004h2.304v-4.004h-2.304zm6.05 0h-2.146v4.004h2.146v-4.004zM65.439 107.39v4.003h2.146v-4.003h-2.146zm-11.479 0v4.003h2.132v-4.003H53.96zm-21.726 0v4.003h2.146v-4.003h-2.146zm-11.479 0v4.003h2.133v-4.003h-2.133zm40.781 0v4.003h2.303v-4.003h-2.303zm-3.844 0v4.003h2.244v-4.003h-2.244zm-33.204 0v4.003h2.242v-4.003h-2.242zm3.842 0v4.003h2.304v-4.003H28.33zm89.275-3.78v4.003h2.132v-4.003h-2.132zm160.998 0v4.003h2.242v-4.003h-2.242zm-153.422 0v4.003h2.303v-4.003h-2.303zm-3.844 0v4.003h2.244v-4.003h-2.244zm161.108 0v4.003h2.304v-4.003h-2.304zm-153.361 0v4.003h2.146v-4.003h-2.146zm145.79 0v4.003h2.129v-4.003h-2.129zm11.475 0v4.003h2.146v-4.003h-2.146zm-254.115-1.824v4.004h2.146v-4.004h-2.146zm21.726 0v4.004h2.132v-4.004H53.96zm-25.63 0v4.004h2.304v-4.004H28.33zm33.206 0v4.004h2.303v-4.004h-2.303zm-3.844 0v4.004h2.244v-4.004h-2.244zm-33.204 0v4.004h2.242v-4.004h-2.242zm-3.733 0v4.004h2.133v-4.004h-2.133zm44.684 0v4.004h2.146v-4.004h-2.146zm220.91-3.78v4.003h2.146v-4.003h-2.146zm-11.475 0v4.003h2.129v-4.003h-2.129zm-145.79 0v4.003h2.146v-4.003h-2.146zm-11.479 0v4.003h2.132v-4.003h-2.132zm160.998 0v4.003h2.242v-4.003h-2.242zm3.842 0v4.003h2.304v-4.003h-2.304zm-161.108 0v4.003h2.244v-4.003h-2.244zm3.844 0v4.003h2.303v-4.003h-2.303zm-67.489-1.848v4.028h2.244v-4.028h-2.244zm7.747 0v4.028h2.146v-4.028h-2.146zm-11.479 0v4.028h2.132v-4.028H53.96zm-21.726 0v4.028h2.146v-4.028h-2.146zm-11.479 0v4.028h2.133v-4.028h-2.133zm40.781 0v4.028h2.303v-4.028h-2.303zm-33.206 0v4.028h2.304v-4.028H28.33zm-3.842 0v4.028h2.242v-4.028h-2.242zm257.957-3.782v4.03h2.304v-4.03h-2.304zm-157.264 0v4.03h2.303v-4.03h-2.303zm-3.844 0v4.03h2.244v-4.03h-2.244zm157.266 0v4.03h2.242v-4.03h-2.242zm-160.998 0v4.03h2.132v-4.03h-2.132zm11.479 0v4.03h2.146v-4.03h-2.146zm157.265 0v4.03h2.146v-4.03h-2.146zm-11.475 0v4.03h2.129v-4.03h-2.129zm92.216.361v.057h2.124l.079-4.242h-48.582v4.185h46.379zM85.272 83.364v-4.268H1.599l-.006 4.284h1.811v-.016h81.868zm90.562-.909h2.43v-5.98h-11.259v5.98h7.923c.18-.655.569-.403.906 0zm51.127-5.98v5.98h11.258v-5.98h-11.258zm16.255.459v3.012h75.895v-3.012h-75.895zm-156.344 0v3.012h75.896v-3.012H86.872zM42.094 53.871L14.892 77.496h70.38V53.871H42.094zm277.017 21.463V42.203h-75.895v33.131h75.895zm-156.343 0V42.205H86.872v33.129h75.896zm107.9-9.317v4.83h21.891v-4.83h-21.891zm-157.265 0v4.83h21.891v-4.83h-21.891zm158.865 1.6v1.629h18.691v-1.629h-18.691zm-157.265 0v1.629h18.691v-1.629h-18.691zm1.002-21.121V64.94h16.825V46.496h-16.825zm157.269 0V64.94h16.821V46.496h-16.821zm3.729 16.844v-4.012h-2.129v4.012h2.129zm-157.266 0v-4.012h-2.132v4.012h2.132zm1.6-4.012v4.012h2.244v-4.012h-2.244zm3.844 0v4.012h2.303v-4.012h-2.303zm6.049 0h-2.146v4.012h2.146v-4.012zm147.373 0v4.012h2.242v-4.012h-2.242zm3.842 0v4.012h2.304v-4.012h-2.304zm6.05 0h-2.146v4.012h2.146v-4.012zm-163.314-5.603v4.003h2.303v-4.003h-2.303zm161.168 0v4.003h2.146v-4.003h-2.146zm-11.475 0v4.003h2.129v-4.003h-2.129zm-145.79 0v4.003h2.146v-4.003h-2.146zm-11.479 0v4.003h2.132v-4.003h-2.132zm160.998 0v4.003h2.242v-4.003h-2.242zm3.842 0v4.003h2.304v-4.003h-2.304zm-161.108 0v4.003h2.244v-4.003h-2.244zm79.338-9.082v7.71h7.4v-7.71h-7.4zm-79.338 3.453v4.028h2.244v-4.028h-2.244zm165.012 0v4.028h2.146v-4.028h-2.146zm-11.475 0v4.028h2.129v-4.028h-2.129zm-145.79 0v4.028h2.146v-4.028h-2.146zm-11.479 0v4.028h2.132v-4.028h-2.132zm164.84 0v4.028h2.304v-4.028h-2.304zm-3.842 0v4.028h2.242v-4.028h-2.242zm-153.422 0v4.028h2.303v-4.028h-2.303zm38.387-7.493h155.547V33.83H86.87v6.774h76.698v-.001zM79.489 29.288v2.942h244.267v-2.942H79.489zm7.842-6.456v4.855h229.917v-4.855h-5.095l-.019.037-.068-.037H87.331zm35.371-16.05l-27.025 14.45h67.073V9.981h-3.646V6.782h-36.402zm41.648 3.199v11.251h77.724V9.981H164.35zm82.091-3.198v3.198h-2.767v11.251h65.427L282.332 6.783h-35.891zm-85.737-.49V8.38h84.137V6.293h-84.137zm81.37-1.601V1.611h-77.725v3.081h77.725z"/></svg>