<svg viewBox="0 0 512 385" xmlns="http://www.w3.org/2000/svg" fill-rule="evenodd" clip-rule="evenodd" stroke-linejoin="round" stroke-miterlimit="2"><path d="M243.447 384.5c-32.042-5.224-59.294-8.62-81.758-10.187-22.464-1.567-46.235-2.351-71.311-2.351H0V52.242c12.538 0 22.638.696 30.3 2.09V20.897c13.235 0 22.987.348 29.256 1.045V0c44.579 0 82.455 4.441 113.626 13.322 31.171 8.881 58.772 24.815 82.803 47.801 24.031-22.986 51.632-38.92 82.803-47.801S407.835 0 452.414 0v21.942c6.269-.697 16.021-1.045 29.256-1.045v33.435c7.662-1.394 17.762-2.09 30.3-2.09v319.72h-90.378c-25.076 0-48.759.784-71.049 2.351-22.29 1.567-49.63 4.963-82.02 10.187h-25.076zm4.702-309.272C209.49 35.524 151.501 15.673 74.183 15.673v278.449c36.918 0 72.181 5.311 105.79 15.933 33.609 10.623 56.334 23.945 68.176 39.965V75.228zm15.672 274.792c11.842-16.02 34.567-29.342 68.176-39.965 33.609-10.622 68.872-15.933 105.79-15.933V15.673c-77.318 0-135.307 19.851-173.966 59.555V350.02zm-29.778 6.269c-18.11-17.065-41.793-29.168-71.048-36.308-29.256-7.139-63.735-10.709-103.439-10.709V37.614c-3.483-.696-8.707-1.045-15.673-1.045v288.375h12.538c37.266 0 68.959 2.003 95.08 6.008 26.121 4.005 53.635 12.451 82.542 25.337zm43.884 0c28.907-12.886 56.421-21.332 82.542-25.337 26.121-4.005 57.814-6.008 95.08-6.008h12.538V36.569c-6.966 0-12.19.349-15.673 1.045v271.658c-39.703 0-74.183 3.57-103.438 10.709-29.256 7.14-52.939 19.243-71.049 36.308zm-51.197 11.494c-26.47-11.842-52.765-19.33-78.886-22.464-26.12-3.135-58.685-4.702-97.692-4.702H30.3V68.959c-3.483-.696-8.707-1.045-15.672-1.045v288.375h66.347c25.773 0 49.804.697 72.094 2.09 22.289 1.393 46.843 4.528 73.661 9.404zm58.51 0c26.818-4.876 51.372-8.011 73.661-9.404 22.29-1.393 46.322-2.09 72.094-2.09h66.347V67.914c-6.965 0-12.189.349-15.672 1.045v271.658h-19.852c-39.007 0-71.571 1.567-97.692 4.702-26.121 3.134-52.416 10.622-78.886 22.464z" fill-rule="nonzero"/></svg>