<svg viewBox="0 0 512 340" xmlns="http://www.w3.org/2000/svg" fill-rule="evenodd" clip-rule="evenodd" stroke-linejoin="round" stroke-miterlimit="2"><path d="M512 340.031H0V46.249h44.295V30.616c0-9.988 2.606-17.588 7.817-22.799C57.323 2.606 64.706 0 74.26 0h14.33c9.554 0 16.937 2.606 22.148 7.817 5.211 5.211 7.817 12.811 7.817 22.799v15.633h35.175V6.514H512v333.517zM234.504 103.573c19.542-14.766 42.558-22.148 69.048-22.148 26.49 0 49.507 7.382 69.049 22.148h121.16V25.405H171.969v39.084H99.013v-32.57c0-8.686-4.343-13.028-13.028-13.028h-9.12c-8.685 0-13.028 4.342-13.028 13.028v32.57H18.239v39.084h216.265zm-31.267-41.69V42.992h104.224v18.891H203.237zm183.694 20.193V42.992h87.288v39.084h-87.288zM208.448 196.071c0 16.937 4.343 32.679 13.028 47.227 8.685 14.548 20.302 26.164 34.85 34.85 14.548 8.685 30.29 13.028 47.226 13.028 16.937 0 32.679-4.343 47.227-13.028 14.548-8.686 26.164-20.302 34.849-34.85 8.686-14.548 13.028-30.29 13.028-47.227 0-16.936-4.342-32.678-13.028-47.226-8.685-14.548-20.301-26.165-34.849-34.85-14.548-8.685-30.29-13.028-47.227-13.028-16.936 0-32.678 4.343-47.226 13.028-14.548 8.685-26.165 20.302-34.85 34.85-8.685 14.548-13.028 30.29-13.028 47.226zm170.667 0c0 20.845-7.383 38.65-22.148 53.415s-32.57 22.148-53.415 22.148c-21.279 0-39.192-6.84-53.74-20.519-14.548-13.68-21.822-32.028-21.822-55.044 0-20.845 7.382-38.649 22.147-53.415 14.765-14.765 32.57-22.147 53.415-22.147s38.65 7.382 53.415 22.147c14.765 14.766 22.148 32.57 22.148 53.415zm-160.896 77.517c-19.542-21.714-29.313-47.552-29.313-77.517 0-28.227 8.685-52.763 26.056-73.608H18.239v151.125h199.98zm199.979-77.517c0 29.965-9.771 55.803-29.313 77.517h104.876V122.463H392.142c17.371 20.845 26.056 45.381 26.056 73.608zM302.249 158.29c26.056 0 39.084 13.028 39.084 39.084h19.542c0-16.936-5.537-30.941-16.61-42.015-11.074-11.074-25.079-16.611-42.016-16.611v19.542zm191.512 134.188H367.389c-19.107 12.16-40.386 18.24-63.837 18.24-23.45 0-44.729-6.08-63.837-18.24H18.239v28.662h475.522v-28.662z" fill-rule="nonzero"/></svg>