<svg viewBox="0 0 512 191" xmlns="http://www.w3.org/2000/svg" fill-rule="evenodd" clip-rule="evenodd" stroke-linejoin="round" stroke-miterlimit="2"><path d="M512 40.7c0 3.255-1.492 5.969-4.477 8.139-7.597 5.97-16.076 10.921-25.437 14.856-9.361 3.934-19.129 6.987-29.304 9.157-10.175 2.171-20.417 3.731-30.728 4.681-10.31.949-20.214 1.424-29.711 1.424-7.868 0-15.398-.271-22.588-.814-7.19-.543-14.584-1.357-22.181-2.442-9.497 3.799-19.604 7.801-30.321 12.006-10.718 4.206-21.774 8.48-33.17 12.821 3.798 2.713 7.733 5.833 11.803 9.361 4.069 3.527 7.732 7.326 10.988 11.396 3.256 4.07 5.97 8.479 8.14 13.227 2.171 4.748 3.256 9.7 3.256 14.855 0 7.055-1.763 13.228-5.291 18.519-3.527 5.29-7.936 9.632-13.227 13.023-5.291 3.392-11.192 5.902-17.704 7.53-6.512 1.628-12.888 2.442-19.129 2.442-14.923 0-28.897-3.799-41.921-11.396-1.356-.814-1.899-1.696-1.628-2.646.272-.949 1.357-.746 3.256.611 4.342 2.713 9.226 4.884 14.652 6.512 5.427 1.628 10.718 2.442 15.873 2.442 5.698 0 11.532-.95 17.501-2.849 5.969-1.899 11.396-4.613 16.28-8.14s8.886-7.869 12.006-13.024c3.12-5.155 4.68-10.989 4.68-17.501 0-8.954-2.509-16.958-7.529-24.012-5.02-7.055-10.921-13.16-17.704-18.315-18.451 6.783-36.562 13.091-54.334 18.925-17.772 5.834-33.306 10.378-46.601 13.634-10.582 2.442-21.435 4.41-32.56 5.902-11.124 1.492-21.842 2.238-32.152 2.238-4.342 0-9.7-.203-16.077-.61-6.376-.407-12.616-1.56-18.721-3.46-6.105-1.899-11.328-4.612-15.67-8.14-4.341-3.527-6.512-8.411-6.512-14.651 0-2.171.34-4.206 1.018-6.105.678-1.9 1.56-3.935 2.645-6.105h-5.698c-16.822 0-29.982-2.239-39.478-6.716C4.748 92.998 0 86.419 0 77.736c0-4.884 2.035-10.243 6.105-16.076 4.07-5.834 10.717-11.328 19.943-16.484 9.225-5.155 21.435-9.496 36.629-13.023 15.195-3.528 33.781-5.291 55.759-5.291 25.505 0 50.874 1.899 76.108 5.698 25.233 3.798 50.331 8.411 75.294 13.837 10.039-3.798 20.757-8.004 32.152-12.616 11.396-4.613 22.724-9.09 33.985-13.431 11.26-4.342 22.181-8.276 32.763-11.803C379.32 5.02 388.816 2.442 397.227.814c1.357-.271 2.578-.475 3.663-.611C401.976.068 403.197 0 404.553 0c2.442 0 4.206.136 5.291.407 1.086.271 2.442.678 4.07 1.221.814.271 1.425.746 1.832 1.424.407.679-.068 1.018-1.425 1.018-1.085 0-2.103-.136-3.052-.407-.95-.271-2.103-.407-3.46-.407-2.17 0-4.002.068-5.494.203-1.493.136-3.188.475-5.088 1.018-8.411 1.628-17.84 4.206-28.286 7.733-10.446 3.527-21.028 7.326-31.745 11.396a1298.431 1298.431 0 00-31.95 12.617c-10.581 4.341-20.349 8.139-29.303 11.395 14.109 3.256 28.015 6.648 41.717 10.175 13.702 3.528 27.743 6.512 42.124 8.954 16.822-7.054 33.577-13.634 50.264-19.739 16.686-6.105 33.984-10.921 51.892-14.448 3.527-.543 7.393-1.086 11.599-1.628 4.206-.543 8.479-.814 12.82-.814 6.241 0 12.074.746 17.501 2.238 5.427 1.492 8.14 4.274 8.14 8.344zm-10.989 4.883c0-3.255-2.306-5.697-6.919-7.325-4.612-1.628-10.853-2.442-18.722-2.442h-6.918c-2.442 0-4.749.271-6.919.814-16.823 2.713-33.035 6.986-48.636 12.82-15.602 5.834-31.135 12.006-46.601 18.518 8.14 1.357 16.28 2.442 24.419 3.256 8.14.814 16.28 1.221 24.42 1.221 2.985 0 7.19-.271 12.617-.814 5.427-.542 11.328-1.356 17.704-2.442 6.377-1.085 12.821-2.374 19.333-3.866 6.511-1.493 12.481-3.256 17.907-5.291 5.427-2.035 9.836-4.274 13.228-6.716 3.391-2.442 5.087-5.019 5.087-7.733zM340.655 74.887c-14.652-2.442-29.032-5.562-43.141-9.361-14.11-3.798-28.49-7.19-43.142-10.175-14.652 4.884-29.711 9.768-45.176 14.652 27.133 5.427 50.874 14.788 71.224 28.083 10.582-3.799 20.96-7.665 31.135-11.6 10.175-3.934 19.875-7.8 29.1-11.599zm-65.526 25.234c-9.497-6.512-20.553-12.142-33.17-16.89-12.617-4.749-25.845-8.344-39.682-10.786-10.311 3.256-21.096 6.512-32.356 9.768-11.261 3.256-22.724 6.376-34.392 9.361-11.667 2.985-23.266 5.562-34.798 7.733-11.531 2.17-22.724 3.663-33.577 4.477-.814 2.442-1.221 4.612-1.221 6.512 0 3.527 1.221 7.054 3.663 10.582 2.442 3.527 5.902 6.647 10.379 9.36 4.477 2.714 9.971 4.952 16.483 6.716 6.512 1.764 13.838 2.645 21.978 2.645 8.954 0 18.654-.746 29.1-2.238 10.446-1.492 20.824-3.46 31.135-5.902 12.481-2.984 27.201-7.258 44.159-12.82s34.391-11.735 52.299-18.518zM248.267 54.13c-24.691-5.155-49.789-9.835-75.294-14.041-25.505-4.206-51.01-6.308-76.515-6.308-15.737 0-28.897 1.221-39.479 3.663-10.582 2.442-19.128 5.562-25.64 9.36-6.512 3.799-11.125 7.937-13.838 12.414-2.714 4.477-4.07 8.886-4.07 13.227 0 5.698 1.763 10.311 5.291 13.838 3.527 3.527 7.801 6.308 12.82 8.343 5.02 2.035 10.379 3.392 16.076 4.07 5.698.679 10.582 1.018 14.652 1.018 4.07-5.427 9.225-10.107 15.466-14.042 6.241-3.934 12.888-7.122 19.943-9.564 8.954-2.985 19.807-5.426 32.559-7.326 12.753-1.899 25.506-2.849 38.258-2.849 5.698 0 11.328.204 16.89.611 5.563.407 11.193 1.153 16.891 2.238l23.605-7.326c7.869-2.442 15.331-4.884 22.385-7.326zm-52.909 17.094c-4.613-.542-9.09-1.017-13.431-1.424-4.341-.407-8.818-.611-13.431-.611-12.21 0-24.827.95-37.851 2.849-13.023 1.899-23.741 4.341-32.152 7.326-5.427 2.171-10.786 4.816-16.076 7.936-5.291 3.121-9.701 7.259-13.228 12.414 8.954-.271 18.993-1.425 30.118-3.46 11.124-2.035 22.317-4.477 33.577-7.326 11.26-2.849 22.317-5.833 33.17-8.953 10.853-3.121 20.621-6.038 29.304-8.751z" fill-rule="nonzero"/></svg>