<?xml version="1.0" encoding="UTF-8" standalone="no"?><!DOCTYPE svg PUBLIC "-//W3C//DTD SVG 1.1//EN" "http://www.w3.org/Graphics/SVG/1.1/DTD/svg11.dtd"><svg width="100%" height="100%" viewBox="0 0 512 236" version="1.1" xmlns="http://www.w3.org/2000/svg" xmlns:xlink="http://www.w3.org/1999/xlink" xml:space="preserve" xmlns:serif="http://www.serif.com/" style="fill-rule:evenodd;clip-rule:evenodd;stroke-linejoin:round;stroke-miterlimit:2;"><path d="M511.974,93.749c-0,19.753 -5.343,36.997 -16.03,51.731c-10.686,14.734 -25.906,26.311 -45.659,34.731c-11.011,16.515 -24.45,28.659 -40.317,36.431c-15.868,7.772 -31.897,11.658 -48.089,11.658c-13.925,-0 -27.202,-2.51 -39.831,-7.529c-12.629,-5.02 -24.611,-11.496 -35.945,-19.43c-11.334,-7.934 -21.939,-16.839 -31.816,-26.716c-9.877,-9.877 -19.187,-19.673 -27.93,-29.388c-9.715,10.363 -19.187,20.887 -28.416,31.574c-9.23,10.686 -19.025,20.32 -29.388,28.902c-10.362,8.581 -21.696,15.624 -34.002,21.129c-12.305,5.505 -26.392,8.258 -42.26,8.258c-12.953,0 -25.015,-2.348 -36.188,-7.043c-11.172,-4.696 -20.887,-11.334 -29.144,-19.916c-8.258,-8.581 -14.815,-18.62 -19.673,-30.116c-4.857,-11.496 -7.286,-24.044 -7.286,-37.645c0,-19.43 4.696,-37.483 14.087,-54.16c9.391,-16.678 23.801,-30.036 43.231,-40.074c9.391,-15.544 22.101,-26.959 38.131,-34.245c16.029,-7.286 32.464,-10.93 49.303,-10.93c22.344,0 44.283,6.396 65.818,19.187c21.535,12.792 44.284,33.112 68.247,60.961c9.391,-9.715 19.106,-19.43 29.145,-29.144c10.038,-9.715 20.644,-18.378 31.816,-25.988c11.172,-7.61 22.992,-13.843 35.459,-18.701c12.468,-4.857 25.825,-7.286 40.074,-7.286c13.601,0 26.311,2.348 38.131,7.043c11.82,4.696 22.101,11.253 30.845,19.673c8.743,8.419 15.543,18.377 20.401,29.873c4.857,11.496 7.286,23.883 7.286,37.16Zm-12.144,14.572c0,-13.277 -2.671,-25.987 -8.014,-38.131c-5.344,-12.144 -12.468,-22.992 -21.373,-32.545c-8.905,-9.553 -19.106,-17.163 -30.602,-22.83c-11.496,-5.667 -23.235,-8.5 -35.216,-8.5c-13.601,-0 -26.716,2.914 -39.346,8.743c-12.629,5.829 -27.687,16.192 -45.174,31.088c4.534,-1.943 8.744,-3.805 12.63,-5.586c3.885,-1.781 7.933,-3.32 12.143,-4.615c4.21,-1.295 8.743,-2.348 13.601,-3.157c4.857,-0.81 10.686,-1.215 17.487,-1.215c12.629,0 24.53,2.51 35.702,7.529c11.172,5.02 21.049,11.658 29.63,19.916c8.582,8.258 15.382,17.891 20.401,28.902c5.02,11.01 7.53,22.506 7.53,34.487c-0,9.391 -1.539,18.944 -4.615,28.659c-3.076,9.715 -6.72,17.487 -10.929,23.316c14.572,-6.477 25.906,-14.977 34.002,-25.502c8.096,-10.524 12.143,-24.044 12.143,-40.559Zm-41.774,30.602c0,-12.953 -2.59,-25.502 -7.771,-37.645c-5.182,-12.144 -12.063,-22.992 -20.645,-32.545c-8.581,-9.553 -18.458,-17.244 -29.63,-23.073c-11.172,-5.829 -22.749,-8.743 -34.731,-8.743c-8.743,-0 -16.92,1.376 -24.53,4.128c-7.61,2.753 -14.815,6.477 -21.615,11.172c-6.801,4.696 -13.277,9.877 -19.43,15.544c-6.153,5.667 -11.982,11.415 -17.487,17.244c7.772,9.067 16.758,19.268 26.959,30.602c10.201,11.334 21.049,22.02 32.545,32.059c11.496,10.039 23.477,18.539 35.945,25.502c12.467,6.962 25.016,10.443 37.645,10.443c5.505,0 10.848,-0.405 16.029,-1.214c5.182,-0.81 10.201,-2.51 15.059,-5.101c3.562,-3.562 6.395,-8.905 8.5,-16.029c2.105,-7.124 3.157,-14.572 3.157,-22.344Zm-15.058,43.717c-3.238,1.619 -7.933,3.076 -14.086,4.371c-6.153,1.296 -12.791,1.943 -19.916,1.943c-13.924,0 -27.525,-2.833 -40.802,-8.5c-13.277,-5.667 -25.907,-12.872 -37.888,-21.616c-11.982,-8.743 -23.235,-18.458 -33.759,-29.144c-10.525,-10.687 -19.997,-21.049 -28.416,-31.088l-29.631,32.545c8.096,9.715 16.92,19.915 26.473,30.602c9.553,10.686 19.916,20.482 31.088,29.387c11.172,8.905 22.992,16.273 35.459,22.102c12.468,5.828 25.502,8.743 39.103,8.743c27.525,-0 51.65,-13.115 72.375,-39.345Zm-178.268,-87.434c-8.095,-9.715 -16.272,-19.916 -24.53,-30.602c-8.257,-10.686 -17.082,-20.401 -26.473,-29.145c-9.391,-8.743 -19.753,-16.029 -31.087,-21.858c-11.334,-5.829 -24.126,-8.744 -38.374,-8.744c-18.135,0 -34.245,3.724 -48.332,11.173c-14.086,7.448 -24.853,16.677 -32.302,27.687c11.982,-6.477 25.421,-9.715 40.317,-9.715c12.306,0 24.125,2.429 35.459,7.286c11.334,4.858 22.345,11.577 33.031,20.159c10.686,8.581 21.211,18.458 31.573,29.63c10.363,11.172 20.725,23.073 31.088,35.702l29.63,-31.573Zm-41.774,46.631c-10.686,-13.601 -20.887,-26.635 -30.601,-39.102c-9.715,-12.468 -19.349,-23.559 -28.902,-33.274c-9.553,-9.715 -19.349,-17.486 -29.388,-23.315c-10.038,-5.829 -20.725,-8.744 -32.059,-8.744c-7.448,0 -14.896,1.053 -22.344,3.158c-7.448,2.104 -14.249,4.938 -20.401,8.5c-2.267,2.591 -4.696,7.448 -7.286,14.572c-2.591,7.125 -3.886,15.868 -3.886,26.231c-0,11.981 2.914,23.963 8.743,35.945c5.829,11.981 13.52,22.668 23.073,32.059c9.553,9.391 20.239,17.082 32.059,23.073c11.82,5.99 23.72,8.986 35.702,8.986c8.744,-0 16.515,-1.457 23.316,-4.372c6.8,-2.914 13.115,-6.719 18.944,-11.415c5.829,-4.695 11.415,-9.877 16.758,-15.544c5.343,-5.667 10.767,-11.253 16.272,-16.758Zm-31.573,36.431c-5.505,3.562 -10.443,6.477 -14.815,8.743c-4.372,2.267 -8.663,4.048 -12.872,5.344c-4.21,1.295 -8.663,2.185 -13.358,2.671c-4.696,0.486 -9.958,0.729 -15.787,0.729c-13.277,-0 -25.663,-2.429 -37.159,-7.286c-11.496,-4.858 -21.454,-11.496 -29.874,-19.916c-8.419,-8.419 -14.977,-18.458 -19.672,-30.116c-4.696,-11.658 -7.044,-24.287 -7.044,-37.888c0,-8.42 1.134,-16.758 3.401,-25.016c2.266,-8.257 5.343,-15.787 9.229,-22.587c-3.886,1.943 -8.42,5.1 -13.601,9.472c-5.181,4.372 -10.039,9.634 -14.572,15.787c-4.534,6.153 -8.339,13.358 -11.415,21.615c-3.077,8.258 -4.615,17.244 -4.615,26.959c0,13.601 2.672,26.473 8.015,38.617c5.343,12.143 12.467,22.749 21.373,31.816c8.905,9.067 19.187,16.191 30.844,21.373c11.658,5.181 23.964,7.772 36.917,7.772c9.391,-0 18.053,-1.377 25.987,-4.129c7.934,-2.753 15.382,-6.477 22.344,-11.172c6.963,-4.696 13.439,-9.877 19.43,-15.544c5.991,-5.667 11.739,-11.415 17.244,-17.244Z" style="fill-rule:nonzero;"/></svg>