<?xml version="1.0" encoding="UTF-8" standalone="no"?><!DOCTYPE svg PUBLIC "-//W3C//DTD SVG 1.1//EN" "http://www.w3.org/Graphics/SVG/1.1/DTD/svg11.dtd"><svg width="100%" height="100%" viewBox="0 0 266 512" version="1.1" xmlns="http://www.w3.org/2000/svg" xmlns:xlink="http://www.w3.org/1999/xlink" xml:space="preserve" xmlns:serif="http://www.serif.com/" style="fill-rule:evenodd;clip-rule:evenodd;stroke-linejoin:round;stroke-miterlimit:2;"><path d="M265.4,349.632c0,22.385 -3.91,41.167 -11.729,56.346c-7.82,15.179 -18.782,25.221 -32.888,30.128c-0.613,10.119 -2.376,19.702 -5.289,28.748c-2.913,9.046 -7.13,17.095 -12.649,24.148c-5.52,7.053 -12.266,12.649 -20.239,16.788c-7.972,4.14 -17.478,6.21 -28.518,6.21c-13.185,0 -26.294,-3.143 -39.327,-9.429c-13.032,-6.286 -25.374,-14.029 -37.027,-23.229c-11.652,-9.199 -22.232,-19.241 -31.737,-30.127c-9.506,-10.886 -17.326,-20.929 -23.459,-30.128c-0.92,-1.533 -1.763,-2.913 -2.53,-4.14c-0.766,-1.226 -1.149,-2.3 -1.149,-3.219c-0,-1.227 0.766,-1.994 2.299,-2.3c1.534,-0.307 2.607,-0.307 3.22,-0c8.586,0.613 17.096,1.15 25.528,1.61c8.433,0.46 16.789,0.996 25.068,1.609c3.067,0.307 5.673,0.23 7.82,-0.229c2.146,-0.46 3.22,-0.997 3.22,-1.61c-0,-1.227 -2.377,-2.837 -7.13,-4.83c-4.753,-1.993 -10.426,-4.063 -17.019,-6.21c-6.592,-2.146 -13.339,-4.293 -20.238,-6.439c-6.9,-2.147 -12.649,-3.986 -17.249,-5.52c-2.453,-0.613 -4.829,-1.226 -7.129,-1.84c-2.3,-0.613 -4.217,-1.226 -5.75,-1.839c-1.84,-0.614 -3.68,-1.074 -5.519,-1.38c-0.307,-0 -0.46,1.686 -0.46,5.059c-0,6.747 0.23,15.793 0.69,27.138c0.459,11.346 1.149,21.772 2.069,31.278c0.307,2.146 -0.306,3.45 -1.839,3.91c-1.534,0.46 -2.607,-0.997 -3.22,-4.37c-1.533,-9.813 -2.453,-19.625 -2.76,-29.438c-0.307,-9.812 -0.46,-19.625 -0.46,-29.438c0,-6.132 1.687,-9.199 5.06,-9.199c1.839,0 4.753,0.613 8.739,1.84c3.986,1.227 7.666,2.453 11.039,3.68c24.532,7.359 41.857,13.032 51.976,17.018c10.119,3.987 15.179,7.82 15.179,11.5c0,2.453 -1.686,3.986 -5.06,4.599c-3.373,0.613 -5.826,0.92 -7.359,0.92c-4.906,0 -12.726,-0.383 -23.458,-1.15c-10.733,-0.766 -21.159,-1.61 -31.278,-2.53c6.133,10.12 14.106,20.699 23.918,31.738c9.813,11.039 20.469,21.158 31.968,30.358c11.499,9.199 23.611,16.865 36.337,22.998c12.726,6.133 25.068,9.199 37.027,9.199c17.479,0 31.585,-6.363 42.317,-19.088c10.733,-12.726 17.019,-29.975 18.859,-51.746c-2.147,0.613 -4.14,0.92 -5.98,0.92l-4.139,-0c-15.639,-0 -28.135,-6.057 -37.488,-18.169c-9.352,-12.112 -14.029,-27.675 -14.029,-46.687c0,-15.332 2.224,-28.901 6.67,-40.706c4.446,-11.806 10.502,-24.149 18.169,-37.028c-7.053,-22.998 -13.186,-45.92 -18.399,-68.764c-5.213,-22.845 -7.819,-46.38 -7.819,-70.605c-0,-8.28 0.689,-16.866 2.069,-25.758c1.38,-8.893 3.833,-17.249 7.36,-25.068c3.526,-7.82 8.203,-14.796 14.029,-20.929c5.826,-6.133 13.185,-10.426 22.078,-12.879c0.307,-6.133 1.303,-12.572 2.99,-19.318c1.686,-6.746 3.986,-13.263 6.899,-19.549c2.913,-6.286 6.363,-12.189 10.35,-17.709c3.986,-5.519 8.432,-9.965 13.339,-13.339c2.146,-1.533 3.679,-1.839 4.599,-0.919c0.92,0.919 0.614,2.146 -0.92,3.679c-9.199,7.36 -16.635,17.096 -22.308,29.208c-5.673,12.112 -8.816,24.608 -9.429,37.487c1.533,0 3.296,-0.076 5.289,-0.23c1.993,-0.153 4.063,-0.23 6.21,-0.23c15.332,0 27.598,6.056 36.797,18.169c9.199,12.112 13.799,27.521 13.799,46.226c0,13.493 -2.07,26.602 -6.21,39.327c-4.139,12.726 -10.809,27.062 -20.008,43.007c7.053,21.159 13.186,42.854 18.399,65.085c5.213,22.232 7.819,44.694 7.819,67.385Zm-7.819,-207.444c-0,-9.199 -1.304,-17.939 -3.91,-26.218c-2.607,-8.28 -6.056,-15.409 -10.349,-21.389c-4.293,-5.979 -9.43,-10.732 -15.409,-14.258c-5.98,-3.527 -12.496,-5.29 -19.549,-5.29l-4.599,-0c2.453,21.158 6.669,43.62 12.649,67.385c5.979,23.765 12.802,46.226 20.468,67.385c1.84,-3.067 3.987,-7.283 6.44,-12.649c2.453,-5.367 4.676,-11.193 6.669,-17.479c1.993,-6.286 3.757,-12.726 5.29,-19.319c1.533,-6.592 2.3,-12.649 2.3,-18.168Zm-34.038,88.773c-2.76,-8.892 -5.673,-19.318 -8.739,-31.277c-3.067,-11.96 -5.98,-24.379 -8.74,-37.258c-2.759,-12.879 -4.982,-25.758 -6.669,-38.637c-1.687,-12.879 -2.53,-24.531 -2.53,-34.957l0,-6.44c0,-2.146 0.153,-4.293 0.46,-6.439c-22.998,6.439 -34.497,26.065 -34.497,58.875c-0,12.266 1.303,25.682 3.909,40.247c2.607,14.566 5.597,28.595 8.97,42.087c3.373,13.493 6.669,25.528 9.889,36.107c3.22,10.58 5.29,18.169 6.21,22.769c5.212,-7.973 10.425,-15.639 15.638,-22.998c5.213,-7.36 10.58,-14.719 16.099,-22.079Zm28.058,136.61c0,-22.078 -2.606,-44.08 -7.819,-66.005c-5.213,-21.925 -11.346,-43.314 -18.399,-64.165c-5.52,7.666 -10.886,15.255 -16.099,22.768c-5.213,7.513 -10.426,15.102 -15.639,22.768c7.666,24.532 14.106,48.833 19.319,72.905c5.213,24.071 7.819,48.986 7.819,74.744c10.733,-5.213 18.552,-12.726 23.459,-22.538c4.906,-9.813 7.359,-23.305 7.359,-40.477Zm-36.337,64.395c-1.84,-22.078 -6.286,-44.08 -13.339,-66.005c-7.053,-21.925 -13.952,-43.467 -20.699,-64.625c-7.052,11.959 -12.035,23.305 -14.949,34.037c-2.913,10.733 -4.369,21.465 -4.369,32.198c-0,8.586 1.226,16.865 3.68,24.838c2.453,7.973 5.826,14.949 10.119,20.928c4.293,5.98 9.199,10.81 14.719,14.489c5.519,3.68 11.192,5.52 17.018,5.52c2.454,-0 3.757,-0.077 3.91,-0.23c0.153,-0.153 1.457,-0.537 3.91,-1.15Z" style="fill-rule:nonzero;"/></svg>