<?xml version="1.0" encoding="UTF-8" standalone="no"?><!DOCTYPE svg PUBLIC "-//W3C//DTD SVG 1.1//EN" "http://www.w3.org/Graphics/SVG/1.1/DTD/svg11.dtd"><svg width="100%" height="100%" viewBox="0 0 512 125" version="1.1" xmlns="http://www.w3.org/2000/svg" xmlns:xlink="http://www.w3.org/1999/xlink" xml:space="preserve" xmlns:serif="http://www.serif.com/" style="fill-rule:evenodd;clip-rule:evenodd;stroke-linejoin:round;stroke-miterlimit:2;"><path d="M512.115,59.355c-0,13.27 -3.981,24.912 -11.943,34.925c-7.963,10.013 -17.976,17.915 -30.04,23.705c-5.308,2.655 -10.495,4.404 -15.562,5.248c-5.067,0.845 -10.375,1.267 -15.925,1.267c-9.168,-0 -18.397,-1.508 -27.686,-4.524c-9.29,-3.016 -18.398,-7.299 -27.325,-12.848c-13.512,6.032 -27.747,10.375 -42.707,13.029c-14.959,2.654 -29.798,3.981 -44.516,3.981c-26.54,0 -49.643,-4.041 -69.307,-12.124c-19.664,-8.083 -36.976,-20.087 -51.935,-36.011c-21.716,11.823 -41.199,20.509 -58.45,26.058c-17.252,5.549 -33.96,8.324 -50.126,8.324c-7.48,0 -14.658,-0.965 -21.534,-2.895c-6.877,-1.93 -12.848,-4.705 -17.915,-8.324c-5.067,-3.619 -9.108,-7.902 -12.124,-12.848c-3.016,-4.947 -4.524,-10.436 -4.524,-16.468c-0,-2.412 0.12,-4.886 0.362,-7.419c0.241,-2.533 0.965,-5.127 2.171,-7.781c-0.724,-1.207 -2.171,-3.439 -4.343,-6.696c-2.171,-3.257 -5.067,-6.213 -8.686,-8.867c3.619,-1.206 6.876,-2.835 9.772,-4.886c2.895,-2.051 6.032,-5.127 9.41,-9.229c1.93,3.378 3.86,6.153 5.79,8.325c1.931,2.171 4.705,4.584 8.325,7.238c-4.102,2.413 -7.36,4.645 -9.772,6.695c-2.413,2.051 -4.947,4.766 -7.601,8.144c-1.206,3.377 -1.93,6.032 -2.171,7.962c-0.241,1.93 -0.362,4.102 -0.362,6.514c-0,5.308 1.387,10.255 4.162,14.839c2.775,4.584 6.635,8.565 11.581,11.943c4.947,3.378 10.677,6.032 17.192,7.962c6.514,1.931 13.511,2.896 20.991,2.896c15.2,-0 31.306,-2.715 48.316,-8.143c17.01,-5.429 36.132,-13.934 57.364,-25.516c-4.102,-5.066 -8.022,-11.038 -11.762,-17.915c-3.74,-6.876 -5.61,-13.813 -5.61,-20.81c-0,-11.099 4.464,-19.724 13.391,-25.877c8.927,-6.153 20.629,-9.229 35.106,-9.229c10.134,0 21.353,1.93 33.659,5.791c12.305,3.86 25.937,10.013 40.896,18.458c15.925,-6.274 32.814,-11.763 50.669,-16.468c17.855,-4.705 36.192,-7.057 55.012,-7.057c20.026,-0 35.709,3.498 47.049,10.495c11.34,6.998 17.01,17.011 17.01,30.04c0,6.273 -1.448,12.184 -4.343,17.734c-2.895,5.549 -6.575,10.676 -11.038,15.381c-4.464,4.705 -9.29,8.867 -14.477,12.486c-5.188,3.62 -10.074,6.636 -14.658,9.048c10.858,4.826 20.63,8.385 29.316,10.677c8.686,2.292 17.13,3.438 25.334,3.438c8.927,0 16.588,-1.628 22.982,-4.886c6.394,-3.257 11.702,-7.419 15.924,-12.486c4.223,-5.067 7.299,-10.556 9.229,-16.467c1.93,-5.911 2.895,-11.521 2.895,-16.829c0,-2.654 -0.241,-4.947 -0.723,-6.877c-0.483,-1.93 -0.966,-3.74 -1.448,-5.429c-0.483,-0.965 -0.483,-1.447 -0,-1.447c0.724,-0 1.327,0.362 1.809,1.086c0.483,1.206 1.086,2.895 1.81,5.066c0.724,2.172 1.086,4.705 1.086,7.601Zm-66.593,-17.734c-0,-11.823 -5.308,-21.112 -15.925,-27.868c-10.616,-6.756 -25.696,-10.134 -45.239,-10.134c-9.169,0 -18.519,0.664 -28.049,1.991c-9.531,1.327 -18.76,3.076 -27.687,5.248c-8.927,2.171 -17.372,4.584 -25.334,7.238c-7.962,2.654 -14.96,5.308 -20.991,7.962c10.133,5.791 20.508,11.943 31.125,18.458c10.616,6.515 21.172,12.908 31.667,19.182c10.496,6.273 20.509,12.064 30.04,17.372c9.53,5.308 18.277,9.772 26.239,13.391c4.825,-2.654 9.832,-5.791 15.019,-9.41c5.188,-3.619 9.953,-7.721 14.296,-12.305c4.343,-4.585 7.902,-9.471 10.677,-14.658c2.774,-5.188 4.162,-10.677 4.162,-16.467Zm-64.422,63.697c-10.857,-7.238 -21.232,-14.597 -31.125,-22.077c-9.892,-7.479 -19.181,-14.657 -27.867,-21.534c-8.686,-6.876 -16.769,-13.21 -24.249,-19.001c-7.48,-5.79 -14.356,-10.616 -20.629,-14.476c-4.585,1.447 -10.979,3.981 -19.182,7.6c-8.204,3.619 -17.071,7.661 -26.601,12.124c-9.531,4.464 -19.061,9.109 -28.592,13.934c-9.53,4.826 -17.794,9.048 -24.791,12.667c7.238,8.686 16.829,16.648 28.772,23.887c11.944,7.238 24.551,12.667 37.821,16.286c9.169,2.654 17.794,4.404 25.877,5.248c8.083,0.844 16.95,1.267 26.601,1.267c13.994,-0 27.928,-1.207 41.802,-3.619c13.873,-2.413 27.928,-6.515 42.163,-12.306Zm-107.128,-79.26c-12.305,-7.721 -24.308,-13.511 -36.011,-17.372c-11.702,-3.86 -22.619,-5.791 -32.753,-5.791c-5.791,0 -11.22,0.664 -16.286,1.991c-5.067,1.327 -9.471,3.438 -13.211,6.333c-3.739,2.896 -6.755,6.575 -9.047,11.039c-2.293,4.464 -3.439,9.832 -3.439,16.105c0,6.032 1.146,12.125 3.439,18.277c2.292,6.153 5.609,11.401 9.952,15.744c15.201,-8.204 31.186,-16.347 47.954,-24.43c16.769,-8.083 33.237,-15.381 49.402,-21.896Z" style="fill-rule:nonzero;"/></svg>