<?xml version="1.0" encoding="UTF-8" standalone="no"?><!DOCTYPE svg PUBLIC "-//W3C//DTD SVG 1.1//EN" "http://www.w3.org/Graphics/SVG/1.1/DTD/svg11.dtd"><svg width="100%" height="100%" viewBox="0 0 512 165" version="1.1" xmlns="http://www.w3.org/2000/svg" xmlns:xlink="http://www.w3.org/1999/xlink" xml:space="preserve" xmlns:serif="http://www.serif.com/" style="fill-rule:evenodd;clip-rule:evenodd;stroke-linejoin:round;stroke-miterlimit:2;"><path d="M511.668,75.071c-10.537,7.463 -22.774,12.731 -36.713,15.804c-13.938,3.073 -28.151,4.61 -42.639,4.61c-4.39,-0 -8.944,-0.165 -13.664,-0.494c-4.719,-0.329 -9.219,-0.713 -13.499,-1.152c-4.281,-0.439 -7.957,-0.823 -11.031,-1.153c-3.073,-0.329 -5.158,-0.603 -6.255,-0.823c-0.659,11.195 -3.842,21.292 -9.549,30.292c-5.707,9 -13.445,16.627 -23.213,22.883c-9.768,6.256 -21.456,11.031 -35.066,14.323c-13.609,3.293 -28.755,4.939 -45.437,4.939c-20.634,0 -38.853,-1.976 -54.657,-5.927c-5.268,0.439 -9.329,0.714 -12.183,0.823c-2.853,0.11 -5.927,0.165 -9.219,0.165c-32.487,0 -58.608,-8.231 -78.364,-24.694c-5.926,3.731 -11.579,7.298 -16.956,10.701c-5.378,3.402 -10.866,6.365 -16.463,8.89c-5.598,2.524 -11.47,4.499 -17.616,5.926c-6.146,1.427 -12.951,2.14 -20.414,2.14c-6.146,0 -12.127,-1.042 -17.944,-3.128c-5.817,-2.085 -11.03,-5.048 -15.64,-8.889c-4.61,-3.842 -8.286,-8.451 -11.03,-13.829c-2.744,-5.378 -4.116,-11.36 -4.116,-17.945c-0,-9.878 2.524,-18.987 7.573,-27.328c5.049,-8.342 11.963,-15.53 20.743,-21.567c8.78,-6.036 19.207,-10.81 31.28,-14.323c12.073,-3.512 25.023,-5.268 38.852,-5.268c2.634,-7.463 6.146,-14.268 10.537,-20.414c4.39,-6.146 9.438,-11.414 15.145,-15.804c5.708,-4.39 11.909,-7.793 18.604,-10.207c6.694,-2.415 13.664,-3.622 20.907,-3.622c14.927,0 27.548,4.5 37.865,13.5c2.415,-1.098 5.982,-2.141 10.701,-3.128c4.719,-0.988 9.494,-1.482 14.323,-1.482c11.634,-0 22.17,2.689 31.609,8.067c9.438,5.378 17.341,13.006 23.706,22.883c4.829,-1.536 10.427,-2.853 16.792,-3.951c6.366,-1.097 12.951,-1.646 19.756,-1.646c20.634,-0 37.151,5.049 49.553,15.146c12.402,10.097 19.043,23.377 19.921,39.84c2.853,0.439 8.67,1.152 17.45,2.14c8.78,0.988 18.878,1.482 30.292,1.482c14.268,-0 28.206,-1.756 41.816,-5.268c13.609,-3.512 24.694,-8.341 33.255,-14.488c1.097,0 1.427,0.659 0.988,1.976Zm-131.704,13.17c0,-8.999 -1.646,-16.737 -4.939,-23.212c-3.292,-6.476 -7.792,-11.799 -13.499,-15.969c-5.707,-4.171 -12.347,-7.244 -19.92,-9.22c-7.573,-1.975 -15.53,-2.963 -23.872,-2.963c-8.341,-0 -15.749,0.713 -22.224,2.14c-6.476,1.427 -10.592,2.47 -12.348,3.128c0.659,1.098 1.537,2.799 2.634,5.104c1.098,2.304 2.141,4.938 3.128,7.902c0.988,2.963 1.866,6.201 2.634,9.713c0.769,3.512 1.153,7.024 1.153,10.536c14.926,2.415 29.962,4.774 45.108,7.079c15.146,2.305 29.194,4.226 42.145,5.762Zm-89.887,-13.499c-0,-3.293 -0.33,-6.531 -0.988,-9.713c-0.659,-3.183 -1.427,-6.201 -2.305,-9.055c-0.878,-2.854 -1.866,-5.433 -2.963,-7.738c-1.098,-2.304 -2.195,-4.006 -3.293,-5.103c-2.634,0.658 -5.872,1.811 -9.713,3.457c-3.841,1.646 -7.902,3.457 -12.182,5.433c-4.281,1.975 -8.616,4.061 -13.006,6.256c-4.39,2.195 -8.451,4.39 -12.183,6.585c9.878,1.756 19.207,3.457 27.987,5.103c8.78,1.647 18.329,3.238 28.646,4.775Zm89.887,16.133c-14.048,-1.756 -28.645,-3.786 -43.791,-6.091c-15.146,-2.305 -29.633,-4.555 -43.462,-6.75c-0,9.439 -1.921,18.494 -5.762,27.164c-3.842,8.671 -8.945,16.573 -15.311,23.707c-6.365,7.134 -13.664,13.17 -21.895,18.109c-8.232,4.939 -16.738,8.286 -25.518,10.042c7.683,1.537 14.542,2.58 20.579,3.128c6.036,0.549 12.896,0.823 20.578,0.823c13.171,0 26.231,-1.646 39.182,-4.938c12.951,-3.293 24.749,-7.958 35.395,-13.994c10.646,-6.036 19.536,-13.39 26.67,-22.06c7.134,-8.671 11.579,-18.384 13.335,-29.14Zm-100.753,-50.047c-5.048,-8.561 -12.237,-15.64 -21.566,-21.237c-9.329,-5.598 -19.591,-8.396 -30.786,-8.396c-4.829,-0 -9.329,0.439 -13.499,1.317c-4.171,0.878 -7.573,1.866 -10.207,2.963c2.195,2.415 4.115,5.159 5.762,8.232c1.646,3.073 2.688,5.487 3.127,7.243c0,0.878 -0.548,1.098 -1.646,0.659c-0.658,-1.756 -1.975,-4.281 -3.951,-7.573c-1.975,-3.293 -3.841,-5.817 -5.597,-7.573c-7.683,2.414 -15.146,6.805 -22.39,13.17c-7.244,6.366 -13.06,14.378 -17.451,24.036c4.83,0.659 10.207,1.372 16.134,2.14c5.927,0.769 11.963,1.647 18.109,2.634c6.146,0.988 12.183,1.976 18.11,2.964c5.926,0.987 11.304,1.92 16.133,2.798c8.122,-4.609 16.737,-9.054 25.847,-13.335c9.109,-4.28 17.067,-7.627 23.871,-10.042Zm-80.339,-26.341c-3.951,-3.292 -8.67,-6.146 -14.158,-8.56c-5.488,-2.415 -12.292,-3.622 -20.414,-3.622c-12.731,-0 -24.036,4.335 -33.914,13.006c-9.877,8.67 -16.792,20.139 -20.743,34.407c1.537,0 4.28,0.11 8.232,0.329c3.951,0.22 8.341,0.494 13.17,0.823c4.829,0.33 9.713,0.714 14.652,1.153c4.939,0.439 9.164,0.878 12.676,1.317c3.732,-8.341 9.11,-16.079 16.134,-23.213c7.024,-7.134 15.146,-12.347 24.365,-15.64Zm91.205,62.889c-4.171,-0.659 -8.835,-1.427 -13.994,-2.305c-5.158,-0.878 -10.426,-1.811 -15.804,-2.799c-5.378,-0.988 -10.701,-1.92 -15.969,-2.798c-5.268,-0.878 -10.097,-1.756 -14.488,-2.635c-2.853,1.318 -6.969,3.513 -12.347,6.586c-5.378,3.073 -11.304,6.53 -17.78,10.371c-6.475,3.842 -13.06,7.848 -19.755,12.018c-6.695,4.171 -12.896,8.122 -18.603,11.854c2.634,5.268 5.871,10.481 9.713,15.639c3.841,5.159 8.231,9.878 13.17,14.158c4.939,4.281 10.427,8.012 16.463,11.195c6.036,3.183 12.347,5.543 18.932,7.079c9.878,-1.756 19.152,-5.158 27.823,-10.207c8.67,-5.048 16.133,-11.14 22.389,-18.274c6.256,-7.134 11.195,-15.036 14.817,-23.706c3.622,-8.671 5.433,-17.396 5.433,-26.176Zm-64.535,-11.195c-4.171,-0.878 -9.329,-1.866 -15.475,-2.963c-6.146,-1.098 -12.457,-2.141 -18.932,-3.128c-6.476,-0.988 -12.512,-1.866 -18.11,-2.634c-5.597,-0.769 -9.932,-1.263 -13.005,-1.482c-1.317,3.073 -2.47,6.64 -3.458,10.701c-0.987,4.061 -1.481,8.506 -1.481,13.335c-0,5.048 0.439,9.823 1.317,14.323c0.878,4.499 2.195,8.176 3.951,11.03c3.292,-2.195 7.573,-4.884 12.841,-8.067c5.268,-3.183 10.92,-6.585 16.957,-10.207c6.036,-3.622 12.127,-7.299 18.274,-11.03c6.146,-3.732 11.853,-7.024 17.121,-9.878Zm-67.498,40.828c-1.097,-2.415 -2.305,-6.256 -3.622,-11.524c-1.317,-5.268 -1.975,-10.207 -1.975,-14.817c-0,-4.17 0.439,-8.615 1.317,-13.335c0.878,-4.719 2.085,-8.615 3.622,-11.688c-2.195,-0.439 -5.488,-0.823 -9.878,-1.153c-4.39,-0.329 -9,-0.658 -13.829,-0.987c-4.829,-0.33 -9.439,-0.604 -13.829,-0.824c-4.39,-0.219 -7.902,-0.329 -10.536,-0.329c-1.098,3.732 -1.811,7.628 -2.14,11.689c-0.33,4.061 -0.494,8.176 -0.494,12.347c-0,10.097 1.372,19.316 4.115,27.658c2.744,8.341 7.299,16.572 13.665,24.694l33.584,-21.731Zm55.974,49.389c-5.488,-1.317 -11.03,-3.567 -16.628,-6.75c-5.597,-3.183 -10.81,-6.914 -15.639,-11.195c-4.829,-4.28 -9.22,-8.945 -13.171,-13.993c-3.951,-5.049 -7.134,-10.098 -9.548,-15.146l-32.926,21.402c9.219,9.658 20.524,16.463 33.914,20.414c13.389,3.951 26.779,5.926 40.169,5.926c2.415,0 4.884,-0.055 7.408,-0.164c2.525,-0.11 4.665,-0.275 6.421,-0.494Zm-96.143,-23.378c-8.342,-8.999 -14.323,-17.999 -17.945,-26.999c-3.622,-8.999 -5.433,-19.097 -5.433,-30.292c0,-4.609 0.275,-8.835 0.823,-12.676c0.549,-3.841 1.262,-7.299 2.141,-10.372c-12.732,0 -24.859,1.592 -36.384,4.775c-11.524,3.182 -21.621,7.682 -30.291,13.499c-8.671,5.817 -15.53,12.786 -20.579,20.908c-5.049,8.122 -7.573,17.012 -7.573,26.67c0,5.927 1.262,11.359 3.787,16.298c2.524,4.939 5.871,9.274 10.042,13.006c4.171,3.732 9,6.64 14.487,8.725c5.488,2.086 11.195,3.128 17.122,3.128c7.024,0 13.554,-0.713 19.591,-2.14c6.036,-1.427 11.853,-3.347 17.45,-5.762c5.598,-2.414 11.03,-5.213 16.299,-8.396c5.268,-3.183 10.755,-6.64 16.463,-10.372Z" style="fill-rule:nonzero;"/></svg>