<?xml version="1.0" encoding="UTF-8" standalone="no"?><!DOCTYPE svg PUBLIC "-//W3C//DTD SVG 1.1//EN" "http://www.w3.org/Graphics/SVG/1.1/DTD/svg11.dtd"><svg width="100%" height="100%" viewBox="0 0 512 489" version="1.1" xmlns="http://www.w3.org/2000/svg" xmlns:xlink="http://www.w3.org/1999/xlink" xml:space="preserve" xmlns:serif="http://www.serif.com/" style="fill-rule:evenodd;clip-rule:evenodd;stroke-linejoin:round;stroke-miterlimit:2;"><path d="M512,62.61c-0,13.654 -3.121,25.649 -9.362,35.987c-6.242,10.337 -14.336,19.309 -24.284,26.916c-9.947,7.607 -20.967,13.849 -33.06,18.725c-12.093,4.876 -23.796,8.874 -35.109,11.995c-10.532,2.731 -18.724,4.974 -24.576,6.729c-5.851,1.756 -10.532,3.414 -14.043,4.974c-3.511,1.56 -6.242,3.316 -8.192,5.266c-1.951,1.951 -4.096,4.486 -6.437,7.607c-12.483,15.214 -25.063,29.452 -37.742,42.716c-12.678,13.263 -26.038,26.331 -40.082,39.204c1.951,0.78 4.291,1.17 7.022,1.17l11.118,0c6.631,0 13.263,-0.975 19.894,-2.925c6.632,-1.951 13.556,-3.999 20.773,-6.144c7.217,-2.146 14.726,-4.194 22.528,-6.144c7.802,-1.951 15.799,-2.926 23.991,-2.926c17.944,-0 32.67,4.779 44.178,14.336c11.508,9.557 17.262,24.283 17.262,44.178c-0,9.753 -1.853,19.31 -5.559,28.672c-3.706,9.363 -8.777,17.652 -15.214,24.869c-6.436,7.217 -14.043,13.068 -22.82,17.554c-8.777,4.486 -18.042,6.729 -27.795,6.729c-10.142,0 -19.212,-2.34 -27.209,-7.021c-7.997,-4.682 -15.896,-11.313 -23.698,-19.895c-3.901,-4.291 -7.802,-10.24 -11.703,-17.847c-3.901,-7.607 -7.899,-15.701 -11.995,-24.284c-4.096,-8.582 -8.29,-17.164 -12.581,-25.746c-4.291,-8.582 -8.582,-15.799 -12.873,-21.65c-18.725,16.384 -38.132,32.573 -58.222,48.567c-20.09,15.994 -40.082,30.817 -59.977,44.471c3.121,3.12 6.437,5.168 9.948,6.144c3.51,0.975 7.411,1.462 11.702,1.462c9.753,0 20.285,-1.267 31.598,-3.803c11.313,-2.536 21.455,-3.803 30.428,-3.803c19.894,-0 35.596,4.681 47.104,14.043c11.507,9.362 17.261,24.381 17.261,45.056c0,7.802 -1.658,15.799 -4.973,23.991c-3.316,8.192 -7.997,15.604 -14.044,22.235c-6.046,6.632 -13.166,12.093 -21.358,16.384c-8.192,4.291 -17.164,6.437 -26.916,6.437c-7.802,-0 -15.214,-1.658 -22.236,-4.974c-7.021,-3.316 -13.068,-7.119 -18.139,-11.41c-5.851,-5.461 -10.142,-13.361 -12.873,-23.698c-2.731,-10.338 -5.266,-21.066 -7.607,-32.183c-2.341,-11.118 -5.169,-21.553 -8.485,-31.305c-3.315,-9.753 -8.484,-16.775 -15.506,-21.066c-12.873,8.583 -23.503,15.799 -31.89,21.651c-8.387,5.851 -15.409,11.02 -21.065,15.506c-5.657,4.486 -10.24,8.485 -13.751,11.995c-3.511,3.511 -7.022,7.217 -10.533,11.118c-6.631,7.022 -12.19,15.897 -16.676,26.624c-4.486,10.728 -6.729,20.188 -6.729,28.38c-0,3.51 0.975,6.436 2.925,8.777c0.39,0.78 0.293,1.365 -0.292,1.755c-0.585,0.39 -1.268,0.195 -2.048,-0.585c-3.511,-4.291 -6.924,-9.265 -10.24,-14.921c-3.316,-5.657 -4.974,-9.46 -4.974,-11.41c0,-2.731 0.975,-6.339 2.926,-10.826c1.95,-4.486 4.583,-9.069 7.899,-13.75c3.316,-4.682 7.217,-9.46 11.703,-14.336c4.486,-4.877 9.265,-9.265 14.336,-13.166c-10.533,5.071 -19.602,9.07 -27.209,11.995c-7.607,2.926 -14.336,4.389 -20.188,4.389c-7.411,-0 -13.653,-3.023 -18.724,-9.07c-5.071,-6.046 -7.607,-14.336 -7.607,-24.868l0,-5.267c0,-1.95 0.39,-4.096 1.17,-6.436c0.39,-0.78 0.78,-1.073 1.171,-0.878c0.39,0.195 0.585,0.683 0.585,1.463c-0,11.703 3.998,19.7 11.995,23.991c7.997,4.291 16.872,6.436 26.624,6.436c3.121,0 7.607,-0.487 13.458,-1.463c5.852,-0.975 11.703,-2.828 17.555,-5.558c10.922,-5.072 22.04,-11.118 33.353,-18.14c11.313,-7.022 25.161,-15.994 41.545,-26.916c-1.56,-2.341 -5.169,-5.169 -10.825,-8.485c-5.657,-3.316 -15.116,-7.704 -28.38,-13.166c-26.916,-11.312 -45.836,-23.113 -56.758,-35.401c-10.923,-12.288 -16.384,-27.209 -16.384,-44.763c-0,-6.632 1.657,-13.556 4.973,-20.773c3.316,-7.217 7.9,-13.751 13.751,-19.602c5.852,-5.852 12.873,-10.63 21.065,-14.336c8.192,-3.706 17.36,-5.559 27.502,-5.559c17.554,-0 31.988,4.876 43.301,14.629c11.312,9.752 16.969,25.551 16.969,47.396c-0,3.901 -0.683,9.167 -2.048,15.799c-1.366,6.632 -2.926,13.946 -4.681,21.943c-1.756,7.997 -3.316,16.091 -4.682,24.283c-1.365,8.192 -2.048,15.799 -2.048,22.821c0,6.241 0.781,10.337 2.341,12.288c21.065,-14.824 41.838,-30.525 62.318,-47.104c20.48,-16.579 39.302,-32.085 56.466,-46.519c-7.412,-5.851 -15.214,-11.02 -23.406,-15.506c-8.192,-4.486 -16.384,-8.777 -24.576,-12.873c-8.192,-4.096 -15.994,-8.192 -23.405,-12.288c-7.412,-4.096 -13.849,-8.485 -19.31,-13.166c-8.192,-7.412 -14.629,-15.311 -19.31,-23.698c-4.681,-8.387 -7.022,-18.237 -7.022,-29.55c0,-8.192 1.951,-16.092 5.852,-23.698c3.901,-7.607 9.07,-14.336 15.506,-20.188c6.437,-5.851 13.946,-10.63 22.528,-14.336c8.582,-3.706 17.359,-5.559 26.332,-5.559c21.065,0 37.059,5.169 47.981,15.507c10.923,10.337 16.384,24.868 16.384,43.593c0,5.851 -1.072,12.58 -3.218,20.187c-2.146,7.607 -4.486,15.311 -7.022,23.113c-2.535,7.802 -4.876,15.312 -7.021,22.528c-2.146,7.217 -3.219,13.361 -3.219,18.432c0,4.291 0.39,8.777 1.171,13.459c0.78,4.681 2.73,8.192 5.851,10.532c13.653,-11.703 27.697,-25.063 42.13,-40.082c14.434,-15.019 27.307,-29.55 38.62,-43.593c2.34,-3.121 4.291,-7.12 5.851,-11.996c1.561,-4.876 2.633,-9.947 3.218,-15.213c0.586,-5.267 0.976,-10.533 1.171,-15.799c0.195,-5.267 0.292,-9.85 0.292,-13.751c0,-4.291 -0.195,-9.948 -0.585,-16.969c-0.39,-7.022 -0.585,-13.459 -0.585,-19.31c-0,-8.582 0.683,-16.482 2.048,-23.698c1.365,-7.217 3.023,-13.361 4.974,-18.432c4.291,-9.753 12.093,-18.822 23.405,-27.209c11.313,-8.387 26.137,-12.581 44.471,-12.581c7.412,-0 14.531,1.073 21.358,3.218c6.827,2.146 12.971,4.779 18.432,7.9c3.121,1.56 6.534,3.998 10.24,7.314c3.706,3.316 7.217,7.217 10.533,11.703c3.315,4.486 6.144,9.46 8.484,14.921c2.341,5.461 3.511,11.313 3.511,17.554Zm-14.043,-11.117c-0,-10.923 -2.146,-19.115 -6.437,-24.576c-4.291,-5.462 -9.167,-9.753 -14.629,-12.874c-2.34,4.682 -5.949,10.728 -10.825,18.14c-4.876,7.412 -9.46,14.433 -13.751,21.065l34.524,-8.777l-0,3.511l-37.449,10.532l-21.651,30.428c9.363,-0.78 19.31,-1.951 29.843,-3.511c10.532,-1.561 18.724,-3.121 24.576,-4.681l-0.585,4.096c-7.022,1.95 -15.702,3.608 -26.039,4.973c-10.338,1.366 -20.578,2.439 -30.72,3.219l-22.236,30.427c5.072,0 10.435,-0.292 16.092,-0.878c5.656,-0.585 11.215,-1.267 16.676,-2.048c5.462,-0.78 10.63,-1.56 15.507,-2.34c4.876,-0.78 8.679,-1.365 11.41,-1.756l-0,2.926c-3.511,0.78 -7.802,1.658 -12.873,2.633c-5.072,0.976 -10.435,1.853 -16.092,2.633c-5.656,0.781 -11.508,1.463 -17.554,2.048c-6.046,0.586 -11.605,1.073 -16.677,1.463l-28.672,36.279c4.291,-2.34 10.045,-4.583 17.262,-6.729c7.217,-2.146 14.726,-4.194 22.528,-6.144c27.697,-7.802 49.25,-20.285 64.658,-37.449c15.409,-17.164 23.114,-38.034 23.114,-62.61Zm-25.162,-39.205c-2.34,-1.95 -6.729,-3.803 -13.165,-5.559c-6.437,-1.755 -12.191,-2.633 -17.262,-2.633c-11.313,-0 -20.187,2.146 -26.624,6.437c-6.437,4.291 -12.971,10.727 -19.602,19.309c-7.022,8.972 -12.191,19.7 -15.507,32.183c-3.315,12.483 -5.851,25.161 -7.606,38.034c-1.756,12.874 -3.024,24.869 -3.804,35.987c-0.78,11.117 -1.95,19.992 -3.511,26.624c7.802,-9.753 16.482,-20.773 26.039,-33.061c9.557,-12.288 18.822,-24.868 27.794,-37.742c9.753,-13.263 19.505,-27.014 29.258,-41.252c9.752,-14.239 17.749,-27.014 23.99,-38.327Zm-32.182,299.008c-0,-7.022 -1.951,-13.848 -5.852,-20.48c-3.901,-6.632 -9.07,-12.483 -15.506,-17.554c-6.437,-5.072 -13.751,-9.07 -21.943,-11.996c-8.192,-2.925 -16.774,-4.388 -25.746,-4.388c-14.824,-0 -28.185,1.853 -40.083,5.559c-11.897,3.705 -23.308,5.558 -34.23,5.558l-5.852,0c-2.34,0 -5.071,-0.39 -8.192,-1.17c5.461,3.511 13.361,7.705 23.698,12.581c10.338,4.876 22.333,10.24 35.987,16.091c13.653,5.852 28.379,11.996 44.178,18.432c15.799,6.437 32.085,12.776 48.859,19.017c1.561,-2.73 2.731,-6.144 3.511,-10.24c0.78,-4.096 1.171,-7.899 1.171,-11.41Zm-165.596,-145.701c0,-9.362 -1.463,-18.139 -4.388,-26.331c-2.926,-8.192 -6.925,-15.506 -11.996,-21.943c-5.071,-6.436 -10.923,-11.508 -17.554,-15.214c-6.632,-3.705 -13.653,-5.558 -21.065,-5.558c-7.412,-0 -12.776,0.487 -16.092,1.462c-3.316,0.976 -6.144,2.243 -8.484,3.804l16.969,41.545l16.384,-37.449l2.34,1.755l-15.798,40.375l11.117,26.917l19.895,-52.078l2.341,1.755l-19.31,55.004l11.703,25.746l21.65,-50.322l2.926,1.17l-22.236,53.248l23.406,44.471c-1.56,-2.731 -2.535,-5.851 -2.926,-9.362c-0.39,-3.511 -0.585,-6.242 -0.585,-8.192c0,-5.852 0.585,-11.216 1.756,-16.092c1.17,-4.876 2.535,-9.947 4.096,-15.213c1.56,-5.267 2.925,-11.021 4.096,-17.262c1.17,-6.242 1.755,-13.653 1.755,-22.236Zm99.474,148.042l11.118,46.226l-3.511,-0l-13.458,-48.567l-25.746,-11.118l7.607,49.152l-4.096,0l-8.192,-50.907l-21.066,-9.948l1.171,29.843l-3.511,-1.756l-1.756,-30.427l-31.012,-15.214c3.901,5.461 7.704,11.801 11.41,19.017c3.706,7.217 7.509,14.434 11.41,21.651c3.901,7.216 7.9,14.043 11.996,20.48c4.096,6.436 8.289,11.41 12.58,14.921c7.802,6.631 16.482,11.703 26.039,15.213c9.558,3.511 18.822,5.267 27.795,5.267c12.873,-0 23.405,-2.926 31.597,-8.777c8.192,-5.852 14.629,-13.264 19.31,-22.236l-59.685,-22.82Zm-112.347,-62.026c-6.632,-10.922 -13.263,-22.82 -19.895,-35.693c-6.631,-12.873 -12.971,-25.844 -19.017,-38.912c-6.046,-13.068 -11.703,-25.942 -16.969,-38.62c-5.266,-12.678 -10.045,-24.283 -14.336,-34.816c-5.071,2.731 -10.045,6.827 -14.921,12.288c-4.876,5.462 -7.315,14.824 -7.315,28.087c0,16.384 3.024,30.33 9.07,41.838c6.047,11.508 12.581,20.187 19.602,26.039c7.022,5.851 13.264,10.435 18.725,13.751c5.461,3.315 10.63,6.339 15.506,9.069c4.876,2.731 9.655,5.267 14.336,7.607c4.681,2.341 9.753,5.461 15.214,9.362Zm-110.007,23.991c0,-7.802 -1.17,-16.091 -3.511,-24.868c-2.34,-8.777 -5.851,-16.872 -10.532,-24.284c-4.681,-7.412 -10.338,-13.556 -16.969,-18.432c-6.632,-4.876 -14.239,-7.314 -22.821,-7.314c-7.412,-0 -13.458,1.17 -18.139,3.511l15.213,35.108l12.873,-28.086l2.341,1.17l-13.458,30.427l10.532,26.332l17.555,-43.301l2.34,2.341l-16.969,45.641l12.288,28.087l19.31,-43.301l2.34,1.17l-19.309,46.227c1.95,5.461 5.071,12.385 9.362,20.772c4.291,8.387 8.192,15.897 11.703,22.528c-0.39,-1.17 -0.585,-2.535 -0.585,-4.096l-0,-5.266c-0,-10.923 1.072,-21.65 3.218,-32.183c2.145,-10.532 3.218,-21.26 3.218,-32.183Zm145.701,148.627c-0,-6.632 -2.048,-13.361 -6.144,-20.188c-4.096,-6.827 -9.558,-13.068 -16.384,-18.724c-6.827,-5.657 -14.726,-10.338 -23.699,-14.044c-8.972,-3.706 -18.139,-5.559 -27.501,-5.559c-5.462,0 -12.581,0.683 -21.358,2.048c-8.777,1.366 -15.311,2.048 -19.602,2.048l-5.852,0c-2.34,0 -4.486,-0.195 -6.436,-0.585c7.802,6.242 16.969,12.971 27.501,20.188c10.533,7.216 21.456,14.336 32.768,21.357c11.313,7.022 22.333,13.751 33.061,20.188c10.728,6.436 20.187,12.19 28.379,17.261c3.511,-7.411 5.267,-15.408 5.267,-23.99Zm-156.819,-76.069c-11.702,-21.455 -22.918,-44.568 -33.645,-69.339c-10.728,-24.771 -21.163,-49.055 -31.305,-72.851c-17.945,6.632 -26.917,19.505 -26.917,38.62c-0,13.653 3.316,27.209 9.947,40.667c6.632,13.458 15.019,24.089 25.162,31.89c9.752,7.412 19.114,13.069 28.086,16.97c8.973,3.901 18.53,8.582 28.672,14.043Zm103.571,75.483l5.851,44.471l-2.926,0l-6.436,-46.226l-23.406,-15.214l-2.926,48.567l-2.925,-1.755l1.755,-49.152l-17.554,-11.703l-7.607,28.087l-1.755,-2.341l5.851,-28.087l-28.087,-21.065c4.291,5.852 7.607,12.581 9.948,20.188c2.34,7.606 4.778,15.311 7.314,23.113c2.535,7.802 5.656,15.604 9.362,23.405c3.706,7.802 8.875,15.019 15.506,21.651c12.093,12.093 26.137,18.139 42.131,18.139c9.752,0 17.944,-2.145 24.576,-6.436c6.631,-4.291 12.288,-10.338 16.969,-18.14l-45.641,-27.502Z"/></svg>