<?xml version="1.0" encoding="UTF-8" standalone="no"?><!DOCTYPE svg PUBLIC "-//W3C//DTD SVG 1.1//EN" "http://www.w3.org/Graphics/SVG/1.1/DTD/svg11.dtd"><svg width="100%" height="100%" viewBox="0 0 512 184" version="1.1" xmlns="http://www.w3.org/2000/svg" xmlns:xlink="http://www.w3.org/1999/xlink" xml:space="preserve" xmlns:serif="http://www.serif.com/" style="fill-rule:evenodd;clip-rule:evenodd;stroke-linejoin:round;stroke-miterlimit:2;"><path d="M511.963,24.415c-0,8.764 -5.572,15.964 -16.715,21.598c-11.143,5.634 -27.983,8.827 -50.52,9.578c-0.501,7.512 -3.13,15.15 -7.888,22.912c9.015,2.755 16.903,7.513 23.664,14.274c6.761,6.761 10.141,14.899 10.141,24.415c0,8.514 -2.942,16.402 -8.827,23.664c-5.884,7.261 -13.522,13.522 -22.912,18.78c-9.391,5.259 -19.97,9.328 -31.74,12.208c-11.769,2.879 -23.538,4.319 -35.307,4.319c-8.514,0 -17.028,-0.688 -25.542,-2.066c-8.514,-1.377 -17.905,-3.693 -28.171,-6.948c-10.267,-3.256 -21.974,-7.638 -35.12,-13.147c-13.147,-5.509 -28.86,-12.395 -47.14,-20.659c-9.265,6.761 -18.53,13.209 -27.795,19.344c-9.266,6.135 -18.406,11.457 -27.42,15.964c-9.015,4.507 -17.905,8.076 -26.669,10.705c-8.764,2.629 -17.278,3.944 -25.542,3.944c-12.52,0 -22.724,-3.068 -30.612,-9.203c-7.888,-6.135 -12.458,-14.085 -13.71,-23.851c-2.755,0.501 -6.636,1.064 -11.644,1.69c-5.009,0.626 -9.892,0.939 -14.649,0.939c-8.264,0 -15.901,-1.064 -22.913,-3.193c-7.011,-2.128 -13.146,-5.258 -18.405,-9.39c-5.259,-4.132 -9.328,-9.202 -12.207,-15.212c-2.88,-6.01 -4.32,-12.896 -4.32,-20.659c-0,-10.768 3.255,-20.095 9.766,-27.983c6.511,-7.888 15.025,-14.399 25.542,-19.532c10.517,-5.134 22.411,-8.953 35.683,-11.457c13.272,-2.504 26.669,-3.756 40.191,-3.756c2.003,-6.51 5.822,-12.332 11.456,-17.466c5.634,-5.133 12.396,-9.515 20.283,-13.146c7.888,-3.631 16.715,-6.386 26.481,-8.264c9.766,-1.878 19.657,-2.817 29.674,-2.817c8.764,0 18.342,0.814 28.734,2.441c10.392,1.628 20.847,3.631 31.364,6.01c10.517,2.379 20.722,4.946 30.613,7.7c9.891,2.755 18.718,5.259 26.481,7.513c12.52,-6.261 24.289,-11.144 35.307,-14.649c11.018,-3.506 23.289,-5.259 36.811,-5.259c6.26,0 12.645,0.877 19.156,2.629c6.511,1.753 11.894,3.757 16.151,6.01c7.262,-2.504 14.9,-4.757 22.913,-6.761c8.013,-2.003 17.028,-3.005 27.044,-3.005c11.769,0 21.097,2.191 27.984,6.574c6.886,4.382 10.329,9.453 10.329,15.212Zm-11.269,1.878c0,-5.509 -2.504,-10.204 -7.512,-14.086c-5.008,-3.881 -12.771,-5.822 -23.288,-5.822c-9.265,0 -17.153,0.752 -23.664,2.254c-6.51,1.503 -13.021,3.506 -19.532,6.01c5.76,3.756 10.33,9.265 13.71,16.527c3.381,7.262 4.821,14.273 4.32,21.034c17.028,0 30.612,-2.191 40.754,-6.573c10.142,-4.382 15.212,-10.83 15.212,-19.344Zm-65.357,25.542c0.501,-6.511 -1.064,-13.021 -4.695,-19.532c-3.631,-6.511 -7.95,-11.394 -12.958,-14.649c-2.504,1.002 -5.697,2.316 -9.579,3.944c-3.881,1.628 -7.887,3.506 -12.019,5.634c-4.132,2.129 -8.201,4.257 -12.208,6.386c-4.006,2.128 -7.512,4.069 -10.517,5.822c3.756,1.001 8.201,2.191 13.334,3.568c5.134,1.377 10.455,2.692 15.964,3.944c5.509,1.252 11.081,2.316 16.715,3.193c5.634,0.876 10.955,1.439 15.963,1.69Zm-20.658,-36.059c-3.256,-2.504 -7.7,-4.57 -13.335,-6.198c-5.634,-1.627 -11.08,-2.441 -16.339,-2.441c-11.018,-0 -21.535,1.44 -31.552,4.319c-10.016,2.88 -21.034,7.325 -33.054,13.335c3.256,1.001 7.325,2.191 12.208,3.568c4.883,1.377 9.766,2.754 14.649,4.132c4.883,1.377 9.328,2.566 13.334,3.568c4.007,1.002 6.761,1.753 8.264,2.254c4.006,-2.254 8.201,-4.508 12.583,-6.761c4.382,-2.254 8.702,-4.445 12.958,-6.574c4.257,-2.128 8.139,-4.006 11.645,-5.634c3.505,-1.628 6.385,-2.817 8.639,-3.568Zm21.034,39.815c-10.267,-0 -21.66,-0.563 -34.181,-1.69c-12.52,-1.127 -26.418,-3.318 -41.693,-6.574c-10.517,5.76 -20.721,11.832 -30.613,18.218c-9.891,6.385 -19.594,13.209 -29.11,20.471c15.025,5.759 29.173,10.392 42.445,13.898c13.271,3.505 23.538,5.258 30.8,5.258c13.522,0 24.978,-2.191 34.369,-6.573c9.39,-4.382 16.589,-10.58 21.598,-18.593c-1.503,-0.501 -4.257,-0.751 -8.264,-0.751c-2.254,-0 -5.071,0.188 -8.451,0.563c-3.381,0.376 -6.573,1.064 -9.578,2.066c-1.002,0.501 -1.628,0.376 -1.878,-0.376c-0.251,-0.751 0.25,-1.377 1.502,-1.878c2.254,-1.001 5.259,-1.753 9.015,-2.253c3.756,-0.501 7.387,-0.752 10.893,-0.752c1.502,0 3.005,0.063 4.507,0.188c1.502,0.125 2.629,0.188 3.381,0.188c1.502,-3.255 2.691,-6.761 3.568,-10.517c0.876,-3.756 1.44,-7.387 1.69,-10.893Zm-80.381,-9.39c-6.511,-1.753 -14.462,-3.819 -23.852,-6.198c-9.39,-2.379 -17.716,-4.695 -24.978,-6.949c-4.758,3.005 -9.892,6.198 -15.401,9.578c-5.509,3.381 -10.83,6.699 -15.963,9.954c-5.134,3.255 -9.954,6.26 -14.461,9.015c-4.508,2.754 -8.139,5.133 -10.893,7.137c3.756,1.252 7.825,2.691 12.207,4.319c4.382,1.628 8.702,3.193 12.959,4.695c4.257,1.503 8.264,2.88 12.02,4.132c3.756,1.252 6.886,2.254 9.39,3.005c10.016,-7.262 19.72,-13.96 29.11,-20.095c9.391,-6.135 19.344,-12.333 29.862,-18.593Zm104.42,71.366c0,-19.782 -8.388,-31.927 -25.166,-36.434c-6.51,8.764 -16.151,15.963 -28.922,21.598c-12.771,5.634 -28.547,8.451 -47.328,8.451c-6.009,-0 -11.581,-0.376 -16.714,-1.127c-5.134,-0.751 -10.33,-1.878 -15.588,-3.38c-5.259,-1.503 -10.893,-3.318 -16.903,-5.447c-6.01,-2.128 -12.896,-4.445 -20.659,-6.949c-7.011,5.009 -14.211,10.267 -21.598,15.776c-7.387,5.509 -14.711,10.893 -21.973,16.152c7.011,2.754 16.151,6.573 27.42,11.456c11.268,4.883 23.35,9.641 36.247,14.273c12.896,4.633 26.105,8.702 39.627,12.208c13.522,3.505 26.042,5.258 37.561,5.258c8.765,0 17.529,-0.876 26.293,-2.629c8.765,-1.753 16.715,-4.695 23.852,-8.827c7.137,-4.132 12.896,-9.453 17.278,-15.964c4.382,-6.51 6.573,-14.649 6.573,-24.415Zm-156.631,-85.64c-8.013,-2.504 -17.216,-5.258 -27.608,-8.263c-10.392,-3.005 -20.909,-5.885 -31.551,-8.639c-10.643,-2.755 -20.909,-5.071 -30.801,-6.949c-9.891,-1.878 -18.342,-2.817 -25.354,-2.817c-18.78,-0 -33.93,3.005 -45.449,9.014c-11.519,6.01 -18.53,15.275 -21.034,27.796c13.271,0.501 30.487,2.504 51.647,6.01c21.159,3.505 45.637,10.016 73.432,19.532c3.005,-2.004 6.887,-4.57 11.644,-7.7c4.758,-3.131 9.892,-6.386 15.401,-9.766c5.509,-3.381 10.892,-6.699 16.151,-9.954c5.259,-3.256 9.766,-6.01 13.522,-8.264Zm-18.029,61.225c-6.01,-2.253 -13.21,-4.945 -21.598,-8.075c-8.389,-3.13 -16.465,-6.073 -24.227,-8.827c-8.014,5.258 -16.152,10.454 -24.415,15.588c-8.264,5.133 -16.402,10.204 -24.415,15.212c3.005,0.751 6.573,1.816 10.705,3.193c4.131,1.377 8.514,2.88 13.146,4.507c4.633,1.628 9.328,3.318 14.086,5.071c4.758,1.753 9.14,3.506 13.146,5.259c7.513,-5.76 14.837,-11.206 21.974,-16.34c7.136,-5.133 14.336,-10.329 21.598,-15.588Zm-49.206,-18.405c-15.275,-5.258 -28.86,-9.703 -40.754,-13.334c-11.895,-3.631 -22.474,-6.636 -31.74,-9.015c-9.265,-2.379 -17.403,-4.132 -24.415,-5.258c-7.011,-1.127 -13.146,-1.816 -18.405,-2.066l-0.751,5.634c-0.751,5.509 -0.501,10.016 0.751,13.522c1.252,3.506 2.943,6.26 5.071,8.264c2.129,2.003 4.382,3.443 6.761,4.319c2.379,0.877 4.445,1.315 6.198,1.315c0.751,-0 0.939,0.313 0.563,0.939c-0.375,0.626 -1.189,0.814 -2.441,0.563c-1.753,0 -4.195,-0.5 -7.325,-1.502c-3.13,-1.002 -6.135,-2.629 -9.014,-4.883c-2.88,-2.254 -5.384,-5.196 -7.513,-8.827c-2.128,-3.631 -3.192,-8.076 -3.192,-13.334c-0,-2.254 0.25,-4.383 0.751,-6.386c-10.768,0 -21.849,0.814 -33.242,2.442c-11.394,1.627 -21.723,4.57 -30.988,8.827c-9.266,4.257 -16.84,10.204 -22.725,17.841c-5.885,7.638 -8.827,17.341 -8.827,29.11c-0,15.025 4.069,26.606 12.207,34.745c8.139,8.138 18.719,12.207 31.74,12.207c5.008,0 9.891,-0.25 14.649,-0.751c4.758,-0.501 8.514,-1.127 11.268,-1.878c0.251,-7.262 2.254,-13.71 6.01,-19.344c3.756,-5.634 8.764,-10.517 15.025,-14.649c6.26,-4.132 13.271,-7.262 21.034,-9.391c7.763,-2.128 15.776,-3.192 24.04,-3.192c7.261,-0 14.335,0.688 21.222,2.066c6.886,1.377 11.706,2.441 14.461,3.192c8.263,-4.757 16.527,-9.766 24.79,-15.024c8.264,-5.259 16.528,-10.643 24.791,-16.152Zm-3.38,57.094c-8.765,-3.506 -17.717,-7.2 -26.857,-11.081c-9.14,-3.881 -16.84,-6.824 -23.1,-8.827c-11.269,5.76 -23.727,11.707 -37.374,17.842c-13.647,6.135 -29.486,11.957 -47.515,17.466c1.753,8.764 6.323,15.776 13.71,21.034c7.387,5.259 15.963,7.888 25.729,7.888c8.013,0 16.089,-1.252 24.228,-3.756c8.138,-2.504 16.276,-5.822 24.414,-9.954c8.139,-4.131 16.152,-8.889 24.04,-14.273c7.888,-5.384 15.463,-10.83 22.725,-16.339Zm-53.713,-21.41c-3.256,-1.503 -7.826,-2.88 -13.71,-4.132c-5.885,-1.252 -11.582,-1.878 -17.091,-1.878c-14.774,-0 -27.044,2.88 -36.81,8.639c-9.766,5.759 -14.649,14.148 -14.649,25.166l-0,3.005c-0,1.252 0.125,2.254 0.376,3.005c5.258,-1.252 11.393,-3.13 18.405,-5.634c7.011,-2.504 14.273,-5.321 21.785,-8.451c7.513,-3.131 14.962,-6.386 22.349,-9.766c7.388,-3.381 13.836,-6.699 19.345,-9.954Z" style="fill-rule:nonzero;"/></svg>