<svg viewBox="0 0 512 346" xmlns="http://www.w3.org/2000/svg" fill-rule="evenodd" clip-rule="evenodd" stroke-linejoin="round" stroke-miterlimit="2"><path d="M495.134 204.404c0 4.631 2.811 10.419 8.434 17.364 2.646 3.969 4.713 7.277 6.202 9.923 1.488 2.646 2.232 5.457 2.232 8.434v82.853c0 15.215-7.607 22.822-22.822 22.822H22.822C7.607 345.8 0 338.193 0 322.978v-82.853c0-2.977.744-5.788 2.233-8.434 1.488-2.646 3.555-5.954 6.201-9.923 5.623-6.945 8.434-12.733 8.434-17.364V22.822C16.868 7.607 24.476 0 39.69 0h432.622c15.215 0 22.822 7.607 22.822 22.822v181.582zm2.977 43.659c0-4.961-2.812-10.915-8.434-17.86-2.646-3.969-4.714-7.277-6.202-9.923-1.488-2.646-2.233-5.623-2.233-8.93V24.31c0-6.615-3.307-9.922-9.922-9.922H40.682c-6.615 0-9.922 3.307-9.922 9.922v187.04c0 3.307-.744 6.284-2.233 8.93-1.488 2.646-3.555 5.954-6.201 9.923-5.623 6.945-8.434 12.899-8.434 17.86v73.427c0 6.615 3.307 9.922 9.922 9.922H70.45l16.868-60.527c1.985-7.938 4.961-13.809 8.93-17.613 3.97-3.803 9.592-5.705 16.869-5.705h285.769c7.276 0 12.899 1.902 16.868 5.705 3.969 3.804 6.946 9.675 8.93 17.613l16.868 60.527h46.636c6.615 0 9.923-3.307 9.923-9.922v-73.427zM433.614 69.954c15.215 0 22.822 7.607 22.822 22.822v117.085c0 15.215-7.607 22.822-22.822 22.822H78.388c-15.215 0-22.822-7.607-22.822-22.822V92.776c0-15.215 7.607-22.822 22.822-22.822h355.226zM79.38 84.341c-6.615 0-9.922 3.308-9.922 9.923v32.744c4.63-16.868 14.553-31.09 29.767-42.667H79.38zm140.9 66.481c0-15.876-4.465-29.767-13.395-41.674-8.931-11.907-20.672-20.176-35.225-24.807h-43.659c-14.553 4.631-26.295 12.9-35.225 24.807-8.931 11.907-13.396 25.798-13.396 41.674 0 15.876 4.465 29.933 13.396 42.171 8.93 12.238 20.672 20.672 35.225 25.303h43.659c14.553-4.631 26.294-13.065 35.225-25.303 8.93-12.238 13.395-26.295 13.395-42.171zm222.265 49.613c0-26.129-3.556-45.974-10.667-59.535s-20.093-23.153-38.946-28.775c4.961 4.961 8.848 10.832 11.659 17.612 2.811 6.78 4.217 13.809 4.217 21.085 0 15.876-5.457 29.272-16.372 40.187-10.915 10.914-24.31 16.372-40.186 16.372-15.876 0-29.272-5.458-40.187-16.372-10.914-10.915-16.372-24.311-16.372-40.187 0-15.545 5.458-28.692 16.372-39.442 10.915-10.749 24.311-16.124 40.187-16.124 22.821 0 41.757 2.977 56.806 8.931 15.049 5.953 26.212 15.545 33.489 28.775V94.264c0-6.615-3.308-9.923-9.923-9.923H200.435c10.253 7.608 18.439 17.282 24.558 29.024s9.179 24.227 9.179 37.457c0 13.561-3.143 26.295-9.427 38.202-6.284 11.907-14.718 21.664-25.302 29.272h233.179c6.615 0 9.923-3.308 9.923-9.923v-7.938zM93.272 150.822c0-15.545 5.457-28.692 16.372-39.442 10.915-10.749 24.31-16.124 40.186-16.124 15.876 0 29.272 5.375 40.186 16.124 10.915 10.75 16.373 23.897 16.373 39.442 0 15.876-5.458 29.272-16.373 40.187-10.914 10.914-24.31 16.372-40.186 16.372-15.876 0-29.271-5.458-40.186-16.372-10.915-10.915-16.372-24.311-16.372-40.187zm99.225 0c0-11.576-4.134-21.416-12.403-29.519-8.269-8.104-18.357-12.155-30.264-12.155s-21.995 4.051-30.264 12.155c-8.268 8.103-12.403 17.943-12.403 29.519 0 11.907 4.135 21.995 12.403 30.264 8.269 8.269 18.357 12.403 30.264 12.403s21.995-4.134 30.264-12.403c8.269-8.269 12.403-18.357 12.403-30.264zm202.419 0c0-11.576-4.134-21.416-12.403-29.519-8.268-8.104-18.356-12.155-30.263-12.155s-21.995 4.051-30.264 12.155c-8.269 8.103-12.403 17.943-12.403 29.519 0 11.907 4.134 21.995 12.403 30.264 8.269 8.269 18.357 12.403 30.264 12.403s21.995-4.134 30.263-12.403c8.269-8.269 12.403-18.357 12.403-30.264zm-272.869 0c0-7.276 2.729-13.56 8.186-18.852 5.458-5.292 11.99-7.938 19.597-7.938 7.607 0 14.14 2.646 19.597 7.938 5.458 5.292 8.186 11.576 8.186 18.852 0 7.938-2.646 14.553-7.938 19.845-5.292 5.292-11.907 7.938-19.845 7.938-7.938 0-14.553-2.646-19.845-7.938-5.292-5.292-7.938-11.907-7.938-19.845zm202.42 0c0-7.276 2.728-13.56 8.186-18.852 5.457-5.292 11.989-7.938 19.597-7.938 7.607 0 14.139 2.646 19.597 7.938 5.457 5.292 8.186 11.576 8.186 18.852 0 7.938-2.646 14.553-7.938 19.845-5.292 5.292-11.907 7.938-19.845 7.938-7.938 0-14.553-2.646-19.845-7.938-5.292-5.292-7.938-11.907-7.938-19.845zm-160.745 0c0-3.638-1.406-6.863-4.217-9.674-2.812-2.811-6.037-4.217-9.675-4.217-3.307 0-6.45 1.406-9.426 4.217-2.977 2.811-4.465 6.036-4.465 9.674 0 3.969 1.405 7.442 4.217 10.419 2.811 2.977 6.036 4.465 9.674 4.465s6.863-1.488 9.675-4.465c2.811-2.977 4.217-6.45 4.217-10.419zm202.419 0c0-3.638-1.406-6.863-4.217-9.674-2.811-2.811-6.036-4.217-9.674-4.217-3.308 0-6.45 1.406-9.427 4.217-2.977 2.811-4.465 6.036-4.465 9.674 0 3.969 1.406 7.442 4.217 10.419 2.812 2.977 6.036 4.465 9.675 4.465 3.638 0 6.863-1.488 9.674-4.465 2.811-2.977 4.217-6.45 4.217-10.419zM69.458 208.373c0 6.615 3.307 9.923 9.922 9.923h20.838c-15.877-11.246-26.13-25.799-30.76-43.66v33.737zm339.846 63.504c-1.984-6.615-6.284-9.922-12.899-9.922H115.597c-6.615 0-10.914 3.307-12.899 9.922L85.83 331.412h340.342l-16.868-59.535zm-152.311 24.807c-3.969 0-7.111-1.241-9.426-3.721-2.315-2.481-3.473-5.541-3.473-9.179 0-3.307 1.24-6.119 3.721-8.434 2.481-2.315 5.54-3.473 9.178-3.473 3.308 0 6.119 1.241 8.435 3.721 2.315 2.481 3.472 5.209 3.472 8.186 0 3.638-1.157 6.698-3.472 9.179-2.316 2.48-5.127 3.721-8.435 3.721zM136.931 321.49c-3.969 0-7.111-1.241-9.427-3.721-2.315-2.481-3.472-5.54-3.472-9.178 0-3.308 1.24-6.119 3.721-8.435 2.48-2.315 5.54-3.472 9.178-3.472 3.307 0 6.119 1.24 8.434 3.72 2.315 2.481 3.473 5.21 3.473 8.187 0 3.638-1.158 6.697-3.473 9.178-2.315 2.48-5.127 3.721-8.434 3.721zm53.581 0c-3.969 0-7.111-1.241-9.426-3.721-2.315-2.481-3.473-5.54-3.473-9.178 0-3.308 1.241-6.119 3.721-8.435 2.481-2.315 5.54-3.472 9.178-3.472 3.308 0 6.119 1.24 8.435 3.72 2.315 2.481 3.473 5.21 3.473 8.187 0 3.638-1.158 6.697-3.473 9.178-2.316 2.48-5.127 3.721-8.435 3.721zm131.97 0c-3.969 0-7.111-1.241-9.426-3.721-2.316-2.481-3.473-5.54-3.473-9.178 0-3.308 1.24-6.119 3.721-8.435 2.48-2.315 5.54-3.472 9.178-3.472 3.308 0 6.119 1.24 8.434 3.72 2.315 2.481 3.473 5.21 3.473 8.187 0 3.638-1.158 6.697-3.473 9.178-2.315 2.48-5.126 3.721-8.434 3.721zm52.589 0c-3.969 0-7.111-1.241-9.426-3.721-2.315-2.481-3.473-5.54-3.473-9.178 0-3.308 1.24-6.119 3.721-8.435 2.481-2.315 5.54-3.472 9.178-3.472 3.308 0 6.119 1.24 8.435 3.72 2.315 2.481 3.472 5.21 3.472 8.187 0 3.638-1.157 6.697-3.472 9.178-2.316 2.48-5.127 3.721-8.435 3.721z" fill-rule="nonzero"/></svg>